999
dxfrw 0.6.3
  0
SECTION
  2
HEADER
  9
$ACADVER
  1
AC1021
  9
$DWGCODEPAGE
  3
ANSI_936
  9
$INSBASE
 10
0
 20
0
 30
0
  9
$EXTMIN
 10
12.58582573639953
 20
-294.0429505363471
 30
0
  9
$EXTMAX
 10
212.3593193414966
 20
-13.73630972977071
 30
0
  9
$LIMMIN
 10
0
 20
0
  9
$LIMMAX
 10
420
 20
297
  9
$ORTHOMODE
 70
    0
  9
$REGENMODE
 70
    1
  9
$FILLMODE
 70
    1
  9
$QTEXTMODE
 70
    0
  9
$MIRRTEXT
 70
    0
  9
$LTSCALE
 40
1
  9
$ATTMODE
 70
    1
  9
$TEXTSIZE
 40
2.5
  9
$TRACEWID
 40
1
  9
$TEXTSTYLE
  7
Standard
  9
$CLAYER
  8
0
  9
$CELTYPE
  6
ByLayer
  9
$CECOLOR
 62
  256
  9
$CELTSCALE
 40
1
  9
$DISPSILH
 70
    0
  9
$DIMSCALE
 40
1
  9
$DIMASZ
 40
2.5
  9
$DIMEXO
 40
0.625
  9
$DIMDLI
 40
3.75
  9
$DIMRND
 40
0
  9
$DIMDLE
 40
0
  9
$DIMEXE
 40
1.25
  9
$DIMTP
 40
0
  9
$DIMTM
 40
0
  9
$DIMTXT
 40
2.5
  9
$DIMCEN
 40
2.5
  9
$DIMTSZ
 40
0
  9
$DIMTOL
 70
    0
  9
$DIMLIM
 70
    0
  9
$DIMTIH
 70
    0
  9
$DIMTOH
 70
    0
  9
$DIMSE1
 70
    0
  9
$DIMSE2
 70
    0
  9
$DIMTAD
 70
    1
  9
$DIMZIN
 70
    8
  9
$DIMBLK
  1

  9
$DIMASO
 70
    1
  9
$DIMSHO
 70
    1
  9
$DIMPOST
  1

  9
$DIMAPOST
  1

  9
$DIMALT
 70
    0
  9
$DIMALTD
 70
    3
  9
$DIMALTF
 40
0.03937007874016
  9
$DIMLFAC
 40
1
  9
$DIMTOFL
 70
    1
  9
$DIMTVP
 40
0
  9
$DIMTIX
 70
    0
  9
$DIMSOXD
 70
    0
  9
$DIMSAH
 70
    0
  9
$DIMBLK1
  1

  9
$DIMBLK2
  1

  9
$DIMSTYLE
  2
ISO-25
  9
$DIMCLRD
 70
    0
  9
$DIMCLRE
 70
    0
  9
$DIMCLRT
 70
    0
  9
$DIMTFAC
 40
1
  9
$DIMGAP
 40
0.625
  9
$DIMJUST
 70
    0
  9
$DIMSD1
 70
    0
  9
$DIMSD2
 70
    0
  9
$DIMTOLJ
 70
    0
  9
$DIMTZIN
 70
    8
  9
$DIMALTZ
 70
    0
  9
$DIMALTTZ
 70
    0
  9
$DIMUPT
 70
    0
  9
$DIMDEC
 70
    2
  9
$DIMTDEC
 70
    2
  9
$DIMALTU
 70
    2
  9
$DIMALTTD
 70
    3
  9
$DIMTXSTY
  7
Standard
  9
$DIMAUNIT
 70
    0
  9
$DIMADEC
 70
    0
  9
$DIMALTRND
 40
0
  9
$DIMAZIN
 70
    0
  9
$DIMDSEP
 70
   44
  9
$DIMATFIT
 70
    3
  9
$DIMFRAC
 70
    0
  9
$DIMLDRBLK
  1

  9
$DIMLUNIT
 70
    2
  9
$DIMLWD
 70
   -2
  9
$DIMLWE
 70
   -2
  9
$DIMTMOVE
 70
    0
  9
$DIMFXL
 40
1
  9
$DIMFXLON
 70
    0
  9
$DIMJOGANG
 40
0.7853981633974483
  9
$DIMTFILL
 70
    0
  9
$DIMTFILLCLR
 70
    0
  9
$DIMARCSYM
 70
    0
  9
$DIMLTYPE
  6

  9
$DIMLTEX1
  6

  9
$DIMLTEX2
  6

  9
$LUNITS
 70
    2
  9
$LUPREC
 70
    4
  9
$SKETCHINC
 40
1
  9
$FILLETRAD
 40
0
  9
$AUNITS
 70
    0
  9
$AUPREC
 70
    0
  9
$MENU
  1
.
  9
$ELEVATION
 40
0
  9
$PELEVATION
 40
0
  9
$THICKNESS
 40
0
  9
$LIMCHECK
 70
    0
  9
$CHAMFERA
 40
0
  9
$CHAMFERB
 40
0
  9
$CHAMFERC
 40
0
  9
$CHAMFERD
 40
0
  9
$SKPOLY
 70
    0
  9
$USRTIMER
 70
    1
  9
$ANGBASE
 50
0
  9
$ANGDIR
 70
    0
  9
$PDMODE
 70
    0
  9
$PDSIZE
 40
0
  9
$PLINEWID
 40
0
  9
$SPLFRAME
 70
    0
  9
$SPLINETYPE
 70
    6
  9
$SPLINESEGS
 70
    8
  9
$HANDSEED
  5
20000
  9
$SURFTAB1
 70
    6
  9
$SURFTAB2
 70
    6
  9
$SURFTYPE
 70
    6
  9
$SURFU
 70
    6
  9
$SURFV
 70
    6
  9
$UCSBASE
  2

  9
$UCSNAME
  2

  9
$UCSORG
 10
0
 20
0
 30
0
  9
$UCSXDIR
 10
1
 20
0
 30
0
  9
$UCSYDIR
 10
0
 20
1
 30
0
  9
$UCSORTHOREF
  2

  9
$UCSORTHOVIEW
 70
    0
  9
$UCSORGTOP
 10
0
 20
0
 30
0
  9
$UCSORGBOTTOM
 10
0
 20
0
 30
0
  9
$UCSORGLEFT
 10
0
 20
0
 30
0
  9
$UCSORGRIGHT
 10
0
 20
0
 30
0
  9
$UCSORGFRONT
 10
0
 20
0
 30
0
  9
$UCSORGBACK
 10
0
 20
0
 30
0
  9
$PUCSBASE
  2

  9
$PUCSNAME
  2

  9
$PUCSORG
 10
0
 20
0
 30
0
  9
$PUCSXDIR
 10
1
 20
0
 30
0
  9
$PUCSYDIR
 10
0
 20
1
 30
0
  9
$PUCSORTHOREF
  2

  9
$PUCSORTHOVIEW
 70
    0
  9
$PUCSORGTOP
 10
0
 20
0
 30
0
  9
$PUCSORGBOTTOM
 10
0
 20
0
 30
0
  9
$PUCSORGLEFT
 10
0
 20
0
 30
0
  9
$PUCSORGRIGHT
 10
0
 20
0
 30
0
  9
$PUCSORGFRONT
 10
0
 20
0
 30
0
  9
$PUCSORGBACK
 10
0
 20
0
 30
0
  9
$USERI1
 70
    0
  9
$USERI2
 70
    0
  9
$USERI3
 70
    0
  9
$USERI4
 70
    0
  9
$USERI5
 70
    0
  9
$USERR1
 40
0
  9
$USERR2
 40
0
  9
$USERR3
 40
0
  9
$USERR4
 40
0
  9
$USERR5
 40
0
  9
$WORLDVIEW
 70
    1
  9
$SHADEDGE
 70
    3
  9
$SHADEDIF
 70
   70
  9
$TILEMODE
 70
    1
  9
$MAXACTVP
 70
   64
  9
$PINSBASE
 10
0
 20
0
 30
0
  9
$PLIMCHECK
 70
    0
  9
$PEXTMIN
 10
0
 20
0
 30
0
  9
$PEXTMAX
 10
0
 20
0
 30
0
  9
$GRIDMODE
 70
    1
  9
$SNAPSTYLE
 70
    0
  9
$PLIMMIN
 10
0
 20
0
  9
$PLIMMAX
 10
12
 20
9
  9
$UNITMODE
 70
    0
  9
$VISRETAIN
 70
    1
  9
$PLINEGEN
 70
    0
  9
$PSLTSCALE
 70
    1
  9
$TREEDEPTH
 70
 3020
  9
$CMLSTYLE
  2
Standard
  9
$CMLJUST
 70
    0
  9
$CMLSCALE
 40
20
  9
$PROXYGRAPHICS
 70
    1
  9
$MEASUREMENT
 70
    1
  9
$CELWEIGHT
370
   -1
  9
$ENDCAPS
280
    0
  9
$JOINSTYLE
280
    0
  9
$LWDISPLAY
290
    0
  9
$INSUNITS
 70
    4
  9
$HYPERLINKBASE
  1

  9
$STYLESHEET
  1

  9
$XEDIT
290
    1
  9
$CEPSNTYPE
380
    0
  9
$PSTYLEMODE
290
    1
  9
$EXTNAMES
290
    1
  9
$PSVPSCALE
 40
0
  9
$OLESTARTUP
290
    0
  9
$SORTENTS
280
  127
  9
$INDEXCTL
280
    0
  9
$HIDETEXT
280
    1
  9
$XCLIPFRAME
290
    0
  9
$HALOGAP
280
    0
  9
$OBSCOLOR
 70
  257
  9
$OBSLTYPE
280
    0
  9
$INTERSECTIONDISPLAY
280
    0
  9
$INTERSECTIONCOLOR
 70
  257
  9
$DIMASSOC
280
    2
  9
$PROJECTNAME
  1

  9
$CAMERADISPLAY
290
    0
  9
$LENSLENGTH
 40
50
  9
$CAMERAHEIGHT
 40
0
  9
$STEPSPERSEC
 40
2
  9
$STEPSIZE
 40
6
  9
$3DDWFPREC
 40
2
  9
$PSOLWIDTH
 40
5
  9
$PSOLHEIGHT
 40
80
  9
$LOFTANG1
 40
1.570796326794896
  9
$LOFTANG2
 40
1.570796326794896
  9
$LOFTMAG1
 40
0
  9
$LOFTMAG2
 40
0
  9
$LOFTPARAM
 70
    7
  9
$LOFTNORMALS
280
    1
  9
$LATITUDE
 40
37.795
  9
$LONGITUDE
 40
-122.394
  9
$NORTHDIRECTION
 40
0
  9
$TIMEZONE
 70
-8000
  9
$LIGHTGLYPHDISPLAY
280
    1
  9
$TILEMODELIGHTSYNCH
280
    1
  9
$SOLIDHIST
280
    0
  9
$SHOWHIST
280
    1
  9
$DWFFRAME
280
    2
  9
$DGNFRAME
280
    0
  9
$REALWORLDSCALE
290
    1
  9
$INTERFERECOLOR
 62
    1
  9
$CSHADOW
280
    0
  9
$SHADOWPLANELOCATION
 40
0
  0
ENDSEC
  0
SECTION
  2
CLASSES
  0
ENDSEC
  0
SECTION
  2
TABLES
  0
TABLE
  2
VPORT
  5
8
330
0
100
AcDbSymbolTable
 70
    1
  0
VPORT
  5
31
330
2
100
AcDbSymbolTableRecord
100
AcDbViewportTableRecord
  2
*ACTIVE
 70
    0
 10
0
 20
0
 11
1
 21
1
 12
367.2898868278851
 22
141.4327170841975
 13
0
 23
0
 14
10
 24
10
 15
10
 25
10
 16
0
 26
0
 36
1
 17
0
 27
0
 37
0
 40
720.6540907428647
 41
1.915458937198068
 42
50
 43
0
 44
0
 50
0
 51
0
 71
    0
 72
  100
 73
    1
 74
    3
 75
    0
 76
    1
 77
    0
 78
    0
281
    0
 65
    1
110
0
120
0
130
0
111
1
121
0
131
0
112
0
122
1
132
0
 79
    0
146
0
348
10020
 60
    7
 61
    5
292
1
282
    1
141
0
142
0
 63
  250
421
3358443
  0
ENDTAB
  0
TABLE
  2
LTYPE
  5
5
330
0
100
AcDbSymbolTable
 70
    4
  0
LTYPE
  5
14
330
5
100
AcDbSymbolTableRecord
100
AcDbLinetypeTableRecord
  2
ByBlock
 70
    0
  3

 72
   65
 73
    0
 40
0
  0
LTYPE
  5
15
330
5
100
AcDbSymbolTableRecord
100
AcDbLinetypeTableRecord
  2
ByLayer
 70
    0
  3

 72
   65
 73
    0
 40
0
  0
LTYPE
  5
16
330
5
100
AcDbSymbolTableRecord
100
AcDbLinetypeTableRecord
  2
Continuous
 70
    0
  3
Solid line
 72
   65
 73
    0
 40
0
  0
LTYPE
  5
32
330
5
100
AcDbSymbolTableRecord
100
AcDbLinetypeTableRecord
  2
DOT
 70
    0
  3
Dot . . . . . . . . . . . . . . . . . . . . . .
 72
   65
 73
    2
 40
6.35
 49
0
 74
    0
 49
-6.35
 74
    0
  0
LTYPE
  5
33
330
5
100
AcDbSymbolTableRecord
100
AcDbLinetypeTableRecord
  2
DOTTINY
 70
    0
  3
Dot (.15x) .....................................
 72
   65
 73
    2
 40
0.9525
 49
0
 74
    0
 49
-0.9525
 74
    0
  0
LTYPE
  5
34
330
5
100
AcDbSymbolTableRecord
100
AcDbLinetypeTableRecord
  2
DOT2
 70
    0
  3
Dot (.5x) .....................................
 72
   65
 73
    2
 40
3.175
 49
0
 74
    0
 49
-3.175
 74
    0
  0
LTYPE
  5
35
330
5
100
AcDbSymbolTableRecord
100
AcDbLinetypeTableRecord
  2
DOTX2
 70
    0
  3
Dot (2x) .  .  .  .  .  .  .  .  .  .  .  .  .
 72
   65
 73
    2
 40
12.7
 49
0
 74
    0
 49
-12.7
 74
    0
  0
LTYPE
  5
36
330
5
100
AcDbSymbolTableRecord
100
AcDbLinetypeTableRecord
  2
DASHED
 70
    0
  3
Dashed _ _ _ _ _ _ _ _ _ _ _ _ _ _ _ _ _
 72
   65
 73
    2
 40
19.05
 49
12.7
 74
    0
 49
-6.35
 74
    0
  0
LTYPE
  5
37
330
5
100
AcDbSymbolTableRecord
100
AcDbLinetypeTableRecord
  2
DASHEDTINY
 70
    0
  3
Dashed (.15x) _ _ _ _ _ _ _ _ _ _ _ _ _ _ _ _ _
 72
   65
 73
    2
 40
2.8575
 49
1.905
 74
    0
 49
-0.9525
 74
    0
  0
LTYPE
  5
38
330
5
100
AcDbSymbolTableRecord
100
AcDbLinetypeTableRecord
  2
DASHED2
 70
    0
  3
Dashed (.5x) _ _ _ _ _ _ _ _ _ _ _ _ _ _ _ _ _
 72
   65
 73
    2
 40
9.524999999999999
 49
6.35
 74
    0
 49
-3.175
 74
    0
  0
LTYPE
  5
39
330
5
100
AcDbSymbolTableRecord
100
AcDbLinetypeTableRecord
  2
DASHEDX2
 70
    0
  3
Dashed (2x) ____  ____  ____  ____  ____  ___
 72
   65
 73
    2
 40
38.09999999999999
 49
25.4
 74
    0
 49
-12.7
 74
    0
  0
LTYPE
  5
3A
330
5
100
AcDbSymbolTableRecord
100
AcDbLinetypeTableRecord
  2
DASHDOT
 70
    0
  3
Dash dot __ . __ . __ . __ . __ . __ . __ . __
 72
   65
 73
    4
 40
25.4
 49
12.7
 74
    0
 49
-6.35
 74
    0
 49
0
 74
    0
 49
-6.35
 74
    0
  0
LTYPE
  5
3B
330
5
100
AcDbSymbolTableRecord
100
AcDbLinetypeTableRecord
  2
DASHDOTTINY
 70
    0
  3
Dash dot (.15x) _._._._._._._._._._._._._._._.
 72
   65
 73
    4
 40
3.81
 49
1.905
 74
    0
 49
-0.9525
 74
    0
 49
0
 74
    0
 49
-0.9525
 74
    0
  0
LTYPE
  5
3C
330
5
100
AcDbSymbolTableRecord
100
AcDbLinetypeTableRecord
  2
DASHDOT2
 70
    0
  3
Dash dot (.5x) _._._._._._._._._._._._._._._.
 72
   65
 73
    4
 40
12.7
 49
6.35
 74
    0
 49
-3.175
 74
    0
 49
0
 74
    0
 49
-3.175
 74
    0
  0
LTYPE
  5
3D
330
5
100
AcDbSymbolTableRecord
100
AcDbLinetypeTableRecord
  2
DASHDOTX2
 70
    0
  3
Dash dot (2x) ____  .  ____  .  ____  .  ___
 72
   65
 73
    4
 40
50.8
 49
25.4
 74
    0
 49
-12.7
 74
    0
 49
0
 74
    0
 49
-12.7
 74
    0
  0
LTYPE
  5
3E
330
5
100
AcDbSymbolTableRecord
100
AcDbLinetypeTableRecord
  2
DIVIDE
 70
    0
  3
Divide ____ . . ____ . . ____ . . ____ . . ____
 72
   65
 73
    6
 40
31.75
 49
12.7
 74
    0
 49
-6.35
 74
    0
 49
0
 74
    0
 49
-6.35
 74
    0
 49
0
 74
    0
 49
-6.35
 74
    0
  0
LTYPE
  5
3F
330
5
100
AcDbSymbolTableRecord
100
AcDbLinetypeTableRecord
  2
DIVIDETINY
 70
    0
  3
Divide (.15x) __..__..__..__..__..__..__..__.._
 72
   65
 73
    6
 40
4.7625
 49
1.905
 74
    0
 49
-0.9525
 74
    0
 49
0
 74
    0
 49
-0.9525
 74
    0
 49
0
 74
    0
 49
-0.9525
 74
    0
  0
LTYPE
  5
40
330
5
100
AcDbSymbolTableRecord
100
AcDbLinetypeTableRecord
  2
DIVIDE2
 70
    0
  3
Divide (.5x) __..__..__..__..__..__..__..__.._
 72
   65
 73
    6
 40
15.875
 49
6.35
 74
    0
 49
-3.175
 74
    0
 49
0
 74
    0
 49
-3.175
 74
    0
 49
0
 74
    0
 49
-3.175
 74
    0
  0
LTYPE
  5
41
330
5
100
AcDbSymbolTableRecord
100
AcDbLinetypeTableRecord
  2
DIVIDEX2
 70
    0
  3
Divide (2x) ________  .  .  ________  .  .  _
 72
   65
 73
    6
 40
63.5
 49
25.4
 74
    0
 49
-12.7
 74
    0
 49
0
 74
    0
 49
-12.7
 74
    0
 49
0
 74
    0
 49
-12.7
 74
    0
  0
LTYPE
  5
42
330
5
100
AcDbSymbolTableRecord
100
AcDbLinetypeTableRecord
  2
BORDER
 70
    0
  3
Border __ __ . __ __ . __ __ . __ __ . __ __ .
 72
   65
 73
    6
 40
44.45
 49
12.7
 74
    0
 49
-6.35
 74
    0
 49
12.7
 74
    0
 49
-6.35
 74
    0
 49
0
 74
    0
 49
-6.35
 74
    0
  0
LTYPE
  5
43
330
5
100
AcDbSymbolTableRecord
100
AcDbLinetypeTableRecord
  2
BORDERTINY
 70
    0
  3
Border (.15x) __.__.__.__.__.__.__.__.__.__.__.
 72
   65
 73
    6
 40
6.6675
 49
1.905
 74
    0
 49
-0.9525
 74
    0
 49
1.905
 74
    0
 49
-0.9525
 74
    0
 49
0
 74
    0
 49
-0.9525
 74
    0
  0
LTYPE
  5
44
330
5
100
AcDbSymbolTableRecord
100
AcDbLinetypeTableRecord
  2
BORDER2
 70
    0
  3
Border (.5x) __.__.__.__.__.__.__.__.__.__.__.
 72
   65
 73
    6
 40
22.225
 49
6.35
 74
    0
 49
-3.175
 74
    0
 49
6.35
 74
    0
 49
-3.175
 74
    0
 49
0
 74
    0
 49
-3.175
 74
    0
  0
LTYPE
  5
45
330
5
100
AcDbSymbolTableRecord
100
AcDbLinetypeTableRecord
  2
BORDERX2
 70
    0
  3
Border (2x) ____  ____  .  ____  ____  .  ___
 72
   65
 73
    6
 40
88.89999999999999
 49
25.4
 74
    0
 49
-12.7
 74
    0
 49
25.4
 74
    0
 49
-12.7
 74
    0
 49
0
 74
    0
 49
-12.7
 74
    0
  0
LTYPE
  5
46
330
5
100
AcDbSymbolTableRecord
100
AcDbLinetypeTableRecord
  2
CENTER
 70
    0
  3
Center ____ _ ____ _ ____ _ ____ _ ____ _ ____
 72
   65
 73
    4
 40
50.8
 49
31.75
 74
    0
 49
-6.35
 74
    0
 49
6.35
 74
    0
 49
-6.35
 74
    0
  0
LTYPE
  5
47
330
5
100
AcDbSymbolTableRecord
100
AcDbLinetypeTableRecord
  2
CENTERTINY
 70
    0
  3
Center (.15x) ___ _ ___ _ ___ _ ___ _ ___ _ ___
 72
   65
 73
    4
 40
7.62
 49
4.7625
 74
    0
 49
-0.9525
 74
    0
 49
0.9525
 74
    0
 49
-0.9525
 74
    0
  0
LTYPE
  5
48
330
5
100
AcDbSymbolTableRecord
100
AcDbLinetypeTableRecord
  2
CENTER2
 70
    0
  3
Center (.5x) ___ _ ___ _ ___ _ ___ _ ___ _ ___
 72
   65
 73
    4
 40
28.575
 49
19.05
 74
    0
 49
-3.175
 74
    0
 49
3.175
 74
    0
 49
-3.175
 74
    0
  0
LTYPE
  5
49
330
5
100
AcDbSymbolTableRecord
100
AcDbLinetypeTableRecord
  2
CENTERX2
 70
    0
  3
Center (2x) ________  __  ________  __  _____
 72
   65
 73
    4
 40
101.6
 49
63.5
 74
    0
 49
-12.7
 74
    0
 49
12.7
 74
    0
 49
-12.7
 74
    0
  0
ENDTAB
  0
TABLE
  2
LAYER
  5
2
330
0
100
AcDbSymbolTable
 70
    1
  0
LAYER
  5
10
330
2
100
AcDbSymbolTableRecord
100
AcDbLayerTableRecord
  2
0
 70
    0
 62
    7
  6
CONTINUOUS
370
   -3
390
F
  0
LAYER
  5
4A
330
2
100
AcDbSymbolTableRecord
100
AcDbLayerTableRecord
  2
BoardOutLine
 70
    0
 62
    6
  6
CONTINUOUS
370
   -3
390
F
  0
LAYER
  5
4B
330
2
100
AcDbSymbolTableRecord
100
AcDbLayerTableRecord
  2
BottomLayer
 70
    0
 62
    5
  6
CONTINUOUS
370
   -3
390
F
  0
LAYER
  5
4C
330
2
100
AcDbSymbolTableRecord
100
AcDbLayerTableRecord
  2
BottomPasteMaskLayer
 70
    0
 62
   16
420
8388608
  6
CONTINUOUS
370
   -3
390
F
  0
LAYER
  5
4D
330
2
100
AcDbSymbolTableRecord
100
AcDbLayerTableRecord
  2
BottomSilkLayer
 70
    0
 62
   72
420
6736947
  6
CONTINUOUS
370
   -3
390
F
  0
LAYER
  5
4E
330
2
100
AcDbSymbolTableRecord
100
AcDbLayerTableRecord
  2
BottomSolderMaskLayer
 70
    0
 62
  200
420
11141375
  6
CONTINUOUS
370
   -3
390
F
  0
LAYER
  5
4F
330
2
100
AcDbSymbolTableRecord
100
AcDbLayerTableRecord
  2
Document
 70
    0
 62
  255
  6
CONTINUOUS
370
   -3
390
F
  0
LAYER
  5
50
330
2
100
AcDbSymbolTableRecord
100
AcDbLayerTableRecord
  2
Multi-Layer
 70
    0
 62
    9
  6
CONTINUOUS
370
   -3
390
F
  0
LAYER
  5
51
330
2
100
AcDbSymbolTableRecord
100
AcDbLayerTableRecord
  2
TopLayer
 70
    0
 62
    1
  6
CONTINUOUS
370
   -3
390
F
  0
LAYER
  5
52
330
2
100
AcDbSymbolTableRecord
100
AcDbLayerTableRecord
  2
TopPasteMaskLayer
 70
    0
 62
    8
  6
CONTINUOUS
370
   -3
390
F
  0
LAYER
  5
53
330
2
100
AcDbSymbolTableRecord
100
AcDbLayerTableRecord
  2
TopSilkLayer
 70
    0
 62
   40
420
16763904
  6
CONTINUOUS
370
   -3
390
F
  0
LAYER
  5
54
330
2
100
AcDbSymbolTableRecord
100
AcDbLayerTableRecord
  2
TopSolderMaskLayer
 70
    0
 62
  216
420
8388736
  6
CONTINUOUS
370
   -3
390
F
  0
LAYER
  5
55
330
2
100
AcDbSymbolTableRecord
100
AcDbLayerTableRecord
  2
left-bottom
 70
    0
 62
    7
  6
CONTINUOUS
370
   -3
390
F
  0
ENDTAB
  0
TABLE
  2
STYLE
  5
3
330
0
100
AcDbSymbolTable
 70
    3
  0
STYLE
  5
56
330
2
100
AcDbSymbolTableRecord
100
AcDbTextStyleTableRecord
  2
Standard
 70
    0
 40
0
 41
1
 50
0
 71
    0
 42
1
  3
txt
  4

  0
ENDTAB
  0
TABLE
  2
VIEW
  5
6
330
0
100
AcDbSymbolTable
 70
    0
  0
ENDTAB
  0
TABLE
  2
UCS
  5
7
330
0
100
AcDbSymbolTable
 70
    0
  0
ENDTAB
  0
TABLE
  2
APPID
  5
9
330
0
100
AcDbSymbolTable
 70
    1
  0
APPID
  5
12
330
9
100
AcDbSymbolTableRecord
100
AcDbRegAppTableRecord
  2
ACAD
 70
    0
  0
APPID
  5
57
330
9
100
AcDbSymbolTableRecord
100
AcDbRegAppTableRecord
  2
LibreCad
 70
    0
  0
ENDTAB
  0
TABLE
  2
DIMSTYLE
  5
A
330
0
100
AcDbSymbolTable
 70
    1
100
AcDbDimStyleTable
 71
    1
  0
DIMSTYLE
105
58
330
A
100
AcDbSymbolTableRecord
100
AcDbDimStyleTableRecord
  2
Standard
 70
    0
 40
1
 41
2.5
 42
0.625
 43
0.38
 44
1.25
 45
0
 46
0
 47
0
 48
0
 49
1
140
2.5
141
0.09
142
0
143
25.4
144
1
145
0
146
1
147
0.625
148
0
 71
    0
 72
    0
 73
    0
 74
    1
 75
    0
 76
    0
 77
    0
 78
    8
 79
    0
170
    0
171
    2
172
    0
173
    0
174
    0
175
    0
176
    0
177
    0
178
    0
179
    0
271
    2
272
    4
273
    2
274
    2
275
    0
276
    0
277
    2
278
   44
279
    0
280
    0
281
    0
282
    0
283
    1
284
    0
285
    0
286
    0
288
    0
289
    3
340
Standard
341

371
   -2
372
   -2
  0
ENDTAB
  0
TABLE
  2
BLOCK_RECORD
  5
1
330
0
100
AcDbSymbolTable
 70
    2
  0
BLOCK_RECORD
  5
1F
330
1
100
AcDbSymbolTableRecord
100
AcDbBlockTableRecord
  2
*Model_Space
 70
    0
280
    1
281
    0
  0
BLOCK_RECORD
  5
1E
330
1
100
AcDbSymbolTableRecord
100
AcDbBlockTableRecord
  2
*Paper_Space
 70
    0
280
    1
281
    0
  0
ENDTAB
  0
ENDSEC
  0
SECTION
  2
BLOCKS
  0
BLOCK
  5
20
330
1F
100
AcDbEntity
  8
0
100
AcDbBlockBegin
  2
*Model_Space
 70
    0
 10
0
 20
0
 30
0
  3
*Model_Space
  1

  0
ENDBLK
  5
21
330
1F
100
AcDbEntity
  8
0
100
AcDbBlockEnd
  0
BLOCK
  5
1C
330
1B
100
AcDbEntity
  8
0
100
AcDbBlockBegin
  2
*Paper_Space
 70
    0
 10
0
 20
0
 30
0
  3
*Paper_Space
  1

  0
ENDBLK
  5
1D
330
1F
100
AcDbEntity
  8
0
100
AcDbBlockEnd
  0
ENDSEC
  0
SECTION
  2
ENTITIES
  0
LINE
  5
59
100
AcDbEntity
  8
0
  6
ByLayer
 62
  256
370
   -1
100
AcDbLine
 10
127.8354237363995
 20
-133.8499550033459
 11
128.0024237363995
 21
-133.9459550033458
  0
LINE
  5
5A
100
AcDbEntity
  8
0
  6
ByLayer
 62
  256
370
   -1
100
AcDbLine
 10
122.6234237363996
 20
-21.70295500334578
 11
122.3964237363995
 21
-21.70295500334578
  0
LINE
  5
5B
100
AcDbEntity
  8
0
  6
ByLayer
 62
  256
370
   -1
100
AcDbLine
 10
122.3964237363995
 20
-21.70295500334578
 11
121.7164237363995
 21
-21.61095500334591
  0
LINE
  5
5C
100
AcDbEntity
  8
0
  6
ByLayer
 62
  256
370
   -1
100
AcDbLine
 10
121.7164237363995
 20
-21.61095500334591
 11
120.7304237363996
 21
-21.36295500334575
  0
LINE
  5
5D
100
AcDbEntity
  8
0
  6
ByLayer
 62
  256
370
   -1
100
AcDbLine
 10
120.7304237363996
 20
-21.36295500334575
 11
119.7824237363996
 21
-20.9959550033459
  0
LINE
  5
5E
100
AcDbEntity
  8
0
  6
ByLayer
 62
  256
370
   -1
100
AcDbLine
 10
119.7824237363996
 20
-20.9959550033459
 11
119.1744237363995
 21
-20.67795500334591
  0
LINE
  5
5F
100
AcDbEntity
  8
0
  6
ByLayer
 62
  256
370
   -1
100
AcDbLine
 10
119.1744237363995
 20
-20.67795500334591
 11
118.9914237363996
 21
-20.5489550033459
  0
LINE
  5
60
100
AcDbEntity
  8
0
  6
ByLayer
 62
  256
370
   -1
100
AcDbLine
 10
14.53712373639954
 20
-25.46395500334575
 11
14.33869373639953
 21
-25.5079550033459
  0
LINE
  5
61
100
AcDbEntity
  8
0
  6
ByLayer
 62
  256
370
   -1
100
AcDbLine
 10
14.33869373639953
 20
-25.5079550033459
 11
13.77920373639952
 21
-25.79195500334578
  0
LINE
  5
62
100
AcDbEntity
  8
0
  6
ByLayer
 62
  256
370
   -1
100
AcDbLine
 10
13.77920373639952
 20
-25.79195500334578
 11
13.15770973639954
 21
-26.36095500334591
  0
LINE
  5
63
100
AcDbEntity
  8
0
  6
ByLayer
 62
  256
370
   -1
100
AcDbLine
 10
13.15770973639954
 20
-26.36095500334591
 11
12.73878773639953
 21
-27.08995500334589
  0
LINE
  5
64
100
AcDbEntity
  8
0
  6
ByLayer
 62
  256
370
   -1
100
AcDbLine
 10
12.73878773639953
 20
-27.08995500334589
 11
12.58582573639953
 21
-27.69895500334576
  0
LINE
  5
65
100
AcDbEntity
  8
0
  6
ByLayer
 62
  256
370
   -1
100
AcDbLine
 10
12.58582573639953
 20
-27.69895500334576
 11
12.58582573639953
 21
-27.90295500334582
  0
LINE
  5
66
100
AcDbEntity
  8
0
  6
ByLayer
 62
  256
370
   -1
100
AcDbLine
 10
12.58582573639953
 20
-27.90295500334582
 11
12.58582573639953
 21
-120.0019550033458
  0
LINE
  5
67
100
AcDbEntity
  8
0
  6
ByLayer
 62
  256
370
   -1
100
AcDbLine
 10
12.58582573639953
 20
-120.0019550033458
 11
12.58582573639953
 21
-120.1949550033459
  0
LINE
  5
68
100
AcDbEntity
  8
0
  6
ByLayer
 62
  256
370
   -1
100
AcDbLine
 10
12.58582573639953
 20
-120.1949550033459
 11
12.74292173639952
 21
-120.7779550033459
  0
LINE
  5
69
100
AcDbEntity
  8
0
  6
ByLayer
 62
  256
370
   -1
100
AcDbLine
 10
12.74292173639952
 20
-120.7779550033459
 11
13.17286873639952
 21
-121.4129550033459
  0
LINE
  5
6A
100
AcDbEntity
  8
0
  6
ByLayer
 62
  256
370
   -1
100
AcDbLine
 10
13.17286873639952
 20
-121.4129550033459
 11
13.80814373639953
 21
-121.8429550033458
  0
LINE
  5
6B
100
AcDbEntity
  8
0
  6
ByLayer
 62
  256
370
   -1
100
AcDbLine
 10
13.80814373639953
 20
-121.8429550033458
 11
14.39105373639953
 21
-122.0009550033458
  0
LINE
  5
6C
100
AcDbEntity
  8
0
  6
ByLayer
 62
  256
370
   -1
100
AcDbLine
 10
14.39105373639953
 20
-122.0009550033458
 11
14.58536373639953
 21
-122.0009550033458
  0
LINE
  5
6D
100
AcDbEntity
  8
0
  6
ByLayer
 62
  256
370
   -1
100
AcDbLine
 10
14.58536373639953
 20
-122.0009550033458
 11
105.2974237363997
 21
-122.0009550033458
  0
LINE
  5
6E
100
AcDbEntity
  8
0
  6
ByLayer
 62
  256
370
   -1
100
AcDbLine
 10
105.2974237363997
 20
-122.0009550033458
 11
105.5249237363996
 21
-122.0009550033458
  0
LINE
  5
6F
100
AcDbEntity
  8
0
  6
ByLayer
 62
  256
370
   -1
100
AcDbLine
 10
105.5249237363996
 20
-122.0009550033458
 11
106.2097237363996
 21
-122.0799550033458
  0
LINE
  5
70
100
AcDbEntity
  8
0
  6
ByLayer
 62
  256
370
   -1
100
AcDbLine
 10
106.2097237363996
 20
-122.0799550033458
 11
107.2183237363996
 21
-122.2949550033458
  0
LINE
  5
71
100
AcDbEntity
  8
0
  6
ByLayer
 62
  256
370
   -1
100
AcDbLine
 10
107.2183237363996
 20
-122.2949550033458
 11
108.1983237363995
 21
-122.6119550033458
  0
LINE
  5
72
100
AcDbEntity
  8
0
  6
ByLayer
 62
  256
370
   -1
100
AcDbLine
 10
108.1983237363995
 20
-122.6119550033458
 11
108.8308237363995
 21
-122.8859550033458
  0
LINE
  5
73
100
AcDbEntity
  8
0
  6
ByLayer
 62
  256
370
   -1
100
AcDbLine
 10
108.8308237363995
 20
-122.8859550033458
 11
109.0291237363996
 21
-122.9999550033458
  0
LINE
  5
74
100
AcDbEntity
  8
0
  6
ByLayer
 62
  256
370
   -1
100
AcDbLine
 10
32.83882373639952
 20
-45.55295500334591
 11
32.83882373639952
 21
-45.72495500334583
  0
LINE
  5
75
100
AcDbEntity
  8
0
  6
ByLayer
 62
  256
370
   -1
100
AcDbLine
 10
32.83882373639952
 20
-45.72495500334583
 11
32.55222373639953
 21
-46.24195500334577
  0
LINE
  5
76
100
AcDbEntity
  8
0
  6
ByLayer
 62
  256
370
   -1
100
AcDbLine
 10
32.55222373639953
 20
-46.24195500334577
 11
32.03542373639954
 21
-46.52695500334585
  0
LINE
  5
77
100
AcDbEntity
  8
0
  6
ByLayer
 62
  256
370
   -1
100
AcDbLine
 10
32.03542373639954
 20
-46.52695500334585
 11
31.86322373639953
 21
-46.52695500334585
  0
LINE
  5
78
100
AcDbEntity
  8
0
  6
ByLayer
 62
  256
370
   -1
100
AcDbLine
 10
31.86322373639953
 20
-46.52695500334585
 11
31.68952373639954
 21
-46.52695500334585
  0
LINE
  5
79
100
AcDbEntity
  8
0
  6
ByLayer
 62
  256
370
   -1
100
AcDbLine
 10
31.68952373639954
 20
-46.52695500334585
 11
31.17282373639952
 21
-46.24195500334577
  0
LINE
  5
7A
100
AcDbEntity
  8
0
  6
ByLayer
 62
  256
370
   -1
100
AcDbLine
 10
31.17282373639952
 20
-46.24195500334577
 11
30.88892373639953
 21
-45.72495500334583
  0
LINE
  5
7B
100
AcDbEntity
  8
0
  6
ByLayer
 62
  256
370
   -1
100
AcDbLine
 10
30.88892373639953
 20
-45.72495500334583
 11
30.88892373639953
 21
-45.55295500334591
  0
LINE
  5
7C
100
AcDbEntity
  8
0
  6
ByLayer
 62
  256
370
   -1
100
AcDbLine
 10
30.88892373639953
 20
-45.55295500334591
 11
30.88892373639953
 21
-45.37895500334582
  0
LINE
  5
7D
100
AcDbEntity
  8
0
  6
ByLayer
 62
  256
370
   -1
100
AcDbLine
 10
30.88892373639953
 20
-45.37895500334582
 11
31.17282373639952
 21
-44.86295500334575
  0
LINE
  5
7E
100
AcDbEntity
  8
0
  6
ByLayer
 62
  256
370
   -1
100
AcDbLine
 10
31.17282373639952
 20
-44.86295500334575
 11
31.68952373639954
 21
-44.57795500334578
  0
LINE
  5
7F
100
AcDbEntity
  8
0
  6
ByLayer
 62
  256
370
   -1
100
AcDbLine
 10
31.68952373639954
 20
-44.57795500334578
 11
31.86322373639953
 21
-44.57795500334578
  0
LINE
  5
80
100
AcDbEntity
  8
0
  6
ByLayer
 62
  256
370
   -1
100
AcDbLine
 10
31.86322373639953
 20
-44.57795500334578
 11
32.03542373639954
 21
-44.57795500334578
  0
LINE
  5
81
100
AcDbEntity
  8
0
  6
ByLayer
 62
  256
370
   -1
100
AcDbLine
 10
32.03542373639954
 20
-44.57795500334578
 11
32.55222373639953
 21
-44.86295500334575
  0
LINE
  5
82
100
AcDbEntity
  8
0
  6
ByLayer
 62
  256
370
   -1
100
AcDbLine
 10
32.55222373639953
 20
-44.86295500334575
 11
32.83882373639952
 21
-45.37895500334582
  0
LINE
  5
83
100
AcDbEntity
  8
0
  6
ByLayer
 62
  256
370
   -1
100
AcDbLine
 10
32.83882373639952
 20
-45.37895500334582
 11
32.83882373639952
 21
-45.55295500334591
  0
LINE
  5
84
100
AcDbEntity
  8
0
  6
ByLayer
 62
  256
370
   -1
100
AcDbLine
 10
70.93902373639952
 20
-59.77695500334585
 11
70.93902373639952
 21
-59.9479550033459
  0
LINE
  5
85
100
AcDbEntity
  8
0
  6
ByLayer
 62
  256
370
   -1
100
AcDbLine
 10
70.93902373639952
 20
-59.9479550033459
 11
70.65222373639952
 21
-60.46495500334589
  0
LINE
  5
86
100
AcDbEntity
  8
0
  6
ByLayer
 62
  256
370
   -1
100
AcDbLine
 10
70.65222373639952
 20
-60.46495500334589
 11
70.13532373639953
 21
-60.75195500334576
  0
LINE
  5
87
100
AcDbEntity
  8
0
  6
ByLayer
 62
  256
370
   -1
100
AcDbLine
 10
70.13532373639953
 20
-60.75195500334576
 11
69.96322373639953
 21
-60.75195500334576
  0
LINE
  5
88
100
AcDbEntity
  8
0
  6
ByLayer
 62
  256
370
   -1
100
AcDbLine
 10
69.96322373639953
 20
-60.75195500334576
 11
69.78962373639953
 21
-60.75195500334576
  0
LINE
  5
89
100
AcDbEntity
  8
0
  6
ByLayer
 62
  256
370
   -1
100
AcDbLine
 10
69.78962373639953
 20
-60.75195500334576
 11
69.27282373639954
 21
-60.46495500334589
  0
LINE
  5
8A
100
AcDbEntity
  8
0
  6
ByLayer
 62
  256
370
   -1
100
AcDbLine
 10
69.27282373639954
 20
-60.46495500334589
 11
68.98882373639952
 21
-59.9479550033459
  0
LINE
  5
8B
100
AcDbEntity
  8
0
  6
ByLayer
 62
  256
370
   -1
100
AcDbLine
 10
68.98882373639952
 20
-59.9479550033459
 11
68.98882373639952
 21
-59.77695500334585
  0
LINE
  5
8C
100
AcDbEntity
  8
0
  6
ByLayer
 62
  256
370
   -1
100
AcDbLine
 10
68.98882373639952
 20
-59.77695500334585
 11
68.98882373639952
 21
-59.60395500334585
  0
LINE
  5
8D
100
AcDbEntity
  8
0
  6
ByLayer
 62
  256
370
   -1
100
AcDbLine
 10
68.98882373639952
 20
-59.60395500334585
 11
69.27282373639954
 21
-59.08695500334591
  0
LINE
  5
8E
100
AcDbEntity
  8
0
  6
ByLayer
 62
  256
370
   -1
100
AcDbLine
 10
69.27282373639954
 20
-59.08695500334591
 11
69.78962373639953
 21
-58.80095500334585
  0
LINE
  5
8F
100
AcDbEntity
  8
0
  6
ByLayer
 62
  256
370
   -1
100
AcDbLine
 10
69.78962373639953
 20
-58.80095500334585
 11
69.96322373639953
 21
-58.80095500334585
  0
LINE
  5
90
100
AcDbEntity
  8
0
  6
ByLayer
 62
  256
370
   -1
100
AcDbLine
 10
69.96322373639953
 20
-58.80095500334585
 11
70.13532373639953
 21
-58.80095500334585
  0
LINE
  5
91
100
AcDbEntity
  8
0
  6
ByLayer
 62
  256
370
   -1
100
AcDbLine
 10
70.13532373639953
 20
-58.80095500334585
 11
70.65222373639952
 21
-59.08695500334591
  0
LINE
  5
92
100
AcDbEntity
  8
0
  6
ByLayer
 62
  256
370
   -1
100
AcDbLine
 10
70.65222373639952
 20
-59.08695500334591
 11
70.93902373639952
 21
-59.60395500334585
  0
LINE
  5
93
100
AcDbEntity
  8
0
  6
ByLayer
 62
  256
370
   -1
100
AcDbLine
 10
70.93902373639952
 20
-59.60395500334585
 11
70.93902373639952
 21
-59.77695500334585
  0
LINE
  5
94
100
AcDbEntity
  8
0
  6
ByLayer
 62
  256
370
   -1
100
AcDbLine
 10
64.71562373639952
 20
-20.66195500334589
 11
64.71562373639952
 21
-20.83195500334591
  0
LINE
  5
95
100
AcDbEntity
  8
0
  6
ByLayer
 62
  256
370
   -1
100
AcDbLine
 10
64.71562373639952
 20
-20.83195500334591
 11
64.42922373639954
 21
-21.34895500334585
  0
LINE
  5
96
100
AcDbEntity
  8
0
  6
ByLayer
 62
  256
370
   -1
100
AcDbLine
 10
64.42922373639954
 20
-21.34895500334585
 11
63.91232373639954
 21
-21.63595500334577
  0
LINE
  5
97
100
AcDbEntity
  8
0
  6
ByLayer
 62
  256
370
   -1
100
AcDbLine
 10
63.91232373639954
 20
-21.63595500334577
 11
63.73982373639953
 21
-21.63595500334577
  0
LINE
  5
98
100
AcDbEntity
  8
0
  6
ByLayer
 62
  256
370
   -1
100
AcDbLine
 10
63.73982373639953
 20
-21.63595500334577
 11
63.56632373639954
 21
-21.63595500334577
  0
LINE
  5
99
100
AcDbEntity
  8
0
  6
ByLayer
 62
  256
370
   -1
100
AcDbLine
 10
63.56632373639954
 20
-21.63595500334577
 11
63.04942373639952
 21
-21.34895500334585
  0
LINE
  5
9A
100
AcDbEntity
  8
0
  6
ByLayer
 62
  256
370
   -1
100
AcDbLine
 10
63.04942373639952
 20
-21.34895500334585
 11
62.76582373639954
 21
-20.83195500334591
  0
LINE
  5
9B
100
AcDbEntity
  8
0
  6
ByLayer
 62
  256
370
   -1
100
AcDbLine
 10
62.76582373639954
 20
-20.83195500334591
 11
62.76582373639954
 21
-20.66195500334589
  0
LINE
  5
9C
100
AcDbEntity
  8
0
  6
ByLayer
 62
  256
370
   -1
100
AcDbLine
 10
62.76582373639954
 20
-20.66195500334589
 11
62.76582373639954
 21
-20.48795500334575
  0
LINE
  5
9D
100
AcDbEntity
  8
0
  6
ByLayer
 62
  256
370
   -1
100
AcDbLine
 10
62.76582373639954
 20
-20.48795500334575
 11
63.04942373639952
 21
-19.97095500334592
  0
LINE
  5
9E
100
AcDbEntity
  8
0
  6
ByLayer
 62
  256
370
   -1
100
AcDbLine
 10
63.04942373639952
 20
-19.97095500334592
 11
63.56632373639954
 21
-19.6859550033459
  0
LINE
  5
9F
100
AcDbEntity
  8
0
  6
ByLayer
 62
  256
370
   -1
100
AcDbLine
 10
63.56632373639954
 20
-19.6859550033459
 11
63.73982373639953
 21
-19.6859550033459
  0
LINE
  5
A0
100
AcDbEntity
  8
0
  6
ByLayer
 62
  256
370
   -1
100
AcDbLine
 10
63.73982373639953
 20
-19.6859550033459
 11
63.91232373639954
 21
-19.6859550033459
  0
LINE
  5
A1
100
AcDbEntity
  8
0
  6
ByLayer
 62
  256
370
   -1
100
AcDbLine
 10
63.91232373639954
 20
-19.6859550033459
 11
64.42922373639954
 21
-19.97095500334592
  0
LINE
  5
A2
100
AcDbEntity
  8
0
  6
ByLayer
 62
  256
370
   -1
100
AcDbLine
 10
64.42922373639954
 20
-19.97095500334592
 11
64.71562373639952
 21
-20.48795500334575
  0
LINE
  5
A3
100
AcDbEntity
  8
0
  6
ByLayer
 62
  256
370
   -1
100
AcDbLine
 10
64.71562373639952
 20
-20.48795500334575
 11
64.71562373639952
 21
-20.66195500334589
  0
LINE
  5
A4
100
AcDbEntity
  8
0
  6
ByLayer
 62
  256
370
   -1
100
AcDbLine
 10
32.83882373639952
 20
-102.9569550033458
 11
32.83882373639952
 21
-103.1289550033459
  0
LINE
  5
A5
100
AcDbEntity
  8
0
  6
ByLayer
 62
  256
370
   -1
100
AcDbLine
 10
32.83882373639952
 20
-103.1289550033459
 11
32.55222373639953
 21
-103.6459550033458
  0
LINE
  5
A6
100
AcDbEntity
  8
0
  6
ByLayer
 62
  256
370
   -1
100
AcDbLine
 10
32.55222373639953
 20
-103.6459550033458
 11
32.03542373639954
 21
-103.9319550033459
  0
LINE
  5
A7
100
AcDbEntity
  8
0
  6
ByLayer
 62
  256
370
   -1
100
AcDbLine
 10
32.03542373639954
 20
-103.9319550033459
 11
31.86322373639953
 21
-103.9319550033459
  0
LINE
  5
A8
100
AcDbEntity
  8
0
  6
ByLayer
 62
  256
370
   -1
100
AcDbLine
 10
31.86322373639953
 20
-103.9319550033459
 11
31.68952373639954
 21
-103.9319550033459
  0
LINE
  5
A9
100
AcDbEntity
  8
0
  6
ByLayer
 62
  256
370
   -1
100
AcDbLine
 10
31.68952373639954
 20
-103.9319550033459
 11
31.17282373639952
 21
-103.6459550033458
  0
LINE
  5
AA
100
AcDbEntity
  8
0
  6
ByLayer
 62
  256
370
   -1
100
AcDbLine
 10
31.17282373639952
 20
-103.6459550033458
 11
30.88892373639953
 21
-103.1289550033459
  0
LINE
  5
AB
100
AcDbEntity
  8
0
  6
ByLayer
 62
  256
370
   -1
100
AcDbLine
 10
30.88892373639953
 20
-103.1289550033459
 11
30.88892373639953
 21
-102.9569550033458
  0
LINE
  5
AC
100
AcDbEntity
  8
0
  6
ByLayer
 62
  256
370
   -1
100
AcDbLine
 10
30.88892373639953
 20
-102.9569550033458
 11
30.88892373639953
 21
-102.7829550033459
  0
LINE
  5
AD
100
AcDbEntity
  8
0
  6
ByLayer
 62
  256
370
   -1
100
AcDbLine
 10
30.88892373639953
 20
-102.7829550033459
 11
31.17282373639952
 21
-102.2659550033458
  0
LINE
  5
AE
100
AcDbEntity
  8
0
  6
ByLayer
 62
  256
370
   -1
100
AcDbLine
 10
31.17282373639952
 20
-102.2659550033458
 11
31.68952373639954
 21
-101.9809550033458
  0
LINE
  5
AF
100
AcDbEntity
  8
0
  6
ByLayer
 62
  256
370
   -1
100
AcDbLine
 10
31.68952373639954
 20
-101.9809550033458
 11
31.86322373639953
 21
-101.9809550033458
  0
LINE
  5
B0
100
AcDbEntity
  8
0
  6
ByLayer
 62
  256
370
   -1
100
AcDbLine
 10
31.86322373639953
 20
-101.9809550033458
 11
32.03542373639954
 21
-101.9809550033458
  0
LINE
  5
B1
100
AcDbEntity
  8
0
  6
ByLayer
 62
  256
370
   -1
100
AcDbLine
 10
32.03542373639954
 20
-101.9809550033458
 11
32.55222373639953
 21
-102.2659550033458
  0
LINE
  5
B2
100
AcDbEntity
  8
0
  6
ByLayer
 62
  256
370
   -1
100
AcDbLine
 10
32.55222373639953
 20
-102.2659550033458
 11
32.83882373639952
 21
-102.7829550033459
  0
LINE
  5
B3
100
AcDbEntity
  8
0
  6
ByLayer
 62
  256
370
   -1
100
AcDbLine
 10
32.83882373639952
 20
-102.7829550033459
 11
32.83882373639952
 21
-102.9569550033458
  0
LINE
  5
B4
100
AcDbEntity
  8
0
  6
ByLayer
 62
  256
370
   -1
100
AcDbLine
 10
71.44592373639952
 20
-95.33795500334577
 11
71.44592373639952
 21
-95.50795500334584
  0
LINE
  5
B5
100
AcDbEntity
  8
0
  6
ByLayer
 62
  256
370
   -1
100
AcDbLine
 10
71.44592373639952
 20
-95.50795500334584
 11
71.16092373639952
 21
-96.02495500334578
  0
LINE
  5
B6
100
AcDbEntity
  8
0
  6
ByLayer
 62
  256
370
   -1
100
AcDbLine
 10
71.16092373639952
 20
-96.02495500334578
 11
70.64402373639953
 21
-96.31195500334593
  0
LINE
  5
B7
100
AcDbEntity
  8
0
  6
ByLayer
 62
  256
370
   -1
100
AcDbLine
 10
70.64402373639953
 20
-96.31195500334593
 11
70.47152373639952
 21
-96.31195500334593
  0
LINE
  5
B8
100
AcDbEntity
  8
0
  6
ByLayer
 62
  256
370
   -1
100
AcDbLine
 10
70.47152373639952
 20
-96.31195500334593
 11
70.29802373639953
 21
-96.31195500334593
  0
LINE
  5
B9
100
AcDbEntity
  8
0
  6
ByLayer
 62
  256
370
   -1
100
AcDbLine
 10
70.29802373639953
 20
-96.31195500334593
 11
69.78112373639954
 21
-96.02495500334578
  0
LINE
  5
BA
100
AcDbEntity
  8
0
  6
ByLayer
 62
  256
370
   -1
100
AcDbLine
 10
69.78112373639954
 20
-96.02495500334578
 11
69.49612373639954
 21
-95.50795500334584
  0
LINE
  5
BB
100
AcDbEntity
  8
0
  6
ByLayer
 62
  256
370
   -1
100
AcDbLine
 10
69.49612373639954
 20
-95.50795500334584
 11
69.49612373639954
 21
-95.33795500334577
  0
LINE
  5
BC
100
AcDbEntity
  8
0
  6
ByLayer
 62
  256
370
   -1
100
AcDbLine
 10
69.49612373639954
 20
-95.33795500334577
 11
69.49612373639954
 21
-95.16395500334579
  0
LINE
  5
BD
100
AcDbEntity
  8
0
  6
ByLayer
 62
  256
370
   -1
100
AcDbLine
 10
69.49612373639954
 20
-95.16395500334579
 11
69.78112373639954
 21
-94.64695500334585
  0
LINE
  5
BE
100
AcDbEntity
  8
0
  6
ByLayer
 62
  256
370
   -1
100
AcDbLine
 10
69.78112373639954
 20
-94.64695500334585
 11
70.29802373639953
 21
-94.36195500334577
  0
LINE
  5
BF
100
AcDbEntity
  8
0
  6
ByLayer
 62
  256
370
   -1
100
AcDbLine
 10
70.29802373639953
 20
-94.36195500334577
 11
70.47152373639952
 21
-94.36195500334577
  0
LINE
  5
C0
100
AcDbEntity
  8
0
  6
ByLayer
 62
  256
370
   -1
100
AcDbLine
 10
70.47152373639952
 20
-94.36195500334577
 11
70.64402373639953
 21
-94.36195500334577
  0
LINE
  5
C1
100
AcDbEntity
  8
0
  6
ByLayer
 62
  256
370
   -1
100
AcDbLine
 10
70.64402373639953
 20
-94.36195500334577
 11
71.16092373639952
 21
-94.64695500334585
  0
LINE
  5
C2
100
AcDbEntity
  8
0
  6
ByLayer
 62
  256
370
   -1
100
AcDbLine
 10
71.16092373639952
 20
-94.64695500334585
 11
71.44592373639952
 21
-95.16395500334579
  0
LINE
  5
C3
100
AcDbEntity
  8
0
  6
ByLayer
 62
  256
370
   -1
100
AcDbLine
 10
71.44592373639952
 20
-95.16395500334579
 11
71.44592373639952
 21
-95.33795500334577
  0
LINE
  5
C4
100
AcDbEntity
  8
0
  6
ByLayer
 62
  256
370
   -1
100
AcDbLine
 10
122.1194237363995
 20
-102.7029550033458
 11
122.1194237363995
 21
-102.8749550033458
  0
LINE
  5
C5
100
AcDbEntity
  8
0
  6
ByLayer
 62
  256
370
   -1
100
AcDbLine
 10
122.1194237363995
 20
-102.8749550033458
 11
121.8334237363995
 21
-103.3919550033459
  0
LINE
  5
C6
100
AcDbEntity
  8
0
  6
ByLayer
 62
  256
370
   -1
100
AcDbLine
 10
121.8334237363995
 20
-103.3919550033459
 11
121.3154237363995
 21
-103.6789550033458
  0
LINE
  5
C7
100
AcDbEntity
  8
0
  6
ByLayer
 62
  256
370
   -1
100
AcDbLine
 10
121.3154237363995
 20
-103.6789550033458
 11
121.1434237363995
 21
-103.6789550033458
  0
LINE
  5
C8
100
AcDbEntity
  8
0
  6
ByLayer
 62
  256
370
   -1
100
AcDbLine
 10
121.1434237363995
 20
-103.6789550033458
 11
120.9714237363995
 21
-103.6789550033458
  0
LINE
  5
C9
100
AcDbEntity
  8
0
  6
ByLayer
 62
  256
370
   -1
100
AcDbLine
 10
120.9714237363995
 20
-103.6789550033458
 11
120.4544237363995
 21
-103.3919550033459
  0
LINE
  5
CA
100
AcDbEntity
  8
0
  6
ByLayer
 62
  256
370
   -1
100
AcDbLine
 10
120.4544237363995
 20
-103.3919550033459
 11
120.1694237363996
 21
-102.8749550033458
  0
LINE
  5
CB
100
AcDbEntity
  8
0
  6
ByLayer
 62
  256
370
   -1
100
AcDbLine
 10
120.1694237363996
 20
-102.8749550033458
 11
120.1694237363996
 21
-102.7029550033458
  0
LINE
  5
CC
100
AcDbEntity
  8
0
  6
ByLayer
 62
  256
370
   -1
100
AcDbLine
 10
120.1694237363996
 20
-102.7029550033458
 11
120.1694237363996
 21
-102.5289550033458
  0
LINE
  5
CD
100
AcDbEntity
  8
0
  6
ByLayer
 62
  256
370
   -1
100
AcDbLine
 10
120.1694237363996
 20
-102.5289550033458
 11
120.4544237363995
 21
-102.0129550033458
  0
LINE
  5
CE
100
AcDbEntity
  8
0
  6
ByLayer
 62
  256
370
   -1
100
AcDbLine
 10
120.4544237363995
 20
-102.0129550033458
 11
120.9714237363995
 21
-101.7279550033458
  0
LINE
  5
CF
100
AcDbEntity
  8
0
  6
ByLayer
 62
  256
370
   -1
100
AcDbLine
 10
120.9714237363995
 20
-101.7279550033458
 11
121.1434237363995
 21
-101.7279550033458
  0
LINE
  5
D0
100
AcDbEntity
  8
0
  6
ByLayer
 62
  256
370
   -1
100
AcDbLine
 10
121.1434237363995
 20
-101.7279550033458
 11
121.3154237363995
 21
-101.7279550033458
  0
LINE
  5
D1
100
AcDbEntity
  8
0
  6
ByLayer
 62
  256
370
   -1
100
AcDbLine
 10
121.3154237363995
 20
-101.7279550033458
 11
121.8334237363995
 21
-102.0129550033458
  0
LINE
  5
D2
100
AcDbEntity
  8
0
  6
ByLayer
 62
  256
370
   -1
100
AcDbLine
 10
121.8334237363995
 20
-102.0129550033458
 11
122.1194237363995
 21
-102.5289550033458
  0
LINE
  5
D3
100
AcDbEntity
  8
0
  6
ByLayer
 62
  256
370
   -1
100
AcDbLine
 10
122.1194237363995
 20
-102.5289550033458
 11
122.1194237363995
 21
-102.7029550033458
  0
LINE
  5
D4
100
AcDbEntity
  8
0
  6
ByLayer
 62
  256
370
   -1
100
AcDbLine
 10
128.0874237363996
 20
-43.01295500334589
 11
128.0874237363996
 21
-43.18395500334577
  0
LINE
  5
D5
100
AcDbEntity
  8
0
  6
ByLayer
 62
  256
370
   -1
100
AcDbLine
 10
128.0874237363996
 20
-43.18395500334577
 11
127.8024237363996
 21
-43.70095500334583
  0
LINE
  5
D6
100
AcDbEntity
  8
0
  6
ByLayer
 62
  256
370
   -1
100
AcDbLine
 10
127.8024237363996
 20
-43.70095500334583
 11
127.2854237363995
 21
-43.98795500334575
  0
LINE
  5
D7
100
AcDbEntity
  8
0
  6
ByLayer
 62
  256
370
   -1
100
AcDbLine
 10
127.2854237363995
 20
-43.98795500334575
 11
127.1134237363995
 21
-43.98795500334575
  0
LINE
  5
D8
100
AcDbEntity
  8
0
  6
ByLayer
 62
  256
370
   -1
100
AcDbLine
 10
127.1134237363995
 20
-43.98795500334575
 11
126.9394237363995
 21
-43.98795500334575
  0
LINE
  5
D9
100
AcDbEntity
  8
0
  6
ByLayer
 62
  256
370
   -1
100
AcDbLine
 10
126.9394237363995
 20
-43.98795500334575
 11
126.4224237363995
 21
-43.70095500334583
  0
LINE
  5
DA
100
AcDbEntity
  8
0
  6
ByLayer
 62
  256
370
   -1
100
AcDbLine
 10
126.4224237363995
 20
-43.70095500334583
 11
126.1374237363995
 21
-43.18395500334577
  0
LINE
  5
DB
100
AcDbEntity
  8
0
  6
ByLayer
 62
  256
370
   -1
100
AcDbLine
 10
126.1374237363995
 20
-43.18395500334577
 11
126.1374237363995
 21
-43.01295500334589
  0
LINE
  5
DC
100
AcDbEntity
  8
0
  6
ByLayer
 62
  256
370
   -1
100
AcDbLine
 10
126.1374237363995
 20
-43.01295500334589
 11
126.1374237363995
 21
-42.83995500334589
  0
LINE
  5
DD
100
AcDbEntity
  8
0
  6
ByLayer
 62
  256
370
   -1
100
AcDbLine
 10
126.1374237363995
 20
-42.83995500334589
 11
126.4224237363995
 21
-42.3229550033459
  0
LINE
  5
DE
100
AcDbEntity
  8
0
  6
ByLayer
 62
  256
370
   -1
100
AcDbLine
 10
126.4224237363995
 20
-42.3229550033459
 11
126.9394237363995
 21
-42.03795500334587
  0
LINE
  5
DF
100
AcDbEntity
  8
0
  6
ByLayer
 62
  256
370
   -1
100
AcDbLine
 10
126.9394237363995
 20
-42.03795500334587
 11
127.1134237363995
 21
-42.03795500334587
  0
LINE
  5
E0
100
AcDbEntity
  8
0
  6
ByLayer
 62
  256
370
   -1
100
AcDbLine
 10
127.1134237363995
 20
-42.03795500334587
 11
127.2854237363995
 21
-42.03795500334587
  0
LINE
  5
E1
100
AcDbEntity
  8
0
  6
ByLayer
 62
  256
370
   -1
100
AcDbLine
 10
127.2854237363995
 20
-42.03795500334587
 11
127.8024237363996
 21
-42.3229550033459
  0
LINE
  5
E2
100
AcDbEntity
  8
0
  6
ByLayer
 62
  256
370
   -1
100
AcDbLine
 10
127.8024237363996
 20
-42.3229550033459
 11
128.0874237363996
 21
-42.83995500334589
  0
LINE
  5
E3
100
AcDbEntity
  8
0
  6
ByLayer
 62
  256
370
   -1
100
AcDbLine
 10
128.0874237363996
 20
-42.83995500334589
 11
128.0874237363996
 21
-43.01295500334589
  0
LINE
  5
E4
100
AcDbEntity
  8
0
  6
ByLayer
 62
  256
370
   -1
100
AcDbLine
 10
109.0291237363996
 20
-122.9999550033458
 11
145.2709904245824
 21
-143.9091319050633
  0
ARC
  5
E5
100
AcDbEntity
  8
0
  6
ByLayer
 62
  256
370
   -1
100
AcDbCircle
 10
145.7707201880432
 20
-143.0429505363471
 40
1
100
AcDbArc
 50
240.0178770956076
 51
329.9314171781378
  0
LINE
  5
E6
100
AcDbEntity
  8
0
  6
ByLayer
 62
  256
370
   -1
100
AcDbLine
 10
167.9938096157055
 20
-84.13789453369975
 11
167.9938096157055
 21
-97.77116626989744
  0
LINE
  5
E7
100
AcDbEntity
  8
0
  6
ByLayer
 62
  256
370
   -1
100
AcDbLine
 10
167.9938096157055
 20
-97.77116626989744
 11
167.9938096157055
 21
-100.4541662698974
  0
LINE
  5
E8
100
AcDbEntity
  8
0
  6
ByLayer
 62
  256
370
   -1
100
AcDbLine
 10
167.9938096157055
 20
-84.13789453369975
 11
167.9943848909018
 21
-82.1187938123494
  0
LINE
  5
E9
100
AcDbEntity
  8
0
  6
ByLayer
 62
  256
370
   -1
100
AcDbLine
 10
167.9938096157055
 20
-100.4541662698974
 11
164.5627692873414
 21
-112.5798201284775
  0
LINE
  5
EA
100
AcDbEntity
  8
0
  6
ByLayer
 62
  256
370
   -1
100
AcDbLine
 10
146.6361464735243
 20
-143.5439868068886
 11
164.5627692873414
 21
-112.5798201284775
  0
LINE
  5
EB
100
AcDbEntity
  8
0
  6
ByLayer
 62
  256
370
   -1
100
AcDbLine
 10
124.3463257363994
 20
-21.70295500334578
 11
122.6234237363996
 21
-21.70295500334578
  0
LINE
  5
EC
100
AcDbEntity
  8
0
  6
ByLayer
 62
  256
370
   -1
100
AcDbLine
 10
167.9938096157055
 20
-84.13789453369964
 11
167.9938096157055
 21
-97.77116626989744
  0
LINE
  5
ED
100
AcDbEntity
  8
0
  6
ByLayer
 62
  256
370
   -1
100
AcDbLine
 10
167.9938096157055
 20
-97.77116626989744
 11
167.9938096157055
 21
-100.4541662698972
  0
LINE
  5
EE
100
AcDbEntity
  8
0
  6
ByLayer
 62
  256
370
   -1
100
AcDbLine
 10
167.9938096157055
 20
-84.13789453369964
 11
167.9943848909018
 21
-82.1187938123494
  0
LINE
  5
EF
100
AcDbEntity
  8
0
  6
ByLayer
 62
  256
370
   -1
100
AcDbLine
 10
167.9938096157055
 20
-100.4541662698972
 11
164.5627692873414
 21
-112.5798201284774
  0
LINE
  5
F0
100
AcDbEntity
  8
0
  6
ByLayer
 62
  256
370
   -1
100
AcDbLine
 10
147.6674237363997
 20
-35.64325500334564
 11
147.6674237363997
 21
-35.41525500334581
  0
LINE
  5
F1
100
AcDbEntity
  8
0
  6
ByLayer
 62
  256
370
   -1
100
AcDbLine
 10
147.6674237363997
 20
-35.41525500334581
 11
147.5794237363995
 21
-34.73525500334569
  0
LINE
  5
F2
100
AcDbEntity
  8
0
  6
ByLayer
 62
  256
370
   -1
100
AcDbLine
 10
147.5794237363995
 20
-34.73525500334569
 11
147.3384237363995
 21
-33.74325500334578
  0
LINE
  5
F3
100
AcDbEntity
  8
0
  6
ByLayer
 62
  256
370
   -1
100
AcDbLine
 10
147.3384237363995
 20
-33.74325500334578
 11
146.9824237363995
 21
-32.78625500334579
  0
LINE
  5
F4
100
AcDbEntity
  8
0
  6
ByLayer
 62
  256
370
   -1
100
AcDbLine
 10
146.9824237363995
 20
-32.78625500334579
 11
146.6754237363995
 21
-32.17325500334567
  0
LINE
  5
F5
100
AcDbEntity
  8
0
  6
ByLayer
 62
  256
370
   -1
100
AcDbLine
 10
146.6754237363995
 20
-32.17325500334567
 11
146.5504237363995
 21
-31.98625500334578
  0
LINE
  5
F6
100
AcDbEntity
  8
0
  6
ByLayer
 62
  256
370
   -1
100
AcDbLine
 10
146.5504237363995
 20
-31.98625500334578
 11
140.7404237363995
 21
-23.36525500334568
  0
LINE
  5
F7
100
AcDbEntity
  8
0
  6
ByLayer
 62
  256
370
   -1
100
AcDbLine
 10
140.7404237363995
 20
-23.36525500334568
 11
140.6184237363995
 21
-23.18425500334581
  0
LINE
  5
F8
100
AcDbEntity
  8
0
  6
ByLayer
 62
  256
370
   -1
100
AcDbLine
 10
140.6184237363995
 20
-23.18425500334581
 11
140.1474237363995
 21
-22.7202550033457
  0
LINE
  5
F9
100
AcDbEntity
  8
0
  6
ByLayer
 62
  256
370
   -1
100
AcDbLine
 10
140.1474237363995
 20
-22.7202550033457
 11
139.3634237363995
 21
-22.19225500334568
  0
LINE
  5
FA
100
AcDbEntity
  8
0
  6
ByLayer
 62
  256
370
   -1
100
AcDbLine
 10
139.3634237363995
 20
-22.19225500334568
 11
138.4874237363995
 21
-21.83625500334568
  0
LINE
  5
FB
100
AcDbEntity
  8
0
  6
ByLayer
 62
  256
370
   -1
100
AcDbLine
 10
138.4874237363995
 20
-21.83625500334568
 11
137.8374237363996
 21
-21.70525500334577
  0
LINE
  5
FC
100
AcDbEntity
  8
0
  6
ByLayer
 62
  256
370
   -1
100
AcDbLine
 10
137.8374237363996
 20
-21.70525500334577
 11
137.5063257363995
 21
-21.70525500334577
  0
LINE
  5
FD
100
AcDbEntity
  8
0
  6
ByLayer
 62
  256
370
   -1
100
AcDbLine
 10
125.3463257363994
 20
-36.40655500334577
 11
137.5063257363995
 21
-36.40655500334577
  0
LINE
  5
FE
100
AcDbEntity
  8
0
  6
ByLayer
 62
  256
370
   -1
100
AcDbLine
 10
137.5063257363995
 20
-36.40655500334577
 11
137.5063257363995
 21
-21.70755500334565
  0
LINE
  5
FF
100
AcDbEntity
  8
0
  6
ByLayer
 62
  256
370
   -1
100
AcDbLine
 10
125.3463257363994
 20
-21.70755500334565
 11
125.3463257363994
 21
-36.40425500334578
  0
LINE
  5
100
100
AcDbEntity
  8
0
  6
ByLayer
 62
  256
370
   -1
100
AcDbLine
 10
124.3463257363994
 20
-21.70525500334577
 11
125.3463257363994
 21
-21.70755500334565
  0
LINE
  5
101
100
AcDbEntity
  8
0
  6
ByLayer
 62
  256
370
   -1
100
AcDbLine
 10
161.015518422076
 20
-104.8376592436894
 11
161.015518422076
 21
-105.0096592436895
  0
LINE
  5
102
100
AcDbEntity
  8
0
  6
ByLayer
 62
  256
370
   -1
100
AcDbLine
 10
161.015518422076
 20
-105.0096592436895
 11
160.729518422076
 21
-105.5266592436894
  0
LINE
  5
103
100
AcDbEntity
  8
0
  6
ByLayer
 62
  256
370
   -1
100
AcDbLine
 10
160.729518422076
 20
-105.5266592436894
 11
160.2115184220759
 21
-105.8136592436895
  0
LINE
  5
104
100
AcDbEntity
  8
0
  6
ByLayer
 62
  256
370
   -1
100
AcDbLine
 10
160.2115184220759
 20
-105.8136592436895
 11
160.039518422076
 21
-105.8136592436895
  0
LINE
  5
105
100
AcDbEntity
  8
0
  6
ByLayer
 62
  256
370
   -1
100
AcDbLine
 10
160.039518422076
 20
-105.8136592436895
 11
159.867518422076
 21
-105.8136592436895
  0
LINE
  5
106
100
AcDbEntity
  8
0
  6
ByLayer
 62
  256
370
   -1
100
AcDbLine
 10
159.867518422076
 20
-105.8136592436895
 11
159.3505184220758
 21
-105.5266592436894
  0
LINE
  5
107
100
AcDbEntity
  8
0
  6
ByLayer
 62
  256
370
   -1
100
AcDbLine
 10
159.3505184220758
 20
-105.5266592436894
 11
159.065518422076
 21
-105.0096592436895
  0
LINE
  5
108
100
AcDbEntity
  8
0
  6
ByLayer
 62
  256
370
   -1
100
AcDbLine
 10
159.065518422076
 20
-105.0096592436895
 11
159.065518422076
 21
-104.8376592436894
  0
LINE
  5
109
100
AcDbEntity
  8
0
  6
ByLayer
 62
  256
370
   -1
100
AcDbLine
 10
159.065518422076
 20
-104.8376592436894
 11
159.065518422076
 21
-104.6636592436895
  0
LINE
  5
10A
100
AcDbEntity
  8
0
  6
ByLayer
 62
  256
370
   -1
100
AcDbLine
 10
159.065518422076
 20
-104.6636592436895
 11
159.3505184220758
 21
-104.1476592436895
  0
LINE
  5
10B
100
AcDbEntity
  8
0
  6
ByLayer
 62
  256
370
   -1
100
AcDbLine
 10
159.3505184220758
 20
-104.1476592436895
 11
159.867518422076
 21
-103.8626592436893
  0
LINE
  5
10C
100
AcDbEntity
  8
0
  6
ByLayer
 62
  256
370
   -1
100
AcDbLine
 10
159.867518422076
 20
-103.8626592436893
 11
160.039518422076
 21
-103.8626592436893
  0
LINE
  5
10D
100
AcDbEntity
  8
0
  6
ByLayer
 62
  256
370
   -1
100
AcDbLine
 10
160.039518422076
 20
-103.8626592436893
 11
160.2115184220759
 21
-103.8626592436893
  0
LINE
  5
10E
100
AcDbEntity
  8
0
  6
ByLayer
 62
  256
370
   -1
100
AcDbLine
 10
160.2115184220759
 20
-103.8626592436893
 11
160.729518422076
 21
-104.1476592436895
  0
LINE
  5
10F
100
AcDbEntity
  8
0
  6
ByLayer
 62
  256
370
   -1
100
AcDbLine
 10
160.729518422076
 20
-104.1476592436895
 11
161.015518422076
 21
-104.6636592436895
  0
LINE
  5
110
100
AcDbEntity
  8
0
  6
ByLayer
 62
  256
370
   -1
100
AcDbLine
 10
161.015518422076
 20
-104.6636592436895
 11
161.015518422076
 21
-104.8376592436894
  0
LINE
  5
111
100
AcDbEntity
  8
0
  6
ByLayer
 62
  256
370
   -1
100
AcDbLine
 10
66.70432573639954
 20
-13.73630972977071
 11
14.53712373639954
 21
-25.46395500334575
  0
LINE
  5
112
100
AcDbEntity
  8
0
  6
ByLayer
 62
  256
370
   -1
100
AcDbLine
 10
118.9914237363996
 20
-20.5489550033459
 11
111.3443257363995
 21
-15.13976858314987
  0
CIRCLE
  5
113
100
AcDbEntity
  8
0
  6
ByLayer
 62
  256
370
   -1
100
AcDbCircle
 10
202.8487211414966
 20
-73.81390398632584
 40
7.999984
  0
ARC
  5
114
100
AcDbEntity
  8
0
  6
ByLayer
 62
  256
370
   -1
100
AcDbCircle
 10
166.3313203961195
 20
-74.92346152358573
 40
1.67892611119629
100
AcDbArc
 50
359.8173728751784
 51
90
  0
LINE
  5
115
100
AcDbEntity
  8
0
  6
ByLayer
 62
  256
370
   -1
100
AcDbLine
 10
157.0068861312972
 20
-73.24453541238938
 11
166.3313203961195
 21
-73.24453541238938
  0
ARC
  5
116
100
AcDbEntity
  8
0
  6
ByLayer
 62
  256
370
   -1
100
AcDbCircle
 10
158.0068861312972
 20
-62.92322610513338
 40
10.32360930725594
100
AcDbArc
 50
180
 51
270
  0
LINE
  5
117
100
AcDbEntity
  8
0
  6
ByLayer
 62
  256
370
   -1
100
AcDbLine
 10
168.0102379785434
 20
-74.928812998544
 11
168.0102379785434
 21
-82.1187938123494
  0
LINE
  5
118
100
AcDbEntity
  8
0
  6
ByLayer
 62
  256
370
   -1
100
AcDbLine
 10
147.6674237363997
 20
-35.64325500334564
 11
147.6674237363997
 21
-62.92322610513338
  0
CIRCLE
  5
119
100
AcDbEntity
  8
0
  6
ByLayer
 62
  256
370
   -1
100
AcDbCircle
 10
196.6257211414965
 20
-86.55403598632586
 40
1.15
  0
CIRCLE
  5
11A
100
AcDbEntity
  8
0
  6
ByLayer
 62
  256
370
   -1
100
AcDbCircle
 10
209.0717211414967
 20
-86.55403598632586
 40
1.15
  0
CIRCLE
  5
11B
100
AcDbEntity
  8
0
  6
ByLayer
 62
  256
370
   -1
100
AcDbCircle
 10
209.1987211414966
 20
-63.69403598632584
 40
1.15
  0
CIRCLE
  5
11C
100
AcDbEntity
  8
0
  6
ByLayer
 62
  256
370
   -1
100
AcDbCircle
 10
196.4987211414966
 20
-63.69403598632584
 40
1.15
  0
LWPOLYLINE
  5
11D
100
AcDbEntity
  8
0
  6
ByLayer
 62
  256
370
   -1
100
AcDbPolyline
 90
    6
 70
    0
 43
0
 10
212.3593193414966
 20
-67.15742758632581
 10
212.3593193414966
 20
-62.40762758632587
 10
211.2417193414965
 20
-61.29002758632589
 10
194.4777193414965
 20
-61.29002758632589
 10
193.3601193414965
 20
-62.40762758632587
 10
193.3601193414965
 20
-67.15742758632581
  0
LWPOLYLINE
  5
11E
100
AcDbEntity
  8
0
  6
ByLayer
 62
  256
370
   -1
100
AcDbPolyline
 90
    6
 70
    0
 43
0
 10
193.3491211414965
 20
-83.09963598632578
 10
193.3491211414965
 20
-87.84943598632577
 10
194.4667211414966
 20
-88.96703598632587
 10
211.2307211414966
 20
-88.96703598632587
 10
212.3483211414967
 20
-87.84943598632577
 10
212.3483211414967
 20
-83.09963598632578
  0
LINE
  5
11F
100
AcDbEntity
  8
0
  6
ByLayer
 62
  256
370
   -1
100
AcDbLine
 10
193.3601193414965
 20
-67.15742758632581
 11
193.3491211414965
 21
-83.09963598632578
  0
LINE
  5
120
100
AcDbEntity
  8
0
  6
ByLayer
 62
  256
370
   -1
100
AcDbLine
 10
212.3593193414966
 20
-67.15742758632581
 11
212.3483211414967
 21
-83.09963598632578
  0
CIRCLE
  5
121
100
AcDbEntity
  8
0
  6
ByLayer
 62
  256
370
   -1
100
AcDbCircle
 10
164.1217166071801
 20
-99.04116626989753
 40
1.15
  0
CIRCLE
  5
122
100
AcDbEntity
  8
0
  6
ByLayer
 62
  256
370
   -1
100
AcDbCircle
 10
151.6757166071799
 20
-99.04116626989753
 40
1.15
  0
CIRCLE
  5
123
100
AcDbEntity
  8
0
  6
ByLayer
 62
  256
370
   -1
100
AcDbCircle
 10
151.54871660718
 20
-76.18116626989752
 40
1.15
  0
CIRCLE
  5
124
100
AcDbEntity
  8
0
  6
ByLayer
 62
  256
370
   -1
100
AcDbCircle
 10
164.24871660718
 20
-76.18116626989752
 40
1.15
  0
LINE
  5
125
100
AcDbEntity
  8
0
  6
ByLayer
 62
  256
370
   -1
100
AcDbLine
 10
127.8354237363995
 20
-283.8499550033459
 11
128.0024237363995
 21
-283.9459550033458
  0
LINE
  5
126
100
AcDbEntity
  8
0
  6
ByLayer
 62
  256
370
   -1
100
AcDbLine
 10
122.6234237363996
 20
-171.7029550033458
 11
122.3964237363995
 21
-171.7029550033458
  0
LINE
  5
127
100
AcDbEntity
  8
0
  6
ByLayer
 62
  256
370
   -1
100
AcDbLine
 10
122.3964237363995
 20
-171.7029550033458
 11
121.7164237363995
 21
-171.6109550033459
  0
LINE
  5
128
100
AcDbEntity
  8
0
  6
ByLayer
 62
  256
370
   -1
100
AcDbLine
 10
121.7164237363995
 20
-171.6109550033459
 11
120.7304237363996
 21
-171.3629550033457
  0
LINE
  5
129
100
AcDbEntity
  8
0
  6
ByLayer
 62
  256
370
   -1
100
AcDbLine
 10
120.7304237363996
 20
-171.3629550033457
 11
119.7824237363996
 21
-170.9959550033459
  0
LINE
  5
12A
100
AcDbEntity
  8
0
  6
ByLayer
 62
  256
370
   -1
100
AcDbLine
 10
119.7824237363996
 20
-170.9959550033459
 11
119.1744237363995
 21
-170.6779550033459
  0
LINE
  5
12B
100
AcDbEntity
  8
0
  6
ByLayer
 62
  256
370
   -1
100
AcDbLine
 10
119.1744237363995
 20
-170.6779550033459
 11
118.9914237363996
 21
-170.5489550033459
  0
LINE
  5
12C
100
AcDbEntity
  8
0
  6
ByLayer
 62
  256
370
   -1
100
AcDbLine
 10
14.53712373639954
 20
-175.4639550033457
 11
14.33869373639953
 21
-175.5079550033459
  0
LINE
  5
12D
100
AcDbEntity
  8
0
  6
ByLayer
 62
  256
370
   -1
100
AcDbLine
 10
14.33869373639953
 20
-175.5079550033459
 11
13.77920373639952
 21
-175.7919550033458
  0
LINE
  5
12E
100
AcDbEntity
  8
0
  6
ByLayer
 62
  256
370
   -1
100
AcDbLine
 10
13.77920373639952
 20
-175.7919550033458
 11
13.15770973639954
 21
-176.3609550033459
  0
LINE
  5
12F
100
AcDbEntity
  8
0
  6
ByLayer
 62
  256
370
   -1
100
AcDbLine
 10
13.15770973639954
 20
-176.3609550033459
 11
12.73878773639953
 21
-177.0899550033459
  0
LINE
  5
130
100
AcDbEntity
  8
0
  6
ByLayer
 62
  256
370
   -1
100
AcDbLine
 10
12.73878773639953
 20
-177.0899550033459
 11
12.58582573639953
 21
-177.6989550033458
  0
LINE
  5
131
100
AcDbEntity
  8
0
  6
ByLayer
 62
  256
370
   -1
100
AcDbLine
 10
12.58582573639953
 20
-177.6989550033458
 11
12.58582573639953
 21
-177.9029550033458
  0
LINE
  5
132
100
AcDbEntity
  8
0
  6
ByLayer
 62
  256
370
   -1
100
AcDbLine
 10
12.58582573639953
 20
-177.9029550033458
 11
12.58582573639953
 21
-270.0019550033458
  0
LINE
  5
133
100
AcDbEntity
  8
0
  6
ByLayer
 62
  256
370
   -1
100
AcDbLine
 10
12.58582573639953
 20
-270.0019550033458
 11
12.58582573639953
 21
-270.1949550033459
  0
LINE
  5
134
100
AcDbEntity
  8
0
  6
ByLayer
 62
  256
370
   -1
100
AcDbLine
 10
12.58582573639953
 20
-270.1949550033459
 11
12.74292173639952
 21
-270.7779550033459
  0
LINE
  5
135
100
AcDbEntity
  8
0
  6
ByLayer
 62
  256
370
   -1
100
AcDbLine
 10
12.74292173639952
 20
-270.7779550033459
 11
13.17286873639952
 21
-271.4129550033459
  0
LINE
  5
136
100
AcDbEntity
  8
0
  6
ByLayer
 62
  256
370
   -1
100
AcDbLine
 10
13.17286873639952
 20
-271.4129550033459
 11
13.80814373639953
 21
-271.8429550033458
  0
LINE
  5
137
100
AcDbEntity
  8
0
  6
ByLayer
 62
  256
370
   -1
100
AcDbLine
 10
13.80814373639953
 20
-271.8429550033458
 11
14.39105373639953
 21
-272.0009550033458
  0
LINE
  5
138
100
AcDbEntity
  8
0
  6
ByLayer
 62
  256
370
   -1
100
AcDbLine
 10
14.39105373639953
 20
-272.0009550033458
 11
14.58536373639953
 21
-272.0009550033458
  0
LINE
  5
139
100
AcDbEntity
  8
0
  6
ByLayer
 62
  256
370
   -1
100
AcDbLine
 10
14.58536373639953
 20
-272.0009550033458
 11
105.2974237363997
 21
-272.0009550033458
  0
LINE
  5
13A
100
AcDbEntity
  8
0
  6
ByLayer
 62
  256
370
   -1
100
AcDbLine
 10
105.2974237363997
 20
-272.0009550033458
 11
105.5249237363996
 21
-272.0009550033458
  0
LINE
  5
13B
100
AcDbEntity
  8
0
  6
ByLayer
 62
  256
370
   -1
100
AcDbLine
 10
105.5249237363996
 20
-272.0009550033458
 11
106.2097237363996
 21
-272.0799550033458
  0
LINE
  5
13C
100
AcDbEntity
  8
0
  6
ByLayer
 62
  256
370
   -1
100
AcDbLine
 10
106.2097237363996
 20
-272.0799550033458
 11
107.2183237363996
 21
-272.2949550033458
  0
LINE
  5
13D
100
AcDbEntity
  8
0
  6
ByLayer
 62
  256
370
   -1
100
AcDbLine
 10
107.2183237363996
 20
-272.2949550033458
 11
108.1983237363995
 21
-272.6119550033458
  0
LINE
  5
13E
100
AcDbEntity
  8
0
  6
ByLayer
 62
  256
370
   -1
100
AcDbLine
 10
108.1983237363995
 20
-272.6119550033458
 11
108.8308237363995
 21
-272.8859550033458
  0
LINE
  5
13F
100
AcDbEntity
  8
0
  6
ByLayer
 62
  256
370
   -1
100
AcDbLine
 10
108.8308237363995
 20
-272.8859550033458
 11
109.0291237363996
 21
-272.9999550033458
  0
LINE
  5
140
100
AcDbEntity
  8
0
  6
ByLayer
 62
  256
370
   -1
100
AcDbLine
 10
32.83882373639952
 20
-195.5529550033459
 11
32.83882373639952
 21
-195.7249550033458
  0
LINE
  5
141
100
AcDbEntity
  8
0
  6
ByLayer
 62
  256
370
   -1
100
AcDbLine
 10
32.83882373639952
 20
-195.7249550033458
 11
32.55222373639953
 21
-196.2419550033458
  0
LINE
  5
142
100
AcDbEntity
  8
0
  6
ByLayer
 62
  256
370
   -1
100
AcDbLine
 10
32.55222373639953
 20
-196.2419550033458
 11
32.03542373639954
 21
-196.5269550033458
  0
LINE
  5
143
100
AcDbEntity
  8
0
  6
ByLayer
 62
  256
370
   -1
100
AcDbLine
 10
32.03542373639954
 20
-196.5269550033458
 11
31.86322373639953
 21
-196.5269550033458
  0
LINE
  5
144
100
AcDbEntity
  8
0
  6
ByLayer
 62
  256
370
   -1
100
AcDbLine
 10
31.86322373639953
 20
-196.5269550033458
 11
31.68952373639954
 21
-196.5269550033458
  0
LINE
  5
145
100
AcDbEntity
  8
0
  6
ByLayer
 62
  256
370
   -1
100
AcDbLine
 10
31.68952373639954
 20
-196.5269550033458
 11
31.17282373639952
 21
-196.2419550033458
  0
LINE
  5
146
100
AcDbEntity
  8
0
  6
ByLayer
 62
  256
370
   -1
100
AcDbLine
 10
31.17282373639952
 20
-196.2419550033458
 11
30.88892373639953
 21
-195.7249550033458
  0
LINE
  5
147
100
AcDbEntity
  8
0
  6
ByLayer
 62
  256
370
   -1
100
AcDbLine
 10
30.88892373639953
 20
-195.7249550033458
 11
30.88892373639953
 21
-195.5529550033459
  0
LINE
  5
148
100
AcDbEntity
  8
0
  6
ByLayer
 62
  256
370
   -1
100
AcDbLine
 10
30.88892373639953
 20
-195.5529550033459
 11
30.88892373639953
 21
-195.3789550033458
  0
LINE
  5
149
100
AcDbEntity
  8
0
  6
ByLayer
 62
  256
370
   -1
100
AcDbLine
 10
30.88892373639953
 20
-195.3789550033458
 11
31.17282373639952
 21
-194.8629550033457
  0
LINE
  5
14A
100
AcDbEntity
  8
0
  6
ByLayer
 62
  256
370
   -1
100
AcDbLine
 10
31.17282373639952
 20
-194.8629550033457
 11
31.68952373639954
 21
-194.5779550033458
  0
LINE
  5
14B
100
AcDbEntity
  8
0
  6
ByLayer
 62
  256
370
   -1
100
AcDbLine
 10
31.68952373639954
 20
-194.5779550033458
 11
31.86322373639953
 21
-194.5779550033458
  0
LINE
  5
14C
100
AcDbEntity
  8
0
  6
ByLayer
 62
  256
370
   -1
100
AcDbLine
 10
31.86322373639953
 20
-194.5779550033458
 11
32.03542373639954
 21
-194.5779550033458
  0
LINE
  5
14D
100
AcDbEntity
  8
0
  6
ByLayer
 62
  256
370
   -1
100
AcDbLine
 10
32.03542373639954
 20
-194.5779550033458
 11
32.55222373639953
 21
-194.8629550033457
  0
LINE
  5
14E
100
AcDbEntity
  8
0
  6
ByLayer
 62
  256
370
   -1
100
AcDbLine
 10
32.55222373639953
 20
-194.8629550033457
 11
32.83882373639952
 21
-195.3789550033458
  0
LINE
  5
14F
100
AcDbEntity
  8
0
  6
ByLayer
 62
  256
370
   -1
100
AcDbLine
 10
32.83882373639952
 20
-195.3789550033458
 11
32.83882373639952
 21
-195.5529550033459
  0
LINE
  5
150
100
AcDbEntity
  8
0
  6
ByLayer
 62
  256
370
   -1
100
AcDbLine
 10
70.93902373639952
 20
-209.7769550033458
 11
70.93902373639952
 21
-209.9479550033459
  0
LINE
  5
151
100
AcDbEntity
  8
0
  6
ByLayer
 62
  256
370
   -1
100
AcDbLine
 10
70.93902373639952
 20
-209.9479550033459
 11
70.65222373639952
 21
-210.4649550033459
  0
LINE
  5
152
100
AcDbEntity
  8
0
  6
ByLayer
 62
  256
370
   -1
100
AcDbLine
 10
70.65222373639952
 20
-210.4649550033459
 11
70.13532373639953
 21
-210.7519550033458
  0
LINE
  5
153
100
AcDbEntity
  8
0
  6
ByLayer
 62
  256
370
   -1
100
AcDbLine
 10
70.13532373639953
 20
-210.7519550033458
 11
69.96322373639953
 21
-210.7519550033458
  0
LINE
  5
154
100
AcDbEntity
  8
0
  6
ByLayer
 62
  256
370
   -1
100
AcDbLine
 10
69.96322373639953
 20
-210.7519550033458
 11
69.78962373639953
 21
-210.7519550033458
  0
LINE
  5
155
100
AcDbEntity
  8
0
  6
ByLayer
 62
  256
370
   -1
100
AcDbLine
 10
69.78962373639953
 20
-210.7519550033458
 11
69.27282373639954
 21
-210.4649550033459
  0
LINE
  5
156
100
AcDbEntity
  8
0
  6
ByLayer
 62
  256
370
   -1
100
AcDbLine
 10
69.27282373639954
 20
-210.4649550033459
 11
68.98882373639952
 21
-209.9479550033459
  0
LINE
  5
157
100
AcDbEntity
  8
0
  6
ByLayer
 62
  256
370
   -1
100
AcDbLine
 10
68.98882373639952
 20
-209.9479550033459
 11
68.98882373639952
 21
-209.7769550033458
  0
LINE
  5
158
100
AcDbEntity
  8
0
  6
ByLayer
 62
  256
370
   -1
100
AcDbLine
 10
68.98882373639952
 20
-209.7769550033458
 11
68.98882373639952
 21
-209.6039550033458
  0
LINE
  5
159
100
AcDbEntity
  8
0
  6
ByLayer
 62
  256
370
   -1
100
AcDbLine
 10
68.98882373639952
 20
-209.6039550033458
 11
69.27282373639954
 21
-209.0869550033459
  0
LINE
  5
15A
100
AcDbEntity
  8
0
  6
ByLayer
 62
  256
370
   -1
100
AcDbLine
 10
69.27282373639954
 20
-209.0869550033459
 11
69.78962373639953
 21
-208.8009550033458
  0
LINE
  5
15B
100
AcDbEntity
  8
0
  6
ByLayer
 62
  256
370
   -1
100
AcDbLine
 10
69.78962373639953
 20
-208.8009550033458
 11
69.96322373639953
 21
-208.8009550033458
  0
LINE
  5
15C
100
AcDbEntity
  8
0
  6
ByLayer
 62
  256
370
   -1
100
AcDbLine
 10
69.96322373639953
 20
-208.8009550033458
 11
70.13532373639953
 21
-208.8009550033458
  0
LINE
  5
15D
100
AcDbEntity
  8
0
  6
ByLayer
 62
  256
370
   -1
100
AcDbLine
 10
70.13532373639953
 20
-208.8009550033458
 11
70.65222373639952
 21
-209.0869550033459
  0
LINE
  5
15E
100
AcDbEntity
  8
0
  6
ByLayer
 62
  256
370
   -1
100
AcDbLine
 10
70.65222373639952
 20
-209.0869550033459
 11
70.93902373639952
 21
-209.6039550033458
  0
LINE
  5
15F
100
AcDbEntity
  8
0
  6
ByLayer
 62
  256
370
   -1
100
AcDbLine
 10
70.93902373639952
 20
-209.6039550033458
 11
70.93902373639952
 21
-209.7769550033458
  0
LINE
  5
160
100
AcDbEntity
  8
0
  6
ByLayer
 62
  256
370
   -1
100
AcDbLine
 10
64.71562373639952
 20
-170.6619550033459
 11
64.71562373639952
 21
-170.8319550033459
  0
LINE
  5
161
100
AcDbEntity
  8
0
  6
ByLayer
 62
  256
370
   -1
100
AcDbLine
 10
64.71562373639952
 20
-170.8319550033459
 11
64.42922373639954
 21
-171.3489550033458
  0
LINE
  5
162
100
AcDbEntity
  8
0
  6
ByLayer
 62
  256
370
   -1
100
AcDbLine
 10
64.42922373639954
 20
-171.3489550033458
 11
63.91232373639954
 21
-171.6359550033458
  0
LINE
  5
163
100
AcDbEntity
  8
0
  6
ByLayer
 62
  256
370
   -1
100
AcDbLine
 10
63.91232373639954
 20
-171.6359550033458
 11
63.73982373639953
 21
-171.6359550033458
  0
LINE
  5
164
100
AcDbEntity
  8
0
  6
ByLayer
 62
  256
370
   -1
100
AcDbLine
 10
63.73982373639953
 20
-171.6359550033458
 11
63.56632373639954
 21
-171.6359550033458
  0
LINE
  5
165
100
AcDbEntity
  8
0
  6
ByLayer
 62
  256
370
   -1
100
AcDbLine
 10
63.56632373639954
 20
-171.6359550033458
 11
63.04942373639952
 21
-171.3489550033458
  0
LINE
  5
166
100
AcDbEntity
  8
0
  6
ByLayer
 62
  256
370
   -1
100
AcDbLine
 10
63.04942373639952
 20
-171.3489550033458
 11
62.76582373639954
 21
-170.8319550033459
  0
LINE
  5
167
100
AcDbEntity
  8
0
  6
ByLayer
 62
  256
370
   -1
100
AcDbLine
 10
62.76582373639954
 20
-170.8319550033459
 11
62.76582373639954
 21
-170.6619550033459
  0
LINE
  5
168
100
AcDbEntity
  8
0
  6
ByLayer
 62
  256
370
   -1
100
AcDbLine
 10
62.76582373639954
 20
-170.6619550033459
 11
62.76582373639954
 21
-170.4879550033457
  0
LINE
  5
169
100
AcDbEntity
  8
0
  6
ByLayer
 62
  256
370
   -1
100
AcDbLine
 10
62.76582373639954
 20
-170.4879550033457
 11
63.04942373639952
 21
-169.9709550033459
  0
LINE
  5
16A
100
AcDbEntity
  8
0
  6
ByLayer
 62
  256
370
   -1
100
AcDbLine
 10
63.04942373639952
 20
-169.9709550033459
 11
63.56632373639954
 21
-169.6859550033459
  0
LINE
  5
16B
100
AcDbEntity
  8
0
  6
ByLayer
 62
  256
370
   -1
100
AcDbLine
 10
63.56632373639954
 20
-169.6859550033459
 11
63.73982373639953
 21
-169.6859550033459
  0
LINE
  5
16C
100
AcDbEntity
  8
0
  6
ByLayer
 62
  256
370
   -1
100
AcDbLine
 10
63.73982373639953
 20
-169.6859550033459
 11
63.91232373639954
 21
-169.6859550033459
  0
LINE
  5
16D
100
AcDbEntity
  8
0
  6
ByLayer
 62
  256
370
   -1
100
AcDbLine
 10
63.91232373639954
 20
-169.6859550033459
 11
64.42922373639954
 21
-169.9709550033459
  0
LINE
  5
16E
100
AcDbEntity
  8
0
  6
ByLayer
 62
  256
370
   -1
100
AcDbLine
 10
64.42922373639954
 20
-169.9709550033459
 11
64.71562373639952
 21
-170.4879550033457
  0
LINE
  5
16F
100
AcDbEntity
  8
0
  6
ByLayer
 62
  256
370
   -1
100
AcDbLine
 10
64.71562373639952
 20
-170.4879550033457
 11
64.71562373639952
 21
-170.6619550033459
  0
LINE
  5
170
100
AcDbEntity
  8
0
  6
ByLayer
 62
  256
370
   -1
100
AcDbLine
 10
32.83882373639952
 20
-252.9569550033458
 11
32.83882373639952
 21
-253.1289550033459
  0
LINE
  5
171
100
AcDbEntity
  8
0
  6
ByLayer
 62
  256
370
   -1
100
AcDbLine
 10
32.83882373639952
 20
-253.1289550033459
 11
32.55222373639953
 21
-253.6459550033458
  0
LINE
  5
172
100
AcDbEntity
  8
0
  6
ByLayer
 62
  256
370
   -1
100
AcDbLine
 10
32.55222373639953
 20
-253.6459550033458
 11
32.03542373639954
 21
-253.9319550033459
  0
LINE
  5
173
100
AcDbEntity
  8
0
  6
ByLayer
 62
  256
370
   -1
100
AcDbLine
 10
32.03542373639954
 20
-253.9319550033459
 11
31.86322373639953
 21
-253.9319550033459
  0
LINE
  5
174
100
AcDbEntity
  8
0
  6
ByLayer
 62
  256
370
   -1
100
AcDbLine
 10
31.86322373639953
 20
-253.9319550033459
 11
31.68952373639954
 21
-253.9319550033459
  0
LINE
  5
175
100
AcDbEntity
  8
0
  6
ByLayer
 62
  256
370
   -1
100
AcDbLine
 10
31.68952373639954
 20
-253.9319550033459
 11
31.17282373639952
 21
-253.6459550033458
  0
LINE
  5
176
100
AcDbEntity
  8
0
  6
ByLayer
 62
  256
370
   -1
100
AcDbLine
 10
31.17282373639952
 20
-253.6459550033458
 11
30.88892373639953
 21
-253.1289550033459
  0
LINE
  5
177
100
AcDbEntity
  8
0
  6
ByLayer
 62
  256
370
   -1
100
AcDbLine
 10
30.88892373639953
 20
-253.1289550033459
 11
30.88892373639953
 21
-252.9569550033458
  0
LINE
  5
178
100
AcDbEntity
  8
0
  6
ByLayer
 62
  256
370
   -1
100
AcDbLine
 10
30.88892373639953
 20
-252.9569550033458
 11
30.88892373639953
 21
-252.7829550033459
  0
LINE
  5
179
100
AcDbEntity
  8
0
  6
ByLayer
 62
  256
370
   -1
100
AcDbLine
 10
30.88892373639953
 20
-252.7829550033459
 11
31.17282373639952
 21
-252.2659550033458
  0
LINE
  5
17A
100
AcDbEntity
  8
0
  6
ByLayer
 62
  256
370
   -1
100
AcDbLine
 10
31.17282373639952
 20
-252.2659550033458
 11
31.68952373639954
 21
-251.9809550033458
  0
LINE
  5
17B
100
AcDbEntity
  8
0
  6
ByLayer
 62
  256
370
   -1
100
AcDbLine
 10
31.68952373639954
 20
-251.9809550033458
 11
31.86322373639953
 21
-251.9809550033458
  0
LINE
  5
17C
100
AcDbEntity
  8
0
  6
ByLayer
 62
  256
370
   -1
100
AcDbLine
 10
31.86322373639953
 20
-251.9809550033458
 11
32.03542373639954
 21
-251.9809550033458
  0
LINE
  5
17D
100
AcDbEntity
  8
0
  6
ByLayer
 62
  256
370
   -1
100
AcDbLine
 10
32.03542373639954
 20
-251.9809550033458
 11
32.55222373639953
 21
-252.2659550033458
  0
LINE
  5
17E
100
AcDbEntity
  8
0
  6
ByLayer
 62
  256
370
   -1
100
AcDbLine
 10
32.55222373639953
 20
-252.2659550033458
 11
32.83882373639952
 21
-252.7829550033459
  0
LINE
  5
17F
100
AcDbEntity
  8
0
  6
ByLayer
 62
  256
370
   -1
100
AcDbLine
 10
32.83882373639952
 20
-252.7829550033459
 11
32.83882373639952
 21
-252.9569550033458
  0
LINE
  5
180
100
AcDbEntity
  8
0
  6
ByLayer
 62
  256
370
   -1
100
AcDbLine
 10
71.44592373639952
 20
-245.3379550033458
 11
71.44592373639952
 21
-245.5079550033458
  0
LINE
  5
181
100
AcDbEntity
  8
0
  6
ByLayer
 62
  256
370
   -1
100
AcDbLine
 10
71.44592373639952
 20
-245.5079550033458
 11
71.16092373639952
 21
-246.0249550033458
  0
LINE
  5
182
100
AcDbEntity
  8
0
  6
ByLayer
 62
  256
370
   -1
100
AcDbLine
 10
71.16092373639952
 20
-246.0249550033458
 11
70.64402373639953
 21
-246.3119550033459
  0
LINE
  5
183
100
AcDbEntity
  8
0
  6
ByLayer
 62
  256
370
   -1
100
AcDbLine
 10
70.64402373639953
 20
-246.3119550033459
 11
70.47152373639952
 21
-246.3119550033459
  0
LINE
  5
184
100
AcDbEntity
  8
0
  6
ByLayer
 62
  256
370
   -1
100
AcDbLine
 10
70.47152373639952
 20
-246.3119550033459
 11
70.29802373639953
 21
-246.3119550033459
  0
LINE
  5
185
100
AcDbEntity
  8
0
  6
ByLayer
 62
  256
370
   -1
100
AcDbLine
 10
70.29802373639953
 20
-246.3119550033459
 11
69.78112373639954
 21
-246.0249550033458
  0
LINE
  5
186
100
AcDbEntity
  8
0
  6
ByLayer
 62
  256
370
   -1
100
AcDbLine
 10
69.78112373639954
 20
-246.0249550033458
 11
69.49612373639954
 21
-245.5079550033458
  0
LINE
  5
187
100
AcDbEntity
  8
0
  6
ByLayer
 62
  256
370
   -1
100
AcDbLine
 10
69.49612373639954
 20
-245.5079550033458
 11
69.49612373639954
 21
-245.3379550033458
  0
LINE
  5
188
100
AcDbEntity
  8
0
  6
ByLayer
 62
  256
370
   -1
100
AcDbLine
 10
69.49612373639954
 20
-245.3379550033458
 11
69.49612373639954
 21
-245.1639550033458
  0
LINE
  5
189
100
AcDbEntity
  8
0
  6
ByLayer
 62
  256
370
   -1
100
AcDbLine
 10
69.49612373639954
 20
-245.1639550033458
 11
69.78112373639954
 21
-244.6469550033459
  0
LINE
  5
18A
100
AcDbEntity
  8
0
  6
ByLayer
 62
  256
370
   -1
100
AcDbLine
 10
69.78112373639954
 20
-244.6469550033459
 11
70.29802373639953
 21
-244.3619550033458
  0
LINE
  5
18B
100
AcDbEntity
  8
0
  6
ByLayer
 62
  256
370
   -1
100
AcDbLine
 10
70.29802373639953
 20
-244.3619550033458
 11
70.47152373639952
 21
-244.3619550033458
  0
LINE
  5
18C
100
AcDbEntity
  8
0
  6
ByLayer
 62
  256
370
   -1
100
AcDbLine
 10
70.47152373639952
 20
-244.3619550033458
 11
70.64402373639953
 21
-244.3619550033458
  0
LINE
  5
18D
100
AcDbEntity
  8
0
  6
ByLayer
 62
  256
370
   -1
100
AcDbLine
 10
70.64402373639953
 20
-244.3619550033458
 11
71.16092373639952
 21
-244.6469550033459
  0
LINE
  5
18E
100
AcDbEntity
  8
0
  6
ByLayer
 62
  256
370
   -1
100
AcDbLine
 10
71.16092373639952
 20
-244.6469550033459
 11
71.44592373639952
 21
-245.1639550033458
  0
LINE
  5
18F
100
AcDbEntity
  8
0
  6
ByLayer
 62
  256
370
   -1
100
AcDbLine
 10
71.44592373639952
 20
-245.1639550033458
 11
71.44592373639952
 21
-245.3379550033458
  0
LINE
  5
190
100
AcDbEntity
  8
0
  6
ByLayer
 62
  256
370
   -1
100
AcDbLine
 10
122.1194237363995
 20
-252.7029550033458
 11
122.1194237363995
 21
-252.8749550033458
  0
LINE
  5
191
100
AcDbEntity
  8
0
  6
ByLayer
 62
  256
370
   -1
100
AcDbLine
 10
122.1194237363995
 20
-252.8749550033458
 11
121.8334237363995
 21
-253.3919550033459
  0
LINE
  5
192
100
AcDbEntity
  8
0
  6
ByLayer
 62
  256
370
   -1
100
AcDbLine
 10
121.8334237363995
 20
-253.3919550033459
 11
121.3154237363995
 21
-253.6789550033458
  0
LINE
  5
193
100
AcDbEntity
  8
0
  6
ByLayer
 62
  256
370
   -1
100
AcDbLine
 10
121.3154237363995
 20
-253.6789550033458
 11
121.1434237363995
 21
-253.6789550033458
  0
LINE
  5
194
100
AcDbEntity
  8
0
  6
ByLayer
 62
  256
370
   -1
100
AcDbLine
 10
121.1434237363995
 20
-253.6789550033458
 11
120.9714237363995
 21
-253.6789550033458
  0
LINE
  5
195
100
AcDbEntity
  8
0
  6
ByLayer
 62
  256
370
   -1
100
AcDbLine
 10
120.9714237363995
 20
-253.6789550033458
 11
120.4544237363995
 21
-253.3919550033459
  0
LINE
  5
196
100
AcDbEntity
  8
0
  6
ByLayer
 62
  256
370
   -1
100
AcDbLine
 10
120.4544237363995
 20
-253.3919550033459
 11
120.1694237363996
 21
-252.8749550033458
  0
LINE
  5
197
100
AcDbEntity
  8
0
  6
ByLayer
 62
  256
370
   -1
100
AcDbLine
 10
120.1694237363996
 20
-252.8749550033458
 11
120.1694237363996
 21
-252.7029550033458
  0
LINE
  5
198
100
AcDbEntity
  8
0
  6
ByLayer
 62
  256
370
   -1
100
AcDbLine
 10
120.1694237363996
 20
-252.7029550033458
 11
120.1694237363996
 21
-252.5289550033458
  0
LINE
  5
199
100
AcDbEntity
  8
0
  6
ByLayer
 62
  256
370
   -1
100
AcDbLine
 10
120.1694237363996
 20
-252.5289550033458
 11
120.4544237363995
 21
-252.0129550033458
  0
LINE
  5
19A
100
AcDbEntity
  8
0
  6
ByLayer
 62
  256
370
   -1
100
AcDbLine
 10
120.4544237363995
 20
-252.0129550033458
 11
120.9714237363995
 21
-251.7279550033458
  0
LINE
  5
19B
100
AcDbEntity
  8
0
  6
ByLayer
 62
  256
370
   -1
100
AcDbLine
 10
120.9714237363995
 20
-251.7279550033458
 11
121.1434237363995
 21
-251.7279550033458
  0
LINE
  5
19C
100
AcDbEntity
  8
0
  6
ByLayer
 62
  256
370
   -1
100
AcDbLine
 10
121.1434237363995
 20
-251.7279550033458
 11
121.3154237363995
 21
-251.7279550033458
  0
LINE
  5
19D
100
AcDbEntity
  8
0
  6
ByLayer
 62
  256
370
   -1
100
AcDbLine
 10
121.3154237363995
 20
-251.7279550033458
 11
121.8334237363995
 21
-252.0129550033458
  0
LINE
  5
19E
100
AcDbEntity
  8
0
  6
ByLayer
 62
  256
370
   -1
100
AcDbLine
 10
121.8334237363995
 20
-252.0129550033458
 11
122.1194237363995
 21
-252.5289550033458
  0
LINE
  5
19F
100
AcDbEntity
  8
0
  6
ByLayer
 62
  256
370
   -1
100
AcDbLine
 10
122.1194237363995
 20
-252.5289550033458
 11
122.1194237363995
 21
-252.7029550033458
  0
LINE
  5
1A0
100
AcDbEntity
  8
0
  6
ByLayer
 62
  256
370
   -1
100
AcDbLine
 10
128.0874237363996
 20
-193.0129550033459
 11
128.0874237363996
 21
-193.1839550033458
  0
LINE
  5
1A1
100
AcDbEntity
  8
0
  6
ByLayer
 62
  256
370
   -1
100
AcDbLine
 10
128.0874237363996
 20
-193.1839550033458
 11
127.8024237363996
 21
-193.7009550033458
  0
LINE
  5
1A2
100
AcDbEntity
  8
0
  6
ByLayer
 62
  256
370
   -1
100
AcDbLine
 10
127.8024237363996
 20
-193.7009550033458
 11
127.2854237363995
 21
-193.9879550033457
  0
LINE
  5
1A3
100
AcDbEntity
  8
0
  6
ByLayer
 62
  256
370
   -1
100
AcDbLine
 10
127.2854237363995
 20
-193.9879550033457
 11
127.1134237363995
 21
-193.9879550033457
  0
LINE
  5
1A4
100
AcDbEntity
  8
0
  6
ByLayer
 62
  256
370
   -1
100
AcDbLine
 10
127.1134237363995
 20
-193.9879550033457
 11
126.9394237363995
 21
-193.9879550033457
  0
LINE
  5
1A5
100
AcDbEntity
  8
0
  6
ByLayer
 62
  256
370
   -1
100
AcDbLine
 10
126.9394237363995
 20
-193.9879550033457
 11
126.4224237363995
 21
-193.7009550033458
  0
LINE
  5
1A6
100
AcDbEntity
  8
0
  6
ByLayer
 62
  256
370
   -1
100
AcDbLine
 10
126.4224237363995
 20
-193.7009550033458
 11
126.1374237363995
 21
-193.1839550033458
  0
LINE
  5
1A7
100
AcDbEntity
  8
0
  6
ByLayer
 62
  256
370
   -1
100
AcDbLine
 10
126.1374237363995
 20
-193.1839550033458
 11
126.1374237363995
 21
-193.0129550033459
  0
LINE
  5
1A8
100
AcDbEntity
  8
0
  6
ByLayer
 62
  256
370
   -1
100
AcDbLine
 10
126.1374237363995
 20
-193.0129550033459
 11
126.1374237363995
 21
-192.8399550033459
  0
LINE
  5
1A9
100
AcDbEntity
  8
0
  6
ByLayer
 62
  256
370
   -1
100
AcDbLine
 10
126.1374237363995
 20
-192.8399550033459
 11
126.4224237363995
 21
-192.3229550033459
  0
LINE
  5
1AA
100
AcDbEntity
  8
0
  6
ByLayer
 62
  256
370
   -1
100
AcDbLine
 10
126.4224237363995
 20
-192.3229550033459
 11
126.9394237363995
 21
-192.0379550033459
  0
LINE
  5
1AB
100
AcDbEntity
  8
0
  6
ByLayer
 62
  256
370
   -1
100
AcDbLine
 10
126.9394237363995
 20
-192.0379550033459
 11
127.1134237363995
 21
-192.0379550033459
  0
LINE
  5
1AC
100
AcDbEntity
  8
0
  6
ByLayer
 62
  256
370
   -1
100
AcDbLine
 10
127.1134237363995
 20
-192.0379550033459
 11
127.2854237363995
 21
-192.0379550033459
  0
LINE
  5
1AD
100
AcDbEntity
  8
0
  6
ByLayer
 62
  256
370
   -1
100
AcDbLine
 10
127.2854237363995
 20
-192.0379550033459
 11
127.8024237363996
 21
-192.3229550033459
  0
LINE
  5
1AE
100
AcDbEntity
  8
0
  6
ByLayer
 62
  256
370
   -1
100
AcDbLine
 10
127.8024237363996
 20
-192.3229550033459
 11
128.0874237363996
 21
-192.8399550033459
  0
LINE
  5
1AF
100
AcDbEntity
  8
0
  6
ByLayer
 62
  256
370
   -1
100
AcDbLine
 10
128.0874237363996
 20
-192.8399550033459
 11
128.0874237363996
 21
-193.0129550033459
  0
LINE
  5
1B0
100
AcDbEntity
  8
0
  6
ByLayer
 62
  256
370
   -1
100
AcDbLine
 10
109.0291237363996
 20
-272.9999550033458
 11
145.2709904245824
 21
-293.9091319050633
  0
ARC
  5
1B1
100
AcDbEntity
  8
0
  6
ByLayer
 62
  256
370
   -1
100
AcDbCircle
 10
145.7707201880432
 20
-293.0429505363471
 40
1
100
AcDbArc
 50
240.0178770956076
 51
329.9314171781378
  0
LINE
  5
1B2
100
AcDbEntity
  8
0
  6
ByLayer
 62
  256
370
   -1
100
AcDbLine
 10
167.9938096157055
 20
-234.1378945336998
 11
167.9938096157055
 21
-247.7711662698974
  0
LINE
  5
1B3
100
AcDbEntity
  8
0
  6
ByLayer
 62
  256
370
   -1
100
AcDbLine
 10
167.9938096157055
 20
-247.7711662698974
 11
167.9938096157055
 21
-250.4541662698974
  0
LINE
  5
1B4
100
AcDbEntity
  8
0
  6
ByLayer
 62
  256
370
   -1
100
AcDbLine
 10
167.9938096157055
 20
-234.1378945336998
 11
167.9943848909018
 21
-232.1187938123494
  0
LINE
  5
1B5
100
AcDbEntity
  8
0
  6
ByLayer
 62
  256
370
   -1
100
AcDbLine
 10
167.9938096157055
 20
-250.4541662698974
 11
164.5627692873414
 21
-262.5798201284775
  0
LINE
  5
1B6
100
AcDbEntity
  8
0
  6
ByLayer
 62
  256
370
   -1
100
AcDbLine
 10
146.6361464735243
 20
-293.5439868068886
 11
164.5627692873414
 21
-262.5798201284775
  0
LINE
  5
1B7
100
AcDbEntity
  8
0
  6
ByLayer
 62
  256
370
   -1
100
AcDbLine
 10
124.3463257363994
 20
-171.7029550033458
 11
122.6234237363996
 21
-171.7029550033458
  0
LINE
  5
1B8
100
AcDbEntity
  8
0
  6
ByLayer
 62
  256
370
   -1
100
AcDbLine
 10
167.9938096157055
 20
-234.1378945336996
 11
167.9938096157055
 21
-247.7711662698974
  0
LINE
  5
1B9
100
AcDbEntity
  8
0
  6
ByLayer
 62
  256
370
   -1
100
AcDbLine
 10
167.9938096157055
 20
-247.7711662698974
 11
167.9938096157055
 21
-250.4541662698972
  0
LINE
  5
1BA
100
AcDbEntity
  8
0
  6
ByLayer
 62
  256
370
   -1
100
AcDbLine
 10
167.9938096157055
 20
-234.1378945336996
 11
167.9943848909018
 21
-232.1187938123494
  0
LINE
  5
1BB
100
AcDbEntity
  8
0
  6
ByLayer
 62
  256
370
   -1
100
AcDbLine
 10
167.9938096157055
 20
-250.4541662698972
 11
164.5627692873414
 21
-262.5798201284774
  0
LINE
  5
1BC
100
AcDbEntity
  8
0
  6
ByLayer
 62
  256
370
   -1
100
AcDbLine
 10
147.6674237363997
 20
-185.6432550033456
 11
147.6674237363997
 21
-185.4152550033458
  0
LINE
  5
1BD
100
AcDbEntity
  8
0
  6
ByLayer
 62
  256
370
   -1
100
AcDbLine
 10
147.6674237363997
 20
-185.4152550033458
 11
147.5794237363995
 21
-184.7352550033457
  0
LINE
  5
1BE
100
AcDbEntity
  8
0
  6
ByLayer
 62
  256
370
   -1
100
AcDbLine
 10
147.5794237363995
 20
-184.7352550033457
 11
147.3384237363995
 21
-183.7432550033458
  0
LINE
  5
1BF
100
AcDbEntity
  8
0
  6
ByLayer
 62
  256
370
   -1
100
AcDbLine
 10
147.3384237363995
 20
-183.7432550033458
 11
146.9824237363995
 21
-182.7862550033458
  0
LINE
  5
1C0
100
AcDbEntity
  8
0
  6
ByLayer
 62
  256
370
   -1
100
AcDbLine
 10
146.9824237363995
 20
-182.7862550033458
 11
146.6754237363995
 21
-182.1732550033457
  0
LINE
  5
1C1
100
AcDbEntity
  8
0
  6
ByLayer
 62
  256
370
   -1
100
AcDbLine
 10
146.6754237363995
 20
-182.1732550033457
 11
146.5504237363995
 21
-181.9862550033458
  0
LINE
  5
1C2
100
AcDbEntity
  8
0
  6
ByLayer
 62
  256
370
   -1
100
AcDbLine
 10
146.5504237363995
 20
-181.9862550033458
 11
140.7404237363995
 21
-173.3652550033457
  0
LINE
  5
1C3
100
AcDbEntity
  8
0
  6
ByLayer
 62
  256
370
   -1
100
AcDbLine
 10
140.7404237363995
 20
-173.3652550033457
 11
140.6184237363995
 21
-173.1842550033458
  0
LINE
  5
1C4
100
AcDbEntity
  8
0
  6
ByLayer
 62
  256
370
   -1
100
AcDbLine
 10
140.6184237363995
 20
-173.1842550033458
 11
140.1474237363995
 21
-172.7202550033457
  0
LINE
  5
1C5
100
AcDbEntity
  8
0
  6
ByLayer
 62
  256
370
   -1
100
AcDbLine
 10
140.1474237363995
 20
-172.7202550033457
 11
139.3634237363995
 21
-172.1922550033457
  0
LINE
  5
1C6
100
AcDbEntity
  8
0
  6
ByLayer
 62
  256
370
   -1
100
AcDbLine
 10
139.3634237363995
 20
-172.1922550033457
 11
138.4874237363995
 21
-171.8362550033457
  0
LINE
  5
1C7
100
AcDbEntity
  8
0
  6
ByLayer
 62
  256
370
   -1
100
AcDbLine
 10
138.4874237363995
 20
-171.8362550033457
 11
137.8374237363996
 21
-171.7052550033458
  0
LINE
  5
1C8
100
AcDbEntity
  8
0
  6
ByLayer
 62
  256
370
   -1
100
AcDbLine
 10
137.8374237363996
 20
-171.7052550033458
 11
137.5063257363995
 21
-171.7052550033458
  0
LINE
  5
1C9
100
AcDbEntity
  8
0
  6
ByLayer
 62
  256
370
   -1
100
AcDbLine
 10
125.3463257363994
 20
-186.4065550033458
 11
137.5063257363995
 21
-186.4065550033458
  0
LINE
  5
1CA
100
AcDbEntity
  8
0
  6
ByLayer
 62
  256
370
   -1
100
AcDbLine
 10
137.5063257363995
 20
-186.4065550033458
 11
137.5063257363995
 21
-171.7075550033456
  0
LINE
  5
1CB
100
AcDbEntity
  8
0
  6
ByLayer
 62
  256
370
   -1
100
AcDbLine
 10
125.3463257363994
 20
-171.7075550033456
 11
125.3463257363994
 21
-186.4042550033458
  0
LINE
  5
1CC
100
AcDbEntity
  8
0
  6
ByLayer
 62
  256
370
   -1
100
AcDbLine
 10
124.3463257363994
 20
-171.7052550033458
 11
125.3463257363994
 21
-171.7075550033456
  0
LINE
  5
1CD
100
AcDbEntity
  8
0
  6
ByLayer
 62
  256
370
   -1
100
AcDbLine
 10
161.015518422076
 20
-254.8376592436894
 11
161.015518422076
 21
-255.0096592436895
  0
LINE
  5
1CE
100
AcDbEntity
  8
0
  6
ByLayer
 62
  256
370
   -1
100
AcDbLine
 10
161.015518422076
 20
-255.0096592436895
 11
160.729518422076
 21
-255.5266592436894
  0
LINE
  5
1CF
100
AcDbEntity
  8
0
  6
ByLayer
 62
  256
370
   -1
100
AcDbLine
 10
160.729518422076
 20
-255.5266592436894
 11
160.2115184220759
 21
-255.8136592436895
  0
LINE
  5
1D0
100
AcDbEntity
  8
0
  6
ByLayer
 62
  256
370
   -1
100
AcDbLine
 10
160.2115184220759
 20
-255.8136592436895
 11
160.039518422076
 21
-255.8136592436895
  0
LINE
  5
1D1
100
AcDbEntity
  8
0
  6
ByLayer
 62
  256
370
   -1
100
AcDbLine
 10
160.039518422076
 20
-255.8136592436895
 11
159.867518422076
 21
-255.8136592436895
  0
LINE
  5
1D2
100
AcDbEntity
  8
0
  6
ByLayer
 62
  256
370
   -1
100
AcDbLine
 10
159.867518422076
 20
-255.8136592436895
 11
159.3505184220758
 21
-255.5266592436894
  0
LINE
  5
1D3
100
AcDbEntity
  8
0
  6
ByLayer
 62
  256
370
   -1
100
AcDbLine
 10
159.3505184220758
 20
-255.5266592436894
 11
159.065518422076
 21
-255.0096592436895
  0
LINE
  5
1D4
100
AcDbEntity
  8
0
  6
ByLayer
 62
  256
370
   -1
100
AcDbLine
 10
159.065518422076
 20
-255.0096592436895
 11
159.065518422076
 21
-254.8376592436894
  0
LINE
  5
1D5
100
AcDbEntity
  8
0
  6
ByLayer
 62
  256
370
   -1
100
AcDbLine
 10
159.065518422076
 20
-254.8376592436894
 11
159.065518422076
 21
-254.6636592436895
  0
LINE
  5
1D6
100
AcDbEntity
  8
0
  6
ByLayer
 62
  256
370
   -1
100
AcDbLine
 10
159.065518422076
 20
-254.6636592436895
 11
159.3505184220758
 21
-254.1476592436895
  0
LINE
  5
1D7
100
AcDbEntity
  8
0
  6
ByLayer
 62
  256
370
   -1
100
AcDbLine
 10
159.3505184220758
 20
-254.1476592436895
 11
159.867518422076
 21
-253.8626592436893
  0
LINE
  5
1D8
100
AcDbEntity
  8
0
  6
ByLayer
 62
  256
370
   -1
100
AcDbLine
 10
159.867518422076
 20
-253.8626592436893
 11
160.039518422076
 21
-253.8626592436893
  0
LINE
  5
1D9
100
AcDbEntity
  8
0
  6
ByLayer
 62
  256
370
   -1
100
AcDbLine
 10
160.039518422076
 20
-253.8626592436893
 11
160.2115184220759
 21
-253.8626592436893
  0
LINE
  5
1DA
100
AcDbEntity
  8
0
  6
ByLayer
 62
  256
370
   -1
100
AcDbLine
 10
160.2115184220759
 20
-253.8626592436893
 11
160.729518422076
 21
-254.1476592436895
  0
LINE
  5
1DB
100
AcDbEntity
  8
0
  6
ByLayer
 62
  256
370
   -1
100
AcDbLine
 10
160.729518422076
 20
-254.1476592436895
 11
161.015518422076
 21
-254.6636592436895
  0
LINE
  5
1DC
100
AcDbEntity
  8
0
  6
ByLayer
 62
  256
370
   -1
100
AcDbLine
 10
161.015518422076
 20
-254.6636592436895
 11
161.015518422076
 21
-254.8376592436894
  0
LINE
  5
1DD
100
AcDbEntity
  8
0
  6
ByLayer
 62
  256
370
   -1
100
AcDbLine
 10
66.70432573639954
 20
-163.7363097297707
 11
14.53712373639954
 21
-175.4639550033457
  0
LINE
  5
1DE
100
AcDbEntity
  8
0
  6
ByLayer
 62
  256
370
   -1
100
AcDbLine
 10
118.9914237363996
 20
-170.5489550033459
 11
111.3443257363995
 21
-165.1397685831499
  0
CIRCLE
  5
1DF
100
AcDbEntity
  8
0
  6
ByLayer
 62
  256
370
   -1
100
AcDbCircle
 10
202.8487211414966
 20
-223.8139039863258
 40
7.999984
  0
ARC
  5
1E0
100
AcDbEntity
  8
0
  6
ByLayer
 62
  256
370
   -1
100
AcDbCircle
 10
166.3313203961195
 20
-224.9234615235857
 40
1.67892611119629
100
AcDbArc
 50
359.8173728751784
 51
90
  0
LINE
  5
1E1
100
AcDbEntity
  8
0
  6
ByLayer
 62
  256
370
   -1
100
AcDbLine
 10
157.0068861312972
 20
-223.2445354123894
 11
166.3313203961195
 21
-223.2445354123894
  0
ARC
  5
1E2
100
AcDbEntity
  8
0
  6
ByLayer
 62
  256
370
   -1
100
AcDbCircle
 10
158.0068861312972
 20
-212.9232261051334
 40
10.32360930725594
100
AcDbArc
 50
180
 51
270
  0
LINE
  5
1E3
100
AcDbEntity
  8
0
  6
ByLayer
 62
  256
370
   -1
100
AcDbLine
 10
168.0102379785434
 20
-224.928812998544
 11
168.0102379785434
 21
-232.1187938123494
  0
LINE
  5
1E4
100
AcDbEntity
  8
0
  6
ByLayer
 62
  256
370
   -1
100
AcDbLine
 10
147.6674237363997
 20
-185.6432550033456
 11
147.6674237363997
 21
-212.9232261051334
  0
CIRCLE
  5
1E5
100
AcDbEntity
  8
0
  6
ByLayer
 62
  256
370
   -1
100
AcDbCircle
 10
196.6257211414965
 20
-236.5540359863259
 40
1.15
  0
CIRCLE
  5
1E6
100
AcDbEntity
  8
0
  6
ByLayer
 62
  256
370
   -1
100
AcDbCircle
 10
209.0717211414967
 20
-236.5540359863259
 40
1.15
  0
CIRCLE
  5
1E7
100
AcDbEntity
  8
0
  6
ByLayer
 62
  256
370
   -1
100
AcDbCircle
 10
209.1987211414966
 20
-213.6940359863258
 40
1.15
  0
CIRCLE
  5
1E8
100
AcDbEntity
  8
0
  6
ByLayer
 62
  256
370
   -1
100
AcDbCircle
 10
196.4987211414966
 20
-213.6940359863258
 40
1.15
  0
LWPOLYLINE
  5
1E9
100
AcDbEntity
  8
0
  6
ByLayer
 62
  256
370
   -1
100
AcDbPolyline
 90
    6
 70
    0
 43
0
 10
212.3593193414966
 20
-217.1574275863258
 10
212.3593193414966
 20
-212.4076275863259
 10
211.2417193414965
 20
-211.2900275863259
 10
194.4777193414965
 20
-211.2900275863259
 10
193.3601193414965
 20
-212.4076275863259
 10
193.3601193414965
 20
-217.1574275863258
  0
LWPOLYLINE
  5
1EA
100
AcDbEntity
  8
0
  6
ByLayer
 62
  256
370
   -1
100
AcDbPolyline
 90
    6
 70
    0
 43
0
 10
193.3491211414965
 20
-233.0996359863258
 10
193.3491211414965
 20
-237.8494359863258
 10
194.4667211414966
 20
-238.9670359863259
 10
211.2307211414966
 20
-238.9670359863259
 10
212.3483211414967
 20
-237.8494359863258
 10
212.3483211414967
 20
-233.0996359863258
  0
LINE
  5
1EB
100
AcDbEntity
  8
0
  6
ByLayer
 62
  256
370
   -1
100
AcDbLine
 10
193.3601193414965
 20
-217.1574275863258
 11
193.3491211414965
 21
-233.0996359863258
  0
LINE
  5
1EC
100
AcDbEntity
  8
0
  6
ByLayer
 62
  256
370
   -1
100
AcDbLine
 10
212.3593193414966
 20
-217.1574275863258
 11
212.3483211414967
 21
-233.0996359863258
  0
CIRCLE
  5
1ED
100
AcDbEntity
  8
0
  6
ByLayer
 62
  256
370
   -1
100
AcDbCircle
 10
164.1217166071801
 20
-249.0411662698975
 40
1.15
  0
CIRCLE
  5
1EE
100
AcDbEntity
  8
0
  6
ByLayer
 62
  256
370
   -1
100
AcDbCircle
 10
151.6757166071799
 20
-249.0411662698975
 40
1.15
  0
CIRCLE
  5
1EF
100
AcDbEntity
  8
0
  6
ByLayer
 62
  256
370
   -1
100
AcDbCircle
 10
151.54871660718
 20
-226.1811662698975
 40
1.15
  0
CIRCLE
  5
1F0
100
AcDbEntity
  8
0
  6
ByLayer
 62
  256
370
   -1
100
AcDbCircle
 10
164.24871660718
 20
-226.1811662698975
 40
1.15
  0
LINE
  5
1F1
100
AcDbEntity
  8
0
  6
ByLayer
 62
  256
370
   -1
100
AcDbLine
 10
111.3443257363995
 20
-47.58021400334576
 11
66.70432573639954
 21
-47.58021400334576
  0
LINE
  5
1F2
100
AcDbEntity
  8
0
  6
ByLayer
 62
  256
370
   -1
100
AcDbLine
 10
111.3443257363995
 20
-47.58021400334575
 11
111.3443257363995
 21
-15.13976858314987
  0
LINE
  5
1F3
100
AcDbEntity
  8
0
  6
ByLayer
 62
  256
370
   -1
100
AcDbLine
 10
66.70432573639954
 20
-47.58021400334575
 11
66.70432573639954
 21
-13.73630972977071
  0
LINE
  5
1F4
100
AcDbEntity
  8
0
  6
ByLayer
 62
  256
370
   -1
100
AcDbLine
 10
111.3443257363995
 20
-197.5802140033458
 11
66.70432573639954
 21
-197.5802140033458
  0
LINE
  5
1F5
100
AcDbEntity
  8
0
  6
ByLayer
 62
  256
370
   -1
100
AcDbLine
 10
111.3443257363995
 20
-197.5802140033458
 11
111.3443257363995
 21
-165.1397685831499
  0
LINE
  5
1F6
100
AcDbEntity
  8
0
  6
ByLayer
 62
  256
370
   -1
100
AcDbLine
 10
66.70432573639954
 20
-197.5802140033458
 11
66.70432573639954
 21
-163.7363097297707
  0
ENDSEC
  0
SECTION
  2
OBJECTS
  0
DICTIONARY
  5
C
330
0
100
AcDbDictionary
281
    1
  3
ACAD_GROUP
350
D
  0
DICTIONARY
  5
D
330
C
100
AcDbDictionary
281
    1
  0
PLOTSETTINGS
  5
1F7
100
AcDbPlotSettings
  6
1x1
 40
0
 41
0
 42
0
 43
0
  0
ENDSEC
  0
EOF
