999
dxfrw 0.6.3
  0
SECTION
  2
HEADER
  9
$ACADVER
  1
AC1021
  9
$DWGCODEPAGE
  3
ANSI_936
  9
$INSBASE
 10
0
 20
0
 30
0
  9
$EXTMIN
 10
0
 20
-283.9357799757788
 30
0
  9
$EXTMAX
 10
367.714066336554
 20
-7.586368012708917
 30
0
  9
$LIMMIN
 10
0
 20
0
  9
$LIMMAX
 10
420
 20
297
  9
$ORTHOMODE
 70
    0
  9
$REGENMODE
 70
    1
  9
$FILLMODE
 70
    1
  9
$QTEXTMODE
 70
    0
  9
$MIRRTEXT
 70
    0
  9
$LTSCALE
 40
1
  9
$ATTMODE
 70
    1
  9
$TEXTSIZE
 40
2.5
  9
$TRACEWID
 40
1
  9
$TEXTSTYLE
  7
Standard
  9
$CLAYER
  8
0
  9
$CELTYPE
  6
ByLayer
  9
$CECOLOR
 62
  256
  9
$CELTSCALE
 40
1
  9
$DISPSILH
 70
    0
  9
$DIMSCALE
 40
1
  9
$DIMASZ
 40
2.5
  9
$DIMEXO
 40
0.625
  9
$DIMDLI
 40
3.75
  9
$DIMRND
 40
0
  9
$DIMDLE
 40
0
  9
$DIMEXE
 40
1.25
  9
$DIMTP
 40
0
  9
$DIMTM
 40
0
  9
$DIMTXT
 40
2.5
  9
$DIMCEN
 40
2.5
  9
$DIMTSZ
 40
0
  9
$DIMTOL
 70
    0
  9
$DIMLIM
 70
    0
  9
$DIMTIH
 70
    0
  9
$DIMTOH
 70
    0
  9
$DIMSE1
 70
    0
  9
$DIMSE2
 70
    0
  9
$DIMTAD
 70
    1
  9
$DIMZIN
 70
    8
  9
$DIMBLK
  1

  9
$DIMASO
 70
    1
  9
$DIMSHO
 70
    1
  9
$DIMPOST
  1

  9
$DIMAPOST
  1

  9
$DIMALT
 70
    0
  9
$DIMALTD
 70
    3
  9
$DIMALTF
 40
0.03937007874016
  9
$DIMLFAC
 40
1
  9
$DIMTOFL
 70
    1
  9
$DIMTVP
 40
0
  9
$DIMTIX
 70
    0
  9
$DIMSOXD
 70
    0
  9
$DIMSAH
 70
    0
  9
$DIMBLK1
  1

  9
$DIMBLK2
  1

  9
$DIMSTYLE
  2
ISO-25
  9
$DIMCLRD
 70
    0
  9
$DIMCLRE
 70
    0
  9
$DIMCLRT
 70
    0
  9
$DIMTFAC
 40
1
  9
$DIMGAP
 40
0.625
  9
$DIMJUST
 70
    0
  9
$DIMSD1
 70
    0
  9
$DIMSD2
 70
    0
  9
$DIMTOLJ
 70
    0
  9
$DIMTZIN
 70
    8
  9
$DIMALTZ
 70
    0
  9
$DIMALTTZ
 70
    0
  9
$DIMUPT
 70
    0
  9
$DIMDEC
 70
    2
  9
$DIMTDEC
 70
    2
  9
$DIMALTU
 70
    2
  9
$DIMALTTD
 70
    3
  9
$DIMTXSTY
  7
Standard
  9
$DIMAUNIT
 70
    0
  9
$DIMADEC
 70
    0
  9
$DIMALTRND
 40
0
  9
$DIMAZIN
 70
    0
  9
$DIMDSEP
 70
   44
  9
$DIMATFIT
 70
    3
  9
$DIMFRAC
 70
    0
  9
$DIMLDRBLK
  1

  9
$DIMLUNIT
 70
    2
  9
$DIMLWD
 70
   -2
  9
$DIMLWE
 70
   -2
  9
$DIMTMOVE
 70
    0
  9
$DIMFXL
 40
1
  9
$DIMFXLON
 70
    0
  9
$DIMJOGANG
 40
0.7853981633974483
  9
$DIMTFILL
 70
    0
  9
$DIMTFILLCLR
 70
    0
  9
$DIMARCSYM
 70
    0
  9
$DIMLTYPE
  6

  9
$DIMLTEX1
  6

  9
$DIMLTEX2
  6

  9
$LUNITS
 70
    2
  9
$LUPREC
 70
    4
  9
$SKETCHINC
 40
1
  9
$FILLETRAD
 40
0
  9
$AUNITS
 70
    0
  9
$AUPREC
 70
    0
  9
$MENU
  1
.
  9
$ELEVATION
 40
0
  9
$PELEVATION
 40
0
  9
$THICKNESS
 40
0
  9
$LIMCHECK
 70
    0
  9
$CHAMFERA
 40
0
  9
$CHAMFERB
 40
0
  9
$CHAMFERC
 40
0
  9
$CHAMFERD
 40
0
  9
$SKPOLY
 70
    0
  9
$USRTIMER
 70
    1
  9
$ANGBASE
 50
0
  9
$ANGDIR
 70
    0
  9
$PDMODE
 70
    0
  9
$PDSIZE
 40
0
  9
$PLINEWID
 40
0
  9
$SPLFRAME
 70
    0
  9
$SPLINETYPE
 70
    6
  9
$SPLINESEGS
 70
    8
  9
$HANDSEED
  5
20000
  9
$SURFTAB1
 70
    6
  9
$SURFTAB2
 70
    6
  9
$SURFTYPE
 70
    6
  9
$SURFU
 70
    6
  9
$SURFV
 70
    6
  9
$UCSBASE
  2

  9
$UCSNAME
  2

  9
$UCSORG
 10
0
 20
0
 30
0
  9
$UCSXDIR
 10
1
 20
0
 30
0
  9
$UCSYDIR
 10
0
 20
1
 30
0
  9
$UCSORTHOREF
  2

  9
$UCSORTHOVIEW
 70
    0
  9
$UCSORGTOP
 10
0
 20
0
 30
0
  9
$UCSORGBOTTOM
 10
0
 20
0
 30
0
  9
$UCSORGLEFT
 10
0
 20
0
 30
0
  9
$UCSORGRIGHT
 10
0
 20
0
 30
0
  9
$UCSORGFRONT
 10
0
 20
0
 30
0
  9
$UCSORGBACK
 10
0
 20
0
 30
0
  9
$PUCSBASE
  2

  9
$PUCSNAME
  2

  9
$PUCSORG
 10
0
 20
0
 30
0
  9
$PUCSXDIR
 10
1
 20
0
 30
0
  9
$PUCSYDIR
 10
0
 20
1
 30
0
  9
$PUCSORTHOREF
  2

  9
$PUCSORTHOVIEW
 70
    0
  9
$PUCSORGTOP
 10
0
 20
0
 30
0
  9
$PUCSORGBOTTOM
 10
0
 20
0
 30
0
  9
$PUCSORGLEFT
 10
0
 20
0
 30
0
  9
$PUCSORGRIGHT
 10
0
 20
0
 30
0
  9
$PUCSORGFRONT
 10
0
 20
0
 30
0
  9
$PUCSORGBACK
 10
0
 20
0
 30
0
  9
$USERI1
 70
    0
  9
$USERI2
 70
    0
  9
$USERI3
 70
    0
  9
$USERI4
 70
    0
  9
$USERI5
 70
    0
  9
$USERR1
 40
0
  9
$USERR2
 40
0
  9
$USERR3
 40
0
  9
$USERR4
 40
0
  9
$USERR5
 40
0
  9
$WORLDVIEW
 70
    1
  9
$SHADEDGE
 70
    3
  9
$SHADEDIF
 70
   70
  9
$TILEMODE
 70
    1
  9
$MAXACTVP
 70
   64
  9
$PINSBASE
 10
0
 20
0
 30
0
  9
$PLIMCHECK
 70
    0
  9
$PEXTMIN
 10
0
 20
0
 30
0
  9
$PEXTMAX
 10
0
 20
0
 30
0
  9
$GRIDMODE
 70
    1
  9
$SNAPSTYLE
 70
    0
  9
$PLIMMIN
 10
0
 20
0
  9
$PLIMMAX
 10
12
 20
9
  9
$UNITMODE
 70
    0
  9
$VISRETAIN
 70
    1
  9
$PLINEGEN
 70
    0
  9
$PSLTSCALE
 70
    1
  9
$TREEDEPTH
 70
 3020
  9
$CMLSTYLE
  2
Standard
  9
$CMLJUST
 70
    0
  9
$CMLSCALE
 40
20
  9
$PROXYGRAPHICS
 70
    1
  9
$MEASUREMENT
 70
    1
  9
$CELWEIGHT
370
   -1
  9
$ENDCAPS
280
    0
  9
$JOINSTYLE
280
    0
  9
$LWDISPLAY
290
    0
  9
$INSUNITS
 70
    4
  9
$HYPERLINKBASE
  1

  9
$STYLESHEET
  1

  9
$XEDIT
290
    1
  9
$CEPSNTYPE
380
    0
  9
$PSTYLEMODE
290
    1
  9
$EXTNAMES
290
    1
  9
$PSVPSCALE
 40
0
  9
$OLESTARTUP
290
    0
  9
$SORTENTS
280
  127
  9
$INDEXCTL
280
    0
  9
$HIDETEXT
280
    1
  9
$XCLIPFRAME
290
    0
  9
$HALOGAP
280
    0
  9
$OBSCOLOR
 70
  257
  9
$OBSLTYPE
280
    0
  9
$INTERSECTIONDISPLAY
280
    0
  9
$INTERSECTIONCOLOR
 70
  257
  9
$DIMASSOC
280
    2
  9
$PROJECTNAME
  1

  9
$CAMERADISPLAY
290
    0
  9
$LENSLENGTH
 40
50
  9
$CAMERAHEIGHT
 40
0
  9
$STEPSPERSEC
 40
2
  9
$STEPSIZE
 40
6
  9
$3DDWFPREC
 40
2
  9
$PSOLWIDTH
 40
5
  9
$PSOLHEIGHT
 40
80
  9
$LOFTANG1
 40
1.570796326794896
  9
$LOFTANG2
 40
1.570796326794896
  9
$LOFTMAG1
 40
0
  9
$LOFTMAG2
 40
0
  9
$LOFTPARAM
 70
    7
  9
$LOFTNORMALS
280
    1
  9
$LATITUDE
 40
37.795
  9
$LONGITUDE
 40
-122.394
  9
$NORTHDIRECTION
 40
0
  9
$TIMEZONE
 70
-8000
  9
$LIGHTGLYPHDISPLAY
280
    1
  9
$TILEMODELIGHTSYNCH
280
    1
  9
$SOLIDHIST
280
    0
  9
$SHOWHIST
280
    1
  9
$DWFFRAME
280
    2
  9
$DGNFRAME
280
    0
  9
$REALWORLDSCALE
290
    1
  9
$INTERFERECOLOR
 62
    1
  9
$CSHADOW
280
    0
  9
$SHADOWPLANELOCATION
 40
0
  0
ENDSEC
  0
SECTION
  2
CLASSES
  0
ENDSEC
  0
SECTION
  2
TABLES
  0
TABLE
  2
VPORT
  5
8
330
0
100
AcDbSymbolTable
 70
    1
  0
VPORT
  5
31
330
2
100
AcDbSymbolTableRecord
100
AcDbViewportTableRecord
  2
*ACTIVE
 70
    0
 10
0
 20
0
 11
1
 21
1
 12
202.7174674038029
 22
-10.26963755685506
 13
0
 23
0
 14
10
 24
10
 15
10
 25
10
 16
0
 26
0
 36
1
 17
0
 27
0
 37
0
 40
70.5066712937024
 41
1.936352509179927
 42
50
 43
0
 44
0
 50
0
 51
0
 71
    0
 72
  100
 73
    1
 74
    3
 75
    0
 76
    1
 77
    0
 78
    0
281
    0
 65
    1
110
0
120
0
130
0
111
1
121
0
131
0
112
0
122
1
132
0
 79
    0
146
0
348
10020
 60
    7
 61
    5
292
1
282
    1
141
0
142
0
 63
  250
421
3358443
  0
ENDTAB
  0
TABLE
  2
LTYPE
  5
5
330
0
100
AcDbSymbolTable
 70
    4
  0
LTYPE
  5
14
330
5
100
AcDbSymbolTableRecord
100
AcDbLinetypeTableRecord
  2
ByBlock
 70
    0
  3

 72
   65
 73
    0
 40
0
  0
LTYPE
  5
15
330
5
100
AcDbSymbolTableRecord
100
AcDbLinetypeTableRecord
  2
ByLayer
 70
    0
  3

 72
   65
 73
    0
 40
0
  0
LTYPE
  5
16
330
5
100
AcDbSymbolTableRecord
100
AcDbLinetypeTableRecord
  2
Continuous
 70
    0
  3
Solid line
 72
   65
 73
    0
 40
0
  0
LTYPE
  5
32
330
5
100
AcDbSymbolTableRecord
100
AcDbLinetypeTableRecord
  2
DOT
 70
    0
  3
Dot . . . . . . . . . . . . . . . . . . . . . .
 72
   65
 73
    2
 40
6.35
 49
0
 74
    0
 49
-6.35
 74
    0
  0
LTYPE
  5
33
330
5
100
AcDbSymbolTableRecord
100
AcDbLinetypeTableRecord
  2
DOTTINY
 70
    0
  3
Dot (.15x) .....................................
 72
   65
 73
    2
 40
0.9525
 49
0
 74
    0
 49
-0.9525
 74
    0
  0
LTYPE
  5
34
330
5
100
AcDbSymbolTableRecord
100
AcDbLinetypeTableRecord
  2
DOT2
 70
    0
  3
Dot (.5x) .....................................
 72
   65
 73
    2
 40
3.175
 49
0
 74
    0
 49
-3.175
 74
    0
  0
LTYPE
  5
35
330
5
100
AcDbSymbolTableRecord
100
AcDbLinetypeTableRecord
  2
DOTX2
 70
    0
  3
Dot (2x) .  .  .  .  .  .  .  .  .  .  .  .  .
 72
   65
 73
    2
 40
12.7
 49
0
 74
    0
 49
-12.7
 74
    0
  0
LTYPE
  5
36
330
5
100
AcDbSymbolTableRecord
100
AcDbLinetypeTableRecord
  2
DASHED
 70
    0
  3
Dashed _ _ _ _ _ _ _ _ _ _ _ _ _ _ _ _ _
 72
   65
 73
    2
 40
19.05
 49
12.7
 74
    0
 49
-6.35
 74
    0
  0
LTYPE
  5
37
330
5
100
AcDbSymbolTableRecord
100
AcDbLinetypeTableRecord
  2
DASHEDTINY
 70
    0
  3
Dashed (.15x) _ _ _ _ _ _ _ _ _ _ _ _ _ _ _ _ _
 72
   65
 73
    2
 40
2.8575
 49
1.905
 74
    0
 49
-0.9525
 74
    0
  0
LTYPE
  5
38
330
5
100
AcDbSymbolTableRecord
100
AcDbLinetypeTableRecord
  2
DASHED2
 70
    0
  3
Dashed (.5x) _ _ _ _ _ _ _ _ _ _ _ _ _ _ _ _ _
 72
   65
 73
    2
 40
9.524999999999999
 49
6.35
 74
    0
 49
-3.175
 74
    0
  0
LTYPE
  5
39
330
5
100
AcDbSymbolTableRecord
100
AcDbLinetypeTableRecord
  2
DASHEDX2
 70
    0
  3
Dashed (2x) ____  ____  ____  ____  ____  ___
 72
   65
 73
    2
 40
38.09999999999999
 49
25.4
 74
    0
 49
-12.7
 74
    0
  0
LTYPE
  5
3A
330
5
100
AcDbSymbolTableRecord
100
AcDbLinetypeTableRecord
  2
DASHDOT
 70
    0
  3
Dash dot __ . __ . __ . __ . __ . __ . __ . __
 72
   65
 73
    4
 40
25.4
 49
12.7
 74
    0
 49
-6.35
 74
    0
 49
0
 74
    0
 49
-6.35
 74
    0
  0
LTYPE
  5
3B
330
5
100
AcDbSymbolTableRecord
100
AcDbLinetypeTableRecord
  2
DASHDOTTINY
 70
    0
  3
Dash dot (.15x) _._._._._._._._._._._._._._._.
 72
   65
 73
    4
 40
3.81
 49
1.905
 74
    0
 49
-0.9525
 74
    0
 49
0
 74
    0
 49
-0.9525
 74
    0
  0
LTYPE
  5
3C
330
5
100
AcDbSymbolTableRecord
100
AcDbLinetypeTableRecord
  2
DASHDOT2
 70
    0
  3
Dash dot (.5x) _._._._._._._._._._._._._._._.
 72
   65
 73
    4
 40
12.7
 49
6.35
 74
    0
 49
-3.175
 74
    0
 49
0
 74
    0
 49
-3.175
 74
    0
  0
LTYPE
  5
3D
330
5
100
AcDbSymbolTableRecord
100
AcDbLinetypeTableRecord
  2
DASHDOTX2
 70
    0
  3
Dash dot (2x) ____  .  ____  .  ____  .  ___
 72
   65
 73
    4
 40
50.8
 49
25.4
 74
    0
 49
-12.7
 74
    0
 49
0
 74
    0
 49
-12.7
 74
    0
  0
LTYPE
  5
3E
330
5
100
AcDbSymbolTableRecord
100
AcDbLinetypeTableRecord
  2
DIVIDE
 70
    0
  3
Divide ____ . . ____ . . ____ . . ____ . . ____
 72
   65
 73
    6
 40
31.75
 49
12.7
 74
    0
 49
-6.35
 74
    0
 49
0
 74
    0
 49
-6.35
 74
    0
 49
0
 74
    0
 49
-6.35
 74
    0
  0
LTYPE
  5
3F
330
5
100
AcDbSymbolTableRecord
100
AcDbLinetypeTableRecord
  2
DIVIDETINY
 70
    0
  3
Divide (.15x) __..__..__..__..__..__..__..__.._
 72
   65
 73
    6
 40
4.7625
 49
1.905
 74
    0
 49
-0.9525
 74
    0
 49
0
 74
    0
 49
-0.9525
 74
    0
 49
0
 74
    0
 49
-0.9525
 74
    0
  0
LTYPE
  5
40
330
5
100
AcDbSymbolTableRecord
100
AcDbLinetypeTableRecord
  2
DIVIDE2
 70
    0
  3
Divide (.5x) __..__..__..__..__..__..__..__.._
 72
   65
 73
    6
 40
15.875
 49
6.35
 74
    0
 49
-3.175
 74
    0
 49
0
 74
    0
 49
-3.175
 74
    0
 49
0
 74
    0
 49
-3.175
 74
    0
  0
LTYPE
  5
41
330
5
100
AcDbSymbolTableRecord
100
AcDbLinetypeTableRecord
  2
DIVIDEX2
 70
    0
  3
Divide (2x) ________  .  .  ________  .  .  _
 72
   65
 73
    6
 40
63.5
 49
25.4
 74
    0
 49
-12.7
 74
    0
 49
0
 74
    0
 49
-12.7
 74
    0
 49
0
 74
    0
 49
-12.7
 74
    0
  0
LTYPE
  5
42
330
5
100
AcDbSymbolTableRecord
100
AcDbLinetypeTableRecord
  2
BORDER
 70
    0
  3
Border __ __ . __ __ . __ __ . __ __ . __ __ .
 72
   65
 73
    6
 40
44.45
 49
12.7
 74
    0
 49
-6.35
 74
    0
 49
12.7
 74
    0
 49
-6.35
 74
    0
 49
0
 74
    0
 49
-6.35
 74
    0
  0
LTYPE
  5
43
330
5
100
AcDbSymbolTableRecord
100
AcDbLinetypeTableRecord
  2
BORDERTINY
 70
    0
  3
Border (.15x) __.__.__.__.__.__.__.__.__.__.__.
 72
   65
 73
    6
 40
6.6675
 49
1.905
 74
    0
 49
-0.9525
 74
    0
 49
1.905
 74
    0
 49
-0.9525
 74
    0
 49
0
 74
    0
 49
-0.9525
 74
    0
  0
LTYPE
  5
44
330
5
100
AcDbSymbolTableRecord
100
AcDbLinetypeTableRecord
  2
BORDER2
 70
    0
  3
Border (.5x) __.__.__.__.__.__.__.__.__.__.__.
 72
   65
 73
    6
 40
22.225
 49
6.35
 74
    0
 49
-3.175
 74
    0
 49
6.35
 74
    0
 49
-3.175
 74
    0
 49
0
 74
    0
 49
-3.175
 74
    0
  0
LTYPE
  5
45
330
5
100
AcDbSymbolTableRecord
100
AcDbLinetypeTableRecord
  2
BORDERX2
 70
    0
  3
Border (2x) ____  ____  .  ____  ____  .  ___
 72
   65
 73
    6
 40
88.89999999999999
 49
25.4
 74
    0
 49
-12.7
 74
    0
 49
25.4
 74
    0
 49
-12.7
 74
    0
 49
0
 74
    0
 49
-12.7
 74
    0
  0
LTYPE
  5
46
330
5
100
AcDbSymbolTableRecord
100
AcDbLinetypeTableRecord
  2
CENTER
 70
    0
  3
Center ____ _ ____ _ ____ _ ____ _ ____ _ ____
 72
   65
 73
    4
 40
50.8
 49
31.75
 74
    0
 49
-6.35
 74
    0
 49
6.35
 74
    0
 49
-6.35
 74
    0
  0
LTYPE
  5
47
330
5
100
AcDbSymbolTableRecord
100
AcDbLinetypeTableRecord
  2
CENTERTINY
 70
    0
  3
Center (.15x) ___ _ ___ _ ___ _ ___ _ ___ _ ___
 72
   65
 73
    4
 40
7.62
 49
4.7625
 74
    0
 49
-0.9525
 74
    0
 49
0.9525
 74
    0
 49
-0.9525
 74
    0
  0
LTYPE
  5
48
330
5
100
AcDbSymbolTableRecord
100
AcDbLinetypeTableRecord
  2
CENTER2
 70
    0
  3
Center (.5x) ___ _ ___ _ ___ _ ___ _ ___ _ ___
 72
   65
 73
    4
 40
28.575
 49
19.05
 74
    0
 49
-3.175
 74
    0
 49
3.175
 74
    0
 49
-3.175
 74
    0
  0
LTYPE
  5
49
330
5
100
AcDbSymbolTableRecord
100
AcDbLinetypeTableRecord
  2
CENTERX2
 70
    0
  3
Center (2x) ________  __  ________  __  _____
 72
   65
 73
    4
 40
101.6
 49
63.5
 74
    0
 49
-12.7
 74
    0
 49
12.7
 74
    0
 49
-12.7
 74
    0
  0
ENDTAB
  0
TABLE
  2
LAYER
  5
2
330
0
100
AcDbSymbolTable
 70
    1
  0
LAYER
  5
10
330
2
100
AcDbSymbolTableRecord
100
AcDbLayerTableRecord
  2
0
 70
    0
 62
    7
  6
CONTINUOUS
370
   -3
390
F
  0
LAYER
  5
4A
330
2
100
AcDbSymbolTableRecord
100
AcDbLayerTableRecord
  2
Multi-Layer
 70
    0
 62
    9
  6
CONTINUOUS
370
   -3
390
F
  0
ENDTAB
  0
TABLE
  2
STYLE
  5
3
330
0
100
AcDbSymbolTable
 70
    3
  0
STYLE
  5
4B
330
2
100
AcDbSymbolTableRecord
100
AcDbTextStyleTableRecord
  2
Standard
 70
    0
 40
0
 41
1
 50
0
 71
    0
 42
1
  3
txt
  4

  0
ENDTAB
  0
TABLE
  2
VIEW
  5
6
330
0
100
AcDbSymbolTable
 70
    0
  0
ENDTAB
  0
TABLE
  2
UCS
  5
7
330
0
100
AcDbSymbolTable
 70
    0
  0
ENDTAB
  0
TABLE
  2
APPID
  5
9
330
0
100
AcDbSymbolTable
 70
    1
  0
APPID
  5
12
330
9
100
AcDbSymbolTableRecord
100
AcDbRegAppTableRecord
  2
ACAD
 70
    0
  0
APPID
  5
4C
330
9
100
AcDbSymbolTableRecord
100
AcDbRegAppTableRecord
  2
LibreCad
 70
    0
  0
ENDTAB
  0
TABLE
  2
DIMSTYLE
  5
A
330
0
100
AcDbSymbolTable
 70
    1
100
AcDbDimStyleTable
 71
    1
  0
DIMSTYLE
105
4D
330
A
100
AcDbSymbolTableRecord
100
AcDbDimStyleTableRecord
  2
Standard
 70
    0
 40
1
 41
2.5
 42
0.625
 43
0.38
 44
1.25
 45
0
 46
0
 47
0
 48
0
 49
1
140
2.5
141
0.09
142
0
143
25.4
144
1
145
0
146
1
147
0.625
148
0
 71
    0
 72
    0
 73
    0
 74
    1
 75
    0
 76
    0
 77
    0
 78
    8
 79
    0
170
    0
171
    2
172
    0
173
    0
174
    0
175
    0
176
    0
177
    0
178
    0
179
    0
271
    2
272
    4
273
    2
274
    2
275
    0
276
    0
277
    2
278
   44
279
    0
280
    0
281
    0
282
    0
283
    1
284
    0
285
    0
286
    0
288
    0
289
    3
340
Standard
341

371
   -2
372
   -2
  0
ENDTAB
  0
TABLE
  2
BLOCK_RECORD
  5
1
330
0
100
AcDbSymbolTable
 70
    2
  0
BLOCK_RECORD
  5
1F
330
1
100
AcDbSymbolTableRecord
100
AcDbBlockTableRecord
  2
*Model_Space
 70
    0
280
    1
281
    0
  0
BLOCK_RECORD
  5
1E
330
1
100
AcDbSymbolTableRecord
100
AcDbBlockTableRecord
  2
*Paper_Space
 70
    0
280
    1
281
    0
  0
ENDTAB
  0
ENDSEC
  0
SECTION
  2
BLOCKS
  0
BLOCK
  5
20
330
1F
100
AcDbEntity
  8
0
100
AcDbBlockBegin
  2
*Model_Space
 70
    0
 10
0
 20
0
 30
0
  3
*Model_Space
  1

  0
ENDBLK
  5
21
330
1F
100
AcDbEntity
  8
0
100
AcDbBlockEnd
  0
BLOCK
  5
1C
330
1B
100
AcDbEntity
  8
0
100
AcDbBlockBegin
  2
*Paper_Space
 70
    0
 10
0
 20
0
 30
0
  3
*Paper_Space
  1

  0
ENDBLK
  5
1D
330
1F
100
AcDbEntity
  8
0
100
AcDbBlockEnd
  0
ENDSEC
  0
SECTION
  2
ENTITIES
  0
LINE
  5
4E
100
AcDbEntity
  8
0
  6
ByLayer
 62
  256
370
   -1
100
AcDbLine
 10
115.249598
 20
-123.1293151930769
 11
115.416598
 21
-123.2253151930769
  0
LINE
  5
4F
100
AcDbEntity
  8
0
  6
ByLayer
 62
  256
370
   -1
100
AcDbLine
 10
1.951298
 20
-14.74331519307687
 11
1.752868
 21
-14.78731519307688
  0
LINE
  5
50
100
AcDbEntity
  8
0
  6
ByLayer
 62
  256
370
   -1
100
AcDbLine
 10
1.752868
 20
-14.78731519307688
 11
1.193378
 21
-15.07131519307687
  0
LINE
  5
51
100
AcDbEntity
  8
0
  6
ByLayer
 62
  256
370
   -1
100
AcDbLine
 10
1.193378
 20
-15.07131519307687
 11
0.5718839999999999
 21
-15.64031519307689
  0
LINE
  5
52
100
AcDbEntity
  8
0
  6
ByLayer
 62
  256
370
   -1
100
AcDbLine
 10
0.5718839999999999
 20
-15.64031519307689
 11
0.152962
 21
-16.36931519307687
  0
LINE
  5
53
100
AcDbEntity
  8
0
  6
ByLayer
 62
  256
370
   -1
100
AcDbLine
 10
0.152962
 20
-16.36931519307687
 11
0
 21
-16.97831519307688
  0
LINE
  5
54
100
AcDbEntity
  8
0
  6
ByLayer
 62
  256
370
   -1
100
AcDbLine
 10
0
 20
-16.97831519307688
 11
0
 21
-17.18231519307686
  0
LINE
  5
55
100
AcDbEntity
  8
0
  6
ByLayer
 62
  256
370
   -1
100
AcDbLine
 10
0
 20
-17.18231519307686
 11
0
 21
-109.2813151930768
  0
LINE
  5
56
100
AcDbEntity
  8
0
  6
ByLayer
 62
  256
370
   -1
100
AcDbLine
 10
0
 20
-109.2813151930768
 11
0
 21
-109.4743151930769
  0
LINE
  5
57
100
AcDbEntity
  8
0
  6
ByLayer
 62
  256
370
   -1
100
AcDbLine
 10
0
 20
-109.4743151930769
 11
0.157096
 21
-110.0573151930769
  0
LINE
  5
58
100
AcDbEntity
  8
0
  6
ByLayer
 62
  256
370
   -1
100
AcDbLine
 10
0.157096
 20
-110.0573151930769
 11
0.587043
 21
-110.6923151930769
  0
LINE
  5
59
100
AcDbEntity
  8
0
  6
ByLayer
 62
  256
370
   -1
100
AcDbLine
 10
0.587043
 20
-110.6923151930769
 11
1.222318
 21
-111.1223151930769
  0
LINE
  5
5A
100
AcDbEntity
  8
0
  6
ByLayer
 62
  256
370
   -1
100
AcDbLine
 10
1.222318
 20
-111.1223151930769
 11
1.805228
 21
-111.2803151930769
  0
LINE
  5
5B
100
AcDbEntity
  8
0
  6
ByLayer
 62
  256
370
   -1
100
AcDbLine
 10
1.805228
 20
-111.2803151930769
 11
1.999538
 21
-111.2803151930769
  0
LINE
  5
5C
100
AcDbEntity
  8
0
  6
ByLayer
 62
  256
370
   -1
100
AcDbLine
 10
1.999538
 20
-111.2803151930769
 11
92.71159800000001
 21
-111.2803151930769
  0
LINE
  5
5D
100
AcDbEntity
  8
0
  6
ByLayer
 62
  256
370
   -1
100
AcDbLine
 10
92.71159800000001
 20
-111.2803151930769
 11
92.939098
 21
-111.2803151930769
  0
LINE
  5
5E
100
AcDbEntity
  8
0
  6
ByLayer
 62
  256
370
   -1
100
AcDbLine
 10
92.939098
 20
-111.2803151930769
 11
93.62389800000001
 21
-111.3593151930769
  0
LINE
  5
5F
100
AcDbEntity
  8
0
  6
ByLayer
 62
  256
370
   -1
100
AcDbLine
 10
93.62389800000001
 20
-111.3593151930769
 11
94.63249800000001
 21
-111.5743151930769
  0
LINE
  5
60
100
AcDbEntity
  8
0
  6
ByLayer
 62
  256
370
   -1
100
AcDbLine
 10
94.63249800000001
 20
-111.5743151930769
 11
95.612498
 21
-111.8913151930769
  0
LINE
  5
61
100
AcDbEntity
  8
0
  6
ByLayer
 62
  256
370
   -1
100
AcDbLine
 10
95.612498
 20
-111.8913151930769
 11
96.24499800000001
 21
-112.1653151930769
  0
LINE
  5
62
100
AcDbEntity
  8
0
  6
ByLayer
 62
  256
370
   -1
100
AcDbLine
 10
96.24499800000001
 20
-112.1653151930769
 11
96.44329800000001
 21
-112.2793151930769
  0
LINE
  5
63
100
AcDbEntity
  8
0
  6
ByLayer
 62
  256
370
   -1
100
AcDbLine
 10
96.44329800000001
 20
-112.2793151930769
 11
132.6851646881829
 21
-133.1884920947944
  0
ARC
  5
64
100
AcDbEntity
  8
0
  6
ByLayer
 62
  256
370
   -1
100
AcDbCircle
 10
133.1848944516437
 20
-132.3223107260781
 40
1
100
AcDbArc
 50
240.0178770956076
 51
329.9314171781378
  0
LINE
  5
65
100
AcDbEntity
  8
0
  6
ByLayer
 62
  256
370
   -1
100
AcDbLine
 10
134.0503207371248
 20
-132.8233469966197
 11
151.9769435509419
 21
-101.8591803182086
  0
LINE
  5
66
100
AcDbEntity
  8
0
  6
ByLayer
 62
  256
370
   -1
100
AcDbLine
 10
156.3397072000001
 20
-89.15114809307697
 11
151.9769435509419
 21
-101.8591803182085
  0
LINE
  5
67
100
AcDbEntity
  8
0
  6
ByLayer
 62
  256
370
   -1
100
AcDbLine
 10
1.951298
 20
-14.74331519307687
 11
3.263711599999965
 21
-14.44436801270898
  0
LINE
  5
68
100
AcDbEntity
  8
0
  6
ByLayer
 62
  256
370
   -1
100
AcDbLine
 10
156.3398453223442
 20
-57.82946852648848
 11
156.3398383925425
 21
-59.40092338516047
  0
LINE
  5
69
100
AcDbEntity
  8
0
  6
ByLayer
 62
  256
370
   -1
100
AcDbLine
 10
154.0540119999999
 20
-14.44637461270894
 11
153.0647074
 21
-14.44637461270894
  0
ARC
  5
6A
100
AcDbEntity
  8
0
  6
ByLayer
 62
  256
370
   -1
100
AcDbCircle
 10
154.0540119999999
 20
-16.73237461270894
 40
2.286
100
AcDbArc
 50
0
 51
90
  0
LINE
  5
6B
100
AcDbEntity
  8
0
  6
ByLayer
 62
  256
370
   -1
100
AcDbLine
 10
156.3397072000001
 20
-89.15114809307697
 11
156.3400119999999
 21
-16.73237461270894
  0
ARC
  5
6C
100
AcDbEntity
  8
0
  6
ByLayer
 62
  256
370
   -1
100
AcDbCircle
 10
132.7028008592377
 20
-21.93636801271009
 40
1.127729880367895
100
AcDbArc
 50
270
 51
0
  0
ARC
  5
6D
100
AcDbEntity
  8
0
  6
ByLayer
 62
  256
370
   -1
100
AcDbCircle
 10
111.8947855850006
 20
-18.72933590342324
 40
1.127729880367895
100
AcDbArc
 50
162.735
 51
252.735
  0
LINE
  5
6E
100
AcDbEntity
  8
0
  6
ByLayer
 62
  256
370
   -1
100
AcDbLine
 10
123.6597115999999
 20
-23.06409789307682
 11
132.7028008592377
 21
-23.06409789307798
  0
ARC
  5
6F
100
AcDbEntity
  8
0
  6
ByLayer
 62
  256
370
   -1
100
AcDbCircle
 10
111.431689688765
 20
-11.80919100104037
 40
1.127729880367895
100
AcDbArc
 50
346.80243
 51
76.80243
  0
LINE
  5
70
100
AcDbEntity
  8
0
  6
ByLayer
 62
  256
370
   -1
100
AcDbLine
 10
110.8178686448321
 20
-18.3946351608895
 11
112.5296346291724
 21
-12.06666253521155
  0
LINE
  5
71
100
AcDbEntity
  8
0
  6
ByLayer
 62
  256
370
   -1
100
AcDbLine
 10
111.5449963095126
 20
-19.80365017706222
 11
123.6597115999999
 21
-23.06409789307682
  0
ARC
  5
72
100
AcDbEntity
  8
0
  6
ByLayer
 62
  256
370
   -1
100
AcDbCircle
 10
134.9582606199732
 20
-15.57410449307682
 40
1.127729880367895
100
AcDbArc
 50
90
 51
180
  0
LINE
  5
73
100
AcDbEntity
  8
0
  6
ByLayer
 62
  256
370
   -1
100
AcDbLine
 10
133.8305307396053
 20
-15.57410449307682
 11
133.8305307396056
 21
-21.93636801271009
  0
LWPOLYLINE
  5
74
100
AcDbEntity
  8
0
  6
ByLayer
 62
  256
370
   -1
100
AcDbPolyline
 90
    2
 70
    0
 43
0
 10
100.0808916
 20
-7.586368012708917
 10
57.36571159999998
 20
-7.586368012708917
  0
LWPOLYLINE
  5
75
100
AcDbEntity
  8
0
  6
ByLayer
 62
  256
370
   -1
100
AcDbPolyline
 90
    3
 70
    0
 43
0
 10
3.263711600000008
 20
-14.44436801270898
 10
57.36571159999998
 20
-7.586368012708917
 10
57.36571159999998
 20
-7.586368012708917
  0
LINE
  5
76
100
AcDbEntity
  8
0
  6
ByLayer
 62
  256
370
   -1
100
AcDbLine
 10
134.9582606199732
 20
-14.44637461270892
 11
153.0647074
 21
-14.44637461270894
  0
LINE
  5
77
100
AcDbEntity
  8
0
  6
ByLayer
 62
  256
370
   -1
100
AcDbLine
 10
111.6891612229357
 20
-10.71124606063287
 11
100.0808916
 21
-7.586368012708917
  0
LINE
  5
78
100
AcDbEntity
  8
0
  6
ByLayer
 62
  256
370
   -1
100
AcDbLine
 10
115.249598
 20
-273.7427844427776
 11
115.416598
 21
-273.8387844427776
  0
LINE
  5
79
100
AcDbEntity
  8
0
  6
ByLayer
 62
  256
370
   -1
100
AcDbLine
 10
1.951298000000001
 20
-165.3567844427776
 11
1.752867999999999
 21
-165.4007844427775
  0
LINE
  5
7A
100
AcDbEntity
  8
0
  6
ByLayer
 62
  256
370
   -1
100
AcDbLine
 10
1.752867999999999
 20
-165.4007844427775
 11
1.193378000000003
 21
-165.6847844427775
  0
LINE
  5
7B
100
AcDbEntity
  8
0
  6
ByLayer
 62
  256
370
   -1
100
AcDbLine
 10
1.193378000000003
 20
-165.6847844427775
 11
0.5718839999999972
 21
-166.2537844427775
  0
LINE
  5
7C
100
AcDbEntity
  8
0
  6
ByLayer
 62
  256
370
   -1
100
AcDbLine
 10
0.5718839999999972
 20
-166.2537844427775
 11
0.1529620000000023
 21
-166.9827844427775
  0
LINE
  5
7D
100
AcDbEntity
  8
0
  6
ByLayer
 62
  256
370
   -1
100
AcDbLine
 10
0.1529620000000023
 20
-166.9827844427775
 11
0
 21
-167.5917844427776
  0
LINE
  5
7E
100
AcDbEntity
  8
0
  6
ByLayer
 62
  256
370
   -1
100
AcDbLine
 10
0
 20
-167.5917844427776
 11
0
 21
-167.7957844427775
  0
LINE
  5
7F
100
AcDbEntity
  8
0
  6
ByLayer
 62
  256
370
   -1
100
AcDbLine
 10
0
 20
-167.7957844427775
 11
0
 21
-259.8947844427774
  0
LINE
  5
80
100
AcDbEntity
  8
0
  6
ByLayer
 62
  256
370
   -1
100
AcDbLine
 10
0
 20
-259.8947844427774
 11
0
 21
-260.0877844427775
  0
LINE
  5
81
100
AcDbEntity
  8
0
  6
ByLayer
 62
  256
370
   -1
100
AcDbLine
 10
0
 20
-260.0877844427775
 11
0.1570960000000028
 21
-260.6707844427776
  0
LINE
  5
82
100
AcDbEntity
  8
0
  6
ByLayer
 62
  256
370
   -1
100
AcDbLine
 10
0.1570960000000028
 20
-260.6707844427776
 11
0.5870430000000013
 21
-261.3057844427776
  0
LINE
  5
83
100
AcDbEntity
  8
0
  6
ByLayer
 62
  256
370
   -1
100
AcDbLine
 10
0.5870430000000013
 20
-261.3057844427776
 11
1.222318000000001
 21
-261.7357844427776
  0
LINE
  5
84
100
AcDbEntity
  8
0
  6
ByLayer
 62
  256
370
   -1
100
AcDbLine
 10
1.222318000000001
 20
-261.7357844427776
 11
1.805228
 21
-261.8937844427776
  0
LINE
  5
85
100
AcDbEntity
  8
0
  6
ByLayer
 62
  256
370
   -1
100
AcDbLine
 10
1.805228
 20
-261.8937844427776
 11
1.999538000000001
 21
-261.8937844427776
  0
LINE
  5
86
100
AcDbEntity
  8
0
  6
ByLayer
 62
  256
370
   -1
100
AcDbLine
 10
1.999538000000001
 20
-261.8937844427776
 11
92.71159800000001
 21
-261.8937844427776
  0
LINE
  5
87
100
AcDbEntity
  8
0
  6
ByLayer
 62
  256
370
   -1
100
AcDbLine
 10
92.71159800000001
 20
-261.8937844427776
 11
92.939098
 21
-261.8937844427776
  0
LINE
  5
88
100
AcDbEntity
  8
0
  6
ByLayer
 62
  256
370
   -1
100
AcDbLine
 10
92.939098
 20
-261.8937844427776
 11
93.62389800000001
 21
-261.9727844427775
  0
LINE
  5
89
100
AcDbEntity
  8
0
  6
ByLayer
 62
  256
370
   -1
100
AcDbLine
 10
93.62389800000001
 20
-261.9727844427775
 11
94.63249800000001
 21
-262.1877844427776
  0
LINE
  5
8A
100
AcDbEntity
  8
0
  6
ByLayer
 62
  256
370
   -1
100
AcDbLine
 10
94.63249800000001
 20
-262.1877844427776
 11
95.612498
 21
-262.5047844427776
  0
LINE
  5
8B
100
AcDbEntity
  8
0
  6
ByLayer
 62
  256
370
   -1
100
AcDbLine
 10
95.612498
 20
-262.5047844427776
 11
96.24499800000001
 21
-262.7787844427776
  0
LINE
  5
8C
100
AcDbEntity
  8
0
  6
ByLayer
 62
  256
370
   -1
100
AcDbLine
 10
96.24499800000001
 20
-262.7787844427776
 11
96.44329800000001
 21
-262.8927844427776
  0
LINE
  5
8D
100
AcDbEntity
  8
0
  6
ByLayer
 62
  256
370
   -1
100
AcDbLine
 10
96.44329800000001
 20
-262.8927844427776
 11
132.6851646881829
 21
-283.8019613444951
  0
ARC
  5
8E
100
AcDbEntity
  8
0
  6
ByLayer
 62
  256
370
   -1
100
AcDbCircle
 10
133.1848944516437
 20
-282.9357799757788
 40
1
100
AcDbArc
 50
240.0178770956076
 51
329.9314171781378
  0
LINE
  5
8F
100
AcDbEntity
  8
0
  6
ByLayer
 62
  256
370
   -1
100
AcDbLine
 10
134.0503207371248
 20
-283.4368162463204
 11
151.9769435509419
 21
-252.4726495679093
  0
LINE
  5
90
100
AcDbEntity
  8
0
  6
ByLayer
 62
  256
370
   -1
100
AcDbLine
 10
156.3397072000001
 20
-239.7646173427776
 11
151.9769435509419
 21
-252.4726495679092
  0
LINE
  5
91
100
AcDbEntity
  8
0
  6
ByLayer
 62
  256
370
   -1
100
AcDbLine
 10
1.951298000000001
 20
-165.3567844427776
 11
3.263711599999965
 21
-165.0578372624096
  0
LINE
  5
92
100
AcDbEntity
  8
0
  6
ByLayer
 62
  256
370
   -1
100
AcDbLine
 10
156.3398453223442
 20
-208.4429377761892
 11
156.3398383925425
 21
-210.0143926348611
  0
LINE
  5
93
100
AcDbEntity
  8
0
  6
ByLayer
 62
  256
370
   -1
100
AcDbLine
 10
154.0540119999999
 20
-165.0598438624096
 11
153.0647074
 21
-165.0598438624096
  0
ARC
  5
94
100
AcDbEntity
  8
0
  6
ByLayer
 62
  256
370
   -1
100
AcDbCircle
 10
154.0540119999999
 20
-167.3458438624096
 40
2.286
100
AcDbArc
 50
0
 51
90
  0
LINE
  5
95
100
AcDbEntity
  8
0
  6
ByLayer
 62
  256
370
   -1
100
AcDbLine
 10
156.3397072000001
 20
-239.7646173427776
 11
156.3400119999999
 21
-167.3458438624096
  0
ARC
  5
96
100
AcDbEntity
  8
0
  6
ByLayer
 62
  256
370
   -1
100
AcDbCircle
 10
132.7028008592377
 20
-172.5498372624108
 40
1.127729880367895
100
AcDbArc
 50
270
 51
0
  0
ARC
  5
97
100
AcDbEntity
  8
0
  6
ByLayer
 62
  256
370
   -1
100
AcDbCircle
 10
111.8947855850006
 20
-169.3428051531239
 40
1.127729880367895
100
AcDbArc
 50
162.735
 51
252.735
  0
LINE
  5
98
100
AcDbEntity
  8
0
  6
ByLayer
 62
  256
370
   -1
100
AcDbLine
 10
123.6597115999999
 20
-173.6775671427775
 11
132.7028008592377
 21
-173.6775671427787
  0
ARC
  5
99
100
AcDbEntity
  8
0
  6
ByLayer
 62
  256
370
   -1
100
AcDbCircle
 10
111.431689688765
 20
-162.422660250741
 40
1.127729880367895
100
AcDbArc
 50
346.80243
 51
76.80243
  0
LINE
  5
9A
100
AcDbEntity
  8
0
  6
ByLayer
 62
  256
370
   -1
100
AcDbLine
 10
110.8178686448321
 20
-169.0081044105902
 11
112.5296346291724
 21
-162.6801317849122
  0
LINE
  5
9B
100
AcDbEntity
  8
0
  6
ByLayer
 62
  256
370
   -1
100
AcDbLine
 10
111.5449963095126
 20
-170.4171194267629
 11
123.6597115999999
 21
-173.6775671427775
  0
ARC
  5
9C
100
AcDbEntity
  8
0
  6
ByLayer
 62
  256
370
   -1
100
AcDbCircle
 10
134.9582606199732
 20
-166.1875737427775
 40
1.127729880367895
100
AcDbArc
 50
90
 51
180
  0
LINE
  5
9D
100
AcDbEntity
  8
0
  6
ByLayer
 62
  256
370
   -1
100
AcDbLine
 10
133.8305307396053
 20
-166.1875737427775
 11
133.8305307396056
 21
-172.5498372624108
  0
LWPOLYLINE
  5
9E
100
AcDbEntity
  8
0
  6
ByLayer
 62
  256
370
   -1
100
AcDbPolyline
 90
    2
 70
    0
 43
0
 10
100.0808916
 20
-158.1998372624096
 10
57.36571159999998
 20
-158.1998372624096
  0
LWPOLYLINE
  5
9F
100
AcDbEntity
  8
0
  6
ByLayer
 62
  256
370
   -1
100
AcDbPolyline
 90
    3
 70
    0
 43
0
 10
3.263711600000008
 20
-165.0578372624096
 10
57.36571159999998
 20
-158.1998372624096
 10
57.36571159999998
 20
-158.1998372624096
  0
LINE
  5
A0
100
AcDbEntity
  8
0
  6
ByLayer
 62
  256
370
   -1
100
AcDbLine
 10
253.7190540590095
 20
-240.2997844427774
 11
253.7190540590095
 21
-237.9287844427776
  0
LINE
  5
A1
100
AcDbEntity
  8
0
  6
ByLayer
 62
  256
370
   -1
100
AcDbLine
 10
220.6570540590095
 20
-221.2487844427775
 11
234.6690540590095
 21
-221.2487844427775
  0
LINE
  5
A2
100
AcDbEntity
  8
0
  6
ByLayer
 62
  256
370
   -1
100
AcDbLine
 10
234.6690540590095
 20
-221.2487844427775
 11
234.6690540590095
 21
-235.2617844427775
  0
LINE
  5
A3
100
AcDbEntity
  8
0
  6
ByLayer
 62
  256
370
   -1
100
AcDbLine
 10
234.6690540590095
 20
-235.2617844427775
 11
220.6570540590095
 21
-235.2617844427775
  0
LINE
  5
A4
100
AcDbEntity
  8
0
  6
ByLayer
 62
  256
370
   -1
100
AcDbLine
 10
220.6570540590095
 20
-235.2617844427775
 11
220.6570540590095
 21
-221.2487844427775
  0
LINE
  5
A5
100
AcDbEntity
  8
0
  6
ByLayer
 62
  256
370
   -1
100
AcDbLine
 10
220.6570540590095
 20
-202.1987844427775
 11
234.6690540590095
 21
-202.1987844427775
  0
LINE
  5
A6
100
AcDbEntity
  8
0
  6
ByLayer
 62
  256
370
   -1
100
AcDbLine
 10
234.6690540590095
 20
-202.1987844427775
 11
234.6690540590095
 21
-216.2117844427776
  0
LINE
  5
A7
100
AcDbEntity
  8
0
  6
ByLayer
 62
  256
370
   -1
100
AcDbLine
 10
234.6690540590095
 20
-216.2117844427776
 11
220.6570540590095
 21
-216.2117844427776
  0
LINE
  5
A8
100
AcDbEntity
  8
0
  6
ByLayer
 62
  256
370
   -1
100
AcDbLine
 10
220.6570540590095
 20
-216.2117844427776
 11
220.6570540590095
 21
-202.1987844427775
  0
LINE
  5
A9
100
AcDbEntity
  8
0
  6
ByLayer
 62
  256
370
   -1
100
AcDbLine
 10
182.5556340590095
 20
-226.0117844427775
 11
196.5688540590095
 21
-226.0117844427775
  0
LINE
  5
AA
100
AcDbEntity
  8
0
  6
ByLayer
 62
  256
370
   -1
100
AcDbLine
 10
196.5688540590095
 20
-226.0117844427775
 11
196.5688540590095
 21
-240.0247844427775
  0
LINE
  5
AB
100
AcDbEntity
  8
0
  6
ByLayer
 62
  256
370
   -1
100
AcDbLine
 10
196.5688540590095
 20
-240.0247844427775
 11
182.5556340590095
 21
-240.0247844427775
  0
LINE
  5
AC
100
AcDbEntity
  8
0
  6
ByLayer
 62
  256
370
   -1
100
AcDbLine
 10
182.5556340590095
 20
-240.0247844427775
 11
182.5556340590095
 21
-226.0117844427775
  0
LINE
  5
AD
100
AcDbEntity
  8
0
  6
ByLayer
 62
  256
370
   -1
100
AcDbLine
 10
182.5556340590095
 20
-168.8617844427775
 11
196.5688540590095
 21
-168.8617844427775
  0
LINE
  5
AE
100
AcDbEntity
  8
0
  6
ByLayer
 62
  256
370
   -1
100
AcDbLine
 10
196.5688540590095
 20
-168.8617844427775
 11
196.5688540590095
 21
-182.8747844427775
  0
LINE
  5
AF
100
AcDbEntity
  8
0
  6
ByLayer
 62
  256
370
   -1
100
AcDbLine
 10
196.5688540590095
 20
-182.8747844427775
 11
182.5556340590095
 21
-182.8747844427775
  0
LINE
  5
B0
100
AcDbEntity
  8
0
  6
ByLayer
 62
  256
370
   -1
100
AcDbLine
 10
182.5556340590095
 20
-182.8747844427775
 11
182.5556340590095
 21
-168.8617844427775
  0
LINE
  5
B1
100
AcDbEntity
  8
0
  6
ByLayer
 62
  256
370
   -1
100
AcDbLine
 10
277.8070540590095
 20
-166.4907844427776
 11
291.8191540590095
 21
-166.4907844427776
  0
LINE
  5
B2
100
AcDbEntity
  8
0
  6
ByLayer
 62
  256
370
   -1
100
AcDbLine
 10
291.8191540590095
 20
-166.4907844427776
 11
291.8191540590095
 21
-180.4817844427776
  0
LINE
  5
B3
100
AcDbEntity
  8
0
  6
ByLayer
 62
  256
370
   -1
100
AcDbLine
 10
291.8191540590095
 20
-180.4817844427776
 11
277.8070540590095
 21
-180.4817844427776
  0
LINE
  5
B4
100
AcDbEntity
  8
0
  6
ByLayer
 62
  256
370
   -1
100
AcDbLine
 10
277.8070540590095
 20
-180.4817844427776
 11
277.8070540590095
 21
-166.4907844427776
  0
LINE
  5
B5
100
AcDbEntity
  8
0
  6
ByLayer
 62
  256
370
   -1
100
AcDbLine
 10
182.5556340590095
 20
-187.9117844427775
 11
196.5688540590095
 21
-187.9117844427775
  0
LINE
  5
B6
100
AcDbEntity
  8
0
  6
ByLayer
 62
  256
370
   -1
100
AcDbLine
 10
196.5688540590095
 20
-187.9117844427775
 11
196.5688540590095
 21
-201.9247844427775
  0
LINE
  5
B7
100
AcDbEntity
  8
0
  6
ByLayer
 62
  256
370
   -1
100
AcDbLine
 10
196.5688540590095
 20
-201.9247844427775
 11
182.5556340590095
 21
-201.9247844427775
  0
LINE
  5
B8
100
AcDbEntity
  8
0
  6
ByLayer
 62
  256
370
   -1
100
AcDbLine
 10
182.5556340590095
 20
-201.9247844427775
 11
182.5556340590095
 21
-187.9117844427775
  0
LINE
  5
B9
100
AcDbEntity
  8
0
  6
ByLayer
 62
  256
370
   -1
100
AcDbLine
 10
182.5556340590095
 20
-206.9617844427776
 11
196.5688540590095
 21
-206.9617844427776
  0
LINE
  5
BA
100
AcDbEntity
  8
0
  6
ByLayer
 62
  256
370
   -1
100
AcDbLine
 10
196.5688540590095
 20
-206.9617844427776
 11
196.5688540590095
 21
-220.9747844427775
  0
LINE
  5
BB
100
AcDbEntity
  8
0
  6
ByLayer
 62
  256
370
   -1
100
AcDbLine
 10
196.5688540590095
 20
-220.9747844427775
 11
182.5556340590095
 21
-220.9747844427775
  0
LINE
  5
BC
100
AcDbEntity
  8
0
  6
ByLayer
 62
  256
370
   -1
100
AcDbLine
 10
182.5556340590095
 20
-220.9747844427775
 11
182.5556340590095
 21
-206.9617844427776
  0
LINE
  5
BD
100
AcDbEntity
  8
0
  6
ByLayer
 62
  256
370
   -1
100
AcDbLine
 10
201.6070540590095
 20
-168.8617844427775
 11
215.6190540590095
 21
-168.8617844427775
  0
LINE
  5
BE
100
AcDbEntity
  8
0
  6
ByLayer
 62
  256
370
   -1
100
AcDbLine
 10
215.6190540590095
 20
-168.8617844427775
 11
215.6190540590095
 21
-182.8747844427775
  0
LINE
  5
BF
100
AcDbEntity
  8
0
  6
ByLayer
 62
  256
370
   -1
100
AcDbLine
 10
215.6190540590095
 20
-182.8747844427775
 11
201.6070540590095
 21
-182.8747844427775
  0
LINE
  5
C0
100
AcDbEntity
  8
0
  6
ByLayer
 62
  256
370
   -1
100
AcDbLine
 10
201.6070540590095
 20
-182.8747844427775
 11
201.6070540590095
 21
-168.8617844427775
  0
LINE
  5
C1
100
AcDbEntity
  8
0
  6
ByLayer
 62
  256
370
   -1
100
AcDbLine
 10
201.6070540590095
 20
-187.9117844427775
 11
215.6190540590095
 21
-187.9117844427775
  0
LINE
  5
C2
100
AcDbEntity
  8
0
  6
ByLayer
 62
  256
370
   -1
100
AcDbLine
 10
215.6190540590095
 20
-187.9117844427775
 11
215.6190540590095
 21
-201.9247844427775
  0
LINE
  5
C3
100
AcDbEntity
  8
0
  6
ByLayer
 62
  256
370
   -1
100
AcDbLine
 10
215.6190540590095
 20
-201.9247844427775
 11
201.6070540590095
 21
-201.9247844427775
  0
LINE
  5
C4
100
AcDbEntity
  8
0
  6
ByLayer
 62
  256
370
   -1
100
AcDbLine
 10
201.6070540590095
 20
-201.9247844427775
 11
201.6070540590095
 21
-187.9117844427775
  0
LINE
  5
C5
100
AcDbEntity
  8
0
  6
ByLayer
 62
  256
370
   -1
100
AcDbLine
 10
201.6070540590095
 20
-206.9617844427776
 11
215.6190540590095
 21
-206.9617844427776
  0
LINE
  5
C6
100
AcDbEntity
  8
0
  6
ByLayer
 62
  256
370
   -1
100
AcDbLine
 10
215.6190540590095
 20
-206.9617844427776
 11
215.6190540590095
 21
-220.9747844427775
  0
LINE
  5
C7
100
AcDbEntity
  8
0
  6
ByLayer
 62
  256
370
   -1
100
AcDbLine
 10
215.6190540590095
 20
-220.9747844427775
 11
201.6070540590095
 21
-220.9747844427775
  0
LINE
  5
C8
100
AcDbEntity
  8
0
  6
ByLayer
 62
  256
370
   -1
100
AcDbLine
 10
201.6070540590095
 20
-220.9747844427775
 11
201.6070540590095
 21
-206.9617844427776
  0
LINE
  5
C9
100
AcDbEntity
  8
0
  6
ByLayer
 62
  256
370
   -1
100
AcDbLine
 10
201.6070540590095
 20
-226.0117844427775
 11
215.6190540590095
 21
-226.0117844427775
  0
LINE
  5
CA
100
AcDbEntity
  8
0
  6
ByLayer
 62
  256
370
   -1
100
AcDbLine
 10
215.6190540590095
 20
-226.0117844427775
 11
215.6190540590095
 21
-240.0247844427775
  0
LINE
  5
CB
100
AcDbEntity
  8
0
  6
ByLayer
 62
  256
370
   -1
100
AcDbLine
 10
215.6190540590095
 20
-240.0247844427775
 11
201.6070540590095
 21
-240.0247844427775
  0
LINE
  5
CC
100
AcDbEntity
  8
0
  6
ByLayer
 62
  256
370
   -1
100
AcDbLine
 10
201.6070540590095
 20
-240.0247844427775
 11
201.6070540590095
 21
-226.0117844427775
  0
LINE
  5
CD
100
AcDbEntity
  8
0
  6
ByLayer
 62
  256
370
   -1
100
AcDbLine
 10
220.6556540590095
 20
-164.0987844427775
 11
234.6690540590095
 21
-164.0987844427775
  0
LINE
  5
CE
100
AcDbEntity
  8
0
  6
ByLayer
 62
  256
370
   -1
100
AcDbLine
 10
234.6690540590095
 20
-164.0987844427775
 11
234.6690540590095
 21
-178.1117844427775
  0
LINE
  5
CF
100
AcDbEntity
  8
0
  6
ByLayer
 62
  256
370
   -1
100
AcDbLine
 10
234.6690540590095
 20
-178.1117844427775
 11
220.6556540590095
 21
-178.1117844427775
  0
LINE
  5
D0
100
AcDbEntity
  8
0
  6
ByLayer
 62
  256
370
   -1
100
AcDbLine
 10
220.6556540590095
 20
-178.1117844427775
 11
220.6556540590095
 21
-164.0987844427775
  0
LINE
  5
D1
100
AcDbEntity
  8
0
  6
ByLayer
 62
  256
370
   -1
100
AcDbLine
 10
220.6556540590095
 20
-183.1487844427775
 11
234.6690540590095
 21
-183.1487844427775
  0
LINE
  5
D2
100
AcDbEntity
  8
0
  6
ByLayer
 62
  256
370
   -1
100
AcDbLine
 10
234.6690540590095
 20
-183.1487844427775
 11
234.6690540590095
 21
-197.1617844427775
  0
LINE
  5
D3
100
AcDbEntity
  8
0
  6
ByLayer
 62
  256
370
   -1
100
AcDbLine
 10
234.6690540590095
 20
-197.1617844427775
 11
220.6556540590095
 21
-197.1617844427775
  0
LINE
  5
D4
100
AcDbEntity
  8
0
  6
ByLayer
 62
  256
370
   -1
100
AcDbLine
 10
220.6556540590095
 20
-197.1617844427775
 11
220.6556540590095
 21
-183.1487844427775
  0
LINE
  5
D5
100
AcDbEntity
  8
0
  6
ByLayer
 62
  256
370
   -1
100
AcDbLine
 10
239.7070540590095
 20
-161.7287844427776
 11
253.7190540590095
 21
-161.7287844427776
  0
LINE
  5
D6
100
AcDbEntity
  8
0
  6
ByLayer
 62
  256
370
   -1
100
AcDbLine
 10
253.7190540590095
 20
-161.7287844427776
 11
253.7190540590095
 21
-175.7197844427776
  0
LINE
  5
D7
100
AcDbEntity
  8
0
  6
ByLayer
 62
  256
370
   -1
100
AcDbLine
 10
253.7190540590095
 20
-175.7197844427776
 11
239.7070540590095
 21
-175.7197844427776
  0
LINE
  5
D8
100
AcDbEntity
  8
0
  6
ByLayer
 62
  256
370
   -1
100
AcDbLine
 10
239.7070540590095
 20
-175.7197844427776
 11
239.7070540590095
 21
-161.7287844427776
  0
LINE
  5
D9
100
AcDbEntity
  8
0
  6
ByLayer
 62
  256
370
   -1
100
AcDbLine
 10
239.7070540590095
 20
-180.7787844427775
 11
253.7190540590095
 21
-180.7787844427775
  0
LINE
  5
DA
100
AcDbEntity
  8
0
  6
ByLayer
 62
  256
370
   -1
100
AcDbLine
 10
253.7190540590095
 20
-180.7787844427775
 11
253.7190540590095
 21
-194.7697844427776
  0
LINE
  5
DB
100
AcDbEntity
  8
0
  6
ByLayer
 62
  256
370
   -1
100
AcDbLine
 10
253.7190540590095
 20
-194.7697844427776
 11
239.7070540590095
 21
-194.7697844427776
  0
LINE
  5
DC
100
AcDbEntity
  8
0
  6
ByLayer
 62
  256
370
   -1
100
AcDbLine
 10
239.7070540590095
 20
-194.7697844427776
 11
239.7070540590095
 21
-180.7787844427775
  0
LINE
  5
DD
100
AcDbEntity
  8
0
  6
ByLayer
 62
  256
370
   -1
100
AcDbLine
 10
239.7070540590095
 20
-199.8287844427776
 11
253.7190540590095
 21
-199.8287844427776
  0
LINE
  5
DE
100
AcDbEntity
  8
0
  6
ByLayer
 62
  256
370
   -1
100
AcDbLine
 10
253.7190540590095
 20
-199.8287844427776
 11
253.7190540590095
 21
-213.8197844427775
  0
LINE
  5
DF
100
AcDbEntity
  8
0
  6
ByLayer
 62
  256
370
   -1
100
AcDbLine
 10
253.7190540590095
 20
-213.8197844427775
 11
239.7070540590095
 21
-213.8197844427775
  0
LINE
  5
E0
100
AcDbEntity
  8
0
  6
ByLayer
 62
  256
370
   -1
100
AcDbLine
 10
239.7070540590095
 20
-213.8197844427775
 11
239.7070540590095
 21
-199.8287844427776
  0
LINE
  5
E1
100
AcDbEntity
  8
0
  6
ByLayer
 62
  256
370
   -1
100
AcDbLine
 10
239.7070540590095
 20
-218.8787844427775
 11
253.7190540590095
 21
-218.8787844427775
  0
LINE
  5
E2
100
AcDbEntity
  8
0
  6
ByLayer
 62
  256
370
   -1
100
AcDbLine
 10
253.7190540590095
 20
-218.8787844427775
 11
253.7190540590095
 21
-232.8697844427775
  0
LINE
  5
E3
100
AcDbEntity
  8
0
  6
ByLayer
 62
  256
370
   -1
100
AcDbLine
 10
253.7190540590095
 20
-232.8697844427775
 11
239.7070540590095
 21
-232.8697844427775
  0
LINE
  5
E4
100
AcDbEntity
  8
0
  6
ByLayer
 62
  256
370
   -1
100
AcDbLine
 10
239.7070540590095
 20
-232.8697844427775
 11
239.7070540590095
 21
-218.8787844427775
  0
LINE
  5
E5
100
AcDbEntity
  8
0
  6
ByLayer
 62
  256
370
   -1
100
AcDbLine
 10
258.7570540590095
 20
-164.0987844427775
 11
272.7690540590095
 21
-164.0987844427775
  0
LINE
  5
E6
100
AcDbEntity
  8
0
  6
ByLayer
 62
  256
370
   -1
100
AcDbLine
 10
272.7690540590095
 20
-164.0987844427775
 11
272.7690540590095
 21
-178.1117844427775
  0
LINE
  5
E7
100
AcDbEntity
  8
0
  6
ByLayer
 62
  256
370
   -1
100
AcDbLine
 10
272.7690540590095
 20
-178.1117844427775
 11
258.7570540590095
 21
-178.1117844427775
  0
LINE
  5
E8
100
AcDbEntity
  8
0
  6
ByLayer
 62
  256
370
   -1
100
AcDbLine
 10
258.7570540590095
 20
-178.1117844427775
 11
258.7570540590095
 21
-164.0987844427775
  0
LINE
  5
E9
100
AcDbEntity
  8
0
  6
ByLayer
 62
  256
370
   -1
100
AcDbLine
 10
258.7570540590095
 20
-183.1487844427775
 11
272.7690540590095
 21
-183.1487844427775
  0
LINE
  5
EA
100
AcDbEntity
  8
0
  6
ByLayer
 62
  256
370
   -1
100
AcDbLine
 10
272.7690540590095
 20
-183.1487844427775
 11
272.7690540590095
 21
-197.1617844427775
  0
LINE
  5
EB
100
AcDbEntity
  8
0
  6
ByLayer
 62
  256
370
   -1
100
AcDbLine
 10
272.7690540590095
 20
-197.1617844427775
 11
258.7570540590095
 21
-197.1617844427775
  0
LINE
  5
EC
100
AcDbEntity
  8
0
  6
ByLayer
 62
  256
370
   -1
100
AcDbLine
 10
258.7570540590095
 20
-197.1617844427775
 11
258.7570540590095
 21
-183.1487844427775
  0
LINE
  5
ED
100
AcDbEntity
  8
0
  6
ByLayer
 62
  256
370
   -1
100
AcDbLine
 10
258.7570540590095
 20
-202.1987844427775
 11
272.7690540590095
 21
-202.1987844427775
  0
LINE
  5
EE
100
AcDbEntity
  8
0
  6
ByLayer
 62
  256
370
   -1
100
AcDbLine
 10
272.7690540590095
 20
-202.1987844427775
 11
272.7690540590095
 21
-216.2117844427776
  0
LINE
  5
EF
100
AcDbEntity
  8
0
  6
ByLayer
 62
  256
370
   -1
100
AcDbLine
 10
272.7690540590095
 20
-216.2117844427776
 11
258.7570540590095
 21
-216.2117844427776
  0
LINE
  5
F0
100
AcDbEntity
  8
0
  6
ByLayer
 62
  256
370
   -1
100
AcDbLine
 10
258.7570540590095
 20
-216.2117844427776
 11
258.7570540590095
 21
-202.1987844427775
  0
LINE
  5
F1
100
AcDbEntity
  8
0
  6
ByLayer
 62
  256
370
   -1
100
AcDbLine
 10
258.7570540590095
 20
-221.2487844427775
 11
272.7690540590095
 21
-221.2487844427775
  0
LINE
  5
F2
100
AcDbEntity
  8
0
  6
ByLayer
 62
  256
370
   -1
100
AcDbLine
 10
272.7690540590095
 20
-221.2487844427775
 11
272.7690540590095
 21
-235.2617844427775
  0
LINE
  5
F3
100
AcDbEntity
  8
0
  6
ByLayer
 62
  256
370
   -1
100
AcDbLine
 10
272.7690540590095
 20
-235.2617844427775
 11
258.7570540590095
 21
-235.2617844427775
  0
LINE
  5
F4
100
AcDbEntity
  8
0
  6
ByLayer
 62
  256
370
   -1
100
AcDbLine
 10
258.7570540590095
 20
-235.2617844427775
 11
258.7570540590095
 21
-221.2487844427775
  0
LINE
  5
F5
100
AcDbEntity
  8
0
  6
ByLayer
 62
  256
370
   -1
100
AcDbLine
 10
277.8070540590095
 20
-185.5407844427775
 11
291.8191540590095
 21
-185.5407844427775
  0
LINE
  5
F6
100
AcDbEntity
  8
0
  6
ByLayer
 62
  256
370
   -1
100
AcDbLine
 10
291.8191540590095
 20
-185.5407844427775
 11
291.8191540590095
 21
-199.5317844427776
  0
LINE
  5
F7
100
AcDbEntity
  8
0
  6
ByLayer
 62
  256
370
   -1
100
AcDbLine
 10
291.8191540590095
 20
-199.5317844427776
 11
277.8070540590095
 21
-199.5317844427776
  0
LINE
  5
F8
100
AcDbEntity
  8
0
  6
ByLayer
 62
  256
370
   -1
100
AcDbLine
 10
277.8070540590095
 20
-199.5317844427776
 11
277.8070540590095
 21
-185.5407844427775
  0
LINE
  5
F9
100
AcDbEntity
  8
0
  6
ByLayer
 62
  256
370
   -1
100
AcDbLine
 10
277.8070540590095
 20
-204.5907844427776
 11
291.8191540590095
 21
-204.5907844427776
  0
LINE
  5
FA
100
AcDbEntity
  8
0
  6
ByLayer
 62
  256
370
   -1
100
AcDbLine
 10
291.8191540590095
 20
-204.5907844427776
 11
291.8191540590095
 21
-218.5817844427775
  0
LINE
  5
FB
100
AcDbEntity
  8
0
  6
ByLayer
 62
  256
370
   -1
100
AcDbLine
 10
291.8191540590095
 20
-218.5817844427775
 11
277.8070540590095
 21
-218.5817844427775
  0
LINE
  5
FC
100
AcDbEntity
  8
0
  6
ByLayer
 62
  256
370
   -1
100
AcDbLine
 10
277.8070540590095
 20
-218.5817844427775
 11
277.8070540590095
 21
-204.5907844427776
  0
LINE
  5
FD
100
AcDbEntity
  8
0
  6
ByLayer
 62
  256
370
   -1
100
AcDbLine
 10
277.8070540590095
 20
-223.6407844427775
 11
291.8191540590095
 21
-223.6407844427775
  0
LINE
  5
FE
100
AcDbEntity
  8
0
  6
ByLayer
 62
  256
370
   -1
100
AcDbLine
 10
291.8191540590095
 20
-223.6407844427775
 11
291.8191540590095
 21
-237.6317844427775
  0
LINE
  5
FF
100
AcDbEntity
  8
0
  6
ByLayer
 62
  256
370
   -1
100
AcDbLine
 10
291.8191540590095
 20
-237.6317844427775
 11
277.8070540590095
 21
-237.6317844427775
  0
LINE
  5
100
100
AcDbEntity
  8
0
  6
ByLayer
 62
  256
370
   -1
100
AcDbLine
 10
277.8070540590095
 20
-237.6317844427775
 11
277.8070540590095
 21
-223.6407844427775
  0
LINE
  5
101
100
AcDbEntity
  8
0
  6
ByLayer
 62
  256
370
   -1
100
AcDbLine
 10
296.8571540590095
 20
-176.0157844427775
 11
310.8691540590095
 21
-176.0157844427775
  0
LINE
  5
102
100
AcDbEntity
  8
0
  6
ByLayer
 62
  256
370
   -1
100
AcDbLine
 10
310.8691540590095
 20
-190.0067844427775
 11
296.8571540590095
 21
-190.0067844427775
  0
LINE
  5
103
100
AcDbEntity
  8
0
  6
ByLayer
 62
  256
370
   -1
100
AcDbLine
 10
296.8571540590095
 20
-190.0067844427775
 11
296.8571540590095
 21
-176.0157844427775
  0
LINE
  5
104
100
AcDbEntity
  8
0
  6
ByLayer
 62
  256
370
   -1
100
AcDbLine
 10
296.8571540590095
 20
-195.0657844427776
 11
310.8691540590095
 21
-195.0657844427776
  0
LINE
  5
105
100
AcDbEntity
  8
0
  6
ByLayer
 62
  256
370
   -1
100
AcDbLine
 10
310.8691540590095
 20
-195.0657844427776
 11
310.8691540590095
 21
-209.0567844427775
  0
LINE
  5
106
100
AcDbEntity
  8
0
  6
ByLayer
 62
  256
370
   -1
100
AcDbLine
 10
310.8691540590095
 20
-209.0567844427775
 11
296.8571540590095
 21
-209.0567844427775
  0
LINE
  5
107
100
AcDbEntity
  8
0
  6
ByLayer
 62
  256
370
   -1
100
AcDbLine
 10
296.8571540590095
 20
-209.0567844427775
 11
296.8571540590095
 21
-195.0657844427776
  0
LINE
  5
108
100
AcDbEntity
  8
0
  6
ByLayer
 62
  256
370
   -1
100
AcDbLine
 10
296.8571540590095
 20
-214.1157844427776
 11
310.8691540590095
 21
-214.1157844427776
  0
LINE
  5
109
100
AcDbEntity
  8
0
  6
ByLayer
 62
  256
370
   -1
100
AcDbLine
 10
310.8691540590095
 20
-214.1157844427776
 11
310.8691540590095
 21
-228.1067844427776
  0
LINE
  5
10A
100
AcDbEntity
  8
0
  6
ByLayer
 62
  256
370
   -1
100
AcDbLine
 10
310.8691540590095
 20
-228.1067844427776
 11
296.8571540590095
 21
-228.1067844427776
  0
LINE
  5
10B
100
AcDbEntity
  8
0
  6
ByLayer
 62
  256
370
   -1
100
AcDbLine
 10
296.8571540590095
 20
-228.1067844427776
 11
296.8571540590095
 21
-214.1157844427776
  0
LINE
  5
10C
100
AcDbEntity
  8
0
  6
ByLayer
 62
  256
370
   -1
100
AcDbLine
 10
182.5556340590095
 20
-245.0627844427775
 11
196.5688540590095
 21
-245.0627844427775
  0
LINE
  5
10D
100
AcDbEntity
  8
0
  6
ByLayer
 62
  256
370
   -1
100
AcDbLine
 10
196.5688540590095
 20
-245.0627844427775
 11
196.5688540590095
 21
-259.0747844427776
  0
LINE
  5
10E
100
AcDbEntity
  8
0
  6
ByLayer
 62
  256
370
   -1
100
AcDbLine
 10
196.5688540590095
 20
-259.0747844427776
 11
182.5556340590095
 21
-259.0747844427776
  0
LINE
  5
10F
100
AcDbEntity
  8
0
  6
ByLayer
 62
  256
370
   -1
100
AcDbLine
 10
182.5556340590095
 20
-259.0747844427776
 11
182.5556340590095
 21
-245.0627844427775
  0
LINE
  5
110
100
AcDbEntity
  8
0
  6
ByLayer
 62
  256
370
   -1
100
AcDbLine
 10
201.6070540590095
 20
-245.0627844427775
 11
215.6190540590095
 21
-245.0627844427775
  0
LINE
  5
111
100
AcDbEntity
  8
0
  6
ByLayer
 62
  256
370
   -1
100
AcDbLine
 10
215.6190540590095
 20
-245.0627844427775
 11
215.6190540590095
 21
-259.0747844427776
  0
LINE
  5
112
100
AcDbEntity
  8
0
  6
ByLayer
 62
  256
370
   -1
100
AcDbLine
 10
215.6190540590095
 20
-259.0747844427776
 11
201.6070540590095
 21
-259.0747844427776
  0
LINE
  5
113
100
AcDbEntity
  8
0
  6
ByLayer
 62
  256
370
   -1
100
AcDbLine
 10
201.6070540590095
 20
-259.0747844427776
 11
201.6070540590095
 21
-245.0627844427775
  0
LINE
  5
114
100
AcDbEntity
  8
0
  6
ByLayer
 62
  256
370
   -1
100
AcDbLine
 10
220.6556540590095
 20
-240.2997844427774
 11
234.6690540590095
 21
-240.2997844427774
  0
LINE
  5
115
100
AcDbEntity
  8
0
  6
ByLayer
 62
  256
370
   -1
100
AcDbLine
 10
234.6690540590095
 20
-240.2997844427774
 11
234.6690540590095
 21
-254.3117844427776
  0
LINE
  5
116
100
AcDbEntity
  8
0
  6
ByLayer
 62
  256
370
   -1
100
AcDbLine
 10
234.6690540590095
 20
-254.3117844427776
 11
220.6556540590095
 21
-254.3117844427776
  0
LINE
  5
117
100
AcDbEntity
  8
0
  6
ByLayer
 62
  256
370
   -1
100
AcDbLine
 10
220.6556540590095
 20
-254.3117844427776
 11
220.6556540590095
 21
-240.2997844427774
  0
LINE
  5
118
100
AcDbEntity
  8
0
  6
ByLayer
 62
  256
370
   -1
100
AcDbLine
 10
267.3076540590095
 20
-254.6287844427776
 11
274.2930540590095
 21
-242.5007844427776
  0
LINE
  5
119
100
AcDbEntity
  8
0
  6
ByLayer
 62
  256
370
   -1
100
AcDbLine
 10
274.2930540590095
 20
-242.5007844427776
 11
286.4211540590095
 21
-249.5067844427775
  0
LINE
  5
11A
100
AcDbEntity
  8
0
  6
ByLayer
 62
  256
370
   -1
100
AcDbLine
 10
286.4211540590095
 20
-249.5067844427775
 11
279.4150540590095
 21
-261.6347844427776
  0
LINE
  5
11B
100
AcDbEntity
  8
0
  6
ByLayer
 62
  256
370
   -1
100
AcDbLine
 10
279.4150540590095
 20
-261.6347844427776
 11
267.3076540590095
 21
-254.6287844427776
  0
LINE
  5
11C
100
AcDbEntity
  8
0
  6
ByLayer
 62
  256
370
   -1
100
AcDbLine
 10
253.7190540590095
 20
-237.9287844427776
 11
239.7056540590095
 21
-237.9287844427776
  0
LINE
  5
11D
100
AcDbEntity
  8
0
  6
ByLayer
 62
  256
370
   -1
100
AcDbLine
 10
239.7056540590095
 20
-237.9287844427776
 11
239.7056540590095
 21
-251.9197844427776
  0
LINE
  5
11E
100
AcDbEntity
  8
0
  6
ByLayer
 62
  256
370
   -1
100
AcDbLine
 10
239.7056540590095
 20
-251.9197844427776
 11
247.3263540590095
 21
-251.9197844427776
  0
LINE
  5
11F
100
AcDbEntity
  8
0
  6
ByLayer
 62
  256
370
   -1
100
AcDbLine
 10
247.3263540590095
 20
-251.9197844427776
 11
247.3263540590095
 21
-254.3117844427776
  0
LINE
  5
120
100
AcDbEntity
  8
0
  6
ByLayer
 62
  256
370
   -1
100
AcDbLine
 10
247.3263540590095
 20
-254.3117844427776
 11
261.3393540590095
 21
-254.3117844427776
  0
LINE
  5
121
100
AcDbEntity
  8
0
  6
ByLayer
 62
  256
370
   -1
100
AcDbLine
 10
261.3393540590095
 20
-254.3117844427776
 11
261.3393540590095
 21
-240.2997844427774
  0
LINE
  5
122
100
AcDbEntity
  8
0
  6
ByLayer
 62
  256
370
   -1
100
AcDbLine
 10
261.3393540590095
 20
-240.2997844427774
 11
253.7190540590095
 21
-240.2997844427774
  0
LINE
  5
123
100
AcDbEntity
  8
0
  6
ByLayer
 62
  256
370
   -1
100
AcDbLine
 10
295.0491540590095
 20
-273.7427844427776
 11
295.2161540590095
 21
-273.8387844427775
  0
LINE
  5
124
100
AcDbEntity
  8
0
  6
ByLayer
 62
  256
370
   -1
100
AcDbLine
 10
181.7508540590095
 20
-165.3567844427776
 11
181.5524240590095
 21
-165.4007844427775
  0
LINE
  5
125
100
AcDbEntity
  8
0
  6
ByLayer
 62
  256
370
   -1
100
AcDbLine
 10
181.5524240590095
 20
-165.4007844427775
 11
180.9929340590095
 21
-165.6847844427775
  0
LINE
  5
126
100
AcDbEntity
  8
0
  6
ByLayer
 62
  256
370
   -1
100
AcDbLine
 10
180.9929340590095
 20
-165.6847844427775
 11
180.3714400590095
 21
-166.2537844427776
  0
LINE
  5
127
100
AcDbEntity
  8
0
  6
ByLayer
 62
  256
370
   -1
100
AcDbLine
 10
180.3714400590095
 20
-166.2537844427776
 11
179.9525180590095
 21
-166.9827844427775
  0
LINE
  5
128
100
AcDbEntity
  8
0
  6
ByLayer
 62
  256
370
   -1
100
AcDbLine
 10
179.9525180590095
 20
-166.9827844427775
 11
179.7995560590095
 21
-167.5917844427776
  0
LINE
  5
129
100
AcDbEntity
  8
0
  6
ByLayer
 62
  256
370
   -1
100
AcDbLine
 10
179.7995560590095
 20
-167.5917844427776
 11
179.7995560590095
 21
-167.7957844427775
  0
LINE
  5
12A
100
AcDbEntity
  8
0
  6
ByLayer
 62
  256
370
   -1
100
AcDbLine
 10
179.7995560590095
 20
-167.7957844427775
 11
179.7995560590095
 21
-259.8947844427774
  0
LINE
  5
12B
100
AcDbEntity
  8
0
  6
ByLayer
 62
  256
370
   -1
100
AcDbLine
 10
179.7995560590095
 20
-259.8947844427774
 11
179.7995560590095
 21
-260.0877844427775
  0
LINE
  5
12C
100
AcDbEntity
  8
0
  6
ByLayer
 62
  256
370
   -1
100
AcDbLine
 10
179.7995560590095
 20
-260.0877844427775
 11
179.9566520590095
 21
-260.6707844427776
  0
LINE
  5
12D
100
AcDbEntity
  8
0
  6
ByLayer
 62
  256
370
   -1
100
AcDbLine
 10
179.9566520590095
 20
-260.6707844427776
 11
180.3865990590095
 21
-261.3057844427776
  0
LINE
  5
12E
100
AcDbEntity
  8
0
  6
ByLayer
 62
  256
370
   -1
100
AcDbLine
 10
180.3865990590095
 20
-261.3057844427776
 11
181.0218740590095
 21
-261.7357844427776
  0
LINE
  5
12F
100
AcDbEntity
  8
0
  6
ByLayer
 62
  256
370
   -1
100
AcDbLine
 10
181.0218740590095
 20
-261.7357844427776
 11
181.6047840590095
 21
-261.8937844427776
  0
LINE
  5
130
100
AcDbEntity
  8
0
  6
ByLayer
 62
  256
370
   -1
100
AcDbLine
 10
181.6047840590095
 20
-261.8937844427776
 11
181.7990940590095
 21
-261.8937844427776
  0
LINE
  5
131
100
AcDbEntity
  8
0
  6
ByLayer
 62
  256
370
   -1
100
AcDbLine
 10
181.7990940590095
 20
-261.8937844427776
 11
272.5111540590095
 21
-261.8937844427776
  0
LINE
  5
132
100
AcDbEntity
  8
0
  6
ByLayer
 62
  256
370
   -1
100
AcDbLine
 10
272.5111540590095
 20
-261.8937844427776
 11
272.7386540590095
 21
-261.8937844427776
  0
LINE
  5
133
100
AcDbEntity
  8
0
  6
ByLayer
 62
  256
370
   -1
100
AcDbLine
 10
272.7386540590095
 20
-261.8937844427776
 11
273.4234540590095
 21
-261.9727844427775
  0
LINE
  5
134
100
AcDbEntity
  8
0
  6
ByLayer
 62
  256
370
   -1
100
AcDbLine
 10
273.4234540590095
 20
-261.9727844427775
 11
274.4320540590095
 21
-262.1877844427776
  0
LINE
  5
135
100
AcDbEntity
  8
0
  6
ByLayer
 62
  256
370
   -1
100
AcDbLine
 10
274.4320540590095
 20
-262.1877844427776
 11
275.4120540590095
 21
-262.5047844427776
  0
LINE
  5
136
100
AcDbEntity
  8
0
  6
ByLayer
 62
  256
370
   -1
100
AcDbLine
 10
275.4120540590095
 20
-262.5047844427776
 11
276.0445540590096
 21
-262.7787844427776
  0
LINE
  5
137
100
AcDbEntity
  8
0
  6
ByLayer
 62
  256
370
   -1
100
AcDbLine
 10
276.0445540590096
 20
-262.7787844427776
 11
276.2428540590095
 21
-262.8927844427776
  0
LINE
  5
138
100
AcDbEntity
  8
0
  6
ByLayer
 62
  256
370
   -1
100
AcDbLine
 10
276.2428540590095
 20
-262.8927844427776
 11
312.4847207471925
 21
-283.8019613444951
  0
ARC
  5
139
100
AcDbEntity
  8
0
  6
ByLayer
 62
  256
370
   -1
100
AcDbCircle
 10
312.9844505106532
 20
-282.9357799757788
 40
1
100
AcDbArc
 50
240.0178770956076
 51
329.9314171781378
  0
LINE
  5
13A
100
AcDbEntity
  8
0
  6
ByLayer
 62
  256
370
   -1
100
AcDbLine
 10
310.8691540590095
 20
-176.0157844427775
 11
310.8691540590095
 21
-190.0067844427775
  0
LINE
  5
13B
100
AcDbEntity
  8
0
  6
ByLayer
 62
  256
370
   -1
100
AcDbLine
 10
315.4923938394285
 20
-241.3469957093291
 11
332.2563938394285
 21
-241.3469957093291
  0
LINE
  5
13C
100
AcDbEntity
  8
0
  6
ByLayer
 62
  256
370
   -1
100
AcDbLine
 10
315.4923938394285
 20
-223.0749957093291
 11
332.2563938394285
 21
-223.0749957093291
  0
LINE
  5
13D
100
AcDbEntity
  8
0
  6
ByLayer
 62
  256
370
   -1
100
AcDbLine
 10
313.8498767961343
 20
-283.4368162463204
 11
331.7764996099514
 21
-252.4726495679093
  0
LINE
  5
13E
100
AcDbEntity
  8
0
  6
ByLayer
 62
  256
370
   -1
100
AcDbLine
 10
336.1392632590096
 20
-239.7646173427776
 11
331.7764996099514
 21
-252.4726495679092
  0
LINE
  5
13F
100
AcDbEntity
  8
0
  6
ByLayer
 62
  256
370
   -1
100
AcDbLine
 10
181.7508540590095
 20
-165.3567844427776
 11
183.0632676590095
 21
-165.0578372624096
  0
LWPOLYLINE
  5
140
100
AcDbEntity
  8
0
  6
ByLayer
 62
  256
370
   -1
100
AcDbPolyline
 90
    2
 70
    0
 43
0
 10
334.1612636590094
 20
-168.3965863427775
 10
334.1612636590094
 20
-201.6705863427775
  0
LINE
  5
141
100
AcDbEntity
  8
0
  6
ByLayer
 62
  256
370
   -1
100
AcDbLine
 10
333.8535680590094
 20
-165.0598438624096
 11
332.8642634590095
 21
-165.0598438624096
  0
ARC
  5
142
100
AcDbEntity
  8
0
  6
ByLayer
 62
  256
370
   -1
100
AcDbCircle
 10
333.8535680590094
 20
-167.3458438624096
 40
2.286
100
AcDbArc
 50
0
 51
90
  0
LWPOLYLINE
  5
143
100
AcDbEntity
  8
0
  6
ByLayer
 62
  256
370
   -1
100
AcDbPolyline
 90
    4
 70
    1
 43
0
 10
330.0340176590094
 20
-167.1265863427776
 10
334.1612636590094
 20
-167.1265863427776
 10
334.1612636590094
 20
-202.9405863427776
 10
330.0340176590094
 20
-202.9405863427776
  0
LWPOLYLINE
  5
144
100
AcDbEntity
  8
0
  6
ByLayer
 62
  256
370
   -1
100
AcDbPolyline
 90
    4
 70
    1
 43
0
 10
315.1112636590095
 20
-202.9405863427776
 10
319.2489998590095
 20
-202.9405863427776
 10
319.2489998590095
 20
-167.1265870371554
 10
315.1112636590095
 20
-167.1265870371554
  0
SPLINE
  5
145
100
AcDbEntity
  8
0
  6
ByLayer
 62
  256
370
   -1
100
AcDbSpline
210
0
220
0
230
0
 70
    8
 71
    2
 72
    6
 73
    3
 74
    0
 42
1e-007
 43
1e-007
 40
0
 40
0
 40
0
 40
1
 40
1
 40
1
 10
333.886774800127
 20
-220.3380718777489
 30
0
 10
335.6762769988457
 20
-220.2952887017218
 30
0
 10
336.139337145842
 20
-222.2095196505139
 30
0
  0
ARC
  5
146
100
AcDbEntity
  8
0
  6
ByLayer
 62
  256
370
   -1
100
AcDbCircle
 10
333.853424678253
 20
-208.9602702475419
 40
2.286
100
AcDbArc
 50
269.785
 51
359.785
  0
SPLINE
  5
147
100
AcDbEntity
  8
0
  6
ByLayer
 62
  256
370
   -1
100
AcDbSpline
210
0
220
0
230
0
 70
    8
 71
    2
 72
    6
 73
    3
 74
    0
 42
1e-007
 43
1e-007
 40
0
 40
0
 40
0
 40
1
 40
1
 40
1
 10
320.7951089659182
 20
-213.1183594357465
 30
0
 10
321.0772713180262
 20
-211.3507245960744
 30
0
 10
323.0437198390001
 20
-211.2421656747033
 30
0
  0
SPLINE
  5
148
100
AcDbEntity
  8
0
  6
ByLayer
 62
  256
370
   -1
100
AcDbSpline
210
0
220
0
230
0
 70
    8
 71
    2
 72
    6
 73
    3
 74
    0
 42
1e-007
 43
1e-007
 40
0
 40
0
 40
0
 40
1
 40
1
 40
1
 10
323.0456870548096
 20
-220.3357159720002
 30
0
 10
321.2562306397242
 20
-220.3803730865467
 30
0
 10
320.7911661690334
 20
-218.4666281027124
 30
0
  0
LINE
  5
149
100
AcDbEntity
  8
0
  6
ByLayer
 62
  256
370
   -1
100
AcDbLine
 10
323.0456870548096
 20
-220.3357159720002
 11
333.8867746949444
 21
-220.3380718777489
  0
LINE
  5
14A
100
AcDbEntity
  8
0
  6
ByLayer
 62
  256
370
   -1
100
AcDbLine
 10
320.7951089659182
 20
-213.1183594357465
 11
320.7911661690334
 21
-218.4666281027124
  0
LINE
  5
14B
100
AcDbEntity
  8
0
  6
ByLayer
 62
  256
370
   -1
100
AcDbLine
 10
323.0437198390001
 20
-211.2421656747033
 11
333.8448465796437
 21
-211.2462541530461
  0
LWPOLYLINE
  5
14C
100
AcDbEntity
  8
0
  6
ByLayer
 62
  256
370
   -1
100
AcDbPolyline
 90
    3
 70
    0
 43
0
 10
307.0152676590095
 20
-165.0598438624096
 10
303.4592676590095
 20
-164.5498372624096
 10
279.8804476590095
 20
-158.1998372624096
  0
LWPOLYLINE
  5
14D
100
AcDbEntity
  8
0
  6
ByLayer
 62
  256
370
   -1
100
AcDbPolyline
 90
    2
 70
    0
 43
0
 10
307.0152676590095
 20
-165.0598438624096
 10
332.8642634590095
 20
-165.0598438624096
  0
LWPOLYLINE
  5
14E
100
AcDbEntity
  8
0
  6
ByLayer
 62
  256
370
   -1
100
AcDbPolyline
 90
    2
 70
    0
 43
0
 10
279.8804476590095
 20
-158.1998372624096
 10
237.1652676590095
 20
-158.1998372624096
  0
LWPOLYLINE
  5
14F
100
AcDbEntity
  8
0
  6
ByLayer
 62
  256
370
   -1
100
AcDbPolyline
 90
    3
 70
    0
 43
0
 10
183.0632676590095
 20
-165.0578372624096
 10
237.1652676590095
 20
-158.1998372624096
 10
237.1652676590095
 20
-158.1998372624096
  0
LWPOLYLINE
  5
150
100
AcDbEntity
  8
0
  6
ByLayer
 62
  256
370
   -1
100
AcDbPolyline
 90
    4
 70
    1
 43
0
 10
315.2702676590095
 20
-223.0749957093291
 10
332.4152676590095
 20
-223.0749957093291
 10
332.4152676590095
 20
-241.3469957093291
 10
315.2702676590095
 20
-241.3469957093291
  0
LINE
  5
151
100
AcDbEntity
  8
0
  6
ByLayer
 62
  256
370
   -1
100
AcDbLine
 10
319.2443523210311
 20
-209.0193141772722
 11
319.6832636590093
 21
-209.0193141772722
  0
LWPOLYLINE
  5
152
100
AcDbEntity
  8
0
  6
ByLayer
 62
  256
370
   -1
100
AcDbPolyline
 90
    4
 70
    1
 43
0
 10
319.2443523210311
 20
-209.0193141772722
 10
330.2821749969876
 20
-209.0193141772722
 10
330.2821749969876
 20
-206.2598585082829
 10
319.2443523210311
 20
-206.2598585082829
  0
LINE
  5
153
100
AcDbEntity
  8
0
  6
ByLayer
 62
  256
370
   -1
100
AcDbLine
 10
336.1395680590094
 20
-167.3458438624096
 11
336.1394085837572
 21
-208.9688483461512
  0
LINE
  5
154
100
AcDbEntity
  8
0
  6
ByLayer
 62
  256
370
   -1
100
AcDbLine
 10
336.139337145842
 20
-222.2095196505139
 11
336.1392632590096
 21
-239.7646173427776
  0
LINE
  5
155
100
AcDbEntity
  8
0
  6
ByLayer
 62
  256
370
   -1
100
AcDbLine
 10
134.9582606199732
 20
-165.0598438624096
 11
153.0647074
 21
-165.0598438624096
  0
LINE
  5
156
100
AcDbEntity
  8
0
  6
ByLayer
 62
  256
370
   -1
100
AcDbLine
 10
111.6891612229357
 20
-161.3247153103335
 11
100.0808916
 21
-158.1998372624096
  0
CIRCLE
  5
157
100
AcDbEntity
  8
0
  6
ByLayer
 62
  256
370
   -1
100
AcDbCircle
 10
136.7087075999999
 20
-57.91511709307683
 40
1.1999976
  0
CIRCLE
  5
158
100
AcDbEntity
  8
0
  6
ByLayer
 62
  256
370
   -1
100
AcDbCircle
 10
152.9646821999998
 20
-57.91504089307686
 40
1.1999976
  0
CIRCLE
  5
159
100
AcDbEntity
  8
0
  6
ByLayer
 62
  256
370
   -1
100
AcDbCircle
 10
144.0756982000001
 20
-81.29172769307688
 40
1.1999976
  0
CIRCLE
  5
15A
100
AcDbEntity
  8
0
  6
ByLayer
 62
  256
370
   -1
100
AcDbCircle
 10
147.4086861999997
 20
-94.18502169307685
 40
1.1999976
  0
CIRCLE
  5
15B
100
AcDbEntity
  8
0
  6
ByLayer
 62
  256
370
   -1
100
AcDbCircle
 10
108.5466861999999
 20
-92.02576769307693
 40
1.1999976
  0
CIRCLE
  5
15C
100
AcDbEntity
  8
0
  6
ByLayer
 62
  256
370
   -1
100
AcDbCircle
 10
57.8736861999999
 20
-84.65976769307694
 40
1.1999976
  0
CIRCLE
  5
15D
100
AcDbEntity
  8
0
  6
ByLayer
 62
  256
370
   -1
100
AcDbCircle
 10
19.26568619999983
 20
-92.27976769307695
 40
1.1999976
  0
CIRCLE
  5
15E
100
AcDbEntity
  8
0
  6
ByLayer
 62
  256
370
   -1
100
AcDbCircle
 10
19.26568619999983
 20
-34.87576769307684
 40
1.1999976
  0
CIRCLE
  5
15F
100
AcDbEntity
  8
0
  6
ByLayer
 62
  256
370
   -1
100
AcDbCircle
 10
57.36543219999993
 20
-49.09976769307688
 40
1.1999976
  0
CIRCLE
  5
160
100
AcDbEntity
  8
0
  6
ByLayer
 62
  256
370
   -1
100
AcDbCircle
 10
57.36543219999993
 20
-12.77802169307681
 40
1.1999976
  0
CIRCLE
  5
161
100
AcDbEntity
  8
0
  6
ByLayer
 62
  256
370
   -1
100
AcDbCircle
 10
114.5154575999998
 20
-32.33584389307684
 40
1.1999976
  0
CIRCLE
  5
162
100
AcDbEntity
  8
0
  6
ByLayer
 62
  256
370
   -1
100
AcDbCircle
 10
316.5082636590093
 20
-208.5285863427775
 40
1.1999976
  0
CIRCLE
  5
163
100
AcDbEntity
  8
0
  6
ByLayer
 62
  256
370
   -1
100
AcDbCircle
 10
332.7642382590093
 20
-208.5285101427775
 40
1.1999976
  0
CIRCLE
  5
164
100
AcDbEntity
  8
0
  6
ByLayer
 62
  256
370
   -1
100
AcDbCircle
 10
323.8752542590096
 20
-231.9051969427775
 40
1.1999976
  0
CIRCLE
  5
165
100
AcDbEntity
  8
0
  6
ByLayer
 62
  256
370
   -1
100
AcDbCircle
 10
327.2082422590092
 20
-244.7984909427775
 40
1.1999976
  0
CIRCLE
  5
166
100
AcDbEntity
  8
0
  6
ByLayer
 62
  256
370
   -1
100
AcDbCircle
 10
288.3462422590094
 20
-242.6392369427776
 40
1.1999976
  0
CIRCLE
  5
167
100
AcDbEntity
  8
0
  6
ByLayer
 62
  256
370
   -1
100
AcDbCircle
 10
237.6732422590094
 20
-235.2732369427776
 40
1.1999976
  0
CIRCLE
  5
168
100
AcDbEntity
  8
0
  6
ByLayer
 62
  256
370
   -1
100
AcDbCircle
 10
199.0652422590094
 20
-242.8932369427776
 40
1.1999976
  0
CIRCLE
  5
169
100
AcDbEntity
  8
0
  6
ByLayer
 62
  256
370
   -1
100
AcDbCircle
 10
199.0652422590094
 20
-185.4892369427775
 40
1.1999976
  0
CIRCLE
  5
16A
100
AcDbEntity
  8
0
  6
ByLayer
 62
  256
370
   -1
100
AcDbCircle
 10
237.1649882590094
 20
-199.7132369427775
 40
1.1999976
  0
CIRCLE
  5
16B
100
AcDbEntity
  8
0
  6
ByLayer
 62
  256
370
   -1
100
AcDbCircle
 10
237.1649882590094
 20
-163.3914909427775
 40
1.1999976
  0
CIRCLE
  5
16C
100
AcDbEntity
  8
0
  6
ByLayer
 62
  256
370
   -1
100
AcDbCircle
 10
294.3150136590093
 20
-182.9493131427775
 40
1.1999976
  0
CIRCLE
  5
16D
100
AcDbEntity
  8
0
  6
ByLayer
 62
  256
370
   -1
100
AcDbCircle
 10
136.7087075999999
 20
-208.5285863427775
 40
1.1999976
  0
CIRCLE
  5
16E
100
AcDbEntity
  8
0
  6
ByLayer
 62
  256
370
   -1
100
AcDbCircle
 10
152.9646821999998
 20
-208.5285101427775
 40
1.1999976
  0
CIRCLE
  5
16F
100
AcDbEntity
  8
0
  6
ByLayer
 62
  256
370
   -1
100
AcDbCircle
 10
144.0756982000001
 20
-231.9051969427775
 40
1.1999976
  0
CIRCLE
  5
170
100
AcDbEntity
  8
0
  6
ByLayer
 62
  256
370
   -1
100
AcDbCircle
 10
147.4086861999997
 20
-244.7984909427775
 40
1.1999976
  0
CIRCLE
  5
171
100
AcDbEntity
  8
0
  6
ByLayer
 62
  256
370
   -1
100
AcDbCircle
 10
108.5466861999999
 20
-242.6392369427776
 40
1.1999976
  0
CIRCLE
  5
172
100
AcDbEntity
  8
0
  6
ByLayer
 62
  256
370
   -1
100
AcDbCircle
 10
57.8736861999999
 20
-235.2732369427776
 40
1.1999976
  0
CIRCLE
  5
173
100
AcDbEntity
  8
0
  6
ByLayer
 62
  256
370
   -1
100
AcDbCircle
 10
19.26568619999983
 20
-242.8932369427776
 40
1.1999976
  0
CIRCLE
  5
174
100
AcDbEntity
  8
0
  6
ByLayer
 62
  256
370
   -1
100
AcDbCircle
 10
19.26568619999983
 20
-185.4892369427775
 40
1.1999976
  0
CIRCLE
  5
175
100
AcDbEntity
  8
0
  6
ByLayer
 62
  256
370
   -1
100
AcDbCircle
 10
57.36543219999993
 20
-199.7132369427775
 40
1.1999976
  0
CIRCLE
  5
176
100
AcDbEntity
  8
0
  6
ByLayer
 62
  256
370
   -1
100
AcDbCircle
 10
57.36543219999993
 20
-163.3914909427775
 40
1.1999976
  0
CIRCLE
  5
177
100
AcDbEntity
  8
0
  6
ByLayer
 62
  256
370
   -1
100
AcDbCircle
 10
114.5154575999998
 20
-182.9493131427775
 40
1.1999976
  0
CIRCLE
  5
178
100
AcDbEntity
  8
0
  6
ByLayer
 62
  256
370
   -1
100
AcDbCircle
 10
355.9849452148419
 20
-94.18494549307688
 40
1.1999976
  0
CIRCLE
  5
179
100
AcDbEntity
  8
0
  6
ByLayer
 62
  256
370
   -1
100
AcDbCircle
 10
345.284966614842
 20
-57.91504089307686
 40
1.1999976
  0
CIRCLE
  5
17A
100
AcDbEntity
  8
0
  6
ByLayer
 62
  256
370
   -1
100
AcDbCircle
 10
361.540941214842
 20
-57.9149646930769
 40
1.1999976
  0
ARC
  5
17B
100
AcDbEntity
  8
0
  6
ByLayer
 62
  256
370
   -1
100
AcDbCircle
 10
361.3079077983446
 20
-17.75195969811581
 40
2.286
100
AcDbArc
 50
359.2153
 51
89.21530000000004
  0
LINE
  5
17C
100
AcDbEntity
  8
0
  6
ByLayer
 62
  256
370
   -1
100
AcDbLine
 10
363.5936934098462
 20
-67.9369552203332
 11
363.5936934098462
 21
-17.78326685787537
  0
ARC
  5
17D
100
AcDbEntity
  8
0
  6
ByLayer
 62
  256
370
   -1
100
AcDbCircle
 10
345.5292697487059
 20
-17.75195969781583
 40
2.286
100
AcDbArc
 50
90.78470000000002
 51
180.7847
  0
LINE
  5
17E
100
AcDbEntity
  8
0
  6
ByLayer
 62
  256
370
   -1
100
AcDbLine
 10
343.2434841375126
 20
-68.33929206313802
 11
343.2434841372042
 21
-17.78326685757538
  0
LINE
  5
17F
100
AcDbEntity
  8
0
  6
ByLayer
 62
  256
370
   -1
100
AcDbLine
 10
361.3392149581041
 20
-15.4661740866142
 11
345.4979625889463
 21
-15.46617408631422
  0
LINE
  5
180
100
AcDbEntity
  8
0
  6
ByLayer
 62
  256
370
   -1
100
AcDbLine
 10
343.2434841375126
 20
-68.33929206313802
 11
343.2434841375126
 21
-89.41741288106313
  0
LINE
  5
181
100
AcDbEntity
  8
0
  6
ByLayer
 62
  256
370
   -1
100
AcDbLine
 10
359.7260889979634
 20
-98.82739831912603
 11
344.1342352178115
 21
-90.87190436937318
  0
LINE
  5
182
100
AcDbEntity
  8
0
  6
ByLayer
 62
  256
370
   -1
100
AcDbLine
 10
363.2763280043017
 20
-91.33521003885632
 11
360.9342054838069
 21
-98.33358648077127
  0
LINE
  5
183
100
AcDbEntity
  8
0
  6
ByLayer
 62
  256
370
   -1
100
AcDbLine
 10
363.5936934098462
 20
-67.9369552203332
 11
363.5936934098462
 21
-89.3869067121915
  0
LINE
  5
184
100
AcDbEntity
  8
0
  6
ByLayer
 62
  256
370
   -1
100
AcDbLine
 10
363.2763280043017
 20
-91.33521003885632
 11
363.5936934098462
 21
-89.3869067121915
  0
SPLINE
  5
185
100
AcDbEntity
  8
0
  6
ByLayer
 62
  256
370
   -1
100
AcDbSpline
210
0
220
0
230
0
 70
    8
 71
    2
 72
    6
 73
    3
 74
    0
 42
1e-007
 43
1e-007
 40
0
 40
0
 40
0
 40
1
 40
1
 40
1
 10
343.2434841375126
 20
-89.41741288106313
 30
0
 10
343.3079437642983
 20
-90.38139665461594
 30
0
 10
344.1342352178115
 20
-90.87190436937318
 30
0
  0
SPLINE
  5
186
100
AcDbEntity
  8
0
  6
ByLayer
 62
  256
370
   -1
100
AcDbSpline
210
0
220
0
230
0
 70
    8
 71
    2
 72
    6
 73
    3
 74
    0
 42
1e-007
 43
1e-007
 40
0
 40
0
 40
0
 40
1
 40
1
 40
1
 10
359.7260889979634
 20
-98.82739831912603
 30
0
 10
360.5823083908701
 20
-99.06290458424985
 30
0
 10
360.9342054838069
 20
-98.33358648077127
 30
0
  0
CIRCLE
  5
187
100
AcDbEntity
  8
0
  6
ByLayer
 62
  256
370
   -1
100
AcDbCircle
 10
355.9849452148419
 20
-244.7984147427775
 40
1.1999976
  0
CIRCLE
  5
188
100
AcDbEntity
  8
0
  6
ByLayer
 62
  256
370
   -1
100
AcDbCircle
 10
345.284966614842
 20
-208.5285101427775
 40
1.1999976
  0
CIRCLE
  5
189
100
AcDbEntity
  8
0
  6
ByLayer
 62
  256
370
   -1
100
AcDbCircle
 10
361.540941214842
 20
-208.5284339427776
 40
1.1999976
  0
ARC
  5
18A
100
AcDbEntity
  8
0
  6
ByLayer
 62
  256
370
   -1
100
AcDbCircle
 10
361.3079077983446
 20
-168.3654289478165
 40
2.286
100
AcDbArc
 50
359.2153
 51
89.21530000000004
  0
LINE
  5
18B
100
AcDbEntity
  8
0
  6
ByLayer
 62
  256
370
   -1
100
AcDbLine
 10
363.5936934098462
 20
-218.5504244700339
 11
363.5936934098462
 21
-168.396736107576
  0
ARC
  5
18C
100
AcDbEntity
  8
0
  6
ByLayer
 62
  256
370
   -1
100
AcDbCircle
 10
345.5292697487059
 20
-168.3654289475165
 40
2.286
100
AcDbArc
 50
90.78470000000002
 51
180.7847
  0
LINE
  5
18D
100
AcDbEntity
  8
0
  6
ByLayer
 62
  256
370
   -1
100
AcDbLine
 10
343.2434841375126
 20
-218.9527613128387
 11
343.2434841372042
 21
-168.396736107276
  0
LINE
  5
18E
100
AcDbEntity
  8
0
  6
ByLayer
 62
  256
370
   -1
100
AcDbLine
 10
361.3392149581041
 20
-166.0796433363149
 11
345.4979625889463
 21
-166.0796433360149
  0
LINE
  5
18F
100
AcDbEntity
  8
0
  6
ByLayer
 62
  256
370
   -1
100
AcDbLine
 10
343.2434841375126
 20
-218.9527613128387
 11
343.2434841375126
 21
-240.0308821307638
  0
LINE
  5
190
100
AcDbEntity
  8
0
  6
ByLayer
 62
  256
370
   -1
100
AcDbLine
 10
359.7260889979634
 20
-249.4408675688267
 11
344.1342352178115
 21
-241.4853736190738
  0
LINE
  5
191
100
AcDbEntity
  8
0
  6
ByLayer
 62
  256
370
   -1
100
AcDbLine
 10
363.2763280043017
 20
-241.948679288557
 11
360.9342054838069
 21
-248.9470557304719
  0
LINE
  5
192
100
AcDbEntity
  8
0
  6
ByLayer
 62
  256
370
   -1
100
AcDbLine
 10
363.5936934098462
 20
-218.5504244700339
 11
363.5936934098462
 21
-240.0003759618922
  0
LINE
  5
193
100
AcDbEntity
  8
0
  6
ByLayer
 62
  256
370
   -1
100
AcDbLine
 10
363.2763280043017
 20
-241.948679288557
 11
363.5936934098462
 21
-240.0003759618922
  0
SPLINE
  5
194
100
AcDbEntity
  8
0
  6
ByLayer
 62
  256
370
   -1
100
AcDbSpline
210
0
220
0
230
0
 70
    8
 71
    2
 72
    6
 73
    3
 74
    0
 42
1e-007
 43
1e-007
 40
0
 40
0
 40
0
 40
1
 40
1
 40
1
 10
343.2434841375126
 20
-240.0308821307638
 30
0
 10
343.3079437642982
 20
-240.9948659043166
 30
0
 10
344.1342352178115
 20
-241.4853736190738
 30
0
  0
SPLINE
  5
195
100
AcDbEntity
  8
0
  6
ByLayer
 62
  256
370
   -1
100
AcDbSpline
210
0
220
0
230
0
 70
    8
 71
    2
 72
    6
 73
    3
 74
    0
 42
1e-007
 43
1e-007
 40
0
 40
0
 40
0
 40
1
 40
1
 40
1
 10
359.7260889979634
 20
-249.4408675688267
 30
0
 10
360.5823083908701
 20
-249.6763738339505
 30
0
 10
360.9342054838069
 20
-248.9470557304719
 30
0
  0
CIRCLE
  5
196
100
AcDbEntity
  8
0
  6
ByLayer
 62
  256
370
   -1
100
AcDbCircle
 10
352.6511952148419
 20
-80.61575749307694
 40
7.999984
  0
CIRCLE
  5
197
100
AcDbEntity
  8
0
  6
ByLayer
 62
  256
370
   -1
100
AcDbCircle
 10
352.6511952148419
 20
-231.2292267427776
 40
7.999984
  0
LINE
  5
198
100
AcDbEntity
  8
0
  6
ByLayer
 62
  256
370
   -1
100
AcDbLine
 10
288.5679620590096
 20
-255.9048804427776
 11
295.5533620590095
 21
-243.7768804427776
  0
LINE
  5
199
100
AcDbEntity
  8
0
  6
ByLayer
 62
  256
370
   -1
100
AcDbLine
 10
295.5533620590095
 20
-243.7768804427776
 11
307.6814620590096
 21
-250.7828804427776
  0
LINE
  5
19A
100
AcDbEntity
  8
0
  6
ByLayer
 62
  256
370
   -1
100
AcDbLine
 10
307.6814620590096
 20
-250.7828804427776
 11
300.6753620590096
 21
-262.9108804427776
  0
LINE
  5
19B
100
AcDbEntity
  8
0
  6
ByLayer
 62
  256
370
   -1
100
AcDbLine
 10
300.6753620590096
 20
-262.9108804427776
 11
288.5679620590096
 21
-255.9048804427776
  0
LINE
  5
19C
100
AcDbEntity
  8
0
  6
ByLayer
 62
  256
370
   -1
100
AcDbLine
 10
309.8285240590095
 20
-257.1809764427775
 11
316.8139240590095
 21
-245.0529764427775
  0
LINE
  5
19D
100
AcDbEntity
  8
0
  6
ByLayer
 62
  256
370
   -1
100
AcDbLine
 10
316.8139240590095
 20
-245.0529764427775
 11
328.9420240590095
 21
-252.0589764427775
  0
LINE
  5
19E
100
AcDbEntity
  8
0
  6
ByLayer
 62
  256
370
   -1
100
AcDbLine
 10
328.9420240590095
 20
-252.0589764427775
 11
321.9359240590095
 21
-264.1869764427775
  0
LINE
  5
19F
100
AcDbEntity
  8
0
  6
ByLayer
 62
  256
370
   -1
100
AcDbLine
 10
321.9359240590095
 20
-264.1869764427775
 11
309.8285240590095
 21
-257.1809764427775
  0
LINE
  5
1A0
100
AcDbEntity
  8
0
  6
ByLayer
 62
  256
370
   -1
100
AcDbLine
 10
300.3035240590097
 20
-273.6787844427776
 11
307.2889240590097
 21
-261.5507844427776
  0
LINE
  5
1A1
100
AcDbEntity
  8
0
  6
ByLayer
 62
  256
370
   -1
100
AcDbLine
 10
307.2889240590097
 20
-261.5507844427776
 11
319.4170240590097
 21
-268.5567844427776
  0
LINE
  5
1A2
100
AcDbEntity
  8
0
  6
ByLayer
 62
  256
370
   -1
100
AcDbLine
 10
319.4170240590097
 20
-268.5567844427776
 11
312.4109240590097
 21
-280.6847844427776
  0
LINE
  5
1A3
100
AcDbEntity
  8
0
  6
ByLayer
 62
  256
370
   -1
100
AcDbLine
 10
312.4109240590097
 20
-280.6847844427776
 11
300.3035240590097
 21
-273.6787844427776
  0
LINE
  5
1A4
100
AcDbEntity
  8
0
  6
ByLayer
 62
  256
370
   -1
100
AcDbLine
 10
253.7190540590095
 20
-89.68631519307672
 11
253.7190540590095
 21
-87.31531519307694
  0
LINE
  5
1A5
100
AcDbEntity
  8
0
  6
ByLayer
 62
  256
370
   -1
100
AcDbLine
 10
220.6570540590095
 20
-70.63531519307682
 11
234.6690540590095
 21
-70.63531519307682
  0
LINE
  5
1A6
100
AcDbEntity
  8
0
  6
ByLayer
 62
  256
370
   -1
100
AcDbLine
 10
234.6690540590095
 20
-70.63531519307682
 11
234.6690540590095
 21
-84.64831519307683
  0
LINE
  5
1A7
100
AcDbEntity
  8
0
  6
ByLayer
 62
  256
370
   -1
100
AcDbLine
 10
234.6690540590095
 20
-84.64831519307683
 11
220.6570540590095
 21
-84.64831519307683
  0
LINE
  5
1A8
100
AcDbEntity
  8
0
  6
ByLayer
 62
  256
370
   -1
100
AcDbLine
 10
220.6570540590095
 20
-84.64831519307683
 11
220.6570540590095
 21
-70.63531519307682
  0
LINE
  5
1A9
100
AcDbEntity
  8
0
  6
ByLayer
 62
  256
370
   -1
100
AcDbLine
 10
220.6570540590095
 20
-51.58531519307684
 11
234.6690540590095
 21
-51.58531519307684
  0
LINE
  5
1AA
100
AcDbEntity
  8
0
  6
ByLayer
 62
  256
370
   -1
100
AcDbLine
 10
234.6690540590095
 20
-51.58531519307684
 11
234.6690540590095
 21
-65.59831519307693
  0
LINE
  5
1AB
100
AcDbEntity
  8
0
  6
ByLayer
 62
  256
370
   -1
100
AcDbLine
 10
234.6690540590095
 20
-65.59831519307693
 11
220.6570540590095
 21
-65.59831519307693
  0
LINE
  5
1AC
100
AcDbEntity
  8
0
  6
ByLayer
 62
  256
370
   -1
100
AcDbLine
 10
220.6570540590095
 20
-65.59831519307693
 11
220.6570540590095
 21
-51.58531519307684
  0
LINE
  5
1AD
100
AcDbEntity
  8
0
  6
ByLayer
 62
  256
370
   -1
100
AcDbLine
 10
182.5556340590095
 20
-75.39831519307683
 11
196.5688540590095
 21
-75.39831519307683
  0
LINE
  5
1AE
100
AcDbEntity
  8
0
  6
ByLayer
 62
  256
370
   -1
100
AcDbLine
 10
196.5688540590095
 20
-75.39831519307683
 11
196.5688540590095
 21
-89.41131519307683
  0
LINE
  5
1AF
100
AcDbEntity
  8
0
  6
ByLayer
 62
  256
370
   -1
100
AcDbLine
 10
196.5688540590095
 20
-89.41131519307683
 11
182.5556340590095
 21
-89.41131519307683
  0
LINE
  5
1B0
100
AcDbEntity
  8
0
  6
ByLayer
 62
  256
370
   -1
100
AcDbLine
 10
182.5556340590095
 20
-89.41131519307683
 11
182.5556340590095
 21
-75.39831519307683
  0
LINE
  5
1B1
100
AcDbEntity
  8
0
  6
ByLayer
 62
  256
370
   -1
100
AcDbLine
 10
182.5556340590095
 20
-18.24831519307682
 11
196.5688540590095
 21
-18.24831519307682
  0
LINE
  5
1B2
100
AcDbEntity
  8
0
  6
ByLayer
 62
  256
370
   -1
100
AcDbLine
 10
196.5688540590095
 20
-18.24831519307682
 11
196.5688540590095
 21
-32.26131519307683
  0
LINE
  5
1B3
100
AcDbEntity
  8
0
  6
ByLayer
 62
  256
370
   -1
100
AcDbLine
 10
196.5688540590095
 20
-32.26131519307683
 11
182.5556340590095
 21
-32.26131519307683
  0
LINE
  5
1B4
100
AcDbEntity
  8
0
  6
ByLayer
 62
  256
370
   -1
100
AcDbLine
 10
182.5556340590095
 20
-32.26131519307683
 11
182.5556340590095
 21
-18.24831519307682
  0
LINE
  5
1B5
100
AcDbEntity
  8
0
  6
ByLayer
 62
  256
370
   -1
100
AcDbLine
 10
277.8070540590095
 20
-15.87731519307692
 11
291.8191540590095
 21
-15.87731519307692
  0
LINE
  5
1B6
100
AcDbEntity
  8
0
  6
ByLayer
 62
  256
370
   -1
100
AcDbLine
 10
291.8191540590095
 20
-15.87731519307692
 11
291.8191540590095
 21
-29.86831519307694
  0
LINE
  5
1B7
100
AcDbEntity
  8
0
  6
ByLayer
 62
  256
370
   -1
100
AcDbLine
 10
291.8191540590095
 20
-29.86831519307694
 11
277.8070540590095
 21
-29.86831519307694
  0
LINE
  5
1B8
100
AcDbEntity
  8
0
  6
ByLayer
 62
  256
370
   -1
100
AcDbLine
 10
277.8070540590095
 20
-29.86831519307694
 11
277.8070540590095
 21
-15.87731519307692
  0
LINE
  5
1B9
100
AcDbEntity
  8
0
  6
ByLayer
 62
  256
370
   -1
100
AcDbLine
 10
182.5556340590095
 20
-37.29831519307683
 11
196.5688540590095
 21
-37.29831519307683
  0
LINE
  5
1BA
100
AcDbEntity
  8
0
  6
ByLayer
 62
  256
370
   -1
100
AcDbLine
 10
196.5688540590095
 20
-37.29831519307683
 11
196.5688540590095
 21
-51.31131519307684
  0
LINE
  5
1BB
100
AcDbEntity
  8
0
  6
ByLayer
 62
  256
370
   -1
100
AcDbLine
 10
196.5688540590095
 20
-51.31131519307684
 11
182.5556340590095
 21
-51.31131519307684
  0
LINE
  5
1BC
100
AcDbEntity
  8
0
  6
ByLayer
 62
  256
370
   -1
100
AcDbLine
 10
182.5556340590095
 20
-51.31131519307684
 11
182.5556340590095
 21
-37.29831519307683
  0
LINE
  5
1BD
100
AcDbEntity
  8
0
  6
ByLayer
 62
  256
370
   -1
100
AcDbLine
 10
182.5556340590095
 20
-56.34831519307693
 11
196.5688540590095
 21
-56.34831519307693
  0
LINE
  5
1BE
100
AcDbEntity
  8
0
  6
ByLayer
 62
  256
370
   -1
100
AcDbLine
 10
196.5688540590095
 20
-56.34831519307693
 11
196.5688540590095
 21
-70.36131519307682
  0
LINE
  5
1BF
100
AcDbEntity
  8
0
  6
ByLayer
 62
  256
370
   -1
100
AcDbLine
 10
196.5688540590095
 20
-70.36131519307682
 11
182.5556340590095
 21
-70.36131519307682
  0
LINE
  5
1C0
100
AcDbEntity
  8
0
  6
ByLayer
 62
  256
370
   -1
100
AcDbLine
 10
182.5556340590095
 20
-70.36131519307682
 11
182.5556340590095
 21
-56.34831519307693
  0
LINE
  5
1C1
100
AcDbEntity
  8
0
  6
ByLayer
 62
  256
370
   -1
100
AcDbLine
 10
201.6070540590095
 20
-18.24831519307682
 11
215.6190540590095
 21
-18.24831519307682
  0
LINE
  5
1C2
100
AcDbEntity
  8
0
  6
ByLayer
 62
  256
370
   -1
100
AcDbLine
 10
215.6190540590095
 20
-18.24831519307682
 11
215.6190540590095
 21
-32.26131519307683
  0
LINE
  5
1C3
100
AcDbEntity
  8
0
  6
ByLayer
 62
  256
370
   -1
100
AcDbLine
 10
215.6190540590095
 20
-32.26131519307683
 11
201.6070540590095
 21
-32.26131519307683
  0
LINE
  5
1C4
100
AcDbEntity
  8
0
  6
ByLayer
 62
  256
370
   -1
100
AcDbLine
 10
201.6070540590095
 20
-32.26131519307683
 11
201.6070540590095
 21
-18.24831519307682
  0
LINE
  5
1C5
100
AcDbEntity
  8
0
  6
ByLayer
 62
  256
370
   -1
100
AcDbLine
 10
201.6070540590095
 20
-37.29831519307683
 11
215.6190540590095
 21
-37.29831519307683
  0
LINE
  5
1C6
100
AcDbEntity
  8
0
  6
ByLayer
 62
  256
370
   -1
100
AcDbLine
 10
215.6190540590095
 20
-37.29831519307683
 11
215.6190540590095
 21
-51.31131519307684
  0
LINE
  5
1C7
100
AcDbEntity
  8
0
  6
ByLayer
 62
  256
370
   -1
100
AcDbLine
 10
215.6190540590095
 20
-51.31131519307684
 11
201.6070540590095
 21
-51.31131519307684
  0
LINE
  5
1C8
100
AcDbEntity
  8
0
  6
ByLayer
 62
  256
370
   -1
100
AcDbLine
 10
201.6070540590095
 20
-51.31131519307684
 11
201.6070540590095
 21
-37.29831519307683
  0
LINE
  5
1C9
100
AcDbEntity
  8
0
  6
ByLayer
 62
  256
370
   -1
100
AcDbLine
 10
201.6070540590095
 20
-56.34831519307693
 11
215.6190540590095
 21
-56.34831519307693
  0
LINE
  5
1CA
100
AcDbEntity
  8
0
  6
ByLayer
 62
  256
370
   -1
100
AcDbLine
 10
215.6190540590095
 20
-56.34831519307693
 11
215.6190540590095
 21
-70.36131519307682
  0
LINE
  5
1CB
100
AcDbEntity
  8
0
  6
ByLayer
 62
  256
370
   -1
100
AcDbLine
 10
215.6190540590095
 20
-70.36131519307682
 11
201.6070540590095
 21
-70.36131519307682
  0
LINE
  5
1CC
100
AcDbEntity
  8
0
  6
ByLayer
 62
  256
370
   -1
100
AcDbLine
 10
201.6070540590095
 20
-70.36131519307682
 11
201.6070540590095
 21
-56.34831519307693
  0
LINE
  5
1CD
100
AcDbEntity
  8
0
  6
ByLayer
 62
  256
370
   -1
100
AcDbLine
 10
201.6070540590095
 20
-75.39831519307683
 11
215.6190540590095
 21
-75.39831519307683
  0
LINE
  5
1CE
100
AcDbEntity
  8
0
  6
ByLayer
 62
  256
370
   -1
100
AcDbLine
 10
215.6190540590095
 20
-75.39831519307683
 11
215.6190540590095
 21
-89.41131519307683
  0
LINE
  5
1CF
100
AcDbEntity
  8
0
  6
ByLayer
 62
  256
370
   -1
100
AcDbLine
 10
215.6190540590095
 20
-89.41131519307683
 11
201.6070540590095
 21
-89.41131519307683
  0
LINE
  5
1D0
100
AcDbEntity
  8
0
  6
ByLayer
 62
  256
370
   -1
100
AcDbLine
 10
201.6070540590095
 20
-89.41131519307683
 11
201.6070540590095
 21
-75.39831519307683
  0
LINE
  5
1D1
100
AcDbEntity
  8
0
  6
ByLayer
 62
  256
370
   -1
100
AcDbLine
 10
220.6556540590095
 20
-13.48531519307681
 11
234.6690540590095
 21
-13.48531519307681
  0
LINE
  5
1D2
100
AcDbEntity
  8
0
  6
ByLayer
 62
  256
370
   -1
100
AcDbLine
 10
234.6690540590095
 20
-13.48531519307681
 11
234.6690540590095
 21
-27.49831519307682
  0
LINE
  5
1D3
100
AcDbEntity
  8
0
  6
ByLayer
 62
  256
370
   -1
100
AcDbLine
 10
234.6690540590095
 20
-27.49831519307682
 11
220.6556540590095
 21
-27.49831519307682
  0
LINE
  5
1D4
100
AcDbEntity
  8
0
  6
ByLayer
 62
  256
370
   -1
100
AcDbLine
 10
220.6556540590095
 20
-27.49831519307682
 11
220.6556540590095
 21
-13.48531519307681
  0
LINE
  5
1D5
100
AcDbEntity
  8
0
  6
ByLayer
 62
  256
370
   -1
100
AcDbLine
 10
220.6556540590095
 20
-32.53531519307683
 11
234.6690540590095
 21
-32.53531519307683
  0
LINE
  5
1D6
100
AcDbEntity
  8
0
  6
ByLayer
 62
  256
370
   -1
100
AcDbLine
 10
234.6690540590095
 20
-32.53531519307683
 11
234.6690540590095
 21
-46.54831519307683
  0
LINE
  5
1D7
100
AcDbEntity
  8
0
  6
ByLayer
 62
  256
370
   -1
100
AcDbLine
 10
234.6690540590095
 20
-46.54831519307683
 11
220.6556540590095
 21
-46.54831519307683
  0
LINE
  5
1D8
100
AcDbEntity
  8
0
  6
ByLayer
 62
  256
370
   -1
100
AcDbLine
 10
220.6556540590095
 20
-46.54831519307683
 11
220.6556540590095
 21
-32.53531519307683
  0
LINE
  5
1D9
100
AcDbEntity
  8
0
  6
ByLayer
 62
  256
370
   -1
100
AcDbLine
 10
239.7070540590095
 20
-11.11531519307692
 11
253.7190540590095
 21
-11.11531519307692
  0
LINE
  5
1DA
100
AcDbEntity
  8
0
  6
ByLayer
 62
  256
370
   -1
100
AcDbLine
 10
253.7190540590095
 20
-11.11531519307692
 11
253.7190540590095
 21
-25.10631519307694
  0
LINE
  5
1DB
100
AcDbEntity
  8
0
  6
ByLayer
 62
  256
370
   -1
100
AcDbLine
 10
253.7190540590095
 20
-25.10631519307694
 11
239.7070540590095
 21
-25.10631519307694
  0
LINE
  5
1DC
100
AcDbEntity
  8
0
  6
ByLayer
 62
  256
370
   -1
100
AcDbLine
 10
239.7070540590095
 20
-25.10631519307694
 11
239.7070540590095
 21
-11.11531519307692
  0
LINE
  5
1DD
100
AcDbEntity
  8
0
  6
ByLayer
 62
  256
370
   -1
100
AcDbLine
 10
239.7070540590095
 20
-30.16531519307682
 11
253.7190540590095
 21
-30.16531519307682
  0
LINE
  5
1DE
100
AcDbEntity
  8
0
  6
ByLayer
 62
  256
370
   -1
100
AcDbLine
 10
253.7190540590095
 20
-30.16531519307682
 11
253.7190540590095
 21
-44.15631519307692
  0
LINE
  5
1DF
100
AcDbEntity
  8
0
  6
ByLayer
 62
  256
370
   -1
100
AcDbLine
 10
253.7190540590095
 20
-44.15631519307692
 11
239.7070540590095
 21
-44.15631519307692
  0
LINE
  5
1E0
100
AcDbEntity
  8
0
  6
ByLayer
 62
  256
370
   -1
100
AcDbLine
 10
239.7070540590095
 20
-44.15631519307692
 11
239.7070540590095
 21
-30.16531519307682
  0
LINE
  5
1E1
100
AcDbEntity
  8
0
  6
ByLayer
 62
  256
370
   -1
100
AcDbLine
 10
239.7070540590095
 20
-49.21531519307692
 11
253.7190540590095
 21
-49.21531519307692
  0
LINE
  5
1E2
100
AcDbEntity
  8
0
  6
ByLayer
 62
  256
370
   -1
100
AcDbLine
 10
253.7190540590095
 20
-49.21531519307692
 11
253.7190540590095
 21
-63.20631519307682
  0
LINE
  5
1E3
100
AcDbEntity
  8
0
  6
ByLayer
 62
  256
370
   -1
100
AcDbLine
 10
253.7190540590095
 20
-63.20631519307682
 11
239.7070540590095
 21
-63.20631519307682
  0
LINE
  5
1E4
100
AcDbEntity
  8
0
  6
ByLayer
 62
  256
370
   -1
100
AcDbLine
 10
239.7070540590095
 20
-63.20631519307682
 11
239.7070540590095
 21
-49.21531519307692
  0
LINE
  5
1E5
100
AcDbEntity
  8
0
  6
ByLayer
 62
  256
370
   -1
100
AcDbLine
 10
239.7070540590095
 20
-68.26531519307682
 11
253.7190540590095
 21
-68.26531519307682
  0
LINE
  5
1E6
100
AcDbEntity
  8
0
  6
ByLayer
 62
  256
370
   -1
100
AcDbLine
 10
253.7190540590095
 20
-68.26531519307682
 11
253.7190540590095
 21
-82.25631519307683
  0
LINE
  5
1E7
100
AcDbEntity
  8
0
  6
ByLayer
 62
  256
370
   -1
100
AcDbLine
 10
253.7190540590095
 20
-82.25631519307683
 11
239.7070540590095
 21
-82.25631519307683
  0
LINE
  5
1E8
100
AcDbEntity
  8
0
  6
ByLayer
 62
  256
370
   -1
100
AcDbLine
 10
239.7070540590095
 20
-82.25631519307683
 11
239.7070540590095
 21
-68.26531519307682
  0
LINE
  5
1E9
100
AcDbEntity
  8
0
  6
ByLayer
 62
  256
370
   -1
100
AcDbLine
 10
258.7570540590095
 20
-13.48531519307681
 11
272.7690540590095
 21
-13.48531519307681
  0
LINE
  5
1EA
100
AcDbEntity
  8
0
  6
ByLayer
 62
  256
370
   -1
100
AcDbLine
 10
272.7690540590095
 20
-13.48531519307681
 11
272.7690540590095
 21
-27.49831519307682
  0
LINE
  5
1EB
100
AcDbEntity
  8
0
  6
ByLayer
 62
  256
370
   -1
100
AcDbLine
 10
272.7690540590095
 20
-27.49831519307682
 11
258.7570540590095
 21
-27.49831519307682
  0
LINE
  5
1EC
100
AcDbEntity
  8
0
  6
ByLayer
 62
  256
370
   -1
100
AcDbLine
 10
258.7570540590095
 20
-27.49831519307682
 11
258.7570540590095
 21
-13.48531519307681
  0
LINE
  5
1ED
100
AcDbEntity
  8
0
  6
ByLayer
 62
  256
370
   -1
100
AcDbLine
 10
258.7570540590095
 20
-32.53531519307683
 11
272.7690540590095
 21
-32.53531519307683
  0
LINE
  5
1EE
100
AcDbEntity
  8
0
  6
ByLayer
 62
  256
370
   -1
100
AcDbLine
 10
272.7690540590095
 20
-32.53531519307683
 11
272.7690540590095
 21
-46.54831519307683
  0
LINE
  5
1EF
100
AcDbEntity
  8
0
  6
ByLayer
 62
  256
370
   -1
100
AcDbLine
 10
272.7690540590095
 20
-46.54831519307683
 11
258.7570540590095
 21
-46.54831519307683
  0
LINE
  5
1F0
100
AcDbEntity
  8
0
  6
ByLayer
 62
  256
370
   -1
100
AcDbLine
 10
258.7570540590095
 20
-46.54831519307683
 11
258.7570540590095
 21
-32.53531519307683
  0
LINE
  5
1F1
100
AcDbEntity
  8
0
  6
ByLayer
 62
  256
370
   -1
100
AcDbLine
 10
258.7570540590095
 20
-51.58531519307684
 11
272.7690540590095
 21
-51.58531519307684
  0
LINE
  5
1F2
100
AcDbEntity
  8
0
  6
ByLayer
 62
  256
370
   -1
100
AcDbLine
 10
272.7690540590095
 20
-51.58531519307684
 11
272.7690540590095
 21
-65.59831519307693
  0
LINE
  5
1F3
100
AcDbEntity
  8
0
  6
ByLayer
 62
  256
370
   -1
100
AcDbLine
 10
272.7690540590095
 20
-65.59831519307693
 11
258.7570540590095
 21
-65.59831519307693
  0
LINE
  5
1F4
100
AcDbEntity
  8
0
  6
ByLayer
 62
  256
370
   -1
100
AcDbLine
 10
258.7570540590095
 20
-65.59831519307693
 11
258.7570540590095
 21
-51.58531519307684
  0
LINE
  5
1F5
100
AcDbEntity
  8
0
  6
ByLayer
 62
  256
370
   -1
100
AcDbLine
 10
258.7570540590095
 20
-70.63531519307682
 11
272.7690540590095
 21
-70.63531519307682
  0
LINE
  5
1F6
100
AcDbEntity
  8
0
  6
ByLayer
 62
  256
370
   -1
100
AcDbLine
 10
272.7690540590095
 20
-70.63531519307682
 11
272.7690540590095
 21
-84.64831519307683
  0
LINE
  5
1F7
100
AcDbEntity
  8
0
  6
ByLayer
 62
  256
370
   -1
100
AcDbLine
 10
272.7690540590095
 20
-84.64831519307683
 11
258.7570540590095
 21
-84.64831519307683
  0
LINE
  5
1F8
100
AcDbEntity
  8
0
  6
ByLayer
 62
  256
370
   -1
100
AcDbLine
 10
258.7570540590095
 20
-84.64831519307683
 11
258.7570540590095
 21
-70.63531519307682
  0
LINE
  5
1F9
100
AcDbEntity
  8
0
  6
ByLayer
 62
  256
370
   -1
100
AcDbLine
 10
277.8070540590095
 20
-34.92731519307682
 11
291.8191540590095
 21
-34.92731519307682
  0
LINE
  5
1FA
100
AcDbEntity
  8
0
  6
ByLayer
 62
  256
370
   -1
100
AcDbLine
 10
291.8191540590095
 20
-34.92731519307682
 11
291.8191540590095
 21
-48.91831519307692
  0
LINE
  5
1FB
100
AcDbEntity
  8
0
  6
ByLayer
 62
  256
370
   -1
100
AcDbLine
 10
291.8191540590095
 20
-48.91831519307692
 11
277.8070540590095
 21
-48.91831519307692
  0
LINE
  5
1FC
100
AcDbEntity
  8
0
  6
ByLayer
 62
  256
370
   -1
100
AcDbLine
 10
277.8070540590095
 20
-48.91831519307692
 11
277.8070540590095
 21
-34.92731519307682
  0
LINE
  5
1FD
100
AcDbEntity
  8
0
  6
ByLayer
 62
  256
370
   -1
100
AcDbLine
 10
277.8070540590095
 20
-53.97731519307692
 11
291.8191540590095
 21
-53.97731519307692
  0
LINE
  5
1FE
100
AcDbEntity
  8
0
  6
ByLayer
 62
  256
370
   -1
100
AcDbLine
 10
291.8191540590095
 20
-53.97731519307692
 11
291.8191540590095
 21
-67.96831519307682
  0
LINE
  5
1FF
100
AcDbEntity
  8
0
  6
ByLayer
 62
  256
370
   -1
100
AcDbLine
 10
291.8191540590095
 20
-67.96831519307682
 11
277.8070540590095
 21
-67.96831519307682
  0
LINE
  5
200
100
AcDbEntity
  8
0
  6
ByLayer
 62
  256
370
   -1
100
AcDbLine
 10
277.8070540590095
 20
-67.96831519307682
 11
277.8070540590095
 21
-53.97731519307692
  0
LINE
  5
201
100
AcDbEntity
  8
0
  6
ByLayer
 62
  256
370
   -1
100
AcDbLine
 10
277.8070540590095
 20
-73.02731519307682
 11
291.8191540590095
 21
-73.02731519307682
  0
LINE
  5
202
100
AcDbEntity
  8
0
  6
ByLayer
 62
  256
370
   -1
100
AcDbLine
 10
291.8191540590095
 20
-73.02731519307682
 11
291.8191540590095
 21
-87.01831519307683
  0
LINE
  5
203
100
AcDbEntity
  8
0
  6
ByLayer
 62
  256
370
   -1
100
AcDbLine
 10
291.8191540590095
 20
-87.01831519307683
 11
277.8070540590095
 21
-87.01831519307683
  0
LINE
  5
204
100
AcDbEntity
  8
0
  6
ByLayer
 62
  256
370
   -1
100
AcDbLine
 10
277.8070540590095
 20
-87.01831519307683
 11
277.8070540590095
 21
-73.02731519307682
  0
LINE
  5
205
100
AcDbEntity
  8
0
  6
ByLayer
 62
  256
370
   -1
100
AcDbLine
 10
296.8571540590095
 20
-25.40231519307682
 11
310.8691540590095
 21
-25.40231519307682
  0
LINE
  5
206
100
AcDbEntity
  8
0
  6
ByLayer
 62
  256
370
   -1
100
AcDbLine
 10
310.8691540590095
 20
-39.39331519307683
 11
296.8571540590095
 21
-39.39331519307683
  0
LINE
  5
207
100
AcDbEntity
  8
0
  6
ByLayer
 62
  256
370
   -1
100
AcDbLine
 10
296.8571540590095
 20
-39.39331519307683
 11
296.8571540590095
 21
-25.40231519307682
  0
LINE
  5
208
100
AcDbEntity
  8
0
  6
ByLayer
 62
  256
370
   -1
100
AcDbLine
 10
296.8571540590095
 20
-44.45231519307694
 11
310.8691540590095
 21
-44.45231519307694
  0
LINE
  5
209
100
AcDbEntity
  8
0
  6
ByLayer
 62
  256
370
   -1
100
AcDbLine
 10
310.8691540590095
 20
-44.45231519307694
 11
310.8691540590095
 21
-58.44331519307684
  0
LINE
  5
20A
100
AcDbEntity
  8
0
  6
ByLayer
 62
  256
370
   -1
100
AcDbLine
 10
310.8691540590095
 20
-58.44331519307684
 11
296.8571540590095
 21
-58.44331519307684
  0
LINE
  5
20B
100
AcDbEntity
  8
0
  6
ByLayer
 62
  256
370
   -1
100
AcDbLine
 10
296.8571540590095
 20
-58.44331519307684
 11
296.8571540590095
 21
-44.45231519307694
  0
LINE
  5
20C
100
AcDbEntity
  8
0
  6
ByLayer
 62
  256
370
   -1
100
AcDbLine
 10
296.8571540590095
 20
-63.50231519307692
 11
310.8691540590095
 21
-63.50231519307692
  0
LINE
  5
20D
100
AcDbEntity
  8
0
  6
ByLayer
 62
  256
370
   -1
100
AcDbLine
 10
310.8691540590095
 20
-63.50231519307692
 11
310.8691540590095
 21
-77.49331519307694
  0
LINE
  5
20E
100
AcDbEntity
  8
0
  6
ByLayer
 62
  256
370
   -1
100
AcDbLine
 10
310.8691540590095
 20
-77.49331519307694
 11
296.8571540590095
 21
-77.49331519307694
  0
LINE
  5
20F
100
AcDbEntity
  8
0
  6
ByLayer
 62
  256
370
   -1
100
AcDbLine
 10
296.8571540590095
 20
-77.49331519307694
 11
296.8571540590095
 21
-63.50231519307692
  0
LINE
  5
210
100
AcDbEntity
  8
0
  6
ByLayer
 62
  256
370
   -1
100
AcDbLine
 10
182.5556340590095
 20
-94.44931519307684
 11
196.5688540590095
 21
-94.44931519307684
  0
LINE
  5
211
100
AcDbEntity
  8
0
  6
ByLayer
 62
  256
370
   -1
100
AcDbLine
 10
196.5688540590095
 20
-94.44931519307684
 11
196.5688540590095
 21
-108.461315193077
  0
LINE
  5
212
100
AcDbEntity
  8
0
  6
ByLayer
 62
  256
370
   -1
100
AcDbLine
 10
196.5688540590095
 20
-108.461315193077
 11
182.5556340590095
 21
-108.461315193077
  0
LINE
  5
213
100
AcDbEntity
  8
0
  6
ByLayer
 62
  256
370
   -1
100
AcDbLine
 10
182.5556340590095
 20
-108.461315193077
 11
182.5556340590095
 21
-94.44931519307684
  0
LINE
  5
214
100
AcDbEntity
  8
0
  6
ByLayer
 62
  256
370
   -1
100
AcDbLine
 10
201.6070540590095
 20
-94.44931519307684
 11
215.6190540590095
 21
-94.44931519307684
  0
LINE
  5
215
100
AcDbEntity
  8
0
  6
ByLayer
 62
  256
370
   -1
100
AcDbLine
 10
215.6190540590095
 20
-94.44931519307684
 11
215.6190540590095
 21
-108.461315193077
  0
LINE
  5
216
100
AcDbEntity
  8
0
  6
ByLayer
 62
  256
370
   -1
100
AcDbLine
 10
215.6190540590095
 20
-108.461315193077
 11
201.6070540590095
 21
-108.461315193077
  0
LINE
  5
217
100
AcDbEntity
  8
0
  6
ByLayer
 62
  256
370
   -1
100
AcDbLine
 10
201.6070540590095
 20
-108.461315193077
 11
201.6070540590095
 21
-94.44931519307684
  0
LINE
  5
218
100
AcDbEntity
  8
0
  6
ByLayer
 62
  256
370
   -1
100
AcDbLine
 10
220.6556540590095
 20
-89.68631519307672
 11
234.6690540590095
 21
-89.68631519307672
  0
LINE
  5
219
100
AcDbEntity
  8
0
  6
ByLayer
 62
  256
370
   -1
100
AcDbLine
 10
234.6690540590095
 20
-89.68631519307672
 11
234.6690540590095
 21
-103.6983151930769
  0
LINE
  5
21A
100
AcDbEntity
  8
0
  6
ByLayer
 62
  256
370
   -1
100
AcDbLine
 10
234.6690540590095
 20
-103.6983151930769
 11
220.6556540590095
 21
-103.6983151930769
  0
LINE
  5
21B
100
AcDbEntity
  8
0
  6
ByLayer
 62
  256
370
   -1
100
AcDbLine
 10
220.6556540590095
 20
-103.6983151930769
 11
220.6556540590095
 21
-89.68631519307672
  0
LINE
  5
21C
100
AcDbEntity
  8
0
  6
ByLayer
 62
  256
370
   -1
100
AcDbLine
 10
267.3076540590095
 20
-104.0153151930769
 11
274.2930540590095
 21
-91.88731519307692
  0
LINE
  5
21D
100
AcDbEntity
  8
0
  6
ByLayer
 62
  256
370
   -1
100
AcDbLine
 10
274.2930540590095
 20
-91.88731519307692
 11
286.4211540590095
 21
-98.89331519307683
  0
LINE
  5
21E
100
AcDbEntity
  8
0
  6
ByLayer
 62
  256
370
   -1
100
AcDbLine
 10
286.4211540590095
 20
-98.89331519307683
 11
279.4150540590095
 21
-111.0213151930769
  0
LINE
  5
21F
100
AcDbEntity
  8
0
  6
ByLayer
 62
  256
370
   -1
100
AcDbLine
 10
279.4150540590095
 20
-111.0213151930769
 11
267.3076540590095
 21
-104.0153151930769
  0
LINE
  5
220
100
AcDbEntity
  8
0
  6
ByLayer
 62
  256
370
   -1
100
AcDbLine
 10
253.7190540590095
 20
-87.31531519307694
 11
239.7056540590095
 21
-87.31531519307694
  0
LINE
  5
221
100
AcDbEntity
  8
0
  6
ByLayer
 62
  256
370
   -1
100
AcDbLine
 10
239.7056540590095
 20
-87.31531519307694
 11
239.7056540590095
 21
-101.3063151930769
  0
LINE
  5
222
100
AcDbEntity
  8
0
  6
ByLayer
 62
  256
370
   -1
100
AcDbLine
 10
239.7056540590095
 20
-101.3063151930769
 11
247.3263540590095
 21
-101.3063151930769
  0
LINE
  5
223
100
AcDbEntity
  8
0
  6
ByLayer
 62
  256
370
   -1
100
AcDbLine
 10
247.3263540590095
 20
-101.3063151930769
 11
247.3263540590095
 21
-103.6983151930769
  0
LINE
  5
224
100
AcDbEntity
  8
0
  6
ByLayer
 62
  256
370
   -1
100
AcDbLine
 10
247.3263540590095
 20
-103.6983151930769
 11
261.3393540590095
 21
-103.6983151930769
  0
LINE
  5
225
100
AcDbEntity
  8
0
  6
ByLayer
 62
  256
370
   -1
100
AcDbLine
 10
261.3393540590095
 20
-103.6983151930769
 11
261.3393540590095
 21
-89.68631519307672
  0
LINE
  5
226
100
AcDbEntity
  8
0
  6
ByLayer
 62
  256
370
   -1
100
AcDbLine
 10
261.3393540590095
 20
-89.68631519307672
 11
253.7190540590095
 21
-89.68631519307672
  0
LINE
  5
227
100
AcDbEntity
  8
0
  6
ByLayer
 62
  256
370
   -1
100
AcDbLine
 10
295.0491540590095
 20
-123.1293151930769
 11
295.2161540590095
 21
-123.2253151930769
  0
LINE
  5
228
100
AcDbEntity
  8
0
  6
ByLayer
 62
  256
370
   -1
100
AcDbLine
 10
181.7508540590095
 20
-14.74331519307694
 11
181.5524240590095
 21
-14.78731519307684
  0
LINE
  5
229
100
AcDbEntity
  8
0
  6
ByLayer
 62
  256
370
   -1
100
AcDbLine
 10
181.5524240590095
 20
-14.78731519307684
 11
180.9929340590095
 21
-15.07131519307683
  0
LINE
  5
22A
100
AcDbEntity
  8
0
  6
ByLayer
 62
  256
370
   -1
100
AcDbLine
 10
180.9929340590095
 20
-15.07131519307683
 11
180.3714400590095
 21
-15.64031519307693
  0
LINE
  5
22B
100
AcDbEntity
  8
0
  6
ByLayer
 62
  256
370
   -1
100
AcDbLine
 10
180.3714400590095
 20
-15.64031519307693
 11
179.9525180590095
 21
-16.36931519307683
  0
LINE
  5
22C
100
AcDbEntity
  8
0
  6
ByLayer
 62
  256
370
   -1
100
AcDbLine
 10
179.9525180590095
 20
-16.36931519307683
 11
179.7995560590095
 21
-16.97831519307692
  0
LINE
  5
22D
100
AcDbEntity
  8
0
  6
ByLayer
 62
  256
370
   -1
100
AcDbLine
 10
179.7995560590095
 20
-16.97831519307692
 11
179.7995560590095
 21
-17.18231519307682
  0
LINE
  5
22E
100
AcDbEntity
  8
0
  6
ByLayer
 62
  256
370
   -1
100
AcDbLine
 10
179.7995560590095
 20
-17.18231519307682
 11
179.7995560590095
 21
-109.2813151930767
  0
LINE
  5
22F
100
AcDbEntity
  8
0
  6
ByLayer
 62
  256
370
   -1
100
AcDbLine
 10
179.7995560590095
 20
-109.2813151930767
 11
179.7995560590095
 21
-109.4743151930768
  0
LINE
  5
230
100
AcDbEntity
  8
0
  6
ByLayer
 62
  256
370
   -1
100
AcDbLine
 10
179.7995560590095
 20
-109.4743151930768
 11
179.9566520590095
 21
-110.0573151930769
  0
LINE
  5
231
100
AcDbEntity
  8
0
  6
ByLayer
 62
  256
370
   -1
100
AcDbLine
 10
179.9566520590095
 20
-110.0573151930769
 11
180.3865990590095
 21
-110.692315193077
  0
LINE
  5
232
100
AcDbEntity
  8
0
  6
ByLayer
 62
  256
370
   -1
100
AcDbLine
 10
180.3865990590095
 20
-110.692315193077
 11
181.0218740590095
 21
-111.1223151930769
  0
LINE
  5
233
100
AcDbEntity
  8
0
  6
ByLayer
 62
  256
370
   -1
100
AcDbLine
 10
181.0218740590095
 20
-111.1223151930769
 11
181.6047840590095
 21
-111.2803151930769
  0
LINE
  5
234
100
AcDbEntity
  8
0
  6
ByLayer
 62
  256
370
   -1
100
AcDbLine
 10
181.6047840590095
 20
-111.2803151930769
 11
181.7990940590095
 21
-111.2803151930769
  0
LINE
  5
235
100
AcDbEntity
  8
0
  6
ByLayer
 62
  256
370
   -1
100
AcDbLine
 10
181.7990940590095
 20
-111.2803151930769
 11
272.5111540590095
 21
-111.2803151930769
  0
LINE
  5
236
100
AcDbEntity
  8
0
  6
ByLayer
 62
  256
370
   -1
100
AcDbLine
 10
272.5111540590095
 20
-111.2803151930769
 11
272.7386540590095
 21
-111.2803151930769
  0
LINE
  5
237
100
AcDbEntity
  8
0
  6
ByLayer
 62
  256
370
   -1
100
AcDbLine
 10
272.7386540590095
 20
-111.2803151930769
 11
273.4234540590095
 21
-111.3593151930768
  0
LINE
  5
238
100
AcDbEntity
  8
0
  6
ByLayer
 62
  256
370
   -1
100
AcDbLine
 10
273.4234540590095
 20
-111.3593151930768
 11
274.4320540590095
 21
-111.574315193077
  0
LINE
  5
239
100
AcDbEntity
  8
0
  6
ByLayer
 62
  256
370
   -1
100
AcDbLine
 10
274.4320540590095
 20
-111.574315193077
 11
275.4120540590095
 21
-111.8913151930769
  0
LINE
  5
23A
100
AcDbEntity
  8
0
  6
ByLayer
 62
  256
370
   -1
100
AcDbLine
 10
275.4120540590095
 20
-111.8913151930769
 11
276.0445540590096
 21
-112.1653151930769
  0
LINE
  5
23B
100
AcDbEntity
  8
0
  6
ByLayer
 62
  256
370
   -1
100
AcDbLine
 10
276.0445540590096
 20
-112.1653151930769
 11
276.2428540590095
 21
-112.2793151930769
  0
LINE
  5
23C
100
AcDbEntity
  8
0
  6
ByLayer
 62
  256
370
   -1
100
AcDbLine
 10
276.2428540590095
 20
-112.2793151930769
 11
312.4847207471925
 21
-133.1884920947944
  0
ARC
  5
23D
100
AcDbEntity
  8
0
  6
ByLayer
 62
  256
370
   -1
100
AcDbCircle
 10
312.9844505106532
 20
-132.3223107260781
 40
1
100
AcDbArc
 50
240.0178770956076
 51
329.9314171781378
  0
LINE
  5
23E
100
AcDbEntity
  8
0
  6
ByLayer
 62
  256
370
   -1
100
AcDbLine
 10
310.8691540590095
 20
-25.40231519307682
 11
310.8691540590095
 21
-39.39331519307683
  0
LINE
  5
23F
100
AcDbEntity
  8
0
  6
ByLayer
 62
  256
370
   -1
100
AcDbLine
 10
315.4923938394285
 20
-90.73352645962842
 11
332.2563938394285
 21
-90.73352645962842
  0
LINE
  5
240
100
AcDbEntity
  8
0
  6
ByLayer
 62
  256
370
   -1
100
AcDbLine
 10
315.4923938394285
 20
-72.46152645962843
 11
332.2563938394285
 21
-72.46152645962843
  0
LINE
  5
241
100
AcDbEntity
  8
0
  6
ByLayer
 62
  256
370
   -1
100
AcDbLine
 10
313.8498767961343
 20
-132.8233469966197
 11
331.7764996099514
 21
-101.8591803182086
  0
LINE
  5
242
100
AcDbEntity
  8
0
  6
ByLayer
 62
  256
370
   -1
100
AcDbLine
 10
336.1392632590096
 20
-89.15114809307693
 11
331.7764996099514
 21
-101.8591803182085
  0
LINE
  5
243
100
AcDbEntity
  8
0
  6
ByLayer
 62
  256
370
   -1
100
AcDbLine
 10
181.7508540590095
 20
-14.74331519307694
 11
183.0632676590095
 21
-14.44436801270894
  0
LWPOLYLINE
  5
244
100
AcDbEntity
  8
0
  6
ByLayer
 62
  256
370
   -1
100
AcDbPolyline
 90
    2
 70
    0
 43
0
 10
334.1612636590094
 20
-17.78311709307684
 10
334.1612636590094
 20
-51.05711709307684
  0
LINE
  5
245
100
AcDbEntity
  8
0
  6
ByLayer
 62
  256
370
   -1
100
AcDbLine
 10
333.8535680590094
 20
-14.44637461270892
 11
332.8642634590095
 21
-14.44637461270892
  0
ARC
  5
246
100
AcDbEntity
  8
0
  6
ByLayer
 62
  256
370
   -1
100
AcDbCircle
 10
333.8535680590094
 20
-16.73237461270892
 40
2.286
100
AcDbArc
 50
0
 51
90
  0
LWPOLYLINE
  5
247
100
AcDbEntity
  8
0
  6
ByLayer
 62
  256
370
   -1
100
AcDbPolyline
 90
    4
 70
    1
 43
0
 10
330.0340176590094
 20
-16.51311709307694
 10
334.1612636590094
 20
-16.51311709307694
 10
334.1612636590094
 20
-52.32711709307694
 10
330.0340176590094
 20
-52.32711709307694
  0
LWPOLYLINE
  5
248
100
AcDbEntity
  8
0
  6
ByLayer
 62
  256
370
   -1
100
AcDbPolyline
 90
    4
 70
    1
 43
0
 10
315.1112636590095
 20
-52.32711709307694
 10
319.2489998590095
 20
-52.32711709307694
 10
319.2489998590095
 20
-16.51311778745472
 10
315.1112636590095
 20
-16.51311778745472
  0
SPLINE
  5
249
100
AcDbEntity
  8
0
  6
ByLayer
 62
  256
370
   -1
100
AcDbSpline
210
0
220
0
230
0
 70
    8
 71
    2
 72
    6
 73
    3
 74
    0
 42
1e-007
 43
1e-007
 40
0
 40
0
 40
0
 40
1
 40
1
 40
1
 10
333.886774800127
 20
-69.72460262804822
 30
0
 10
335.6762769988457
 20
-69.68181945202113
 30
0
 10
336.139337145842
 20
-71.59605040081323
 30
0
  0
ARC
  5
24A
100
AcDbEntity
  8
0
  6
ByLayer
 62
  256
370
   -1
100
AcDbCircle
 10
333.853424678253
 20
-58.34680099784123
 40
2.286
100
AcDbArc
 50
269.785
 51
359.785
  0
SPLINE
  5
24B
100
AcDbEntity
  8
0
  6
ByLayer
 62
  256
370
   -1
100
AcDbSpline
210
0
220
0
230
0
 70
    8
 71
    2
 72
    6
 73
    3
 74
    0
 42
1e-007
 43
1e-007
 40
0
 40
0
 40
0
 40
1
 40
1
 40
1
 10
320.7951089659182
 20
-62.50489018604583
 30
0
 10
321.0772713180262
 20
-60.73725534637373
 30
0
 10
323.0437198390001
 20
-60.62869642500263
 30
0
  0
SPLINE
  5
24C
100
AcDbEntity
  8
0
  6
ByLayer
 62
  256
370
   -1
100
AcDbSpline
210
0
220
0
230
0
 70
    8
 71
    2
 72
    6
 73
    3
 74
    0
 42
1e-007
 43
1e-007
 40
0
 40
0
 40
0
 40
1
 40
1
 40
1
 10
323.0456870548096
 20
-69.72224672229953
 30
0
 10
321.2562306397242
 20
-69.76690383684604
 30
0
 10
320.7911661690334
 20
-67.85315885301173
 30
0
  0
LINE
  5
24D
100
AcDbEntity
  8
0
  6
ByLayer
 62
  256
370
   -1
100
AcDbLine
 10
323.0456870548096
 20
-69.72224672229953
 11
333.8867746949444
 21
-69.72460262804822
  0
LINE
  5
24E
100
AcDbEntity
  8
0
  6
ByLayer
 62
  256
370
   -1
100
AcDbLine
 10
320.7951089659182
 20
-62.50489018604583
 11
320.7911661690334
 21
-67.85315885301173
  0
LINE
  5
24F
100
AcDbEntity
  8
0
  6
ByLayer
 62
  256
370
   -1
100
AcDbLine
 10
323.0437198390001
 20
-60.62869642500263
 11
333.8448465796437
 21
-60.63278490334542
  0
LWPOLYLINE
  5
250
100
AcDbEntity
  8
0
  6
ByLayer
 62
  256
370
   -1
100
AcDbPolyline
 90
    3
 70
    0
 43
0
 10
307.0152676590095
 20
-14.44637461270892
 10
303.4592676590095
 20
-13.93636801270893
 10
279.8804476590095
 20
-7.586368012708931
  0
LWPOLYLINE
  5
251
100
AcDbEntity
  8
0
  6
ByLayer
 62
  256
370
   -1
100
AcDbPolyline
 90
    2
 70
    0
 43
0
 10
307.0152676590095
 20
-14.44637461270892
 10
332.8642634590095
 20
-14.44637461270892
  0
LWPOLYLINE
  5
252
100
AcDbEntity
  8
0
  6
ByLayer
 62
  256
370
   -1
100
AcDbPolyline
 90
    2
 70
    0
 43
0
 10
279.8804476590095
 20
-7.586368012708931
 10
237.1652676590095
 20
-7.586368012708931
  0
LWPOLYLINE
  5
253
100
AcDbEntity
  8
0
  6
ByLayer
 62
  256
370
   -1
100
AcDbPolyline
 90
    3
 70
    0
 43
0
 10
183.0632676590095
 20
-14.44436801270894
 10
237.1652676590095
 20
-7.586368012708931
 10
237.1652676590095
 20
-7.586368012708931
  0
LWPOLYLINE
  5
254
100
AcDbEntity
  8
0
  6
ByLayer
 62
  256
370
   -1
100
AcDbPolyline
 90
    4
 70
    1
 43
0
 10
315.2702676590095
 20
-72.46152645962843
 10
332.4152676590095
 20
-72.46152645962843
 10
332.4152676590095
 20
-90.73352645962842
 10
315.2702676590095
 20
-90.73352645962842
  0
LINE
  5
255
100
AcDbEntity
  8
0
  6
ByLayer
 62
  256
370
   -1
100
AcDbLine
 10
319.2443523210311
 20
-58.40584492757154
 11
319.6832636590093
 21
-58.40584492757154
  0
LWPOLYLINE
  5
256
100
AcDbEntity
  8
0
  6
ByLayer
 62
  256
370
   -1
100
AcDbPolyline
 90
    4
 70
    1
 43
0
 10
319.2443523210311
 20
-58.40584492757154
 10
330.2821749969876
 20
-58.40584492757154
 10
330.2821749969876
 20
-55.64638925858222
 10
319.2443523210311
 20
-55.64638925858222
  0
LINE
  5
257
100
AcDbEntity
  8
0
  6
ByLayer
 62
  256
370
   -1
100
AcDbLine
 10
336.1395680590094
 20
-16.73237461270892
 11
336.1394085837572
 21
-58.35537909645052
  0
LINE
  5
258
100
AcDbEntity
  8
0
  6
ByLayer
 62
  256
370
   -1
100
AcDbLine
 10
336.139337145842
 20
-71.59605040081323
 11
336.1392632590096
 21
-89.15114809307693
  0
CIRCLE
  5
259
100
AcDbEntity
  8
0
  6
ByLayer
 62
  256
370
   -1
100
AcDbCircle
 10
316.5082636590093
 20
-57.91511709307682
 40
1.1999976
  0
CIRCLE
  5
25A
100
AcDbEntity
  8
0
  6
ByLayer
 62
  256
370
   -1
100
AcDbCircle
 10
332.7642382590093
 20
-57.91504089307682
 40
1.1999976
  0
CIRCLE
  5
25B
100
AcDbEntity
  8
0
  6
ByLayer
 62
  256
370
   -1
100
AcDbCircle
 10
323.8752542590096
 20
-81.29172769307684
 40
1.1999976
  0
CIRCLE
  5
25C
100
AcDbEntity
  8
0
  6
ByLayer
 62
  256
370
   -1
100
AcDbCircle
 10
327.2082422590092
 20
-94.18502169307683
 40
1.1999976
  0
CIRCLE
  5
25D
100
AcDbEntity
  8
0
  6
ByLayer
 62
  256
370
   -1
100
AcDbCircle
 10
288.3462422590094
 20
-92.02576769307692
 40
1.1999976
  0
CIRCLE
  5
25E
100
AcDbEntity
  8
0
  6
ByLayer
 62
  256
370
   -1
100
AcDbCircle
 10
237.6732422590094
 20
-84.65976769307693
 40
1.1999976
  0
CIRCLE
  5
25F
100
AcDbEntity
  8
0
  6
ByLayer
 62
  256
370
   -1
100
AcDbCircle
 10
199.0652422590094
 20
-92.27976769307693
 40
1.1999976
  0
CIRCLE
  5
260
100
AcDbEntity
  8
0
  6
ByLayer
 62
  256
370
   -1
100
AcDbCircle
 10
199.0652422590094
 20
-34.87576769307682
 40
1.1999976
  0
CIRCLE
  5
261
100
AcDbEntity
  8
0
  6
ByLayer
 62
  256
370
   -1
100
AcDbCircle
 10
237.1649882590094
 20
-49.09976769307684
 40
1.1999976
  0
CIRCLE
  5
262
100
AcDbEntity
  8
0
  6
ByLayer
 62
  256
370
   -1
100
AcDbCircle
 10
237.1649882590094
 20
-12.77802169307682
 40
1.1999976
  0
CIRCLE
  5
263
100
AcDbEntity
  8
0
  6
ByLayer
 62
  256
370
   -1
100
AcDbCircle
 10
294.3150136590093
 20
-32.33584389307683
 40
1.1999976
  0
LINE
  5
264
100
AcDbEntity
  8
0
  6
ByLayer
 62
  256
370
   -1
100
AcDbLine
 10
288.5679620590096
 20
-105.291411193077
 11
295.5533620590095
 21
-93.16341119307694
  0
LINE
  5
265
100
AcDbEntity
  8
0
  6
ByLayer
 62
  256
370
   -1
100
AcDbLine
 10
295.5533620590095
 20
-93.16341119307694
 11
307.6814620590096
 21
-100.1694111930769
  0
LINE
  5
266
100
AcDbEntity
  8
0
  6
ByLayer
 62
  256
370
   -1
100
AcDbLine
 10
307.6814620590096
 20
-100.1694111930769
 11
300.6753620590096
 21
-112.297411193077
  0
LINE
  5
267
100
AcDbEntity
  8
0
  6
ByLayer
 62
  256
370
   -1
100
AcDbLine
 10
300.6753620590096
 20
-112.297411193077
 11
288.5679620590096
 21
-105.291411193077
  0
LINE
  5
268
100
AcDbEntity
  8
0
  6
ByLayer
 62
  256
370
   -1
100
AcDbLine
 10
309.8285240590095
 20
-106.5675071930769
 11
316.8139240590095
 21
-94.43950719307685
  0
LINE
  5
269
100
AcDbEntity
  8
0
  6
ByLayer
 62
  256
370
   -1
100
AcDbLine
 10
316.8139240590095
 20
-94.43950719307685
 11
328.9420240590095
 21
-101.4455071930768
  0
LINE
  5
26A
100
AcDbEntity
  8
0
  6
ByLayer
 62
  256
370
   -1
100
AcDbLine
 10
328.9420240590095
 20
-101.4455071930768
 11
321.9359240590095
 21
-113.5735071930768
  0
LINE
  5
26B
100
AcDbEntity
  8
0
  6
ByLayer
 62
  256
370
   -1
100
AcDbLine
 10
321.9359240590095
 20
-113.5735071930768
 11
309.8285240590095
 21
-106.5675071930769
  0
LINE
  5
26C
100
AcDbEntity
  8
0
  6
ByLayer
 62
  256
370
   -1
100
AcDbLine
 10
300.3035240590097
 20
-123.0653151930769
 11
307.2889240590097
 21
-110.937315193077
  0
LINE
  5
26D
100
AcDbEntity
  8
0
  6
ByLayer
 62
  256
370
   -1
100
AcDbLine
 10
307.2889240590097
 20
-110.937315193077
 11
319.4170240590097
 21
-117.9433151930769
  0
LINE
  5
26E
100
AcDbEntity
  8
0
  6
ByLayer
 62
  256
370
   -1
100
AcDbLine
 10
319.4170240590097
 20
-117.9433151930769
 11
312.4109240590097
 21
-130.071315193077
  0
LINE
  5
26F
100
AcDbEntity
  8
0
  6
ByLayer
 62
  256
370
   -1
100
AcDbLine
 10
312.4109240590097
 20
-130.071315193077
 11
300.3035240590097
 21
-123.0653151930769
  0
ENDSEC
  0
SECTION
  2
OBJECTS
  0
DICTIONARY
  5
C
330
0
100
AcDbDictionary
281
    1
  3
ACAD_GROUP
350
D
  0
DICTIONARY
  5
D
330
C
100
AcDbDictionary
281
    1
  0
PLOTSETTINGS
  5
270
100
AcDbPlotSettings
  6
1x1
 40
0
 41
0
 42
0
 43
0
  0
ENDSEC
  0
EOF
