999
dxfrw 0.6.3
  0
SECTION
  2
HEADER
  9
$ACADVER
  1
AC1021
  9
$DWGCODEPAGE
  3
ANSI_936
  9
$INSBASE
 10
0
 20
0
 30
0
  9
$EXTMIN
 10
-9.971933999999948
 20
-282.3190315206314
 30
0
  9
$EXTMAX
 10
399.08486668325
 20
3.2
 30
0
  9
$LIMMIN
 10
0
 20
0
  9
$LIMMAX
 10
420
 20
297
  9
$ORTHOMODE
 70
    0
  9
$REGENMODE
 70
    1
  9
$FILLMODE
 70
    1
  9
$QTEXTMODE
 70
    0
  9
$MIRRTEXT
 70
    0
  9
$LTSCALE
 40
1
  9
$ATTMODE
 70
    1
  9
$TEXTSIZE
 40
2.5
  9
$TRACEWID
 40
1
  9
$TEXTSTYLE
  7
Standard
  9
$CLAYER
  8
0
  9
$CELTYPE
  6
ByLayer
  9
$CECOLOR
 62
  256
  9
$CELTSCALE
 40
1
  9
$DISPSILH
 70
    0
  9
$DIMSCALE
 40
1
  9
$DIMASZ
 40
2.5
  9
$DIMEXO
 40
0.625
  9
$DIMDLI
 40
3.75
  9
$DIMRND
 40
0
  9
$DIMDLE
 40
0
  9
$DIMEXE
 40
1.25
  9
$DIMTP
 40
0
  9
$DIMTM
 40
0
  9
$DIMTXT
 40
2.5
  9
$DIMCEN
 40
2.5
  9
$DIMTSZ
 40
0
  9
$DIMTOL
 70
    0
  9
$DIMLIM
 70
    0
  9
$DIMTIH
 70
    0
  9
$DIMTOH
 70
    0
  9
$DIMSE1
 70
    0
  9
$DIMSE2
 70
    0
  9
$DIMTAD
 70
    1
  9
$DIMZIN
 70
    8
  9
$DIMBLK
  1

  9
$DIMASO
 70
    1
  9
$DIMSHO
 70
    1
  9
$DIMPOST
  1

  9
$DIMAPOST
  1

  9
$DIMALT
 70
    0
  9
$DIMALTD
 70
    3
  9
$DIMALTF
 40
0.03937007874016
  9
$DIMLFAC
 40
1
  9
$DIMTOFL
 70
    1
  9
$DIMTVP
 40
0
  9
$DIMTIX
 70
    0
  9
$DIMSOXD
 70
    0
  9
$DIMSAH
 70
    0
  9
$DIMBLK1
  1

  9
$DIMBLK2
  1

  9
$DIMSTYLE
  2
ISO-25
  9
$DIMCLRD
 70
    0
  9
$DIMCLRE
 70
    0
  9
$DIMCLRT
 70
    0
  9
$DIMTFAC
 40
1
  9
$DIMGAP
 40
0.625
  9
$DIMJUST
 70
    0
  9
$DIMSD1
 70
    0
  9
$DIMSD2
 70
    0
  9
$DIMTOLJ
 70
    0
  9
$DIMTZIN
 70
    8
  9
$DIMALTZ
 70
    0
  9
$DIMALTTZ
 70
    0
  9
$DIMUPT
 70
    0
  9
$DIMDEC
 70
    2
  9
$DIMTDEC
 70
    2
  9
$DIMALTU
 70
    2
  9
$DIMALTTD
 70
    3
  9
$DIMTXSTY
  7
Standard
  9
$DIMAUNIT
 70
    0
  9
$DIMADEC
 70
    0
  9
$DIMALTRND
 40
0
  9
$DIMAZIN
 70
    0
  9
$DIMDSEP
 70
   44
  9
$DIMATFIT
 70
    3
  9
$DIMFRAC
 70
    0
  9
$DIMLDRBLK
  1

  9
$DIMLUNIT
 70
    2
  9
$DIMLWD
 70
   -2
  9
$DIMLWE
 70
   -2
  9
$DIMTMOVE
 70
    0
  9
$DIMFXL
 40
1
  9
$DIMFXLON
 70
    0
  9
$DIMJOGANG
 40
0.7853981633974483
  9
$DIMTFILL
 70
    0
  9
$DIMTFILLCLR
 70
    0
  9
$DIMARCSYM
 70
    0
  9
$DIMLTYPE
  6

  9
$DIMLTEX1
  6

  9
$DIMLTEX2
  6

  9
$LUNITS
 70
    2
  9
$LUPREC
 70
    4
  9
$SKETCHINC
 40
1
  9
$FILLETRAD
 40
0
  9
$AUNITS
 70
    0
  9
$AUPREC
 70
    0
  9
$MENU
  1
.
  9
$ELEVATION
 40
0
  9
$PELEVATION
 40
0
  9
$THICKNESS
 40
0
  9
$LIMCHECK
 70
    0
  9
$CHAMFERA
 40
0
  9
$CHAMFERB
 40
0
  9
$CHAMFERC
 40
0
  9
$CHAMFERD
 40
0
  9
$SKPOLY
 70
    0
  9
$USRTIMER
 70
    1
  9
$ANGBASE
 50
0
  9
$ANGDIR
 70
    0
  9
$PDMODE
 70
    0
  9
$PDSIZE
 40
0
  9
$PLINEWID
 40
0
  9
$SPLFRAME
 70
    0
  9
$SPLINETYPE
 70
    6
  9
$SPLINESEGS
 70
    8
  9
$HANDSEED
  5
20000
  9
$SURFTAB1
 70
    6
  9
$SURFTAB2
 70
    6
  9
$SURFTYPE
 70
    6
  9
$SURFU
 70
    6
  9
$SURFV
 70
    6
  9
$UCSBASE
  2

  9
$UCSNAME
  2

  9
$UCSORG
 10
0
 20
0
 30
0
  9
$UCSXDIR
 10
1
 20
0
 30
0
  9
$UCSYDIR
 10
0
 20
1
 30
0
  9
$UCSORTHOREF
  2

  9
$UCSORTHOVIEW
 70
    0
  9
$UCSORGTOP
 10
0
 20
0
 30
0
  9
$UCSORGBOTTOM
 10
0
 20
0
 30
0
  9
$UCSORGLEFT
 10
0
 20
0
 30
0
  9
$UCSORGRIGHT
 10
0
 20
0
 30
0
  9
$UCSORGFRONT
 10
0
 20
0
 30
0
  9
$UCSORGBACK
 10
0
 20
0
 30
0
  9
$PUCSBASE
  2

  9
$PUCSNAME
  2

  9
$PUCSORG
 10
0
 20
0
 30
0
  9
$PUCSXDIR
 10
1
 20
0
 30
0
  9
$PUCSYDIR
 10
0
 20
1
 30
0
  9
$PUCSORTHOREF
  2

  9
$PUCSORTHOVIEW
 70
    0
  9
$PUCSORGTOP
 10
0
 20
0
 30
0
  9
$PUCSORGBOTTOM
 10
0
 20
0
 30
0
  9
$PUCSORGLEFT
 10
0
 20
0
 30
0
  9
$PUCSORGRIGHT
 10
0
 20
0
 30
0
  9
$PUCSORGFRONT
 10
0
 20
0
 30
0
  9
$PUCSORGBACK
 10
0
 20
0
 30
0
  9
$USERI1
 70
    0
  9
$USERI2
 70
    0
  9
$USERI3
 70
    0
  9
$USERI4
 70
    0
  9
$USERI5
 70
    0
  9
$USERR1
 40
0
  9
$USERR2
 40
0
  9
$USERR3
 40
0
  9
$USERR4
 40
0
  9
$USERR5
 40
0
  9
$WORLDVIEW
 70
    1
  9
$SHADEDGE
 70
    3
  9
$SHADEDIF
 70
   70
  9
$TILEMODE
 70
    1
  9
$MAXACTVP
 70
   64
  9
$PINSBASE
 10
0
 20
0
 30
0
  9
$PLIMCHECK
 70
    0
  9
$PEXTMIN
 10
0
 20
0
 30
0
  9
$PEXTMAX
 10
0
 20
0
 30
0
  9
$GRIDMODE
 70
    1
  9
$SNAPSTYLE
 70
    0
  9
$PLIMMIN
 10
0
 20
0
  9
$PLIMMAX
 10
12
 20
9
  9
$UNITMODE
 70
    0
  9
$VISRETAIN
 70
    1
  9
$PLINEGEN
 70
    0
  9
$PSLTSCALE
 70
    1
  9
$TREEDEPTH
 70
 3020
  9
$CMLSTYLE
  2
Standard
  9
$CMLJUST
 70
    0
  9
$CMLSCALE
 40
20
  9
$PROXYGRAPHICS
 70
    1
  9
$MEASUREMENT
 70
    1
  9
$CELWEIGHT
370
   -1
  9
$ENDCAPS
280
    0
  9
$JOINSTYLE
280
    0
  9
$LWDISPLAY
290
    0
  9
$INSUNITS
 70
    4
  9
$HYPERLINKBASE
  1

  9
$STYLESHEET
  1

  9
$XEDIT
290
    1
  9
$CEPSNTYPE
380
    0
  9
$PSTYLEMODE
290
    1
  9
$EXTNAMES
290
    1
  9
$PSVPSCALE
 40
0
  9
$OLESTARTUP
290
    0
  9
$SORTENTS
280
  127
  9
$INDEXCTL
280
    0
  9
$HIDETEXT
280
    1
  9
$XCLIPFRAME
290
    0
  9
$HALOGAP
280
    0
  9
$OBSCOLOR
 70
  257
  9
$OBSLTYPE
280
    0
  9
$INTERSECTIONDISPLAY
280
    0
  9
$INTERSECTIONCOLOR
 70
  257
  9
$DIMASSOC
280
    2
  9
$PROJECTNAME
  1

  9
$CAMERADISPLAY
290
    0
  9
$LENSLENGTH
 40
50
  9
$CAMERAHEIGHT
 40
0
  9
$STEPSPERSEC
 40
2
  9
$STEPSIZE
 40
6
  9
$3DDWFPREC
 40
2
  9
$PSOLWIDTH
 40
5
  9
$PSOLHEIGHT
 40
80
  9
$LOFTANG1
 40
1.570796326794896
  9
$LOFTANG2
 40
1.570796326794896
  9
$LOFTMAG1
 40
0
  9
$LOFTMAG2
 40
0
  9
$LOFTPARAM
 70
    7
  9
$LOFTNORMALS
280
    1
  9
$LATITUDE
 40
37.795
  9
$LONGITUDE
 40
-122.394
  9
$NORTHDIRECTION
 40
0
  9
$TIMEZONE
 70
-8000
  9
$LIGHTGLYPHDISPLAY
280
    1
  9
$TILEMODELIGHTSYNCH
280
    1
  9
$SOLIDHIST
280
    0
  9
$SHOWHIST
280
    1
  9
$DWFFRAME
280
    2
  9
$DGNFRAME
280
    0
  9
$REALWORLDSCALE
290
    1
  9
$INTERFERECOLOR
 62
    1
  9
$CSHADOW
280
    0
  9
$SHADOWPLANELOCATION
 40
0
  0
ENDSEC
  0
SECTION
  2
CLASSES
  0
ENDSEC
  0
SECTION
  2
TABLES
  0
TABLE
  2
VPORT
  5
8
330
0
100
AcDbSymbolTable
 70
    1
  0
VPORT
  5
31
330
2
100
AcDbSymbolTableRecord
100
AcDbViewportTableRecord
  2
*ACTIVE
 70
    0
 10
0
 20
0
 11
1
 21
1
 12
292.2911327269927
 22
38.6397659468519
 13
0
 23
0
 14
10
 24
10
 15
10
 25
10
 16
0
 26
0
 36
1
 17
0
 27
0
 37
0
 40
254.586199827242
 41
1.936352509179927
 42
50
 43
0
 44
0
 50
0
 51
0
 71
    0
 72
  100
 73
    1
 74
    3
 75
    0
 76
    1
 77
    0
 78
    0
281
    0
 65
    1
110
0
120
0
130
0
111
1
121
0
131
0
112
0
122
1
132
0
 79
    0
146
0
348
10020
 60
    7
 61
    5
292
1
282
    1
141
0
142
0
 63
  250
421
3358443
  0
ENDTAB
  0
TABLE
  2
LTYPE
  5
5
330
0
100
AcDbSymbolTable
 70
    4
  0
LTYPE
  5
14
330
5
100
AcDbSymbolTableRecord
100
AcDbLinetypeTableRecord
  2
ByBlock
 70
    0
  3

 72
   65
 73
    0
 40
0
  0
LTYPE
  5
15
330
5
100
AcDbSymbolTableRecord
100
AcDbLinetypeTableRecord
  2
ByLayer
 70
    0
  3

 72
   65
 73
    0
 40
0
  0
LTYPE
  5
16
330
5
100
AcDbSymbolTableRecord
100
AcDbLinetypeTableRecord
  2
Continuous
 70
    0
  3
Solid line
 72
   65
 73
    0
 40
0
  0
LTYPE
  5
32
330
5
100
AcDbSymbolTableRecord
100
AcDbLinetypeTableRecord
  2
DOT
 70
    0
  3
Dot . . . . . . . . . . . . . . . . . . . . . .
 72
   65
 73
    2
 40
6.35
 49
0
 74
    0
 49
-6.35
 74
    0
  0
LTYPE
  5
33
330
5
100
AcDbSymbolTableRecord
100
AcDbLinetypeTableRecord
  2
DOTTINY
 70
    0
  3
Dot (.15x) .....................................
 72
   65
 73
    2
 40
0.9525
 49
0
 74
    0
 49
-0.9525
 74
    0
  0
LTYPE
  5
34
330
5
100
AcDbSymbolTableRecord
100
AcDbLinetypeTableRecord
  2
DOT2
 70
    0
  3
Dot (.5x) .....................................
 72
   65
 73
    2
 40
3.175
 49
0
 74
    0
 49
-3.175
 74
    0
  0
LTYPE
  5
35
330
5
100
AcDbSymbolTableRecord
100
AcDbLinetypeTableRecord
  2
DOTX2
 70
    0
  3
Dot (2x) .  .  .  .  .  .  .  .  .  .  .  .  .
 72
   65
 73
    2
 40
12.7
 49
0
 74
    0
 49
-12.7
 74
    0
  0
LTYPE
  5
36
330
5
100
AcDbSymbolTableRecord
100
AcDbLinetypeTableRecord
  2
DASHED
 70
    0
  3
Dashed _ _ _ _ _ _ _ _ _ _ _ _ _ _ _ _ _
 72
   65
 73
    2
 40
19.05
 49
12.7
 74
    0
 49
-6.35
 74
    0
  0
LTYPE
  5
37
330
5
100
AcDbSymbolTableRecord
100
AcDbLinetypeTableRecord
  2
DASHEDTINY
 70
    0
  3
Dashed (.15x) _ _ _ _ _ _ _ _ _ _ _ _ _ _ _ _ _
 72
   65
 73
    2
 40
2.8575
 49
1.905
 74
    0
 49
-0.9525
 74
    0
  0
LTYPE
  5
38
330
5
100
AcDbSymbolTableRecord
100
AcDbLinetypeTableRecord
  2
DASHED2
 70
    0
  3
Dashed (.5x) _ _ _ _ _ _ _ _ _ _ _ _ _ _ _ _ _
 72
   65
 73
    2
 40
9.524999999999999
 49
6.35
 74
    0
 49
-3.175
 74
    0
  0
LTYPE
  5
39
330
5
100
AcDbSymbolTableRecord
100
AcDbLinetypeTableRecord
  2
DASHEDX2
 70
    0
  3
Dashed (2x) ____  ____  ____  ____  ____  ___
 72
   65
 73
    2
 40
38.09999999999999
 49
25.4
 74
    0
 49
-12.7
 74
    0
  0
LTYPE
  5
3A
330
5
100
AcDbSymbolTableRecord
100
AcDbLinetypeTableRecord
  2
DASHDOT
 70
    0
  3
Dash dot __ . __ . __ . __ . __ . __ . __ . __
 72
   65
 73
    4
 40
25.4
 49
12.7
 74
    0
 49
-6.35
 74
    0
 49
0
 74
    0
 49
-6.35
 74
    0
  0
LTYPE
  5
3B
330
5
100
AcDbSymbolTableRecord
100
AcDbLinetypeTableRecord
  2
DASHDOTTINY
 70
    0
  3
Dash dot (.15x) _._._._._._._._._._._._._._._.
 72
   65
 73
    4
 40
3.81
 49
1.905
 74
    0
 49
-0.9525
 74
    0
 49
0
 74
    0
 49
-0.9525
 74
    0
  0
LTYPE
  5
3C
330
5
100
AcDbSymbolTableRecord
100
AcDbLinetypeTableRecord
  2
DASHDOT2
 70
    0
  3
Dash dot (.5x) _._._._._._._._._._._._._._._.
 72
   65
 73
    4
 40
12.7
 49
6.35
 74
    0
 49
-3.175
 74
    0
 49
0
 74
    0
 49
-3.175
 74
    0
  0
LTYPE
  5
3D
330
5
100
AcDbSymbolTableRecord
100
AcDbLinetypeTableRecord
  2
DASHDOTX2
 70
    0
  3
Dash dot (2x) ____  .  ____  .  ____  .  ___
 72
   65
 73
    4
 40
50.8
 49
25.4
 74
    0
 49
-12.7
 74
    0
 49
0
 74
    0
 49
-12.7
 74
    0
  0
LTYPE
  5
3E
330
5
100
AcDbSymbolTableRecord
100
AcDbLinetypeTableRecord
  2
DIVIDE
 70
    0
  3
Divide ____ . . ____ . . ____ . . ____ . . ____
 72
   65
 73
    6
 40
31.75
 49
12.7
 74
    0
 49
-6.35
 74
    0
 49
0
 74
    0
 49
-6.35
 74
    0
 49
0
 74
    0
 49
-6.35
 74
    0
  0
LTYPE
  5
3F
330
5
100
AcDbSymbolTableRecord
100
AcDbLinetypeTableRecord
  2
DIVIDETINY
 70
    0
  3
Divide (.15x) __..__..__..__..__..__..__..__.._
 72
   65
 73
    6
 40
4.7625
 49
1.905
 74
    0
 49
-0.9525
 74
    0
 49
0
 74
    0
 49
-0.9525
 74
    0
 49
0
 74
    0
 49
-0.9525
 74
    0
  0
LTYPE
  5
40
330
5
100
AcDbSymbolTableRecord
100
AcDbLinetypeTableRecord
  2
DIVIDE2
 70
    0
  3
Divide (.5x) __..__..__..__..__..__..__..__.._
 72
   65
 73
    6
 40
15.875
 49
6.35
 74
    0
 49
-3.175
 74
    0
 49
0
 74
    0
 49
-3.175
 74
    0
 49
0
 74
    0
 49
-3.175
 74
    0
  0
LTYPE
  5
41
330
5
100
AcDbSymbolTableRecord
100
AcDbLinetypeTableRecord
  2
DIVIDEX2
 70
    0
  3
Divide (2x) ________  .  .  ________  .  .  _
 72
   65
 73
    6
 40
63.5
 49
25.4
 74
    0
 49
-12.7
 74
    0
 49
0
 74
    0
 49
-12.7
 74
    0
 49
0
 74
    0
 49
-12.7
 74
    0
  0
LTYPE
  5
42
330
5
100
AcDbSymbolTableRecord
100
AcDbLinetypeTableRecord
  2
BORDER
 70
    0
  3
Border __ __ . __ __ . __ __ . __ __ . __ __ .
 72
   65
 73
    6
 40
44.45
 49
12.7
 74
    0
 49
-6.35
 74
    0
 49
12.7
 74
    0
 49
-6.35
 74
    0
 49
0
 74
    0
 49
-6.35
 74
    0
  0
LTYPE
  5
43
330
5
100
AcDbSymbolTableRecord
100
AcDbLinetypeTableRecord
  2
BORDERTINY
 70
    0
  3
Border (.15x) __.__.__.__.__.__.__.__.__.__.__.
 72
   65
 73
    6
 40
6.6675
 49
1.905
 74
    0
 49
-0.9525
 74
    0
 49
1.905
 74
    0
 49
-0.9525
 74
    0
 49
0
 74
    0
 49
-0.9525
 74
    0
  0
LTYPE
  5
44
330
5
100
AcDbSymbolTableRecord
100
AcDbLinetypeTableRecord
  2
BORDER2
 70
    0
  3
Border (.5x) __.__.__.__.__.__.__.__.__.__.__.
 72
   65
 73
    6
 40
22.225
 49
6.35
 74
    0
 49
-3.175
 74
    0
 49
6.35
 74
    0
 49
-3.175
 74
    0
 49
0
 74
    0
 49
-3.175
 74
    0
  0
LTYPE
  5
45
330
5
100
AcDbSymbolTableRecord
100
AcDbLinetypeTableRecord
  2
BORDERX2
 70
    0
  3
Border (2x) ____  ____  .  ____  ____  .  ___
 72
   65
 73
    6
 40
88.89999999999999
 49
25.4
 74
    0
 49
-12.7
 74
    0
 49
25.4
 74
    0
 49
-12.7
 74
    0
 49
0
 74
    0
 49
-12.7
 74
    0
  0
LTYPE
  5
46
330
5
100
AcDbSymbolTableRecord
100
AcDbLinetypeTableRecord
  2
CENTER
 70
    0
  3
Center ____ _ ____ _ ____ _ ____ _ ____ _ ____
 72
   65
 73
    4
 40
50.8
 49
31.75
 74
    0
 49
-6.35
 74
    0
 49
6.35
 74
    0
 49
-6.35
 74
    0
  0
LTYPE
  5
47
330
5
100
AcDbSymbolTableRecord
100
AcDbLinetypeTableRecord
  2
CENTERTINY
 70
    0
  3
Center (.15x) ___ _ ___ _ ___ _ ___ _ ___ _ ___
 72
   65
 73
    4
 40
7.62
 49
4.7625
 74
    0
 49
-0.9525
 74
    0
 49
0.9525
 74
    0
 49
-0.9525
 74
    0
  0
LTYPE
  5
48
330
5
100
AcDbSymbolTableRecord
100
AcDbLinetypeTableRecord
  2
CENTER2
 70
    0
  3
Center (.5x) ___ _ ___ _ ___ _ ___ _ ___ _ ___
 72
   65
 73
    4
 40
28.575
 49
19.05
 74
    0
 49
-3.175
 74
    0
 49
3.175
 74
    0
 49
-3.175
 74
    0
  0
LTYPE
  5
49
330
5
100
AcDbSymbolTableRecord
100
AcDbLinetypeTableRecord
  2
CENTERX2
 70
    0
  3
Center (2x) ________  __  ________  __  _____
 72
   65
 73
    4
 40
101.6
 49
63.5
 74
    0
 49
-12.7
 74
    0
 49
12.7
 74
    0
 49
-12.7
 74
    0
  0
ENDTAB
  0
TABLE
  2
LAYER
  5
2
330
0
100
AcDbSymbolTable
 70
    1
  0
LAYER
  5
10
330
2
100
AcDbSymbolTableRecord
100
AcDbLayerTableRecord
  2
0
 70
    0
 62
    7
  6
CONTINUOUS
370
   -3
390
F
  0
LAYER
  5
4A
330
2
100
AcDbSymbolTableRecord
100
AcDbLayerTableRecord
  2
Multi-Layer
 70
    0
 62
    9
  6
CONTINUOUS
370
   -3
390
F
  0
LAYER
  5
4B
330
2
100
AcDbSymbolTableRecord
100
AcDbLayerTableRecord
  2
left-mount
 70
    1
 62
    7
  6
CONTINUOUS
370
   -3
390
F
  0
ENDTAB
  0
TABLE
  2
STYLE
  5
3
330
0
100
AcDbSymbolTable
 70
    3
  0
STYLE
  5
4C
330
2
100
AcDbSymbolTableRecord
100
AcDbTextStyleTableRecord
  2
Standard
 70
    0
 40
0
 41
1
 50
0
 71
    0
 42
1
  3
txt
  4

  0
ENDTAB
  0
TABLE
  2
VIEW
  5
6
330
0
100
AcDbSymbolTable
 70
    0
  0
ENDTAB
  0
TABLE
  2
UCS
  5
7
330
0
100
AcDbSymbolTable
 70
    0
  0
ENDTAB
  0
TABLE
  2
APPID
  5
9
330
0
100
AcDbSymbolTable
 70
    1
  0
APPID
  5
12
330
9
100
AcDbSymbolTableRecord
100
AcDbRegAppTableRecord
  2
ACAD
 70
    0
  0
APPID
  5
4D
330
9
100
AcDbSymbolTableRecord
100
AcDbRegAppTableRecord
  2
LibreCad
 70
    0
  0
ENDTAB
  0
TABLE
  2
DIMSTYLE
  5
A
330
0
100
AcDbSymbolTable
 70
    1
100
AcDbDimStyleTable
 71
    1
  0
DIMSTYLE
105
4E
330
A
100
AcDbSymbolTableRecord
100
AcDbDimStyleTableRecord
  2
Standard
 70
    0
 40
1
 41
2.5
 42
0.625
 43
0.38
 44
1.25
 45
0
 46
0
 47
0
 48
0
 49
1
140
2.5
141
0.09
142
0
143
25.4
144
1
145
0
146
1
147
0.625
148
0
 71
    0
 72
    0
 73
    0
 74
    1
 75
    0
 76
    0
 77
    0
 78
    8
 79
    0
170
    0
171
    2
172
    0
173
    0
174
    0
175
    0
176
    0
177
    0
178
    0
179
    0
271
    2
272
    4
273
    2
274
    2
275
    0
276
    0
277
    2
278
   44
279
    0
280
    0
281
    0
282
    0
283
    1
284
    0
285
    0
286
    0
288
    0
289
    3
340
Standard
341

371
   -2
372
   -2
  0
ENDTAB
  0
TABLE
  2
BLOCK_RECORD
  5
1
330
0
100
AcDbSymbolTable
 70
    2
  0
BLOCK_RECORD
  5
1F
330
1
100
AcDbSymbolTableRecord
100
AcDbBlockTableRecord
  2
*Model_Space
 70
    0
280
    1
281
    0
  0
BLOCK_RECORD
  5
1E
330
1
100
AcDbSymbolTableRecord
100
AcDbBlockTableRecord
  2
*Paper_Space
 70
    0
280
    1
281
    0
  0
ENDTAB
  0
ENDSEC
  0
SECTION
  2
BLOCKS
  0
BLOCK
  5
20
330
1F
100
AcDbEntity
  8
0
100
AcDbBlockBegin
  2
*Model_Space
 70
    0
 10
0
 20
0
 30
0
  3
*Model_Space
  1

  0
ENDBLK
  5
21
330
1F
100
AcDbEntity
  8
0
100
AcDbBlockEnd
  0
BLOCK
  5
1C
330
1B
100
AcDbEntity
  8
0
100
AcDbBlockBegin
  2
*Paper_Space
 70
    0
 10
0
 20
0
 30
0
  3
*Paper_Space
  1

  0
ENDBLK
  5
1D
330
1F
100
AcDbEntity
  8
0
100
AcDbBlockEnd
  0
ENDSEC
  0
SECTION
  2
ENTITIES
  0
LINE
  5
4F
100
AcDbEntity
  8
0
  6
ByLayer
 62
  256
370
   -1
100
AcDbLine
 10
115.249598
 20
-123.1293151930769
 11
115.416598
 21
-123.2253151930769
  0
LINE
  5
50
100
AcDbEntity
  8
0
  6
ByLayer
 62
  256
370
   -1
100
AcDbLine
 10
1.951298
 20
-14.74331519307687
 11
1.752868
 21
-14.78731519307688
  0
LINE
  5
51
100
AcDbEntity
  8
0
  6
ByLayer
 62
  256
370
   -1
100
AcDbLine
 10
1.752868
 20
-14.78731519307688
 11
1.193378
 21
-15.07131519307687
  0
LINE
  5
52
100
AcDbEntity
  8
0
  6
ByLayer
 62
  256
370
   -1
100
AcDbLine
 10
1.193378
 20
-15.07131519307687
 11
0.5718839999999999
 21
-15.64031519307689
  0
LINE
  5
53
100
AcDbEntity
  8
0
  6
ByLayer
 62
  256
370
   -1
100
AcDbLine
 10
0.5718839999999999
 20
-15.64031519307689
 11
0.152962
 21
-16.36931519307687
  0
LINE
  5
54
100
AcDbEntity
  8
0
  6
ByLayer
 62
  256
370
   -1
100
AcDbLine
 10
0.152962
 20
-16.36931519307687
 11
0
 21
-16.97831519307688
  0
LINE
  5
55
100
AcDbEntity
  8
0
  6
ByLayer
 62
  256
370
   -1
100
AcDbLine
 10
0
 20
-16.97831519307688
 11
0
 21
-17.18231519307686
  0
LINE
  5
56
100
AcDbEntity
  8
0
  6
ByLayer
 62
  256
370
   -1
100
AcDbLine
 10
0
 20
-109.2813151930768
 11
0
 21
-109.4743151930769
  0
LINE
  5
57
100
AcDbEntity
  8
0
  6
ByLayer
 62
  256
370
   -1
100
AcDbLine
 10
0
 20
-109.4743151930769
 11
0.157096
 21
-110.0573151930769
  0
LINE
  5
58
100
AcDbEntity
  8
0
  6
ByLayer
 62
  256
370
   -1
100
AcDbLine
 10
0.157096
 20
-110.0573151930769
 11
0.587043
 21
-110.6923151930769
  0
LINE
  5
59
100
AcDbEntity
  8
0
  6
ByLayer
 62
  256
370
   -1
100
AcDbLine
 10
0.587043
 20
-110.6923151930769
 11
1.222318
 21
-111.1223151930769
  0
LINE
  5
5A
100
AcDbEntity
  8
0
  6
ByLayer
 62
  256
370
   -1
100
AcDbLine
 10
1.222318
 20
-111.1223151930769
 11
1.805228
 21
-111.2803151930769
  0
LINE
  5
5B
100
AcDbEntity
  8
0
  6
ByLayer
 62
  256
370
   -1
100
AcDbLine
 10
1.805228
 20
-111.2803151930769
 11
1.999538
 21
-111.2803151930769
  0
LINE
  5
5C
100
AcDbEntity
  8
0
  6
ByLayer
 62
  256
370
   -1
100
AcDbLine
 10
1.999538
 20
-111.2803151930769
 11
92.71159800000001
 21
-111.2803151930769
  0
LINE
  5
5D
100
AcDbEntity
  8
0
  6
ByLayer
 62
  256
370
   -1
100
AcDbLine
 10
92.71159800000001
 20
-111.2803151930769
 11
92.939098
 21
-111.2803151930769
  0
LINE
  5
5E
100
AcDbEntity
  8
0
  6
ByLayer
 62
  256
370
   -1
100
AcDbLine
 10
92.939098
 20
-111.2803151930769
 11
93.62389800000001
 21
-111.3593151930769
  0
LINE
  5
5F
100
AcDbEntity
  8
0
  6
ByLayer
 62
  256
370
   -1
100
AcDbLine
 10
93.62389800000001
 20
-111.3593151930769
 11
94.63249800000001
 21
-111.5743151930769
  0
LINE
  5
60
100
AcDbEntity
  8
0
  6
ByLayer
 62
  256
370
   -1
100
AcDbLine
 10
94.63249800000001
 20
-111.5743151930769
 11
95.612498
 21
-111.8913151930769
  0
LINE
  5
61
100
AcDbEntity
  8
0
  6
ByLayer
 62
  256
370
   -1
100
AcDbLine
 10
95.612498
 20
-111.8913151930769
 11
96.24499800000001
 21
-112.1653151930769
  0
LINE
  5
62
100
AcDbEntity
  8
0
  6
ByLayer
 62
  256
370
   -1
100
AcDbLine
 10
96.24499800000001
 20
-112.1653151930769
 11
96.44329800000001
 21
-112.2793151930769
  0
LINE
  5
63
100
AcDbEntity
  8
0
  6
ByLayer
 62
  256
370
   -1
100
AcDbLine
 10
96.44329800000001
 20
-112.2793151930769
 11
132.6851646881829
 21
-133.1884920947944
  0
ARC
  5
64
100
AcDbEntity
  8
0
  6
ByLayer
 62
  256
370
   -1
100
AcDbCircle
 10
133.1848944516437
 20
-132.3223107260781
 40
1
100
AcDbArc
 50
240.0178770956076
 51
329.9314171781378
  0
LINE
  5
65
100
AcDbEntity
  8
0
  6
ByLayer
 62
  256
370
   -1
100
AcDbLine
 10
156.3397072000001
 20
-89.15114809307697
 11
151.9769435509419
 21
-101.8591803182085
  0
LINE
  5
66
100
AcDbEntity
  8
0
  6
ByLayer
 62
  256
370
   -1
100
AcDbLine
 10
1.951298
 20
-14.74331519307687
 11
3.263711599999965
 21
-14.44436801270898
  0
LINE
  5
67
100
AcDbEntity
  8
0
  6
ByLayer
 62
  256
370
   -1
100
AcDbLine
 10
154.0540119999999
 20
-14.44637461270894
 11
153.0647074
 21
-14.44637461270894
  0
ARC
  5
68
100
AcDbEntity
  8
0
  6
ByLayer
 62
  256
370
   -1
100
AcDbCircle
 10
154.0540119999999
 20
-16.73237461270894
 40
2.286
100
AcDbArc
 50
0
 51
90
  0
ARC
  5
69
100
AcDbEntity
  8
0
  6
ByLayer
 62
  256
370
   -1
100
AcDbCircle
 10
132.7028008592377
 20
-21.93636801271009
 40
1.127729880367895
100
AcDbArc
 50
270
 51
0
  0
ARC
  5
6A
100
AcDbEntity
  8
0
  6
ByLayer
 62
  256
370
   -1
100
AcDbCircle
 10
111.8947855850006
 20
-18.72933590342324
 40
1.127729880367895
100
AcDbArc
 50
162.735
 51
252.735
  0
LINE
  5
6B
100
AcDbEntity
  8
0
  6
ByLayer
 62
  256
370
   -1
100
AcDbLine
 10
123.6597115999999
 20
-23.06409789307682
 11
132.7028008592377
 21
-23.06409789307798
  0
ARC
  5
6C
100
AcDbEntity
  8
0
  6
ByLayer
 62
  256
370
   -1
100
AcDbCircle
 10
111.431689688765
 20
-11.80919100104037
 40
1.127729880367895
100
AcDbArc
 50
346.80243
 51
76.80243
  0
LINE
  5
6D
100
AcDbEntity
  8
0
  6
ByLayer
 62
  256
370
   -1
100
AcDbLine
 10
110.8178686448321
 20
-18.3946351608895
 11
112.5296346291724
 21
-12.06666253521155
  0
LINE
  5
6E
100
AcDbEntity
  8
0
  6
ByLayer
 62
  256
370
   -1
100
AcDbLine
 10
111.5449963095126
 20
-19.80365017706222
 11
123.6597115999999
 21
-23.06409789307682
  0
ARC
  5
6F
100
AcDbEntity
  8
0
  6
ByLayer
 62
  256
370
   -1
100
AcDbCircle
 10
134.9582606199732
 20
-15.57410449307682
 40
1.127729880367895
100
AcDbArc
 50
90
 51
180
  0
LINE
  5
70
100
AcDbEntity
  8
0
  6
ByLayer
 62
  256
370
   -1
100
AcDbLine
 10
133.8305307396053
 20
-15.57410449307682
 11
133.8305307396056
 21
-21.93636801271009
  0
LWPOLYLINE
  5
71
100
AcDbEntity
  8
0
  6
ByLayer
 62
  256
370
   -1
100
AcDbPolyline
 90
    2
 70
    0
 43
0
 10
100.0808916
 20
-7.586368012708917
 10
57.36571159999998
 20
-7.586368012708917
  0
LWPOLYLINE
  5
72
100
AcDbEntity
  8
0
  6
ByLayer
 62
  256
370
   -1
100
AcDbPolyline
 90
    3
 70
    0
 43
0
 10
3.263711600000008
 20
-14.44436801270898
 10
57.36571159999998
 20
-7.586368012708917
 10
57.36571159999998
 20
-7.586368012708917
  0
LINE
  5
73
100
AcDbEntity
  8
0
  6
ByLayer
 62
  256
370
   -1
100
AcDbLine
 10
253.7190540590095
 20
-89.68631519307677
 11
253.7190540590095
 21
-87.3153151930769
  0
LINE
  5
74
100
AcDbEntity
  8
0
  6
ByLayer
 62
  256
370
   -1
100
AcDbLine
 10
220.6570540590095
 20
-70.63531519307689
 11
234.6690540590095
 21
-70.63531519307689
  0
LINE
  5
75
100
AcDbEntity
  8
0
  6
ByLayer
 62
  256
370
   -1
100
AcDbLine
 10
234.6690540590095
 20
-70.63531519307689
 11
234.6690540590095
 21
-84.64831519307687
  0
LINE
  5
76
100
AcDbEntity
  8
0
  6
ByLayer
 62
  256
370
   -1
100
AcDbLine
 10
234.6690540590095
 20
-84.64831519307687
 11
220.6570540590095
 21
-84.64831519307687
  0
LINE
  5
77
100
AcDbEntity
  8
0
  6
ByLayer
 62
  256
370
   -1
100
AcDbLine
 10
220.6570540590095
 20
-84.64831519307687
 11
220.6570540590095
 21
-70.63531519307689
  0
LINE
  5
78
100
AcDbEntity
  8
0
  6
ByLayer
 62
  256
370
   -1
100
AcDbLine
 10
220.6570540590095
 20
-51.58531519307688
 11
234.6690540590095
 21
-51.58531519307688
  0
LINE
  5
79
100
AcDbEntity
  8
0
  6
ByLayer
 62
  256
370
   -1
100
AcDbLine
 10
234.6690540590095
 20
-51.58531519307688
 11
234.6690540590095
 21
-65.59831519307689
  0
LINE
  5
7A
100
AcDbEntity
  8
0
  6
ByLayer
 62
  256
370
   -1
100
AcDbLine
 10
234.6690540590095
 20
-65.59831519307689
 11
220.6570540590095
 21
-65.59831519307689
  0
LINE
  5
7B
100
AcDbEntity
  8
0
  6
ByLayer
 62
  256
370
   -1
100
AcDbLine
 10
220.6570540590095
 20
-65.59831519307689
 11
220.6570540590095
 21
-51.58531519307688
  0
LINE
  5
7C
100
AcDbEntity
  8
0
  6
ByLayer
 62
  256
370
   -1
100
AcDbLine
 10
182.5556340590095
 20
-75.39831519307687
 11
196.5688540590095
 21
-75.39831519307687
  0
LINE
  5
7D
100
AcDbEntity
  8
0
  6
ByLayer
 62
  256
370
   -1
100
AcDbLine
 10
196.5688540590095
 20
-75.39831519307687
 11
196.5688540590095
 21
-89.41131519307685
  0
LINE
  5
7E
100
AcDbEntity
  8
0
  6
ByLayer
 62
  256
370
   -1
100
AcDbLine
 10
196.5688540590095
 20
-89.41131519307685
 11
182.5556340590095
 21
-89.41131519307685
  0
LINE
  5
7F
100
AcDbEntity
  8
0
  6
ByLayer
 62
  256
370
   -1
100
AcDbLine
 10
182.5556340590095
 20
-89.41131519307685
 11
182.5556340590095
 21
-75.39831519307687
  0
LINE
  5
80
100
AcDbEntity
  8
0
  6
ByLayer
 62
  256
370
   -1
100
AcDbLine
 10
182.5556340590095
 20
-18.24831519307686
 11
196.5688540590095
 21
-18.24831519307686
  0
LINE
  5
81
100
AcDbEntity
  8
0
  6
ByLayer
 62
  256
370
   -1
100
AcDbLine
 10
196.5688540590095
 20
-18.24831519307686
 11
196.5688540590095
 21
-32.26131519307687
  0
LINE
  5
82
100
AcDbEntity
  8
0
  6
ByLayer
 62
  256
370
   -1
100
AcDbLine
 10
196.5688540590095
 20
-32.26131519307687
 11
182.5556340590095
 21
-32.26131519307687
  0
LINE
  5
83
100
AcDbEntity
  8
0
  6
ByLayer
 62
  256
370
   -1
100
AcDbLine
 10
182.5556340590095
 20
-32.26131519307687
 11
182.5556340590095
 21
-18.24831519307686
  0
LINE
  5
84
100
AcDbEntity
  8
0
  6
ByLayer
 62
  256
370
   -1
100
AcDbLine
 10
277.8070540590095
 20
-15.87731519307688
 11
291.8191540590095
 21
-15.87731519307688
  0
LINE
  5
85
100
AcDbEntity
  8
0
  6
ByLayer
 62
  256
370
   -1
100
AcDbLine
 10
291.8191540590095
 20
-15.87731519307688
 11
291.8191540590095
 21
-29.86831519307687
  0
LINE
  5
86
100
AcDbEntity
  8
0
  6
ByLayer
 62
  256
370
   -1
100
AcDbLine
 10
291.8191540590095
 20
-29.86831519307687
 11
277.8070540590095
 21
-29.86831519307687
  0
LINE
  5
87
100
AcDbEntity
  8
0
  6
ByLayer
 62
  256
370
   -1
100
AcDbLine
 10
277.8070540590095
 20
-29.86831519307687
 11
277.8070540590095
 21
-15.87731519307688
  0
LINE
  5
88
100
AcDbEntity
  8
0
  6
ByLayer
 62
  256
370
   -1
100
AcDbLine
 10
182.5556340590095
 20
-37.29831519307687
 11
196.5688540590095
 21
-37.29831519307687
  0
LINE
  5
89
100
AcDbEntity
  8
0
  6
ByLayer
 62
  256
370
   -1
100
AcDbLine
 10
196.5688540590095
 20
-37.29831519307687
 11
196.5688540590095
 21
-51.31131519307688
  0
LINE
  5
8A
100
AcDbEntity
  8
0
  6
ByLayer
 62
  256
370
   -1
100
AcDbLine
 10
196.5688540590095
 20
-51.31131519307688
 11
182.5556340590095
 21
-51.31131519307688
  0
LINE
  5
8B
100
AcDbEntity
  8
0
  6
ByLayer
 62
  256
370
   -1
100
AcDbLine
 10
182.5556340590095
 20
-51.31131519307688
 11
182.5556340590095
 21
-37.29831519307687
  0
LINE
  5
8C
100
AcDbEntity
  8
0
  6
ByLayer
 62
  256
370
   -1
100
AcDbLine
 10
182.5556340590095
 20
-56.34831519307689
 11
196.5688540590095
 21
-56.34831519307689
  0
LINE
  5
8D
100
AcDbEntity
  8
0
  6
ByLayer
 62
  256
370
   -1
100
AcDbLine
 10
196.5688540590095
 20
-56.34831519307689
 11
196.5688540590095
 21
-70.36131519307689
  0
LINE
  5
8E
100
AcDbEntity
  8
0
  6
ByLayer
 62
  256
370
   -1
100
AcDbLine
 10
196.5688540590095
 20
-70.36131519307689
 11
182.5556340590095
 21
-70.36131519307689
  0
LINE
  5
8F
100
AcDbEntity
  8
0
  6
ByLayer
 62
  256
370
   -1
100
AcDbLine
 10
182.5556340590095
 20
-70.36131519307689
 11
182.5556340590095
 21
-56.34831519307689
  0
LINE
  5
90
100
AcDbEntity
  8
0
  6
ByLayer
 62
  256
370
   -1
100
AcDbLine
 10
201.6070540590095
 20
-18.24831519307686
 11
215.6190540590095
 21
-18.24831519307686
  0
LINE
  5
91
100
AcDbEntity
  8
0
  6
ByLayer
 62
  256
370
   -1
100
AcDbLine
 10
215.6190540590095
 20
-18.24831519307686
 11
215.6190540590095
 21
-32.26131519307687
  0
LINE
  5
92
100
AcDbEntity
  8
0
  6
ByLayer
 62
  256
370
   -1
100
AcDbLine
 10
215.6190540590095
 20
-32.26131519307687
 11
201.6070540590095
 21
-32.26131519307687
  0
LINE
  5
93
100
AcDbEntity
  8
0
  6
ByLayer
 62
  256
370
   -1
100
AcDbLine
 10
201.6070540590095
 20
-32.26131519307687
 11
201.6070540590095
 21
-18.24831519307686
  0
LINE
  5
94
100
AcDbEntity
  8
0
  6
ByLayer
 62
  256
370
   -1
100
AcDbLine
 10
201.6070540590095
 20
-37.29831519307687
 11
215.6190540590095
 21
-37.29831519307687
  0
LINE
  5
95
100
AcDbEntity
  8
0
  6
ByLayer
 62
  256
370
   -1
100
AcDbLine
 10
215.6190540590095
 20
-37.29831519307687
 11
215.6190540590095
 21
-51.31131519307688
  0
LINE
  5
96
100
AcDbEntity
  8
0
  6
ByLayer
 62
  256
370
   -1
100
AcDbLine
 10
215.6190540590095
 20
-51.31131519307688
 11
201.6070540590095
 21
-51.31131519307688
  0
LINE
  5
97
100
AcDbEntity
  8
0
  6
ByLayer
 62
  256
370
   -1
100
AcDbLine
 10
201.6070540590095
 20
-51.31131519307688
 11
201.6070540590095
 21
-37.29831519307687
  0
LINE
  5
98
100
AcDbEntity
  8
0
  6
ByLayer
 62
  256
370
   -1
100
AcDbLine
 10
201.6070540590095
 20
-56.34831519307689
 11
215.6190540590095
 21
-56.34831519307689
  0
LINE
  5
99
100
AcDbEntity
  8
0
  6
ByLayer
 62
  256
370
   -1
100
AcDbLine
 10
215.6190540590095
 20
-56.34831519307689
 11
215.6190540590095
 21
-70.36131519307689
  0
LINE
  5
9A
100
AcDbEntity
  8
0
  6
ByLayer
 62
  256
370
   -1
100
AcDbLine
 10
215.6190540590095
 20
-70.36131519307689
 11
201.6070540590095
 21
-70.36131519307689
  0
LINE
  5
9B
100
AcDbEntity
  8
0
  6
ByLayer
 62
  256
370
   -1
100
AcDbLine
 10
201.6070540590095
 20
-70.36131519307689
 11
201.6070540590095
 21
-56.34831519307689
  0
LINE
  5
9C
100
AcDbEntity
  8
0
  6
ByLayer
 62
  256
370
   -1
100
AcDbLine
 10
201.6070540590095
 20
-75.39831519307687
 11
215.6190540590095
 21
-75.39831519307687
  0
LINE
  5
9D
100
AcDbEntity
  8
0
  6
ByLayer
 62
  256
370
   -1
100
AcDbLine
 10
215.6190540590095
 20
-75.39831519307687
 11
215.6190540590095
 21
-89.41131519307685
  0
LINE
  5
9E
100
AcDbEntity
  8
0
  6
ByLayer
 62
  256
370
   -1
100
AcDbLine
 10
215.6190540590095
 20
-89.41131519307685
 11
201.6070540590095
 21
-89.41131519307685
  0
LINE
  5
9F
100
AcDbEntity
  8
0
  6
ByLayer
 62
  256
370
   -1
100
AcDbLine
 10
201.6070540590095
 20
-89.41131519307685
 11
201.6070540590095
 21
-75.39831519307687
  0
LINE
  5
A0
100
AcDbEntity
  8
0
  6
ByLayer
 62
  256
370
   -1
100
AcDbLine
 10
220.6556540590095
 20
-13.48531519307688
 11
234.6690540590095
 21
-13.48531519307688
  0
LINE
  5
A1
100
AcDbEntity
  8
0
  6
ByLayer
 62
  256
370
   -1
100
AcDbLine
 10
234.6690540590095
 20
-13.48531519307688
 11
234.6690540590095
 21
-27.49831519307686
  0
LINE
  5
A2
100
AcDbEntity
  8
0
  6
ByLayer
 62
  256
370
   -1
100
AcDbLine
 10
234.6690540590095
 20
-27.49831519307686
 11
220.6556540590095
 21
-27.49831519307686
  0
LINE
  5
A3
100
AcDbEntity
  8
0
  6
ByLayer
 62
  256
370
   -1
100
AcDbLine
 10
220.6556540590095
 20
-27.49831519307686
 11
220.6556540590095
 21
-13.48531519307688
  0
LINE
  5
A4
100
AcDbEntity
  8
0
  6
ByLayer
 62
  256
370
   -1
100
AcDbLine
 10
220.6556540590095
 20
-32.53531519307687
 11
234.6690540590095
 21
-32.53531519307687
  0
LINE
  5
A5
100
AcDbEntity
  8
0
  6
ByLayer
 62
  256
370
   -1
100
AcDbLine
 10
234.6690540590095
 20
-32.53531519307687
 11
234.6690540590095
 21
-46.54831519307687
  0
LINE
  5
A6
100
AcDbEntity
  8
0
  6
ByLayer
 62
  256
370
   -1
100
AcDbLine
 10
234.6690540590095
 20
-46.54831519307687
 11
220.6556540590095
 21
-46.54831519307687
  0
LINE
  5
A7
100
AcDbEntity
  8
0
  6
ByLayer
 62
  256
370
   -1
100
AcDbLine
 10
220.6556540590095
 20
-46.54831519307687
 11
220.6556540590095
 21
-32.53531519307687
  0
LINE
  5
A8
100
AcDbEntity
  8
0
  6
ByLayer
 62
  256
370
   -1
100
AcDbLine
 10
239.7070540590095
 20
-11.11531519307688
 11
253.7190540590095
 21
-11.11531519307688
  0
LINE
  5
A9
100
AcDbEntity
  8
0
  6
ByLayer
 62
  256
370
   -1
100
AcDbLine
 10
253.7190540590095
 20
-11.11531519307688
 11
253.7190540590095
 21
-25.10631519307687
  0
LINE
  5
AA
100
AcDbEntity
  8
0
  6
ByLayer
 62
  256
370
   -1
100
AcDbLine
 10
253.7190540590095
 20
-25.10631519307687
 11
239.7070540590095
 21
-25.10631519307687
  0
LINE
  5
AB
100
AcDbEntity
  8
0
  6
ByLayer
 62
  256
370
   -1
100
AcDbLine
 10
239.7070540590095
 20
-25.10631519307687
 11
239.7070540590095
 21
-11.11531519307688
  0
LINE
  5
AC
100
AcDbEntity
  8
0
  6
ByLayer
 62
  256
370
   -1
100
AcDbLine
 10
239.7070540590095
 20
-30.16531519307686
 11
253.7190540590095
 21
-30.16531519307686
  0
LINE
  5
AD
100
AcDbEntity
  8
0
  6
ByLayer
 62
  256
370
   -1
100
AcDbLine
 10
253.7190540590095
 20
-30.16531519307686
 11
253.7190540590095
 21
-44.15631519307688
  0
LINE
  5
AE
100
AcDbEntity
  8
0
  6
ByLayer
 62
  256
370
   -1
100
AcDbLine
 10
253.7190540590095
 20
-44.15631519307688
 11
239.7070540590095
 21
-44.15631519307688
  0
LINE
  5
AF
100
AcDbEntity
  8
0
  6
ByLayer
 62
  256
370
   -1
100
AcDbLine
 10
239.7070540590095
 20
-44.15631519307688
 11
239.7070540590095
 21
-30.16531519307686
  0
LINE
  5
B0
100
AcDbEntity
  8
0
  6
ByLayer
 62
  256
370
   -1
100
AcDbLine
 10
239.7070540590095
 20
-49.21531519307688
 11
253.7190540590095
 21
-49.21531519307688
  0
LINE
  5
B1
100
AcDbEntity
  8
0
  6
ByLayer
 62
  256
370
   -1
100
AcDbLine
 10
253.7190540590095
 20
-49.21531519307688
 11
253.7190540590095
 21
-63.20631519307686
  0
LINE
  5
B2
100
AcDbEntity
  8
0
  6
ByLayer
 62
  256
370
   -1
100
AcDbLine
 10
253.7190540590095
 20
-63.20631519307686
 11
239.7070540590095
 21
-63.20631519307686
  0
LINE
  5
B3
100
AcDbEntity
  8
0
  6
ByLayer
 62
  256
370
   -1
100
AcDbLine
 10
239.7070540590095
 20
-63.20631519307686
 11
239.7070540590095
 21
-49.21531519307688
  0
LINE
  5
B4
100
AcDbEntity
  8
0
  6
ByLayer
 62
  256
370
   -1
100
AcDbLine
 10
239.7070540590095
 20
-68.26531519307689
 11
253.7190540590095
 21
-68.26531519307689
  0
LINE
  5
B5
100
AcDbEntity
  8
0
  6
ByLayer
 62
  256
370
   -1
100
AcDbLine
 10
253.7190540590095
 20
-68.26531519307689
 11
253.7190540590095
 21
-82.25631519307687
  0
LINE
  5
B6
100
AcDbEntity
  8
0
  6
ByLayer
 62
  256
370
   -1
100
AcDbLine
 10
253.7190540590095
 20
-82.25631519307687
 11
239.7070540590095
 21
-82.25631519307687
  0
LINE
  5
B7
100
AcDbEntity
  8
0
  6
ByLayer
 62
  256
370
   -1
100
AcDbLine
 10
239.7070540590095
 20
-82.25631519307687
 11
239.7070540590095
 21
-68.26531519307689
  0
LINE
  5
B8
100
AcDbEntity
  8
0
  6
ByLayer
 62
  256
370
   -1
100
AcDbLine
 10
258.7570540590095
 20
-13.48531519307688
 11
272.7690540590095
 21
-13.48531519307688
  0
LINE
  5
B9
100
AcDbEntity
  8
0
  6
ByLayer
 62
  256
370
   -1
100
AcDbLine
 10
272.7690540590095
 20
-13.48531519307688
 11
272.7690540590095
 21
-27.49831519307686
  0
LINE
  5
BA
100
AcDbEntity
  8
0
  6
ByLayer
 62
  256
370
   -1
100
AcDbLine
 10
272.7690540590095
 20
-27.49831519307686
 11
258.7570540590095
 21
-27.49831519307686
  0
LINE
  5
BB
100
AcDbEntity
  8
0
  6
ByLayer
 62
  256
370
   -1
100
AcDbLine
 10
258.7570540590095
 20
-27.49831519307686
 11
258.7570540590095
 21
-13.48531519307688
  0
LINE
  5
BC
100
AcDbEntity
  8
0
  6
ByLayer
 62
  256
370
   -1
100
AcDbLine
 10
258.7570540590095
 20
-32.53531519307687
 11
272.7690540590095
 21
-32.53531519307687
  0
LINE
  5
BD
100
AcDbEntity
  8
0
  6
ByLayer
 62
  256
370
   -1
100
AcDbLine
 10
272.7690540590095
 20
-32.53531519307687
 11
272.7690540590095
 21
-46.54831519307687
  0
LINE
  5
BE
100
AcDbEntity
  8
0
  6
ByLayer
 62
  256
370
   -1
100
AcDbLine
 10
272.7690540590095
 20
-46.54831519307687
 11
258.7570540590095
 21
-46.54831519307687
  0
LINE
  5
BF
100
AcDbEntity
  8
0
  6
ByLayer
 62
  256
370
   -1
100
AcDbLine
 10
258.7570540590095
 20
-46.54831519307687
 11
258.7570540590095
 21
-32.53531519307687
  0
LINE
  5
C0
100
AcDbEntity
  8
0
  6
ByLayer
 62
  256
370
   -1
100
AcDbLine
 10
258.7570540590095
 20
-51.58531519307688
 11
272.7690540590095
 21
-51.58531519307688
  0
LINE
  5
C1
100
AcDbEntity
  8
0
  6
ByLayer
 62
  256
370
   -1
100
AcDbLine
 10
272.7690540590095
 20
-51.58531519307688
 11
272.7690540590095
 21
-65.59831519307689
  0
LINE
  5
C2
100
AcDbEntity
  8
0
  6
ByLayer
 62
  256
370
   -1
100
AcDbLine
 10
272.7690540590095
 20
-65.59831519307689
 11
258.7570540590095
 21
-65.59831519307689
  0
LINE
  5
C3
100
AcDbEntity
  8
0
  6
ByLayer
 62
  256
370
   -1
100
AcDbLine
 10
258.7570540590095
 20
-65.59831519307689
 11
258.7570540590095
 21
-51.58531519307688
  0
LINE
  5
C4
100
AcDbEntity
  8
0
  6
ByLayer
 62
  256
370
   -1
100
AcDbLine
 10
258.7570540590095
 20
-70.63531519307689
 11
272.7690540590095
 21
-70.63531519307689
  0
LINE
  5
C5
100
AcDbEntity
  8
0
  6
ByLayer
 62
  256
370
   -1
100
AcDbLine
 10
272.7690540590095
 20
-70.63531519307689
 11
272.7690540590095
 21
-84.64831519307687
  0
LINE
  5
C6
100
AcDbEntity
  8
0
  6
ByLayer
 62
  256
370
   -1
100
AcDbLine
 10
272.7690540590095
 20
-84.64831519307687
 11
258.7570540590095
 21
-84.64831519307687
  0
LINE
  5
C7
100
AcDbEntity
  8
0
  6
ByLayer
 62
  256
370
   -1
100
AcDbLine
 10
258.7570540590095
 20
-84.64831519307687
 11
258.7570540590095
 21
-70.63531519307689
  0
LINE
  5
C8
100
AcDbEntity
  8
0
  6
ByLayer
 62
  256
370
   -1
100
AcDbLine
 10
277.8070540590095
 20
-34.92731519307686
 11
291.8191540590095
 21
-34.92731519307686
  0
LINE
  5
C9
100
AcDbEntity
  8
0
  6
ByLayer
 62
  256
370
   -1
100
AcDbLine
 10
291.8191540590095
 20
-34.92731519307686
 11
291.8191540590095
 21
-48.91831519307688
  0
LINE
  5
CA
100
AcDbEntity
  8
0
  6
ByLayer
 62
  256
370
   -1
100
AcDbLine
 10
291.8191540590095
 20
-48.91831519307688
 11
277.8070540590095
 21
-48.91831519307688
  0
LINE
  5
CB
100
AcDbEntity
  8
0
  6
ByLayer
 62
  256
370
   -1
100
AcDbLine
 10
277.8070540590095
 20
-48.91831519307688
 11
277.8070540590095
 21
-34.92731519307686
  0
LINE
  5
CC
100
AcDbEntity
  8
0
  6
ByLayer
 62
  256
370
   -1
100
AcDbLine
 10
277.8070540590095
 20
-53.97731519307688
 11
291.8191540590095
 21
-53.97731519307688
  0
LINE
  5
CD
100
AcDbEntity
  8
0
  6
ByLayer
 62
  256
370
   -1
100
AcDbLine
 10
291.8191540590095
 20
-53.97731519307688
 11
291.8191540590095
 21
-67.96831519307686
  0
LINE
  5
CE
100
AcDbEntity
  8
0
  6
ByLayer
 62
  256
370
   -1
100
AcDbLine
 10
291.8191540590095
 20
-67.96831519307686
 11
277.8070540590095
 21
-67.96831519307686
  0
LINE
  5
CF
100
AcDbEntity
  8
0
  6
ByLayer
 62
  256
370
   -1
100
AcDbLine
 10
277.8070540590095
 20
-67.96831519307686
 11
277.8070540590095
 21
-53.97731519307688
  0
LINE
  5
D0
100
AcDbEntity
  8
0
  6
ByLayer
 62
  256
370
   -1
100
AcDbLine
 10
277.8070540590095
 20
-73.02731519307689
 11
291.8191540590095
 21
-73.02731519307689
  0
LINE
  5
D1
100
AcDbEntity
  8
0
  6
ByLayer
 62
  256
370
   -1
100
AcDbLine
 10
291.8191540590095
 20
-73.02731519307689
 11
291.8191540590095
 21
-87.01831519307687
  0
LINE
  5
D2
100
AcDbEntity
  8
0
  6
ByLayer
 62
  256
370
   -1
100
AcDbLine
 10
291.8191540590095
 20
-87.01831519307687
 11
277.8070540590095
 21
-87.01831519307687
  0
LINE
  5
D3
100
AcDbEntity
  8
0
  6
ByLayer
 62
  256
370
   -1
100
AcDbLine
 10
277.8070540590095
 20
-87.01831519307687
 11
277.8070540590095
 21
-73.02731519307689
  0
LINE
  5
D4
100
AcDbEntity
  8
0
  6
ByLayer
 62
  256
370
   -1
100
AcDbLine
 10
296.8571540590095
 20
-25.40231519307689
 11
310.8691540590095
 21
-25.40231519307689
  0
LINE
  5
D5
100
AcDbEntity
  8
0
  6
ByLayer
 62
  256
370
   -1
100
AcDbLine
 10
310.8691540590095
 20
-39.39331519307687
 11
296.8571540590095
 21
-39.39331519307687
  0
LINE
  5
D6
100
AcDbEntity
  8
0
  6
ByLayer
 62
  256
370
   -1
100
AcDbLine
 10
296.8571540590095
 20
-39.39331519307687
 11
296.8571540590095
 21
-25.40231519307689
  0
LINE
  5
D7
100
AcDbEntity
  8
0
  6
ByLayer
 62
  256
370
   -1
100
AcDbLine
 10
296.8571540590095
 20
-44.45231519307687
 11
310.8691540590095
 21
-44.45231519307687
  0
LINE
  5
D8
100
AcDbEntity
  8
0
  6
ByLayer
 62
  256
370
   -1
100
AcDbLine
 10
310.8691540590095
 20
-44.45231519307687
 11
310.8691540590095
 21
-58.44331519307688
  0
LINE
  5
D9
100
AcDbEntity
  8
0
  6
ByLayer
 62
  256
370
   -1
100
AcDbLine
 10
310.8691540590095
 20
-58.44331519307688
 11
296.8571540590095
 21
-58.44331519307688
  0
LINE
  5
DA
100
AcDbEntity
  8
0
  6
ByLayer
 62
  256
370
   -1
100
AcDbLine
 10
296.8571540590095
 20
-58.44331519307688
 11
296.8571540590095
 21
-44.45231519307687
  0
LINE
  5
DB
100
AcDbEntity
  8
0
  6
ByLayer
 62
  256
370
   -1
100
AcDbLine
 10
296.8571540590095
 20
-63.50231519307688
 11
310.8691540590095
 21
-63.50231519307688
  0
LINE
  5
DC
100
AcDbEntity
  8
0
  6
ByLayer
 62
  256
370
   -1
100
AcDbLine
 10
310.8691540590095
 20
-63.50231519307688
 11
310.8691540590095
 21
-77.4933151930769
  0
LINE
  5
DD
100
AcDbEntity
  8
0
  6
ByLayer
 62
  256
370
   -1
100
AcDbLine
 10
310.8691540590095
 20
-77.4933151930769
 11
296.8571540590095
 21
-77.4933151930769
  0
LINE
  5
DE
100
AcDbEntity
  8
0
  6
ByLayer
 62
  256
370
   -1
100
AcDbLine
 10
296.8571540590095
 20
-77.4933151930769
 11
296.8571540590095
 21
-63.50231519307688
  0
LINE
  5
DF
100
AcDbEntity
  8
0
  6
ByLayer
 62
  256
370
   -1
100
AcDbLine
 10
182.5556340590095
 20
-94.44931519307686
 11
196.5688540590095
 21
-94.44931519307686
  0
LINE
  5
E0
100
AcDbEntity
  8
0
  6
ByLayer
 62
  256
370
   -1
100
AcDbLine
 10
196.5688540590095
 20
-94.44931519307686
 11
196.5688540590095
 21
-108.4613151930769
  0
LINE
  5
E1
100
AcDbEntity
  8
0
  6
ByLayer
 62
  256
370
   -1
100
AcDbLine
 10
196.5688540590095
 20
-108.4613151930769
 11
182.5556340590095
 21
-108.4613151930769
  0
LINE
  5
E2
100
AcDbEntity
  8
0
  6
ByLayer
 62
  256
370
   -1
100
AcDbLine
 10
182.5556340590095
 20
-108.4613151930769
 11
182.5556340590095
 21
-94.44931519307686
  0
LINE
  5
E3
100
AcDbEntity
  8
0
  6
ByLayer
 62
  256
370
   -1
100
AcDbLine
 10
201.6070540590095
 20
-94.44931519307686
 11
215.6190540590095
 21
-94.44931519307686
  0
LINE
  5
E4
100
AcDbEntity
  8
0
  6
ByLayer
 62
  256
370
   -1
100
AcDbLine
 10
215.6190540590095
 20
-94.44931519307686
 11
215.6190540590095
 21
-108.4613151930769
  0
LINE
  5
E5
100
AcDbEntity
  8
0
  6
ByLayer
 62
  256
370
   -1
100
AcDbLine
 10
215.6190540590095
 20
-108.4613151930769
 11
201.6070540590095
 21
-108.4613151930769
  0
LINE
  5
E6
100
AcDbEntity
  8
0
  6
ByLayer
 62
  256
370
   -1
100
AcDbLine
 10
201.6070540590095
 20
-108.4613151930769
 11
201.6070540590095
 21
-94.44931519307686
  0
LINE
  5
E7
100
AcDbEntity
  8
0
  6
ByLayer
 62
  256
370
   -1
100
AcDbLine
 10
220.6556540590095
 20
-89.68631519307677
 11
234.6690540590095
 21
-89.68631519307677
  0
LINE
  5
E8
100
AcDbEntity
  8
0
  6
ByLayer
 62
  256
370
   -1
100
AcDbLine
 10
234.6690540590095
 20
-89.68631519307677
 11
234.6690540590095
 21
-103.6983151930769
  0
LINE
  5
E9
100
AcDbEntity
  8
0
  6
ByLayer
 62
  256
370
   -1
100
AcDbLine
 10
234.6690540590095
 20
-103.6983151930769
 11
220.6556540590095
 21
-103.6983151930769
  0
LINE
  5
EA
100
AcDbEntity
  8
0
  6
ByLayer
 62
  256
370
   -1
100
AcDbLine
 10
220.6556540590095
 20
-103.6983151930769
 11
220.6556540590095
 21
-89.68631519307677
  0
LINE
  5
EB
100
AcDbEntity
  8
0
  6
ByLayer
 62
  256
370
   -1
100
AcDbLine
 10
267.3076540590095
 20
-104.0153151930769
 11
274.2930540590095
 21
-91.8873151930769
  0
LINE
  5
EC
100
AcDbEntity
  8
0
  6
ByLayer
 62
  256
370
   -1
100
AcDbLine
 10
274.2930540590095
 20
-91.8873151930769
 11
286.4211540590095
 21
-98.89331519307687
  0
LINE
  5
ED
100
AcDbEntity
  8
0
  6
ByLayer
 62
  256
370
   -1
100
AcDbLine
 10
286.4211540590095
 20
-98.89331519307687
 11
279.4150540590095
 21
-111.0213151930769
  0
LINE
  5
EE
100
AcDbEntity
  8
0
  6
ByLayer
 62
  256
370
   -1
100
AcDbLine
 10
279.4150540590095
 20
-111.0213151930769
 11
267.3076540590095
 21
-104.0153151930769
  0
LINE
  5
EF
100
AcDbEntity
  8
0
  6
ByLayer
 62
  256
370
   -1
100
AcDbLine
 10
253.7190540590095
 20
-87.3153151930769
 11
239.7056540590095
 21
-87.3153151930769
  0
LINE
  5
F0
100
AcDbEntity
  8
0
  6
ByLayer
 62
  256
370
   -1
100
AcDbLine
 10
239.7056540590095
 20
-87.3153151930769
 11
239.7056540590095
 21
-101.3063151930769
  0
LINE
  5
F1
100
AcDbEntity
  8
0
  6
ByLayer
 62
  256
370
   -1
100
AcDbLine
 10
239.7056540590095
 20
-101.3063151930769
 11
247.3263540590095
 21
-101.3063151930769
  0
LINE
  5
F2
100
AcDbEntity
  8
0
  6
ByLayer
 62
  256
370
   -1
100
AcDbLine
 10
247.3263540590095
 20
-101.3063151930769
 11
247.3263540590095
 21
-103.6983151930769
  0
LINE
  5
F3
100
AcDbEntity
  8
0
  6
ByLayer
 62
  256
370
   -1
100
AcDbLine
 10
247.3263540590095
 20
-103.6983151930769
 11
261.3393540590095
 21
-103.6983151930769
  0
LINE
  5
F4
100
AcDbEntity
  8
0
  6
ByLayer
 62
  256
370
   -1
100
AcDbLine
 10
261.3393540590095
 20
-103.6983151930769
 11
261.3393540590095
 21
-89.68631519307677
  0
LINE
  5
F5
100
AcDbEntity
  8
0
  6
ByLayer
 62
  256
370
   -1
100
AcDbLine
 10
261.3393540590095
 20
-89.68631519307677
 11
253.7190540590095
 21
-89.68631519307677
  0
LINE
  5
F6
100
AcDbEntity
  8
0
  6
ByLayer
 62
  256
370
   -1
100
AcDbLine
 10
295.0491540590095
 20
-123.1293151930769
 11
295.2161540590095
 21
-123.2253151930769
  0
LINE
  5
F7
100
AcDbEntity
  8
0
  6
ByLayer
 62
  256
370
   -1
100
AcDbLine
 10
181.7508540590095
 20
-14.74331519307687
 11
181.5524240590095
 21
-14.78731519307688
  0
LINE
  5
F8
100
AcDbEntity
  8
0
  6
ByLayer
 62
  256
370
   -1
100
AcDbLine
 10
181.5524240590095
 20
-14.78731519307688
 11
180.9929340590095
 21
-15.07131519307687
  0
LINE
  5
F9
100
AcDbEntity
  8
0
  6
ByLayer
 62
  256
370
   -1
100
AcDbLine
 10
180.9929340590095
 20
-15.07131519307687
 11
180.3714400590095
 21
-15.64031519307689
  0
LINE
  5
FA
100
AcDbEntity
  8
0
  6
ByLayer
 62
  256
370
   -1
100
AcDbLine
 10
180.3714400590095
 20
-15.64031519307689
 11
179.9525180590095
 21
-16.36931519307687
  0
LINE
  5
FB
100
AcDbEntity
  8
0
  6
ByLayer
 62
  256
370
   -1
100
AcDbLine
 10
179.9525180590095
 20
-16.36931519307687
 11
179.7995560590095
 21
-16.97831519307688
  0
LINE
  5
FC
100
AcDbEntity
  8
0
  6
ByLayer
 62
  256
370
   -1
100
AcDbLine
 10
179.7995560590095
 20
-16.97831519307688
 11
179.7995560590095
 21
-17.18231519307686
  0
LINE
  5
FD
100
AcDbEntity
  8
0
  6
ByLayer
 62
  256
370
   -1
100
AcDbLine
 10
179.7995560590095
 20
-109.2813151930768
 11
179.7995560590095
 21
-109.4743151930769
  0
LINE
  5
FE
100
AcDbEntity
  8
0
  6
ByLayer
 62
  256
370
   -1
100
AcDbLine
 10
179.7995560590095
 20
-109.4743151930769
 11
179.9566520590095
 21
-110.0573151930769
  0
LINE
  5
FF
100
AcDbEntity
  8
0
  6
ByLayer
 62
  256
370
   -1
100
AcDbLine
 10
179.9566520590095
 20
-110.0573151930769
 11
180.3865990590095
 21
-110.6923151930769
  0
LINE
  5
100
100
AcDbEntity
  8
0
  6
ByLayer
 62
  256
370
   -1
100
AcDbLine
 10
180.3865990590095
 20
-110.6923151930769
 11
181.0218740590095
 21
-111.1223151930769
  0
LINE
  5
101
100
AcDbEntity
  8
0
  6
ByLayer
 62
  256
370
   -1
100
AcDbLine
 10
181.0218740590095
 20
-111.1223151930769
 11
181.6047840590095
 21
-111.2803151930769
  0
LINE
  5
102
100
AcDbEntity
  8
0
  6
ByLayer
 62
  256
370
   -1
100
AcDbLine
 10
181.6047840590095
 20
-111.2803151930769
 11
181.7990940590095
 21
-111.2803151930769
  0
LINE
  5
103
100
AcDbEntity
  8
0
  6
ByLayer
 62
  256
370
   -1
100
AcDbLine
 10
181.7990940590095
 20
-111.2803151930769
 11
272.5111540590095
 21
-111.2803151930769
  0
LINE
  5
104
100
AcDbEntity
  8
0
  6
ByLayer
 62
  256
370
   -1
100
AcDbLine
 10
272.5111540590095
 20
-111.2803151930769
 11
272.7386540590095
 21
-111.2803151930769
  0
LINE
  5
105
100
AcDbEntity
  8
0
  6
ByLayer
 62
  256
370
   -1
100
AcDbLine
 10
272.7386540590095
 20
-111.2803151930769
 11
273.4234540590095
 21
-111.3593151930769
  0
LINE
  5
106
100
AcDbEntity
  8
0
  6
ByLayer
 62
  256
370
   -1
100
AcDbLine
 10
273.4234540590095
 20
-111.3593151930769
 11
274.4320540590095
 21
-111.5743151930769
  0
LINE
  5
107
100
AcDbEntity
  8
0
  6
ByLayer
 62
  256
370
   -1
100
AcDbLine
 10
274.4320540590095
 20
-111.5743151930769
 11
275.4120540590095
 21
-111.8913151930769
  0
LINE
  5
108
100
AcDbEntity
  8
0
  6
ByLayer
 62
  256
370
   -1
100
AcDbLine
 10
275.4120540590095
 20
-111.8913151930769
 11
276.0445540590096
 21
-112.1653151930769
  0
LINE
  5
109
100
AcDbEntity
  8
0
  6
ByLayer
 62
  256
370
   -1
100
AcDbLine
 10
276.0445540590096
 20
-112.1653151930769
 11
276.2428540590095
 21
-112.2793151930769
  0
LINE
  5
10A
100
AcDbEntity
  8
0
  6
ByLayer
 62
  256
370
   -1
100
AcDbLine
 10
276.2428540590095
 20
-112.2793151930769
 11
312.4847207471925
 21
-133.1884920947944
  0
ARC
  5
10B
100
AcDbEntity
  8
0
  6
ByLayer
 62
  256
370
   -1
100
AcDbCircle
 10
312.9844505106532
 20
-132.3223107260781
 40
1
100
AcDbArc
 50
240.0178770956076
 51
329.9314171781378
  0
LINE
  5
10C
100
AcDbEntity
  8
0
  6
ByLayer
 62
  256
370
   -1
100
AcDbLine
 10
310.8691540590095
 20
-25.40231519307689
 11
310.8691540590095
 21
-39.39331519307687
  0
LINE
  5
10D
100
AcDbEntity
  8
0
  6
ByLayer
 62
  256
370
   -1
100
AcDbLine
 10
315.4923938394285
 20
-90.73352645962846
 11
332.2563938394285
 21
-90.73352645962846
  0
LINE
  5
10E
100
AcDbEntity
  8
0
  6
ByLayer
 62
  256
370
   -1
100
AcDbLine
 10
315.4923938394285
 20
-72.46152645962847
 11
332.2563938394285
 21
-72.46152645962847
  0
LINE
  5
10F
100
AcDbEntity
  8
0
  6
ByLayer
 62
  256
370
   -1
100
AcDbLine
 10
181.7508540590095
 20
-14.74331519307687
 11
183.0632676590095
 21
-14.44436801270898
  0
LWPOLYLINE
  5
110
100
AcDbEntity
  8
0
  6
ByLayer
 62
  256
370
   -1
100
AcDbPolyline
 90
    3
 70
    0
 43
0
 10
307.0152676590095
 20
-14.44637461270894
 10
303.4592676590095
 20
-13.93636801270894
 10
279.8804476590095
 20
-7.586368012708917
  0
LWPOLYLINE
  5
111
100
AcDbEntity
  8
0
  6
ByLayer
 62
  256
370
   -1
100
AcDbPolyline
 90
    2
 70
    0
 43
0
 10
279.8804476590095
 20
-7.586368012708917
 10
237.1652676590095
 20
-7.586368012708917
  0
LWPOLYLINE
  5
112
100
AcDbEntity
  8
0
  6
ByLayer
 62
  256
370
   -1
100
AcDbPolyline
 90
    3
 70
    0
 43
0
 10
183.0632676590095
 20
-14.44436801270898
 10
237.1652676590095
 20
-7.586368012708917
 10
237.1652676590095
 20
-7.586368012708917
  0
LWPOLYLINE
  5
113
100
AcDbEntity
  8
0
  6
ByLayer
 62
  256
370
   -1
100
AcDbPolyline
 90
    4
 70
    1
 43
0
 10
315.2702676590095
 20
-72.46152645962847
 10
332.4152676590095
 20
-72.46152645962847
 10
332.4152676590095
 20
-90.73352645962846
 10
315.2702676590095
 20
-90.73352645962846
  0
LINE
  5
114
100
AcDbEntity
  8
0
  6
ByLayer
 62
  256
370
   -1
100
AcDbLine
 10
134.9582606199732
 20
-14.44637461270892
 11
153.0647074
 21
-14.44637461270894
  0
LINE
  5
115
100
AcDbEntity
  8
0
  6
ByLayer
 62
  256
370
   -1
100
AcDbLine
 10
111.6891612229357
 20
-10.71124606063287
 11
100.0808916
 21
-7.586368012708917
  0
CIRCLE
  5
116
100
AcDbEntity
  8
0
  6
ByLayer
 62
  256
370
   -1
100
AcDbCircle
 10
136.7087075999999
 20
-57.91511709307683
 40
1.1999976
  0
CIRCLE
  5
117
100
AcDbEntity
  8
0
  6
ByLayer
 62
  256
370
   -1
100
AcDbCircle
 10
152.9646821999998
 20
-57.91504089307686
 40
1.1999976
  0
CIRCLE
  5
118
100
AcDbEntity
  8
0
  6
ByLayer
 62
  256
370
   -1
100
AcDbCircle
 10
144.0756982000001
 20
-81.29172769307688
 40
1.1999976
  0
CIRCLE
  5
119
100
AcDbEntity
  8
0
  6
ByLayer
 62
  256
370
   -1
100
AcDbCircle
 10
147.4086861999997
 20
-94.18502169307685
 40
1.1999976
  0
CIRCLE
  5
11A
100
AcDbEntity
  8
0
  6
ByLayer
 62
  256
370
   -1
100
AcDbCircle
 10
108.5466861999999
 20
-92.02576769307693
 40
1.1999976
  0
CIRCLE
  5
11B
100
AcDbEntity
  8
0
  6
ByLayer
 62
  256
370
   -1
100
AcDbCircle
 10
57.8736861999999
 20
-84.65976769307694
 40
1.1999976
  0
CIRCLE
  5
11C
100
AcDbEntity
  8
0
  6
ByLayer
 62
  256
370
   -1
100
AcDbCircle
 10
19.26568619999983
 20
-92.27976769307695
 40
1.1999976
  0
CIRCLE
  5
11D
100
AcDbEntity
  8
0
  6
ByLayer
 62
  256
370
   -1
100
AcDbCircle
 10
19.26568619999983
 20
-34.87576769307684
 40
1.1999976
  0
CIRCLE
  5
11E
100
AcDbEntity
  8
0
  6
ByLayer
 62
  256
370
   -1
100
AcDbCircle
 10
57.36543219999993
 20
-49.09976769307688
 40
1.1999976
  0
CIRCLE
  5
11F
100
AcDbEntity
  8
0
  6
ByLayer
 62
  256
370
   -1
100
AcDbCircle
 10
57.36543219999993
 20
-12.77802169307681
 40
1.1999976
  0
CIRCLE
  5
120
100
AcDbEntity
  8
0
  6
ByLayer
 62
  256
370
   -1
100
AcDbCircle
 10
114.5154575999998
 20
-32.33584389307684
 40
1.1999976
  0
CIRCLE
  5
121
100
AcDbEntity
  8
0
  6
ByLayer
 62
  256
370
   -1
100
AcDbCircle
 10
327.2082422590092
 20
-94.18502169307685
 40
1.1999976
  0
CIRCLE
  5
122
100
AcDbEntity
  8
0
  6
ByLayer
 62
  256
370
   -1
100
AcDbCircle
 10
288.3462422590094
 20
-92.02576769307693
 40
1.1999976
  0
CIRCLE
  5
123
100
AcDbEntity
  8
0
  6
ByLayer
 62
  256
370
   -1
100
AcDbCircle
 10
237.6732422590094
 20
-84.65976769307694
 40
1.1999976
  0
CIRCLE
  5
124
100
AcDbEntity
  8
0
  6
ByLayer
 62
  256
370
   -1
100
AcDbCircle
 10
199.0652422590094
 20
-92.27976769307695
 40
1.1999976
  0
CIRCLE
  5
125
100
AcDbEntity
  8
0
  6
ByLayer
 62
  256
370
   -1
100
AcDbCircle
 10
199.0652422590094
 20
-34.87576769307684
 40
1.1999976
  0
CIRCLE
  5
126
100
AcDbEntity
  8
0
  6
ByLayer
 62
  256
370
   -1
100
AcDbCircle
 10
237.1649882590094
 20
-49.09976769307688
 40
1.1999976
  0
CIRCLE
  5
127
100
AcDbEntity
  8
0
  6
ByLayer
 62
  256
370
   -1
100
AcDbCircle
 10
237.1649882590094
 20
-12.77802169307681
 40
1.1999976
  0
CIRCLE
  5
128
100
AcDbEntity
  8
0
  6
ByLayer
 62
  256
370
   -1
100
AcDbCircle
 10
294.3150136590093
 20
-32.33584389307684
 40
1.1999976
  0
CIRCLE
  5
129
100
AcDbEntity
  8
0
  6
ByLayer
 62
  256
370
   -1
100
AcDbCircle
 10
174.8271710590095
 20
-25.25340469307686
 40
2.599962000000005
  0
LINE
  5
12A
100
AcDbEntity
  8
0
  6
ByLayer
 62
  256
370
   -1
100
AcDbLine
 10
177.3269460590095
 20
-20.25385569307686
 11
174.8271710590095
 21
-20.25385569307686
  0
LINE
  5
12B
100
AcDbEntity
  8
0
  6
ByLayer
 62
  256
370
   -1
100
AcDbLine
 10
177.3269460590095
 20
-30.25365869307687
 11
174.8271710590095
 21
-30.25365869307687
  0
ARC
  5
12C
100
AcDbEntity
  8
0
  6
ByLayer
 62
  256
370
   -1
100
AcDbCircle
 10
174.8271710590095
 20
-25.25340469307686
 40
4.999549000000002
100
AcDbArc
 50
90
 51
270
  0
SPLINE
  5
12D
100
AcDbEntity
  8
0
  6
ByLayer
 62
  256
370
   -1
100
AcDbSpline
210
0
220
0
230
0
 70
    8
 71
    2
 72
    6
 73
    3
 74
    0
 42
1e-007
 43
1e-007
 40
0
 40
0
 40
0
 40
1
 40
1
 40
1
 10
177.3269460590095
 20
-30.25365869307687
 30
0
 10
179.4055049582425
 20
-30.40517557492194
 30
0
 10
179.7995560590095
 20
-32.40524169307686
 30
0
  0
SPLINE
  5
12E
100
AcDbEntity
  8
0
  6
ByLayer
 62
  256
370
   -1
100
AcDbSpline
210
0
220
0
230
0
 70
    8
 71
    2
 72
    6
 73
    3
 74
    0
 42
1e-007
 43
1e-007
 40
0
 40
0
 40
0
 40
1
 40
1
 40
1
 10
177.3269460590095
 20
-20.25315069307688
 30
0
 10
179.4055049582425
 20
-20.1016338112318
 30
0
 10
179.7995560590095
 20
-18.10156769307686
 30
0
  0
CIRCLE
  5
12F
100
AcDbEntity
  8
0
  6
ByLayer
 62
  256
370
   -1
100
AcDbCircle
 10
174.8271710590095
 20
-101.4567256930769
 40
2.599962000000005
  0
LINE
  5
130
100
AcDbEntity
  8
0
  6
ByLayer
 62
  256
370
   -1
100
AcDbLine
 10
177.3269460590095
 20
-106.4562746930769
 11
174.8271710590095
 21
-106.4562746930769
  0
LINE
  5
131
100
AcDbEntity
  8
0
  6
ByLayer
 62
  256
370
   -1
100
AcDbLine
 10
177.3269460590095
 20
-96.45647169307688
 11
174.8271710590095
 21
-96.45647169307688
  0
ARC
  5
132
100
AcDbEntity
  8
0
  6
ByLayer
 62
  256
370
   -1
100
AcDbCircle
 10
174.8271710590095
 20
-101.4567256930769
 40
4.999549000000002
100
AcDbArc
 50
90
 51
270
  0
SPLINE
  5
133
100
AcDbEntity
  8
0
  6
ByLayer
 62
  256
370
   -1
100
AcDbSpline
210
0
220
0
230
0
 70
    8
 71
    2
 72
    6
 73
    3
 74
    0
 42
1e-007
 43
1e-007
 40
0
 40
0
 40
0
 40
1
 40
1
 40
1
 10
177.3269460590095
 20
-96.45647169307688
 30
0
 10
179.4055049582425
 20
-96.30495481123182
 30
0
 10
179.7995560590095
 20
-94.30488869307689
 30
0
  0
SPLINE
  5
134
100
AcDbEntity
  8
0
  6
ByLayer
 62
  256
370
   -1
100
AcDbSpline
210
0
220
0
230
0
 70
    8
 71
    2
 72
    6
 73
    3
 74
    0
 42
1e-007
 43
1e-007
 40
0
 40
0
 40
0
 40
1
 40
1
 40
1
 10
177.3269460590095
 20
-106.4569796930769
 30
0
 10
179.4055049582425
 20
-106.6084965749219
 30
0
 10
179.7995560590095
 20
-108.6085626930769
 30
0
  0
CIRCLE
  5
135
100
AcDbEntity
  8
0
  6
ByLayer
 62
  256
370
   -1
100
AcDbCircle
 10
341.1119198408172
 20
-25.4009046930769
 40
2.599962000000005
  0
LINE
  5
136
100
AcDbEntity
  8
0
  6
ByLayer
 62
  256
370
   -1
100
AcDbLine
 10
338.6121448408172
 20
-20.4013556930769
 11
341.1119198408172
 21
-20.4013556930769
  0
LINE
  5
137
100
AcDbEntity
  8
0
  6
ByLayer
 62
  256
370
   -1
100
AcDbLine
 10
338.6121448408172
 20
-30.40115869307688
 11
341.1119198408172
 21
-30.40115869307688
  0
ARC
  5
138
100
AcDbEntity
  8
0
  6
ByLayer
 62
  256
370
   -1
100
AcDbCircle
 10
341.1119198408172
 20
-25.4009046930769
 40
4.999549000000002
100
AcDbArc
 50
270
 51
90
  0
SPLINE
  5
139
100
AcDbEntity
  8
0
  6
ByLayer
 62
  256
370
   -1
100
AcDbSpline
210
0
220
0
230
0
 70
    8
 71
    2
 72
    6
 73
    3
 74
    0
 42
1e-007
 43
1e-007
 40
0
 40
0
 40
0
 40
1
 40
1
 40
1
 10
338.6121448408172
 20
-30.40115869307688
 30
0
 10
336.5335859415842
 20
-30.55267557492199
 30
0
 10
336.1395348408172
 20
-32.5527416930769
 30
0
  0
SPLINE
  5
13A
100
AcDbEntity
  8
0
  6
ByLayer
 62
  256
370
   -1
100
AcDbSpline
210
0
220
0
230
0
 70
    8
 71
    2
 72
    6
 73
    3
 74
    0
 42
1e-007
 43
1e-007
 40
0
 40
0
 40
0
 40
1
 40
1
 40
1
 10
338.6121448408172
 20
-20.40065069307692
 30
0
 10
336.5335859415842
 20
-20.24913381123182
 30
0
 10
336.1395348408172
 20
-18.2490676930769
 30
0
  0
LINE
  5
13B
100
AcDbEntity
  8
0
  6
ByLayer
 62
  256
370
   -1
100
AcDbLine
 10
323.8106648934277
 20
-120.6037946619377
 11
325.9739393208743
 21
-121.8564393849858
  0
LINE
  5
13C
100
AcDbEntity
  8
0
  6
ByLayer
 62
  256
370
   -1
100
AcDbLine
 10
318.7997337258342
 20
-129.2575007392464
 11
320.9630081532809
 21
-130.5101454622945
  0
ARC
  5
13D
100
AcDbEntity
  8
0
  6
ByLayer
 62
  256
370
   -1
100
AcDbCircle
 10
323.4686503758811
 20
-126.1829873744915
 40
4.999549000000002
100
AcDbArc
 50
239.927
 51
59.92700000000005
  0
SPLINE
  5
13E
100
AcDbEntity
  8
0
  6
ByLayer
 62
  256
370
   -1
100
AcDbSpline
210
0
220
0
230
0
 70
    8
 71
    2
 72
    6
 73
    3
 74
    0
 42
1e-007
 43
1e-007
 40
0
 40
0
 40
0
 40
1
 40
1
 40
1
 10
318.7997337258342
 20
-129.2575007392464
 30
0
 10
316.925048950145
 20
-128.3470495022963
 30
0
 10
315.5818028827788
 20
-129.8804218476554
 30
0
  0
SPLINE
  5
13F
100
AcDbEntity
  8
0
  6
ByLayer
 62
  256
370
   -1
100
AcDbSpline
210
0
220
0
230
0
 70
    8
 71
    2
 72
    6
 73
    3
 74
    0
 42
1e-007
 43
1e-007
 40
0
 40
0
 40
0
 40
1
 40
1
 40
1
 10
323.8110181710346
 20
-120.6031845636403
 30
0
 10
322.0881845199435
 20
-119.4304916482816
 30
0
 10
322.74941667054
 20
-117.5021989344997
 30
0
  0
CIRCLE
  5
140
100
AcDbEntity
  8
0
  6
ByLayer
 62
  256
370
   -1
100
AcDbCircle
 10
323.4686503758811
 20
-126.1829873744915
 40
2.599962000000005
  0
LINE
  5
141
100
AcDbEntity
  8
0
  6
ByLayer
 62
  256
370
   -1
100
AcDbLine
 10
322.74941667054
 20
-117.5021989344997
 11
331.7764996099514
 21
-101.8591803182086
  0
LINE
  5
142
100
AcDbEntity
  8
0
  6
ByLayer
 62
  256
370
   -1
100
AcDbLine
 10
315.5818028827788
 20
-129.8804218476554
 11
313.8498767961343
 21
-132.8233469966198
  0
LINE
  5
143
100
AcDbEntity
  8
0
  6
ByLayer
 62
  256
370
   -1
100
AcDbLine
 10
179.7995560590095
 20
-17.18231519307686
 11
179.7995560590095
 21
-18.10156769307686
  0
LINE
  5
144
100
AcDbEntity
  8
0
  6
ByLayer
 62
  256
370
   -1
100
AcDbLine
 10
179.7995560590095
 20
-32.40524169307686
 11
179.7995560590095
 21
-94.30488869307689
  0
LINE
  5
145
100
AcDbEntity
  8
0
  6
ByLayer
 62
  256
370
   -1
100
AcDbLine
 10
179.7995560590095
 20
-108.6085626930769
 11
179.7995560590095
 21
-109.2813151930768
  0
LINE
  5
146
100
AcDbEntity
  8
0
  6
ByLayer
 62
  256
370
   -1
100
AcDbLine
 10
336.1395348408172
 20
-18.2490676930769
 11
336.1395680590094
 21
-16.73237461270894
  0
LINE
  5
147
100
AcDbEntity
  8
0
  6
ByLayer
 62
  256
370
   -1
100
AcDbLine
 10
2.842170943040401e-014
 20
-16.97831519307678
 11
2.842170943040401e-014
 21
-17.18231519307676
  0
CIRCLE
  5
148
100
AcDbEntity
  8
0
  6
ByLayer
 62
  256
370
   -1
100
AcDbCircle
 10
-4.972384999999946
 20
-25.25340469307676
 40
2.599962000000005
  0
LINE
  5
149
100
AcDbEntity
  8
0
  6
ByLayer
 62
  256
370
   -1
100
AcDbLine
 10
-2.472609999999946
 20
-20.25385569307676
 11
-4.972384999999946
 21
-20.25385569307676
  0
LINE
  5
14A
100
AcDbEntity
  8
0
  6
ByLayer
 62
  256
370
   -1
100
AcDbLine
 10
-2.472609999999946
 20
-30.25365869307677
 11
-4.972384999999946
 21
-30.25365869307677
  0
ARC
  5
14B
100
AcDbEntity
  8
0
  6
ByLayer
 62
  256
370
   -1
100
AcDbCircle
 10
-4.972384999999946
 20
-25.25340469307676
 40
4.999549000000002
100
AcDbArc
 50
90
 51
270
  0
SPLINE
  5
14C
100
AcDbEntity
  8
0
  6
ByLayer
 62
  256
370
   -1
100
AcDbSpline
210
0
220
0
230
0
 70
    8
 71
    2
 72
    6
 73
    3
 74
    0
 42
1e-007
 43
1e-007
 40
0
 40
0
 40
0
 40
1
 40
1
 40
1
 10
-2.472609999999946
 20
-30.25365869307677
 30
0
 10
-0.3940511007669838
 20
-30.40517557492185
 30
0
 10
5.684341886080801e-014
 20
-32.40524169307676
 30
0
  0
SPLINE
  5
14D
100
AcDbEntity
  8
0
  6
ByLayer
 62
  256
370
   -1
100
AcDbSpline
210
0
220
0
230
0
 70
    8
 71
    2
 72
    6
 73
    3
 74
    0
 42
1e-007
 43
1e-007
 40
0
 40
0
 40
0
 40
1
 40
1
 40
1
 10
-2.472609999999946
 20
-20.25315069307678
 30
0
 10
-0.3940511007669653
 20
-20.1016338112317
 30
0
 10
5.684341886080801e-014
 20
-18.10156769307676
 30
0
  0
CIRCLE
  5
14E
100
AcDbEntity
  8
0
  6
ByLayer
 62
  256
370
   -1
100
AcDbCircle
 10
-4.972384999999946
 20
-101.4567256930768
 40
2.599962000000005
  0
LINE
  5
14F
100
AcDbEntity
  8
0
  6
ByLayer
 62
  256
370
   -1
100
AcDbLine
 10
-2.472609999999946
 20
-106.4562746930768
 11
-4.972384999999946
 21
-106.4562746930768
  0
LINE
  5
150
100
AcDbEntity
  8
0
  6
ByLayer
 62
  256
370
   -1
100
AcDbLine
 10
-2.472609999999946
 20
-96.45647169307678
 11
-4.972384999999946
 21
-96.45647169307678
  0
ARC
  5
151
100
AcDbEntity
  8
0
  6
ByLayer
 62
  256
370
   -1
100
AcDbCircle
 10
-4.972384999999946
 20
-101.4567256930768
 40
4.999549000000002
100
AcDbArc
 50
90
 51
270
  0
SPLINE
  5
152
100
AcDbEntity
  8
0
  6
ByLayer
 62
  256
370
   -1
100
AcDbSpline
210
0
220
0
230
0
 70
    8
 71
    2
 72
    6
 73
    3
 74
    0
 42
1e-007
 43
1e-007
 40
0
 40
0
 40
0
 40
1
 40
1
 40
1
 10
-2.472609999999946
 20
-96.45647169307678
 30
0
 10
-0.3940511007669838
 20
-96.30495481123174
 30
0
 10
5.684341886080801e-014
 20
-94.30488869307679
 30
0
  0
SPLINE
  5
153
100
AcDbEntity
  8
0
  6
ByLayer
 62
  256
370
   -1
100
AcDbSpline
210
0
220
0
230
0
 70
    8
 71
    2
 72
    6
 73
    3
 74
    0
 42
1e-007
 43
1e-007
 40
0
 40
0
 40
0
 40
1
 40
1
 40
1
 10
-2.472609999999946
 20
-106.4569796930768
 30
0
 10
-0.3940511007669559
 20
-106.6084965749218
 30
0
 10
5.684341886080801e-014
 20
-108.6085626930768
 30
0
  0
LINE
  5
154
100
AcDbEntity
  8
0
  6
ByLayer
 62
  256
370
   -1
100
AcDbLine
 10
2.842170943040401e-014
 20
-17.18231519307676
 11
5.684341886080801e-014
 21
-18.10156769307676
  0
LINE
  5
155
100
AcDbEntity
  8
0
  6
ByLayer
 62
  256
370
   -1
100
AcDbLine
 10
5.684341886080801e-014
 20
-32.40524169307676
 11
5.684341886080801e-014
 21
-94.30488869307679
  0
LINE
  5
156
100
AcDbEntity
  8
0
  6
ByLayer
 62
  256
370
   -1
100
AcDbLine
 10
5.684341886080801e-014
 20
-108.6085626930768
 11
0
 21
-109.2813151930768
  0
CIRCLE
  5
157
100
AcDbEntity
  8
0
  6
ByLayer
 62
  256
370
   -1
100
AcDbCircle
 10
161.3123637818078
 20
-25.4009046930768
 40
2.599962000000005
  0
LINE
  5
158
100
AcDbEntity
  8
0
  6
ByLayer
 62
  256
370
   -1
100
AcDbLine
 10
158.8125887818078
 20
-20.40135569307679
 11
161.3123637818078
 21
-20.40135569307679
  0
LINE
  5
159
100
AcDbEntity
  8
0
  6
ByLayer
 62
  256
370
   -1
100
AcDbLine
 10
158.8125887818078
 20
-30.40115869307678
 11
161.3123637818078
 21
-30.40115869307678
  0
ARC
  5
15A
100
AcDbEntity
  8
0
  6
ByLayer
 62
  256
370
   -1
100
AcDbCircle
 10
161.3123637818078
 20
-25.4009046930768
 40
4.999549000000002
100
AcDbArc
 50
270
 51
90
  0
SPLINE
  5
15B
100
AcDbEntity
  8
0
  6
ByLayer
 62
  256
370
   -1
100
AcDbSpline
210
0
220
0
230
0
 70
    8
 71
    2
 72
    6
 73
    3
 74
    0
 42
1e-007
 43
1e-007
 40
0
 40
0
 40
0
 40
1
 40
1
 40
1
 10
158.8125887818078
 20
-30.40115869307678
 30
0
 10
156.7340298825748
 20
-30.55267557492187
 30
0
 10
156.3399787818078
 20
-32.5527416930768
 30
0
  0
SPLINE
  5
15C
100
AcDbEntity
  8
0
  6
ByLayer
 62
  256
370
   -1
100
AcDbSpline
210
0
220
0
230
0
 70
    8
 71
    2
 72
    6
 73
    3
 74
    0
 42
1e-007
 43
1e-007
 40
0
 40
0
 40
0
 40
1
 40
1
 40
1
 10
158.8125887818078
 20
-20.40065069307681
 30
0
 10
156.7340298825748
 20
-20.24913381123172
 30
0
 10
156.3399787818078
 20
-18.24906769307681
 30
0
  0
LINE
  5
15D
100
AcDbEntity
  8
0
  6
ByLayer
 62
  256
370
   -1
100
AcDbLine
 10
144.0111088344182
 20
-120.6037946619376
 11
146.1743832618648
 21
-121.8564393849857
  0
LINE
  5
15E
100
AcDbEntity
  8
0
  6
ByLayer
 62
  256
370
   -1
100
AcDbLine
 10
139.0001776668248
 20
-129.2575007392463
 11
141.1634520942714
 21
-130.5101454622944
  0
ARC
  5
15F
100
AcDbEntity
  8
0
  6
ByLayer
 62
  256
370
   -1
100
AcDbCircle
 10
143.6690943168716
 20
-126.1829873744914
 40
4.999549000000002
100
AcDbArc
 50
239.927
 51
59.92700000000005
  0
SPLINE
  5
160
100
AcDbEntity
  8
0
  6
ByLayer
 62
  256
370
   -1
100
AcDbSpline
210
0
220
0
230
0
 70
    8
 71
    2
 72
    6
 73
    3
 74
    0
 42
1e-007
 43
1e-007
 40
0
 40
0
 40
0
 40
1
 40
1
 40
1
 10
139.0001776668248
 20
-129.2575007392463
 30
0
 10
137.1254928911356
 20
-128.3470495022962
 30
0
 10
135.7822468237693
 20
-129.8804218476553
 30
0
  0
SPLINE
  5
161
100
AcDbEntity
  8
0
  6
ByLayer
 62
  256
370
   -1
100
AcDbSpline
210
0
220
0
230
0
 70
    8
 71
    2
 72
    6
 73
    3
 74
    0
 42
1e-007
 43
1e-007
 40
0
 40
0
 40
0
 40
1
 40
1
 40
1
 10
144.0114621120251
 20
-120.6031845636402
 30
0
 10
142.2886284609339
 20
-119.4304916482815
 30
0
 10
142.9498606115305
 20
-117.5021989344996
 30
0
  0
CIRCLE
  5
162
100
AcDbEntity
  8
0
  6
ByLayer
 62
  256
370
   -1
100
AcDbCircle
 10
143.6690943168716
 20
-126.1829873744914
 40
2.599962000000005
  0
LINE
  5
163
100
AcDbEntity
  8
0
  6
ByLayer
 62
  256
370
   -1
100
AcDbLine
 10
156.3400119999999
 20
-16.73237461270894
 11
156.3399787818078
 21
-18.24906769307681
  0
LINE
  5
164
100
AcDbEntity
  8
0
  6
ByLayer
 62
  256
370
   -1
100
AcDbLine
 10
156.3399787818078
 20
-32.5527416930768
 11
156.3397072000001
 21
-89.15114809307697
  0
LINE
  5
165
100
AcDbEntity
  8
0
  6
ByLayer
 62
  256
370
   -1
100
AcDbLine
 10
151.9769435509419
 20
-101.8591803182085
 11
142.9498606115305
 21
-117.5021989344996
  0
LINE
  5
166
100
AcDbEntity
  8
0
  6
ByLayer
 62
  256
370
   -1
100
AcDbLine
 10
135.7822468237693
 20
-129.8804218476553
 11
134.0503207371248
 21
-132.8233469966198
  0
LINE
  5
167
100
AcDbEntity
  8
0
  6
ByLayer
 62
  256
370
   -1
100
AcDbLine
 10
272.9712190859518
 20
-120.6037946619377
 11
275.1344935133984
 21
-121.8564393849858
  0
LINE
  5
168
100
AcDbEntity
  8
0
  6
ByLayer
 62
  256
370
   -1
100
AcDbLine
 10
267.9602879183583
 20
-129.2575007392464
 11
270.123562345805
 21
-130.5101454622945
  0
ARC
  5
169
100
AcDbEntity
  8
0
  6
ByLayer
 62
  256
370
   -1
100
AcDbCircle
 10
272.6292045684052
 20
-126.1829873744915
 40
4.999549000000002
100
AcDbArc
 50
239.927
 51
59.92700000000005
  0
SPLINE
  5
16A
100
AcDbEntity
  8
0
  6
ByLayer
 62
  256
370
   -1
100
AcDbSpline
210
0
220
0
230
0
 70
    8
 71
    2
 72
    6
 73
    3
 74
    0
 42
1e-007
 43
1e-007
 40
0
 40
0
 40
0
 40
1
 40
1
 40
1
 10
267.9602879183583
 20
-129.2575007392464
 30
0
 10
266.0856031426691
 20
-128.3470495022963
 30
0
 10
264.7423570753029
 20
-129.8804218476554
 30
0
  0
SPLINE
  5
16B
100
AcDbEntity
  8
0
  6
ByLayer
 62
  256
370
   -1
100
AcDbSpline
210
0
220
0
230
0
 70
    8
 71
    2
 72
    6
 73
    3
 74
    0
 42
1e-007
 43
1e-007
 40
0
 40
0
 40
0
 40
1
 40
1
 40
1
 10
272.9715723635587
 20
-120.6031845636403
 30
0
 10
271.2487387124676
 20
-119.4304916482816
 30
0
 10
271.9099708630641
 20
-117.5021989344997
 30
0
  0
CIRCLE
  5
16C
100
AcDbEntity
  8
0
  6
ByLayer
 62
  256
370
   -1
100
AcDbCircle
 10
272.6292045684052
 20
-126.1829873744915
 40
2.599962000000005
  0
LINE
  5
16D
100
AcDbEntity
  8
0
  6
ByLayer
 62
  256
370
   -1
100
AcDbLine
 10
271.9099708630641
 20
-117.5021989344997
 11
264.7423570753029
 21
-129.8804218476554
  0
LINE
  5
16E
100
AcDbEntity
  8
0
  6
ByLayer
 62
  256
370
   -1
100
AcDbLine
 10
258.5553669003751
 20
-120.6037946619377
 11
260.7186413278218
 21
-121.8564393849858
  0
LINE
  5
16F
100
AcDbEntity
  8
0
  6
ByLayer
 62
  256
370
   -1
100
AcDbLine
 10
253.5444357327817
 20
-129.2575007392464
 11
255.7077101602284
 21
-130.5101454622945
  0
ARC
  5
170
100
AcDbEntity
  8
0
  6
ByLayer
 62
  256
370
   -1
100
AcDbCircle
 10
258.2133523828285
 20
-126.1829873744915
 40
4.999549000000002
100
AcDbArc
 50
239.927
 51
59.92700000000005
  0
SPLINE
  5
171
100
AcDbEntity
  8
0
  6
ByLayer
 62
  256
370
   -1
100
AcDbSpline
210
0
220
0
230
0
 70
    8
 71
    2
 72
    6
 73
    3
 74
    0
 42
1e-007
 43
1e-007
 40
0
 40
0
 40
0
 40
1
 40
1
 40
1
 10
253.5444357327817
 20
-129.2575007392464
 30
0
 10
251.6697509570926
 20
-128.3470495022963
 30
0
 10
250.3265048897263
 20
-129.8804218476554
 30
0
  0
SPLINE
  5
172
100
AcDbEntity
  8
0
  6
ByLayer
 62
  256
370
   -1
100
AcDbSpline
210
0
220
0
230
0
 70
    8
 71
    2
 72
    6
 73
    3
 74
    0
 42
1e-007
 43
1e-007
 40
0
 40
0
 40
0
 40
1
 40
1
 40
1
 10
258.555720177982
 20
-120.6031845636403
 30
0
 10
256.8328865268909
 20
-119.4304916482816
 30
0
 10
257.4941186774874
 20
-117.5021989344997
 30
0
  0
CIRCLE
  5
173
100
AcDbEntity
  8
0
  6
ByLayer
 62
  256
370
   -1
100
AcDbCircle
 10
258.2133523828285
 20
-126.1829873744915
 40
2.599962000000005
  0
LINE
  5
174
100
AcDbEntity
  8
0
  6
ByLayer
 62
  256
370
   -1
100
AcDbLine
 10
257.4941186774874
 20
-117.5021989344997
 11
250.3265048897263
 21
-129.8804218476554
  0
CIRCLE
  5
175
100
AcDbEntity
  8
0
  6
ByLayer
 62
  256
370
   -1
100
AcDbCircle
 10
237.255296319885
 20
-126.1829873744915
 40
2.599962000000005
  0
LINE
  5
176
100
AcDbEntity
  8
0
  6
ByLayer
 62
  256
370
   -1
100
AcDbLine
 10
239.755071319885
 20
-131.1825363744915
 11
237.255296319885
 21
-131.1825363744915
  0
LINE
  5
177
100
AcDbEntity
  8
0
  6
ByLayer
 62
  256
370
   -1
100
AcDbLine
 10
239.755071319885
 20
-121.1827333744915
 11
237.255296319885
 21
-121.1827333744915
  0
ARC
  5
178
100
AcDbEntity
  8
0
  6
ByLayer
 62
  256
370
   -1
100
AcDbCircle
 10
237.255296319885
 20
-126.1829873744915
 40
4.999549000000002
100
AcDbArc
 50
90
 51
270
  0
SPLINE
  5
179
100
AcDbEntity
  8
0
  6
ByLayer
 62
  256
370
   -1
100
AcDbSpline
210
0
220
0
230
0
 70
    8
 71
    2
 72
    6
 73
    3
 74
    0
 42
1e-007
 43
1e-007
 40
0
 40
0
 40
0
 40
1
 40
1
 40
1
 10
239.755071319885
 20
-121.1827333744915
 30
0
 10
241.833630219118
 20
-121.0312164926465
 30
0
 10
242.227681319885
 20
-119.0311503744915
 30
0
  0
SPLINE
  5
17A
100
AcDbEntity
  8
0
  6
ByLayer
 62
  256
370
   -1
100
AcDbSpline
210
0
220
0
230
0
 70
    8
 71
    2
 72
    6
 73
    3
 74
    0
 42
1e-007
 43
1e-007
 40
0
 40
0
 40
0
 40
1
 40
1
 40
1
 10
239.755071319885
 20
-131.1832413744915
 30
0
 10
241.833630219118
 20
-131.3347582563366
 30
0
 10
242.227681319885
 20
-133.3348243744915
 30
0
  0
LINE
  5
17B
100
AcDbEntity
  8
0
  6
ByLayer
 62
  256
370
   -1
100
AcDbLine
 10
242.227681319885
 20
-119.0311503744915
 11
242.227681319885
 21
-133.3348243744915
  0
CIRCLE
  5
17C
100
AcDbEntity
  8
0
  6
ByLayer
 62
  256
370
   -1
100
AcDbCircle
 10
226.3368823643513
 20
-126.1829873744915
 40
2.599962000000005
  0
LINE
  5
17D
100
AcDbEntity
  8
0
  6
ByLayer
 62
  256
370
   -1
100
AcDbLine
 10
228.8366573643513
 20
-131.1825363744915
 11
226.3368823643513
 21
-131.1825363744915
  0
LINE
  5
17E
100
AcDbEntity
  8
0
  6
ByLayer
 62
  256
370
   -1
100
AcDbLine
 10
228.8366573643513
 20
-121.1827333744915
 11
226.3368823643513
 21
-121.1827333744915
  0
ARC
  5
17F
100
AcDbEntity
  8
0
  6
ByLayer
 62
  256
370
   -1
100
AcDbCircle
 10
226.3368823643513
 20
-126.1829873744915
 40
4.999549000000002
100
AcDbArc
 50
90
 51
270
  0
SPLINE
  5
180
100
AcDbEntity
  8
0
  6
ByLayer
 62
  256
370
   -1
100
AcDbSpline
210
0
220
0
230
0
 70
    8
 71
    2
 72
    6
 73
    3
 74
    0
 42
1e-007
 43
1e-007
 40
0
 40
0
 40
0
 40
1
 40
1
 40
1
 10
228.8366573643513
 20
-121.1827333744915
 30
0
 10
230.9152162635844
 20
-121.0312164926465
 30
0
 10
231.3092673643513
 20
-119.0311503744915
 30
0
  0
SPLINE
  5
181
100
AcDbEntity
  8
0
  6
ByLayer
 62
  256
370
   -1
100
AcDbSpline
210
0
220
0
230
0
 70
    8
 71
    2
 72
    6
 73
    3
 74
    0
 42
1e-007
 43
1e-007
 40
0
 40
0
 40
0
 40
1
 40
1
 40
1
 10
228.8366573643513
 20
-131.1832413744915
 30
0
 10
230.9152162635843
 20
-131.3347582563366
 30
0
 10
231.3092673643513
 20
-133.3348243744915
 30
0
  0
LINE
  5
182
100
AcDbEntity
  8
0
  6
ByLayer
 62
  256
370
   -1
100
AcDbLine
 10
231.3092673643513
 20
-119.0311503744915
 11
231.3092673643513
 21
-133.3348243744915
  0
CIRCLE
  5
183
100
AcDbEntity
  8
0
  6
ByLayer
 62
  256
370
   -1
100
AcDbCircle
 10
215.3312324841264
 20
-126.1829873744915
 40
2.599962000000005
  0
LINE
  5
184
100
AcDbEntity
  8
0
  6
ByLayer
 62
  256
370
   -1
100
AcDbLine
 10
217.8310074841264
 20
-131.1825363744915
 11
215.3312324841264
 21
-131.1825363744915
  0
LINE
  5
185
100
AcDbEntity
  8
0
  6
ByLayer
 62
  256
370
   -1
100
AcDbLine
 10
217.8310074841264
 20
-121.1827333744915
 11
215.3312324841264
 21
-121.1827333744915
  0
ARC
  5
186
100
AcDbEntity
  8
0
  6
ByLayer
 62
  256
370
   -1
100
AcDbCircle
 10
215.3312324841264
 20
-126.1829873744915
 40
4.999549000000002
100
AcDbArc
 50
90
 51
270
  0
SPLINE
  5
187
100
AcDbEntity
  8
0
  6
ByLayer
 62
  256
370
   -1
100
AcDbSpline
210
0
220
0
230
0
 70
    8
 71
    2
 72
    6
 73
    3
 74
    0
 42
1e-007
 43
1e-007
 40
0
 40
0
 40
0
 40
1
 40
1
 40
1
 10
217.8310074841264
 20
-121.1827333744915
 30
0
 10
219.9095663833594
 20
-121.0312164926465
 30
0
 10
220.3036174841264
 20
-119.0311503744915
 30
0
  0
SPLINE
  5
188
100
AcDbEntity
  8
0
  6
ByLayer
 62
  256
370
   -1
100
AcDbSpline
210
0
220
0
230
0
 70
    8
 71
    2
 72
    6
 73
    3
 74
    0
 42
1e-007
 43
1e-007
 40
0
 40
0
 40
0
 40
1
 40
1
 40
1
 10
217.8310074841264
 20
-131.1832413744915
 30
0
 10
219.9095663833594
 20
-131.3347582563366
 30
0
 10
220.3036174841264
 20
-133.3348243744915
 30
0
  0
LINE
  5
189
100
AcDbEntity
  8
0
  6
ByLayer
 62
  256
370
   -1
100
AcDbLine
 10
220.3036174841264
 20
-119.0311503744915
 11
220.3036174841264
 21
-133.3348243744915
  0
CIRCLE
  5
18A
100
AcDbEntity
  8
0
  6
ByLayer
 62
  256
370
   -1
100
AcDbCircle
 10
204.4773846712148
 20
-126.1829873744915
 40
2.599962000000005
  0
LINE
  5
18B
100
AcDbEntity
  8
0
  6
ByLayer
 62
  256
370
   -1
100
AcDbLine
 10
206.9771596712148
 20
-131.1825363744915
 11
204.4773846712148
 21
-131.1825363744915
  0
LINE
  5
18C
100
AcDbEntity
  8
0
  6
ByLayer
 62
  256
370
   -1
100
AcDbLine
 10
206.9771596712148
 20
-121.1827333744915
 11
204.4773846712148
 21
-121.1827333744915
  0
ARC
  5
18D
100
AcDbEntity
  8
0
  6
ByLayer
 62
  256
370
   -1
100
AcDbCircle
 10
204.4773846712148
 20
-126.1829873744915
 40
4.999549000000002
100
AcDbArc
 50
90
 51
270
  0
SPLINE
  5
18E
100
AcDbEntity
  8
0
  6
ByLayer
 62
  256
370
   -1
100
AcDbSpline
210
0
220
0
230
0
 70
    8
 71
    2
 72
    6
 73
    3
 74
    0
 42
1e-007
 43
1e-007
 40
0
 40
0
 40
0
 40
1
 40
1
 40
1
 10
206.9771596712148
 20
-121.1827333744915
 30
0
 10
209.0557185704478
 20
-121.0312164926465
 30
0
 10
209.4497696712148
 20
-119.0311503744915
 30
0
  0
SPLINE
  5
18F
100
AcDbEntity
  8
0
  6
ByLayer
 62
  256
370
   -1
100
AcDbSpline
210
0
220
0
230
0
 70
    8
 71
    2
 72
    6
 73
    3
 74
    0
 42
1e-007
 43
1e-007
 40
0
 40
0
 40
0
 40
1
 40
1
 40
1
 10
206.9771596712148
 20
-131.1832413744915
 30
0
 10
209.0557185704478
 20
-131.3347582563366
 30
0
 10
209.4497696712148
 20
-133.3348243744915
 30
0
  0
LINE
  5
190
100
AcDbEntity
  8
0
  6
ByLayer
 62
  256
370
   -1
100
AcDbLine
 10
209.4497696712148
 20
-119.0311503744915
 11
209.4497696712148
 21
-133.3348243744915
  0
CIRCLE
  5
191
100
AcDbEntity
  8
0
  6
ByLayer
 62
  256
370
   -1
100
AcDbCircle
 10
192.9772562164185
 20
-126.1829873744915
 40
2.599962000000005
  0
LINE
  5
192
100
AcDbEntity
  8
0
  6
ByLayer
 62
  256
370
   -1
100
AcDbLine
 10
190.4774812164185
 20
-121.1834383744915
 11
192.9772562164185
 21
-121.1834383744915
  0
LINE
  5
193
100
AcDbEntity
  8
0
  6
ByLayer
 62
  256
370
   -1
100
AcDbLine
 10
190.4774812164185
 20
-131.1832413744915
 11
192.9772562164185
 21
-131.1832413744915
  0
ARC
  5
194
100
AcDbEntity
  8
0
  6
ByLayer
 62
  256
370
   -1
100
AcDbCircle
 10
192.9772562164185
 20
-126.1829873744915
 40
4.999549000000002
100
AcDbArc
 50
270
 51
90
  0
SPLINE
  5
195
100
AcDbEntity
  8
0
  6
ByLayer
 62
  256
370
   -1
100
AcDbSpline
210
0
220
0
230
0
 70
    8
 71
    2
 72
    6
 73
    3
 74
    0
 42
1e-007
 43
1e-007
 40
0
 40
0
 40
0
 40
1
 40
1
 40
1
 10
190.4774812164185
 20
-131.1832413744915
 30
0
 10
188.3989223171855
 20
-131.3347582563366
 30
0
 10
188.0048712164185
 20
-133.3348243744915
 30
0
  0
SPLINE
  5
196
100
AcDbEntity
  8
0
  6
ByLayer
 62
  256
370
   -1
100
AcDbSpline
210
0
220
0
230
0
 70
    8
 71
    2
 72
    6
 73
    3
 74
    0
 42
1e-007
 43
1e-007
 40
0
 40
0
 40
0
 40
1
 40
1
 40
1
 10
190.4774812164185
 20
-121.1827333744915
 30
0
 10
188.3989223171855
 20
-121.0312164926464
 30
0
 10
188.0048712164185
 20
-119.0311503744915
 30
0
  0
CIRCLE
  5
197
100
AcDbEntity
  8
0
  6
ByLayer
 62
  256
370
   -1
100
AcDbCircle
 10
181.2947765799985
 20
-126.1829873744915
 40
2.599962000000005
  0
LINE
  5
198
100
AcDbEntity
  8
0
  6
ByLayer
 62
  256
370
   -1
100
AcDbLine
 10
178.7950015799985
 20
-121.1834383744915
 11
181.2947765799985
 21
-121.1834383744915
  0
LINE
  5
199
100
AcDbEntity
  8
0
  6
ByLayer
 62
  256
370
   -1
100
AcDbLine
 10
178.7950015799985
 20
-131.1832413744915
 11
181.2947765799985
 21
-131.1832413744915
  0
ARC
  5
19A
100
AcDbEntity
  8
0
  6
ByLayer
 62
  256
370
   -1
100
AcDbCircle
 10
181.2947765799985
 20
-126.1829873744915
 40
4.999549000000002
100
AcDbArc
 50
270
 51
90
  0
SPLINE
  5
19B
100
AcDbEntity
  8
0
  6
ByLayer
 62
  256
370
   -1
100
AcDbSpline
210
0
220
0
230
0
 70
    8
 71
    2
 72
    6
 73
    3
 74
    0
 42
1e-007
 43
1e-007
 40
0
 40
0
 40
0
 40
1
 40
1
 40
1
 10
178.7950015799985
 20
-131.1832413744915
 30
0
 10
176.7164426807656
 20
-131.3347582563366
 30
0
 10
176.3223915799986
 20
-133.3348243744915
 30
0
  0
SPLINE
  5
19C
100
AcDbEntity
  8
0
  6
ByLayer
 62
  256
370
   -1
100
AcDbSpline
210
0
220
0
230
0
 70
    8
 71
    2
 72
    6
 73
    3
 74
    0
 42
1e-007
 43
1e-007
 40
0
 40
0
 40
0
 40
1
 40
1
 40
1
 10
178.7950015799985
 20
-121.1827333744915
 30
0
 10
176.7164426807656
 20
-121.0312164926464
 30
0
 10
176.3223915799986
 20
-119.0311503744915
 30
0
  0
LINE
  5
19D
100
AcDbEntity
  8
0
  6
ByLayer
 62
  256
370
   -1
100
AcDbLine
 10
176.3223915799986
 20
-119.0311503744915
 11
176.3223915799986
 21
-133.3348243744915
  0
LINE
  5
19E
100
AcDbEntity
  8
0
  6
ByLayer
 62
  256
370
   -1
100
AcDbLine
 10
188.0048712164185
 20
-119.0311503744915
 11
188.0048712164185
 21
-133.3348243744915
  0
LINE
  5
19F
100
AcDbEntity
  8
0
  6
ByLayer
 62
  256
370
   -1
100
AcDbLine
 10
115.249598
 20
-272.1135223392168
 11
115.416598
 21
-272.2095223392168
  0
LINE
  5
1A0
100
AcDbEntity
  8
0
  6
ByLayer
 62
  256
370
   -1
100
AcDbLine
 10
1.951298000000001
 20
-163.7275223392168
 11
1.752867999999999
 21
-163.7715223392167
  0
LINE
  5
1A1
100
AcDbEntity
  8
0
  6
ByLayer
 62
  256
370
   -1
100
AcDbLine
 10
1.752867999999999
 20
-163.7715223392167
 11
1.193378000000003
 21
-164.0555223392167
  0
LINE
  5
1A2
100
AcDbEntity
  8
0
  6
ByLayer
 62
  256
370
   -1
100
AcDbLine
 10
1.193378000000003
 20
-164.0555223392167
 11
0.5718839999999972
 21
-164.6245223392168
  0
LINE
  5
1A3
100
AcDbEntity
  8
0
  6
ByLayer
 62
  256
370
   -1
100
AcDbLine
 10
0.5718839999999972
 20
-164.6245223392168
 11
0.1529620000000023
 21
-165.3535223392167
  0
LINE
  5
1A4
100
AcDbEntity
  8
0
  6
ByLayer
 62
  256
370
   -1
100
AcDbLine
 10
0.1529620000000023
 20
-165.3535223392167
 11
0
 21
-165.9625223392168
  0
LINE
  5
1A5
100
AcDbEntity
  8
0
  6
ByLayer
 62
  256
370
   -1
100
AcDbLine
 10
0
 20
-165.9625223392168
 11
0
 21
-166.1665223392167
  0
LINE
  5
1A6
100
AcDbEntity
  8
0
  6
ByLayer
 62
  256
370
   -1
100
AcDbLine
 10
0
 20
-258.2655223392167
 11
0
 21
-258.4585223392168
  0
LINE
  5
1A7
100
AcDbEntity
  8
0
  6
ByLayer
 62
  256
370
   -1
100
AcDbLine
 10
0
 20
-258.4585223392168
 11
0.1570960000000028
 21
-259.0415223392168
  0
LINE
  5
1A8
100
AcDbEntity
  8
0
  6
ByLayer
 62
  256
370
   -1
100
AcDbLine
 10
0.1570960000000028
 20
-259.0415223392168
 11
0.5870430000000013
 21
-259.6765223392168
  0
LINE
  5
1A9
100
AcDbEntity
  8
0
  6
ByLayer
 62
  256
370
   -1
100
AcDbLine
 10
0.5870430000000013
 20
-259.6765223392168
 11
1.222318000000001
 21
-260.1065223392168
  0
LINE
  5
1AA
100
AcDbEntity
  8
0
  6
ByLayer
 62
  256
370
   -1
100
AcDbLine
 10
1.222318000000001
 20
-260.1065223392168
 11
1.805228
 21
-260.2645223392168
  0
LINE
  5
1AB
100
AcDbEntity
  8
0
  6
ByLayer
 62
  256
370
   -1
100
AcDbLine
 10
1.805228
 20
-260.2645223392168
 11
1.999538000000001
 21
-260.2645223392168
  0
LINE
  5
1AC
100
AcDbEntity
  8
0
  6
ByLayer
 62
  256
370
   -1
100
AcDbLine
 10
1.999538000000001
 20
-260.2645223392168
 11
92.71159800000001
 21
-260.2645223392168
  0
LINE
  5
1AD
100
AcDbEntity
  8
0
  6
ByLayer
 62
  256
370
   -1
100
AcDbLine
 10
92.71159800000001
 20
-260.2645223392168
 11
92.939098
 21
-260.2645223392168
  0
LINE
  5
1AE
100
AcDbEntity
  8
0
  6
ByLayer
 62
  256
370
   -1
100
AcDbLine
 10
92.939098
 20
-260.2645223392168
 11
93.62389800000001
 21
-260.3435223392167
  0
LINE
  5
1AF
100
AcDbEntity
  8
0
  6
ByLayer
 62
  256
370
   -1
100
AcDbLine
 10
93.62389800000001
 20
-260.3435223392167
 11
94.63249800000001
 21
-260.5585223392168
  0
LINE
  5
1B0
100
AcDbEntity
  8
0
  6
ByLayer
 62
  256
370
   -1
100
AcDbLine
 10
94.63249800000001
 20
-260.5585223392168
 11
95.612498
 21
-260.8755223392168
  0
LINE
  5
1B1
100
AcDbEntity
  8
0
  6
ByLayer
 62
  256
370
   -1
100
AcDbLine
 10
95.612498
 20
-260.8755223392168
 11
96.24499800000001
 21
-261.1495223392168
  0
LINE
  5
1B2
100
AcDbEntity
  8
0
  6
ByLayer
 62
  256
370
   -1
100
AcDbLine
 10
96.24499800000001
 20
-261.1495223392168
 11
96.44329800000001
 21
-261.2635223392168
  0
LINE
  5
1B3
100
AcDbEntity
  8
0
  6
ByLayer
 62
  256
370
   -1
100
AcDbLine
 10
96.44329800000001
 20
-261.2635223392168
 11
132.6851646881829
 21
-282.1726992409343
  0
ARC
  5
1B4
100
AcDbEntity
  8
0
  6
ByLayer
 62
  256
370
   -1
100
AcDbCircle
 10
133.1848944516437
 20
-281.306517872218
 40
1
100
AcDbArc
 50
240.0178770956076
 51
329.9314171781378
  0
LINE
  5
1B5
100
AcDbEntity
  8
0
  6
ByLayer
 62
  256
370
   -1
100
AcDbLine
 10
156.3397072000001
 20
-238.1353552392168
 11
151.9769435509419
 21
-250.8433874643484
  0
LINE
  5
1B6
100
AcDbEntity
  8
0
  6
ByLayer
 62
  256
370
   -1
100
AcDbLine
 10
1.951298000000001
 20
-163.7275223392168
 11
3.263711599999965
 21
-163.4285751588488
  0
LINE
  5
1B7
100
AcDbEntity
  8
0
  6
ByLayer
 62
  256
370
   -1
100
AcDbLine
 10
154.0540119999999
 20
-163.4305817588488
 11
153.0647074
 21
-163.4305817588488
  0
ARC
  5
1B8
100
AcDbEntity
  8
0
  6
ByLayer
 62
  256
370
   -1
100
AcDbCircle
 10
154.0540119999999
 20
-165.7165817588488
 40
2.286
100
AcDbArc
 50
0
 51
90
  0
ARC
  5
1B9
100
AcDbEntity
  8
0
  6
ByLayer
 62
  256
370
   -1
100
AcDbCircle
 10
132.7028008592377
 20
-170.92057515885
 40
1.127729880367895
100
AcDbArc
 50
270
 51
0
  0
ARC
  5
1BA
100
AcDbEntity
  8
0
  6
ByLayer
 62
  256
370
   -1
100
AcDbCircle
 10
111.8947855850006
 20
-167.7135430495631
 40
1.127729880367895
100
AcDbArc
 50
162.735
 51
252.735
  0
LINE
  5
1BB
100
AcDbEntity
  8
0
  6
ByLayer
 62
  256
370
   -1
100
AcDbLine
 10
123.6597115999999
 20
-172.0483050392167
 11
132.7028008592377
 21
-172.0483050392179
  0
ARC
  5
1BC
100
AcDbEntity
  8
0
  6
ByLayer
 62
  256
370
   -1
100
AcDbCircle
 10
111.431689688765
 20
-160.7933981471803
 40
1.127729880367895
100
AcDbArc
 50
346.80243
 51
76.80243
  0
LINE
  5
1BD
100
AcDbEntity
  8
0
  6
ByLayer
 62
  256
370
   -1
100
AcDbLine
 10
110.8178686448321
 20
-167.3788423070294
 11
112.5296346291724
 21
-161.0508696813514
  0
LINE
  5
1BE
100
AcDbEntity
  8
0
  6
ByLayer
 62
  256
370
   -1
100
AcDbLine
 10
111.5449963095126
 20
-168.7878573232021
 11
123.6597115999999
 21
-172.0483050392167
  0
ARC
  5
1BF
100
AcDbEntity
  8
0
  6
ByLayer
 62
  256
370
   -1
100
AcDbCircle
 10
134.9582606199732
 20
-164.5583116392167
 40
1.127729880367895
100
AcDbArc
 50
90
 51
180
  0
LINE
  5
1C0
100
AcDbEntity
  8
0
  6
ByLayer
 62
  256
370
   -1
100
AcDbLine
 10
133.8305307396053
 20
-164.5583116392167
 11
133.8305307396056
 21
-170.92057515885
  0
LWPOLYLINE
  5
1C1
100
AcDbEntity
  8
0
  6
ByLayer
 62
  256
370
   -1
100
AcDbPolyline
 90
    2
 70
    0
 43
0
 10
100.0808916
 20
-156.5705751588488
 10
57.36571159999998
 20
-156.5705751588488
  0
LWPOLYLINE
  5
1C2
100
AcDbEntity
  8
0
  6
ByLayer
 62
  256
370
   -1
100
AcDbPolyline
 90
    3
 70
    0
 43
0
 10
3.263711600000008
 20
-163.4285751588488
 10
57.36571159999998
 20
-156.5705751588488
 10
57.36571159999998
 20
-156.5705751588488
  0
LINE
  5
1C3
100
AcDbEntity
  8
0
  6
ByLayer
 62
  256
370
   -1
100
AcDbLine
 10
134.9582606199732
 20
-163.4305817588488
 11
153.0647074
 21
-163.4305817588488
  0
LINE
  5
1C4
100
AcDbEntity
  8
0
  6
ByLayer
 62
  256
370
   -1
100
AcDbLine
 10
111.6891612229357
 20
-159.6954532067728
 11
100.0808916
 21
-156.5705751588488
  0
CIRCLE
  5
1C5
100
AcDbEntity
  8
0
  6
ByLayer
 62
  256
370
   -1
100
AcDbCircle
 10
136.7087075999999
 20
-206.8993242392167
 40
1.1999976
  0
CIRCLE
  5
1C6
100
AcDbEntity
  8
0
  6
ByLayer
 62
  256
370
   -1
100
AcDbCircle
 10
152.9646821999998
 20
-206.8992480392167
 40
1.1999976
  0
CIRCLE
  5
1C7
100
AcDbEntity
  8
0
  6
ByLayer
 62
  256
370
   -1
100
AcDbCircle
 10
144.0756982000001
 20
-230.2759348392167
 40
1.1999976
  0
CIRCLE
  5
1C8
100
AcDbEntity
  8
0
  6
ByLayer
 62
  256
370
   -1
100
AcDbCircle
 10
147.4086861999997
 20
-243.1692288392167
 40
1.1999976
  0
CIRCLE
  5
1C9
100
AcDbEntity
  8
0
  6
ByLayer
 62
  256
370
   -1
100
AcDbCircle
 10
108.5466861999999
 20
-241.0099748392168
 40
1.1999976
  0
CIRCLE
  5
1CA
100
AcDbEntity
  8
0
  6
ByLayer
 62
  256
370
   -1
100
AcDbCircle
 10
57.8736861999999
 20
-233.6439748392168
 40
1.1999976
  0
CIRCLE
  5
1CB
100
AcDbEntity
  8
0
  6
ByLayer
 62
  256
370
   -1
100
AcDbCircle
 10
19.26568619999983
 20
-241.2639748392168
 40
1.1999976
  0
CIRCLE
  5
1CC
100
AcDbEntity
  8
0
  6
ByLayer
 62
  256
370
   -1
100
AcDbCircle
 10
19.26568619999983
 20
-183.8599748392167
 40
1.1999976
  0
CIRCLE
  5
1CD
100
AcDbEntity
  8
0
  6
ByLayer
 62
  256
370
   -1
100
AcDbCircle
 10
57.36543219999993
 20
-198.0839748392168
 40
1.1999976
  0
CIRCLE
  5
1CE
100
AcDbEntity
  8
0
  6
ByLayer
 62
  256
370
   -1
100
AcDbCircle
 10
57.36543219999993
 20
-161.7622288392167
 40
1.1999976
  0
CIRCLE
  5
1CF
100
AcDbEntity
  8
0
  6
ByLayer
 62
  256
370
   -1
100
AcDbCircle
 10
114.5154575999998
 20
-181.3200510392167
 40
1.1999976
  0
CIRCLE
  5
1D0
100
AcDbEntity
  8
0
  6
ByLayer
 62
  256
370
   -1
100
AcDbCircle
 10
390.1536312947514
 20
-243.1691526392167
 40
1.1999976
  0
CIRCLE
  5
1D1
100
AcDbEntity
  8
0
  6
ByLayer
 62
  256
370
   -1
100
AcDbCircle
 10
379.4536526947515
 20
-206.8992480392167
 40
1.1999976
  0
CIRCLE
  5
1D2
100
AcDbEntity
  8
0
  6
ByLayer
 62
  256
370
   -1
100
AcDbCircle
 10
395.7096272947515
 20
-206.8991718392168
 40
1.1999976
  0
ARC
  5
1D3
100
AcDbEntity
  8
0
  6
ByLayer
 62
  256
370
   -1
100
AcDbCircle
 10
395.4765938782541
 20
-166.7361668442557
 40
2.286
100
AcDbArc
 50
359.2153
 51
89.21530000000004
  0
LINE
  5
1D4
100
AcDbEntity
  8
0
  6
ByLayer
 62
  256
370
   -1
100
AcDbLine
 10
397.7623794897557
 20
-216.9211623664731
 11
397.7623794897557
 21
-166.7674740040152
  0
ARC
  5
1D5
100
AcDbEntity
  8
0
  6
ByLayer
 62
  256
370
   -1
100
AcDbCircle
 10
379.6979558286154
 20
-166.7361668439557
 40
2.286
100
AcDbArc
 50
90.78470000000002
 51
180.7847
  0
LINE
  5
1D6
100
AcDbEntity
  8
0
  6
ByLayer
 62
  256
370
   -1
100
AcDbLine
 10
377.4121702174221
 20
-217.3234992092779
 11
377.4121702171137
 21
-166.7674740037153
  0
LINE
  5
1D7
100
AcDbEntity
  8
0
  6
ByLayer
 62
  256
370
   -1
100
AcDbLine
 10
395.5079010380136
 20
-164.4503812327541
 11
379.6666486688558
 21
-164.4503812324541
  0
LINE
  5
1D8
100
AcDbEntity
  8
0
  6
ByLayer
 62
  256
370
   -1
100
AcDbLine
 10
377.4121702174221
 20
-217.3234992092779
 11
377.4121702174221
 21
-238.401620027203
  0
LINE
  5
1D9
100
AcDbEntity
  8
0
  6
ByLayer
 62
  256
370
   -1
100
AcDbLine
 10
393.8947750778729
 20
-247.8116054652659
 11
378.302921297721
 21
-239.8561115155131
  0
LINE
  5
1DA
100
AcDbEntity
  8
0
  6
ByLayer
 62
  256
370
   -1
100
AcDbLine
 10
397.4450140842112
 20
-240.3194171849962
 11
395.1028915637164
 21
-247.3177936269112
  0
LINE
  5
1DB
100
AcDbEntity
  8
0
  6
ByLayer
 62
  256
370
   -1
100
AcDbLine
 10
397.7623794897557
 20
-216.9211623664731
 11
397.7623794897557
 21
-238.3711138583314
  0
LINE
  5
1DC
100
AcDbEntity
  8
0
  6
ByLayer
 62
  256
370
   -1
100
AcDbLine
 10
397.4450140842112
 20
-240.3194171849962
 11
397.7623794897557
 21
-238.3711138583314
  0
SPLINE
  5
1DD
100
AcDbEntity
  8
0
  6
ByLayer
 62
  256
370
   -1
100
AcDbSpline
210
0
220
0
230
0
 70
    8
 71
    2
 72
    6
 73
    3
 74
    0
 42
1e-007
 43
1e-007
 40
0
 40
0
 40
0
 40
1
 40
1
 40
1
 10
377.4121702174221
 20
-238.401620027203
 30
0
 10
377.4766298442078
 20
-239.3656038007558
 30
0
 10
378.302921297721
 20
-239.8561115155131
 30
0
  0
SPLINE
  5
1DE
100
AcDbEntity
  8
0
  6
ByLayer
 62
  256
370
   -1
100
AcDbSpline
210
0
220
0
230
0
 70
    8
 71
    2
 72
    6
 73
    3
 74
    0
 42
1e-007
 43
1e-007
 40
0
 40
0
 40
0
 40
1
 40
1
 40
1
 10
393.8947750778729
 20
-247.8116054652659
 30
0
 10
394.7509944707796
 20
-248.0471117303897
 30
0
 10
395.1028915637164
 20
-247.3177936269112
 30
0
  0
CIRCLE
  5
1DF
100
AcDbEntity
  8
0
  6
ByLayer
 62
  256
370
   -1
100
AcDbCircle
 10
386.8198812947514
 20
-229.5999646392168
 40
7.999984
  0
LINE
  5
1E0
100
AcDbEntity
  8
0
  6
ByLayer
 62
  256
370
   -1
100
AcDbLine
 10
2.842170943040401e-014
 20
-165.9625223392167
 11
2.842170943040401e-014
 21
-166.1665223392166
  0
CIRCLE
  5
1E1
100
AcDbEntity
  8
0
  6
ByLayer
 62
  256
370
   -1
100
AcDbCircle
 10
-4.972384999999946
 20
-174.2376118392166
 40
2.599962000000005
  0
LINE
  5
1E2
100
AcDbEntity
  8
0
  6
ByLayer
 62
  256
370
   -1
100
AcDbLine
 10
-2.472609999999946
 20
-169.2380628392166
 11
-4.972384999999946
 21
-169.2380628392166
  0
LINE
  5
1E3
100
AcDbEntity
  8
0
  6
ByLayer
 62
  256
370
   -1
100
AcDbLine
 10
-2.472609999999946
 20
-179.2378658392167
 11
-4.972384999999946
 21
-179.2378658392167
  0
ARC
  5
1E4
100
AcDbEntity
  8
0
  6
ByLayer
 62
  256
370
   -1
100
AcDbCircle
 10
-4.972384999999946
 20
-174.2376118392166
 40
4.999549000000002
100
AcDbArc
 50
90
 51
270
  0
SPLINE
  5
1E5
100
AcDbEntity
  8
0
  6
ByLayer
 62
  256
370
   -1
100
AcDbSpline
210
0
220
0
230
0
 70
    8
 71
    2
 72
    6
 73
    3
 74
    0
 42
1e-007
 43
1e-007
 40
0
 40
0
 40
0
 40
1
 40
1
 40
1
 10
-2.472609999999946
 20
-179.2378658392167
 30
0
 10
-0.394051100766996
 20
-179.3893827210617
 30
0
 10
5.684341886080801e-014
 20
-181.3894488392166
 30
0
  0
SPLINE
  5
1E6
100
AcDbEntity
  8
0
  6
ByLayer
 62
  256
370
   -1
100
AcDbSpline
210
0
220
0
230
0
 70
    8
 71
    2
 72
    6
 73
    3
 74
    0
 42
1e-007
 43
1e-007
 40
0
 40
0
 40
0
 40
1
 40
1
 40
1
 10
-2.472609999999946
 20
-169.2373578392167
 30
0
 10
-0.394051100766953
 20
-169.0858409573716
 30
0
 10
5.684341886080801e-014
 20
-167.0857748392166
 30
0
  0
CIRCLE
  5
1E7
100
AcDbEntity
  8
0
  6
ByLayer
 62
  256
370
   -1
100
AcDbCircle
 10
-4.972384999999946
 20
-250.4409328392167
 40
2.599962000000005
  0
LINE
  5
1E8
100
AcDbEntity
  8
0
  6
ByLayer
 62
  256
370
   -1
100
AcDbLine
 10
-2.472609999999946
 20
-255.4404818392167
 11
-4.972384999999946
 21
-255.4404818392167
  0
LINE
  5
1E9
100
AcDbEntity
  8
0
  6
ByLayer
 62
  256
370
   -1
100
AcDbLine
 10
-2.472609999999946
 20
-245.4406788392167
 11
-4.972384999999946
 21
-245.4406788392167
  0
ARC
  5
1EA
100
AcDbEntity
  8
0
  6
ByLayer
 62
  256
370
   -1
100
AcDbCircle
 10
-4.972384999999946
 20
-250.4409328392167
 40
4.999549000000002
100
AcDbArc
 50
90
 51
270
  0
SPLINE
  5
1EB
100
AcDbEntity
  8
0
  6
ByLayer
 62
  256
370
   -1
100
AcDbSpline
210
0
220
0
230
0
 70
    8
 71
    2
 72
    6
 73
    3
 74
    0
 42
1e-007
 43
1e-007
 40
0
 40
0
 40
0
 40
1
 40
1
 40
1
 10
-2.472609999999946
 20
-245.4406788392167
 30
0
 10
-0.3940511007669777
 20
-245.2891619573715
 30
0
 10
5.684341886080801e-014
 20
-243.2890958392167
 30
0
  0
SPLINE
  5
1EC
100
AcDbEntity
  8
0
  6
ByLayer
 62
  256
370
   -1
100
AcDbSpline
210
0
220
0
230
0
 70
    8
 71
    2
 72
    6
 73
    3
 74
    0
 42
1e-007
 43
1e-007
 40
0
 40
0
 40
0
 40
1
 40
1
 40
1
 10
-2.472609999999946
 20
-255.4411868392166
 30
0
 10
-0.394051100766953
 20
-255.5927037210617
 30
0
 10
5.684341886080801e-014
 20
-257.5927698392167
 30
0
  0
LINE
  5
1ED
100
AcDbEntity
  8
0
  6
ByLayer
 62
  256
370
   -1
100
AcDbLine
 10
2.842170943040401e-014
 20
-166.1665223392166
 11
5.684341886080801e-014
 21
-167.0857748392166
  0
LINE
  5
1EE
100
AcDbEntity
  8
0
  6
ByLayer
 62
  256
370
   -1
100
AcDbLine
 10
5.684341886080801e-014
 20
-181.3894488392166
 11
5.684341886080801e-014
 21
-243.2890958392167
  0
LINE
  5
1EF
100
AcDbEntity
  8
0
  6
ByLayer
 62
  256
370
   -1
100
AcDbLine
 10
5.684341886080801e-014
 20
-257.5927698392167
 11
0
 21
-258.2655223392167
  0
CIRCLE
  5
1F0
100
AcDbEntity
  8
0
  6
ByLayer
 62
  256
370
   -1
100
AcDbCircle
 10
161.3123637818078
 20
-174.3851118392167
 40
2.599962000000005
  0
LINE
  5
1F1
100
AcDbEntity
  8
0
  6
ByLayer
 62
  256
370
   -1
100
AcDbLine
 10
158.8125887818078
 20
-169.3855628392167
 11
161.3123637818078
 21
-169.3855628392167
  0
LINE
  5
1F2
100
AcDbEntity
  8
0
  6
ByLayer
 62
  256
370
   -1
100
AcDbLine
 10
158.8125887818078
 20
-179.3853658392167
 11
161.3123637818078
 21
-179.3853658392167
  0
ARC
  5
1F3
100
AcDbEntity
  8
0
  6
ByLayer
 62
  256
370
   -1
100
AcDbCircle
 10
161.3123637818078
 20
-174.3851118392167
 40
4.999549000000002
100
AcDbArc
 50
270
 51
90
  0
SPLINE
  5
1F4
100
AcDbEntity
  8
0
  6
ByLayer
 62
  256
370
   -1
100
AcDbSpline
210
0
220
0
230
0
 70
    8
 71
    2
 72
    6
 73
    3
 74
    0
 42
1e-007
 43
1e-007
 40
0
 40
0
 40
0
 40
1
 40
1
 40
1
 10
158.8125887818078
 20
-179.3853658392167
 30
0
 10
156.7340298825748
 20
-179.5368827210618
 30
0
 10
156.3399787818078
 20
-181.5369488392167
 30
0
  0
SPLINE
  5
1F5
100
AcDbEntity
  8
0
  6
ByLayer
 62
  256
370
   -1
100
AcDbSpline
210
0
220
0
230
0
 70
    8
 71
    2
 72
    6
 73
    3
 74
    0
 42
1e-007
 43
1e-007
 40
0
 40
0
 40
0
 40
1
 40
1
 40
1
 10
158.8125887818078
 20
-169.3848578392167
 30
0
 10
156.7340298825748
 20
-169.2333409573716
 30
0
 10
156.3399787818078
 20
-167.2332748392167
 30
0
  0
LINE
  5
1F6
100
AcDbEntity
  8
0
  6
ByLayer
 62
  256
370
   -1
100
AcDbLine
 10
144.0111088344182
 20
-269.5880018080775
 11
146.1743832618648
 21
-270.8406465311256
  0
LINE
  5
1F7
100
AcDbEntity
  8
0
  6
ByLayer
 62
  256
370
   -1
100
AcDbLine
 10
139.0001776668248
 20
-278.2417078853862
 11
141.1634520942714
 21
-279.4943526084343
  0
ARC
  5
1F8
100
AcDbEntity
  8
0
  6
ByLayer
 62
  256
370
   -1
100
AcDbCircle
 10
143.6690943168716
 20
-275.1671945206313
 40
4.999549000000002
100
AcDbArc
 50
239.927
 51
59.92700000000005
  0
SPLINE
  5
1F9
100
AcDbEntity
  8
0
  6
ByLayer
 62
  256
370
   -1
100
AcDbSpline
210
0
220
0
230
0
 70
    8
 71
    2
 72
    6
 73
    3
 74
    0
 42
1e-007
 43
1e-007
 40
0
 40
0
 40
0
 40
1
 40
1
 40
1
 10
139.0001776668248
 20
-278.2417078853862
 30
0
 10
137.1254928911356
 20
-277.3312566484361
 30
0
 10
135.7822468237693
 20
-278.8646289937951
 30
0
  0
SPLINE
  5
1FA
100
AcDbEntity
  8
0
  6
ByLayer
 62
  256
370
   -1
100
AcDbSpline
210
0
220
0
230
0
 70
    8
 71
    2
 72
    6
 73
    3
 74
    0
 42
1e-007
 43
1e-007
 40
0
 40
0
 40
0
 40
1
 40
1
 40
1
 10
144.0114621120251
 20
-269.5873917097801
 30
0
 10
142.2886284609339
 20
-268.4146987944214
 30
0
 10
142.9498606115305
 20
-266.4864060806395
 30
0
  0
CIRCLE
  5
1FB
100
AcDbEntity
  8
0
  6
ByLayer
 62
  256
370
   -1
100
AcDbCircle
 10
143.6690943168716
 20
-275.1671945206313
 40
2.599962000000005
  0
LINE
  5
1FC
100
AcDbEntity
  8
0
  6
ByLayer
 62
  256
370
   -1
100
AcDbLine
 10
156.3400119999999
 20
-165.7165817588488
 11
156.3399787818078
 21
-167.2332748392167
  0
LINE
  5
1FD
100
AcDbEntity
  8
0
  6
ByLayer
 62
  256
370
   -1
100
AcDbLine
 10
156.3399787818078
 20
-181.5369488392167
 11
156.3397072000001
 21
-238.1353552392168
  0
LINE
  5
1FE
100
AcDbEntity
  8
0
  6
ByLayer
 62
  256
370
   -1
100
AcDbLine
 10
151.9769435509419
 20
-250.8433874643484
 11
142.9498606115305
 21
-266.4864060806395
  0
LINE
  5
1FF
100
AcDbEntity
  8
0
  6
ByLayer
 62
  256
370
   -1
100
AcDbLine
 10
135.7822468237693
 20
-278.8646289937951
 11
134.0503207371248
 21
-281.8075541427597
  0
CIRCLE
  5
200
100
AcDbEntity
  8
0
  6
ByLayer
 62
  256
370
   -1
100
AcDbCircle
 10
0
 20
1.6
 40
1.6
  0
LINE
  5
201
100
AcDbEntity
  8
0
  6
ByLayer
 62
  256
370
   -1
100
AcDbLine
 10
288.5679620590096
 20
-105.291411193077
 11
295.5533620590095
 21
-93.163411193077
  0
LINE
  5
202
100
AcDbEntity
  8
0
  6
ByLayer
 62
  256
370
   -1
100
AcDbLine
 10
295.5533620590095
 20
-93.163411193077
 11
307.6814620590096
 21
-100.169411193077
  0
LINE
  5
203
100
AcDbEntity
  8
0
  6
ByLayer
 62
  256
370
   -1
100
AcDbLine
 10
307.6814620590096
 20
-100.169411193077
 11
300.6753620590096
 21
-112.297411193077
  0
LINE
  5
204
100
AcDbEntity
  8
0
  6
ByLayer
 62
  256
370
   -1
100
AcDbLine
 10
300.6753620590096
 20
-112.297411193077
 11
288.5679620590096
 21
-105.291411193077
  0
LINE
  5
205
100
AcDbEntity
  8
0
  6
ByLayer
 62
  256
370
   -1
100
AcDbLine
 10
309.8285240590095
 20
-106.5675071930769
 11
316.8139240590095
 21
-94.43950719307689
  0
LINE
  5
206
100
AcDbEntity
  8
0
  6
ByLayer
 62
  256
370
   -1
100
AcDbLine
 10
316.8139240590095
 20
-94.43950719307689
 11
328.9420240590095
 21
-101.4455071930769
  0
LINE
  5
207
100
AcDbEntity
  8
0
  6
ByLayer
 62
  256
370
   -1
100
AcDbLine
 10
328.9420240590095
 20
-101.4455071930769
 11
321.9359240590095
 21
-113.5735071930769
  0
LINE
  5
208
100
AcDbEntity
  8
0
  6
ByLayer
 62
  256
370
   -1
100
AcDbLine
 10
321.9359240590095
 20
-113.5735071930769
 11
309.8285240590095
 21
-106.5675071930769
  0
LINE
  5
209
100
AcDbEntity
  8
0
  6
ByLayer
 62
  256
370
   -1
100
AcDbLine
 10
300.3035240590097
 20
-123.065315193077
 11
307.2889240590097
 21
-110.937315193077
  0
LINE
  5
20A
100
AcDbEntity
  8
0
  6
ByLayer
 62
  256
370
   -1
100
AcDbLine
 10
307.2889240590097
 20
-110.937315193077
 11
319.4170240590097
 21
-117.943315193077
  0
LINE
  5
20B
100
AcDbEntity
  8
0
  6
ByLayer
 62
  256
370
   -1
100
AcDbLine
 10
319.4170240590097
 20
-117.943315193077
 11
312.4109240590097
 21
-130.071315193077
  0
LINE
  5
20C
100
AcDbEntity
  8
0
  6
ByLayer
 62
  256
370
   -1
100
AcDbLine
 10
312.4109240590097
 20
-130.071315193077
 11
300.3035240590097
 21
-123.065315193077
  0
LINE
  5
20D
100
AcDbEntity
  8
0
  6
ByLayer
 62
  256
370
   -1
100
AcDbLine
 10
253.7190540590095
 20
-238.6705223392167
 11
253.7190540590095
 21
-236.2995223392168
  0
LINE
  5
20E
100
AcDbEntity
  8
0
  6
ByLayer
 62
  256
370
   -1
100
AcDbLine
 10
220.6570540590095
 20
-219.6195223392168
 11
234.6690540590095
 21
-219.6195223392168
  0
LINE
  5
20F
100
AcDbEntity
  8
0
  6
ByLayer
 62
  256
370
   -1
100
AcDbLine
 10
234.6690540590095
 20
-219.6195223392168
 11
234.6690540590095
 21
-233.6325223392168
  0
LINE
  5
210
100
AcDbEntity
  8
0
  6
ByLayer
 62
  256
370
   -1
100
AcDbLine
 10
234.6690540590095
 20
-233.6325223392168
 11
220.6570540590095
 21
-233.6325223392168
  0
LINE
  5
211
100
AcDbEntity
  8
0
  6
ByLayer
 62
  256
370
   -1
100
AcDbLine
 10
220.6570540590095
 20
-233.6325223392168
 11
220.6570540590095
 21
-219.6195223392168
  0
LINE
  5
212
100
AcDbEntity
  8
0
  6
ByLayer
 62
  256
370
   -1
100
AcDbLine
 10
220.6570540590095
 20
-200.5695223392168
 11
234.6690540590095
 21
-200.5695223392168
  0
LINE
  5
213
100
AcDbEntity
  8
0
  6
ByLayer
 62
  256
370
   -1
100
AcDbLine
 10
234.6690540590095
 20
-200.5695223392168
 11
234.6690540590095
 21
-214.5825223392168
  0
LINE
  5
214
100
AcDbEntity
  8
0
  6
ByLayer
 62
  256
370
   -1
100
AcDbLine
 10
234.6690540590095
 20
-214.5825223392168
 11
220.6570540590095
 21
-214.5825223392168
  0
LINE
  5
215
100
AcDbEntity
  8
0
  6
ByLayer
 62
  256
370
   -1
100
AcDbLine
 10
220.6570540590095
 20
-214.5825223392168
 11
220.6570540590095
 21
-200.5695223392168
  0
LINE
  5
216
100
AcDbEntity
  8
0
  6
ByLayer
 62
  256
370
   -1
100
AcDbLine
 10
182.5556340590095
 20
-224.3825223392168
 11
196.5688540590095
 21
-224.3825223392168
  0
LINE
  5
217
100
AcDbEntity
  8
0
  6
ByLayer
 62
  256
370
   -1
100
AcDbLine
 10
196.5688540590095
 20
-224.3825223392168
 11
196.5688540590095
 21
-238.3955223392168
  0
LINE
  5
218
100
AcDbEntity
  8
0
  6
ByLayer
 62
  256
370
   -1
100
AcDbLine
 10
196.5688540590095
 20
-238.3955223392168
 11
182.5556340590095
 21
-238.3955223392168
  0
LINE
  5
219
100
AcDbEntity
  8
0
  6
ByLayer
 62
  256
370
   -1
100
AcDbLine
 10
182.5556340590095
 20
-238.3955223392168
 11
182.5556340590095
 21
-224.3825223392168
  0
LINE
  5
21A
100
AcDbEntity
  8
0
  6
ByLayer
 62
  256
370
   -1
100
AcDbLine
 10
182.5556340590095
 20
-167.2325223392168
 11
196.5688540590095
 21
-167.2325223392168
  0
LINE
  5
21B
100
AcDbEntity
  8
0
  6
ByLayer
 62
  256
370
   -1
100
AcDbLine
 10
196.5688540590095
 20
-167.2325223392168
 11
196.5688540590095
 21
-181.2455223392168
  0
LINE
  5
21C
100
AcDbEntity
  8
0
  6
ByLayer
 62
  256
370
   -1
100
AcDbLine
 10
196.5688540590095
 20
-181.2455223392168
 11
182.5556340590095
 21
-181.2455223392168
  0
LINE
  5
21D
100
AcDbEntity
  8
0
  6
ByLayer
 62
  256
370
   -1
100
AcDbLine
 10
182.5556340590095
 20
-181.2455223392168
 11
182.5556340590095
 21
-167.2325223392168
  0
LINE
  5
21E
100
AcDbEntity
  8
0
  6
ByLayer
 62
  256
370
   -1
100
AcDbLine
 10
277.8070540590095
 20
-164.8615223392168
 11
291.8191540590095
 21
-164.8615223392168
  0
LINE
  5
21F
100
AcDbEntity
  8
0
  6
ByLayer
 62
  256
370
   -1
100
AcDbLine
 10
291.8191540590095
 20
-164.8615223392168
 11
291.8191540590095
 21
-178.8525223392168
  0
LINE
  5
220
100
AcDbEntity
  8
0
  6
ByLayer
 62
  256
370
   -1
100
AcDbLine
 10
291.8191540590095
 20
-178.8525223392168
 11
277.8070540590095
 21
-178.8525223392168
  0
LINE
  5
221
100
AcDbEntity
  8
0
  6
ByLayer
 62
  256
370
   -1
100
AcDbLine
 10
277.8070540590095
 20
-178.8525223392168
 11
277.8070540590095
 21
-164.8615223392168
  0
LINE
  5
222
100
AcDbEntity
  8
0
  6
ByLayer
 62
  256
370
   -1
100
AcDbLine
 10
182.5556340590095
 20
-186.2825223392168
 11
196.5688540590095
 21
-186.2825223392168
  0
LINE
  5
223
100
AcDbEntity
  8
0
  6
ByLayer
 62
  256
370
   -1
100
AcDbLine
 10
196.5688540590095
 20
-186.2825223392168
 11
196.5688540590095
 21
-200.2955223392168
  0
LINE
  5
224
100
AcDbEntity
  8
0
  6
ByLayer
 62
  256
370
   -1
100
AcDbLine
 10
196.5688540590095
 20
-200.2955223392168
 11
182.5556340590095
 21
-200.2955223392168
  0
LINE
  5
225
100
AcDbEntity
  8
0
  6
ByLayer
 62
  256
370
   -1
100
AcDbLine
 10
182.5556340590095
 20
-200.2955223392168
 11
182.5556340590095
 21
-186.2825223392168
  0
LINE
  5
226
100
AcDbEntity
  8
0
  6
ByLayer
 62
  256
370
   -1
100
AcDbLine
 10
182.5556340590095
 20
-205.3325223392168
 11
196.5688540590095
 21
-205.3325223392168
  0
LINE
  5
227
100
AcDbEntity
  8
0
  6
ByLayer
 62
  256
370
   -1
100
AcDbLine
 10
196.5688540590095
 20
-205.3325223392168
 11
196.5688540590095
 21
-219.3455223392168
  0
LINE
  5
228
100
AcDbEntity
  8
0
  6
ByLayer
 62
  256
370
   -1
100
AcDbLine
 10
196.5688540590095
 20
-219.3455223392168
 11
182.5556340590095
 21
-219.3455223392168
  0
LINE
  5
229
100
AcDbEntity
  8
0
  6
ByLayer
 62
  256
370
   -1
100
AcDbLine
 10
182.5556340590095
 20
-219.3455223392168
 11
182.5556340590095
 21
-205.3325223392168
  0
LINE
  5
22A
100
AcDbEntity
  8
0
  6
ByLayer
 62
  256
370
   -1
100
AcDbLine
 10
201.6070540590095
 20
-167.2325223392168
 11
215.6190540590095
 21
-167.2325223392168
  0
LINE
  5
22B
100
AcDbEntity
  8
0
  6
ByLayer
 62
  256
370
   -1
100
AcDbLine
 10
215.6190540590095
 20
-167.2325223392168
 11
215.6190540590095
 21
-181.2455223392168
  0
LINE
  5
22C
100
AcDbEntity
  8
0
  6
ByLayer
 62
  256
370
   -1
100
AcDbLine
 10
215.6190540590095
 20
-181.2455223392168
 11
201.6070540590095
 21
-181.2455223392168
  0
LINE
  5
22D
100
AcDbEntity
  8
0
  6
ByLayer
 62
  256
370
   -1
100
AcDbLine
 10
201.6070540590095
 20
-181.2455223392168
 11
201.6070540590095
 21
-167.2325223392168
  0
LINE
  5
22E
100
AcDbEntity
  8
0
  6
ByLayer
 62
  256
370
   -1
100
AcDbLine
 10
201.6070540590095
 20
-186.2825223392168
 11
215.6190540590095
 21
-186.2825223392168
  0
LINE
  5
22F
100
AcDbEntity
  8
0
  6
ByLayer
 62
  256
370
   -1
100
AcDbLine
 10
215.6190540590095
 20
-186.2825223392168
 11
215.6190540590095
 21
-200.2955223392168
  0
LINE
  5
230
100
AcDbEntity
  8
0
  6
ByLayer
 62
  256
370
   -1
100
AcDbLine
 10
215.6190540590095
 20
-200.2955223392168
 11
201.6070540590095
 21
-200.2955223392168
  0
LINE
  5
231
100
AcDbEntity
  8
0
  6
ByLayer
 62
  256
370
   -1
100
AcDbLine
 10
201.6070540590095
 20
-200.2955223392168
 11
201.6070540590095
 21
-186.2825223392168
  0
LINE
  5
232
100
AcDbEntity
  8
0
  6
ByLayer
 62
  256
370
   -1
100
AcDbLine
 10
201.6070540590095
 20
-205.3325223392168
 11
215.6190540590095
 21
-205.3325223392168
  0
LINE
  5
233
100
AcDbEntity
  8
0
  6
ByLayer
 62
  256
370
   -1
100
AcDbLine
 10
215.6190540590095
 20
-205.3325223392168
 11
215.6190540590095
 21
-219.3455223392168
  0
LINE
  5
234
100
AcDbEntity
  8
0
  6
ByLayer
 62
  256
370
   -1
100
AcDbLine
 10
215.6190540590095
 20
-219.3455223392168
 11
201.6070540590095
 21
-219.3455223392168
  0
LINE
  5
235
100
AcDbEntity
  8
0
  6
ByLayer
 62
  256
370
   -1
100
AcDbLine
 10
201.6070540590095
 20
-219.3455223392168
 11
201.6070540590095
 21
-205.3325223392168
  0
LINE
  5
236
100
AcDbEntity
  8
0
  6
ByLayer
 62
  256
370
   -1
100
AcDbLine
 10
201.6070540590095
 20
-224.3825223392168
 11
215.6190540590095
 21
-224.3825223392168
  0
LINE
  5
237
100
AcDbEntity
  8
0
  6
ByLayer
 62
  256
370
   -1
100
AcDbLine
 10
215.6190540590095
 20
-224.3825223392168
 11
215.6190540590095
 21
-238.3955223392168
  0
LINE
  5
238
100
AcDbEntity
  8
0
  6
ByLayer
 62
  256
370
   -1
100
AcDbLine
 10
215.6190540590095
 20
-238.3955223392168
 11
201.6070540590095
 21
-238.3955223392168
  0
LINE
  5
239
100
AcDbEntity
  8
0
  6
ByLayer
 62
  256
370
   -1
100
AcDbLine
 10
201.6070540590095
 20
-238.3955223392168
 11
201.6070540590095
 21
-224.3825223392168
  0
LINE
  5
23A
100
AcDbEntity
  8
0
  6
ByLayer
 62
  256
370
   -1
100
AcDbLine
 10
220.6556540590095
 20
-162.4695223392168
 11
234.6690540590095
 21
-162.4695223392168
  0
LINE
  5
23B
100
AcDbEntity
  8
0
  6
ByLayer
 62
  256
370
   -1
100
AcDbLine
 10
234.6690540590095
 20
-162.4695223392168
 11
234.6690540590095
 21
-176.4825223392168
  0
LINE
  5
23C
100
AcDbEntity
  8
0
  6
ByLayer
 62
  256
370
   -1
100
AcDbLine
 10
234.6690540590095
 20
-176.4825223392168
 11
220.6556540590095
 21
-176.4825223392168
  0
LINE
  5
23D
100
AcDbEntity
  8
0
  6
ByLayer
 62
  256
370
   -1
100
AcDbLine
 10
220.6556540590095
 20
-176.4825223392168
 11
220.6556540590095
 21
-162.4695223392168
  0
LINE
  5
23E
100
AcDbEntity
  8
0
  6
ByLayer
 62
  256
370
   -1
100
AcDbLine
 10
220.6556540590095
 20
-181.5195223392168
 11
234.6690540590095
 21
-181.5195223392168
  0
LINE
  5
23F
100
AcDbEntity
  8
0
  6
ByLayer
 62
  256
370
   -1
100
AcDbLine
 10
234.6690540590095
 20
-181.5195223392168
 11
234.6690540590095
 21
-195.5325223392168
  0
LINE
  5
240
100
AcDbEntity
  8
0
  6
ByLayer
 62
  256
370
   -1
100
AcDbLine
 10
234.6690540590095
 20
-195.5325223392168
 11
220.6556540590095
 21
-195.5325223392168
  0
LINE
  5
241
100
AcDbEntity
  8
0
  6
ByLayer
 62
  256
370
   -1
100
AcDbLine
 10
220.6556540590095
 20
-195.5325223392168
 11
220.6556540590095
 21
-181.5195223392168
  0
LINE
  5
242
100
AcDbEntity
  8
0
  6
ByLayer
 62
  256
370
   -1
100
AcDbLine
 10
239.7070540590095
 20
-160.0995223392168
 11
253.7190540590095
 21
-160.0995223392168
  0
LINE
  5
243
100
AcDbEntity
  8
0
  6
ByLayer
 62
  256
370
   -1
100
AcDbLine
 10
253.7190540590095
 20
-160.0995223392168
 11
253.7190540590095
 21
-174.0905223392168
  0
LINE
  5
244
100
AcDbEntity
  8
0
  6
ByLayer
 62
  256
370
   -1
100
AcDbLine
 10
253.7190540590095
 20
-174.0905223392168
 11
239.7070540590095
 21
-174.0905223392168
  0
LINE
  5
245
100
AcDbEntity
  8
0
  6
ByLayer
 62
  256
370
   -1
100
AcDbLine
 10
239.7070540590095
 20
-174.0905223392168
 11
239.7070540590095
 21
-160.0995223392168
  0
LINE
  5
246
100
AcDbEntity
  8
0
  6
ByLayer
 62
  256
370
   -1
100
AcDbLine
 10
239.7070540590095
 20
-179.1495223392168
 11
253.7190540590095
 21
-179.1495223392168
  0
LINE
  5
247
100
AcDbEntity
  8
0
  6
ByLayer
 62
  256
370
   -1
100
AcDbLine
 10
253.7190540590095
 20
-179.1495223392168
 11
253.7190540590095
 21
-193.1405223392168
  0
LINE
  5
248
100
AcDbEntity
  8
0
  6
ByLayer
 62
  256
370
   -1
100
AcDbLine
 10
253.7190540590095
 20
-193.1405223392168
 11
239.7070540590095
 21
-193.1405223392168
  0
LINE
  5
249
100
AcDbEntity
  8
0
  6
ByLayer
 62
  256
370
   -1
100
AcDbLine
 10
239.7070540590095
 20
-193.1405223392168
 11
239.7070540590095
 21
-179.1495223392168
  0
LINE
  5
24A
100
AcDbEntity
  8
0
  6
ByLayer
 62
  256
370
   -1
100
AcDbLine
 10
239.7070540590095
 20
-198.1995223392168
 11
253.7190540590095
 21
-198.1995223392168
  0
LINE
  5
24B
100
AcDbEntity
  8
0
  6
ByLayer
 62
  256
370
   -1
100
AcDbLine
 10
253.7190540590095
 20
-198.1995223392168
 11
253.7190540590095
 21
-212.1905223392168
  0
LINE
  5
24C
100
AcDbEntity
  8
0
  6
ByLayer
 62
  256
370
   -1
100
AcDbLine
 10
253.7190540590095
 20
-212.1905223392168
 11
239.7070540590095
 21
-212.1905223392168
  0
LINE
  5
24D
100
AcDbEntity
  8
0
  6
ByLayer
 62
  256
370
   -1
100
AcDbLine
 10
239.7070540590095
 20
-212.1905223392168
 11
239.7070540590095
 21
-198.1995223392168
  0
LINE
  5
24E
100
AcDbEntity
  8
0
  6
ByLayer
 62
  256
370
   -1
100
AcDbLine
 10
239.7070540590095
 20
-217.2495223392168
 11
253.7190540590095
 21
-217.2495223392168
  0
LINE
  5
24F
100
AcDbEntity
  8
0
  6
ByLayer
 62
  256
370
   -1
100
AcDbLine
 10
253.7190540590095
 20
-217.2495223392168
 11
253.7190540590095
 21
-231.2405223392168
  0
LINE
  5
250
100
AcDbEntity
  8
0
  6
ByLayer
 62
  256
370
   -1
100
AcDbLine
 10
253.7190540590095
 20
-231.2405223392168
 11
239.7070540590095
 21
-231.2405223392168
  0
LINE
  5
251
100
AcDbEntity
  8
0
  6
ByLayer
 62
  256
370
   -1
100
AcDbLine
 10
239.7070540590095
 20
-231.2405223392168
 11
239.7070540590095
 21
-217.2495223392168
  0
LINE
  5
252
100
AcDbEntity
  8
0
  6
ByLayer
 62
  256
370
   -1
100
AcDbLine
 10
258.7570540590095
 20
-162.4695223392168
 11
272.7690540590095
 21
-162.4695223392168
  0
LINE
  5
253
100
AcDbEntity
  8
0
  6
ByLayer
 62
  256
370
   -1
100
AcDbLine
 10
272.7690540590095
 20
-162.4695223392168
 11
272.7690540590095
 21
-176.4825223392168
  0
LINE
  5
254
100
AcDbEntity
  8
0
  6
ByLayer
 62
  256
370
   -1
100
AcDbLine
 10
272.7690540590095
 20
-176.4825223392168
 11
258.7570540590095
 21
-176.4825223392168
  0
LINE
  5
255
100
AcDbEntity
  8
0
  6
ByLayer
 62
  256
370
   -1
100
AcDbLine
 10
258.7570540590095
 20
-176.4825223392168
 11
258.7570540590095
 21
-162.4695223392168
  0
LINE
  5
256
100
AcDbEntity
  8
0
  6
ByLayer
 62
  256
370
   -1
100
AcDbLine
 10
258.7570540590095
 20
-181.5195223392168
 11
272.7690540590095
 21
-181.5195223392168
  0
LINE
  5
257
100
AcDbEntity
  8
0
  6
ByLayer
 62
  256
370
   -1
100
AcDbLine
 10
272.7690540590095
 20
-181.5195223392168
 11
272.7690540590095
 21
-195.5325223392168
  0
LINE
  5
258
100
AcDbEntity
  8
0
  6
ByLayer
 62
  256
370
   -1
100
AcDbLine
 10
272.7690540590095
 20
-195.5325223392168
 11
258.7570540590095
 21
-195.5325223392168
  0
LINE
  5
259
100
AcDbEntity
  8
0
  6
ByLayer
 62
  256
370
   -1
100
AcDbLine
 10
258.7570540590095
 20
-195.5325223392168
 11
258.7570540590095
 21
-181.5195223392168
  0
LINE
  5
25A
100
AcDbEntity
  8
0
  6
ByLayer
 62
  256
370
   -1
100
AcDbLine
 10
258.7570540590095
 20
-200.5695223392168
 11
272.7690540590095
 21
-200.5695223392168
  0
LINE
  5
25B
100
AcDbEntity
  8
0
  6
ByLayer
 62
  256
370
   -1
100
AcDbLine
 10
272.7690540590095
 20
-200.5695223392168
 11
272.7690540590095
 21
-214.5825223392168
  0
LINE
  5
25C
100
AcDbEntity
  8
0
  6
ByLayer
 62
  256
370
   -1
100
AcDbLine
 10
272.7690540590095
 20
-214.5825223392168
 11
258.7570540590095
 21
-214.5825223392168
  0
LINE
  5
25D
100
AcDbEntity
  8
0
  6
ByLayer
 62
  256
370
   -1
100
AcDbLine
 10
258.7570540590095
 20
-214.5825223392168
 11
258.7570540590095
 21
-200.5695223392168
  0
LINE
  5
25E
100
AcDbEntity
  8
0
  6
ByLayer
 62
  256
370
   -1
100
AcDbLine
 10
258.7570540590095
 20
-219.6195223392168
 11
272.7690540590095
 21
-219.6195223392168
  0
LINE
  5
25F
100
AcDbEntity
  8
0
  6
ByLayer
 62
  256
370
   -1
100
AcDbLine
 10
272.7690540590095
 20
-219.6195223392168
 11
272.7690540590095
 21
-233.6325223392168
  0
LINE
  5
260
100
AcDbEntity
  8
0
  6
ByLayer
 62
  256
370
   -1
100
AcDbLine
 10
272.7690540590095
 20
-233.6325223392168
 11
258.7570540590095
 21
-233.6325223392168
  0
LINE
  5
261
100
AcDbEntity
  8
0
  6
ByLayer
 62
  256
370
   -1
100
AcDbLine
 10
258.7570540590095
 20
-233.6325223392168
 11
258.7570540590095
 21
-219.6195223392168
  0
LINE
  5
262
100
AcDbEntity
  8
0
  6
ByLayer
 62
  256
370
   -1
100
AcDbLine
 10
277.8070540590095
 20
-183.9115223392168
 11
291.8191540590095
 21
-183.9115223392168
  0
LINE
  5
263
100
AcDbEntity
  8
0
  6
ByLayer
 62
  256
370
   -1
100
AcDbLine
 10
291.8191540590095
 20
-183.9115223392168
 11
291.8191540590095
 21
-197.9025223392168
  0
LINE
  5
264
100
AcDbEntity
  8
0
  6
ByLayer
 62
  256
370
   -1
100
AcDbLine
 10
291.8191540590095
 20
-197.9025223392168
 11
277.8070540590095
 21
-197.9025223392168
  0
LINE
  5
265
100
AcDbEntity
  8
0
  6
ByLayer
 62
  256
370
   -1
100
AcDbLine
 10
277.8070540590095
 20
-197.9025223392168
 11
277.8070540590095
 21
-183.9115223392168
  0
LINE
  5
266
100
AcDbEntity
  8
0
  6
ByLayer
 62
  256
370
   -1
100
AcDbLine
 10
277.8070540590095
 20
-202.9615223392168
 11
291.8191540590095
 21
-202.9615223392168
  0
LINE
  5
267
100
AcDbEntity
  8
0
  6
ByLayer
 62
  256
370
   -1
100
AcDbLine
 10
291.8191540590095
 20
-202.9615223392168
 11
291.8191540590095
 21
-216.9525223392168
  0
LINE
  5
268
100
AcDbEntity
  8
0
  6
ByLayer
 62
  256
370
   -1
100
AcDbLine
 10
291.8191540590095
 20
-216.9525223392168
 11
277.8070540590095
 21
-216.9525223392168
  0
LINE
  5
269
100
AcDbEntity
  8
0
  6
ByLayer
 62
  256
370
   -1
100
AcDbLine
 10
277.8070540590095
 20
-216.9525223392168
 11
277.8070540590095
 21
-202.9615223392168
  0
LINE
  5
26A
100
AcDbEntity
  8
0
  6
ByLayer
 62
  256
370
   -1
100
AcDbLine
 10
277.8070540590095
 20
-222.0115223392168
 11
291.8191540590095
 21
-222.0115223392168
  0
LINE
  5
26B
100
AcDbEntity
  8
0
  6
ByLayer
 62
  256
370
   -1
100
AcDbLine
 10
291.8191540590095
 20
-222.0115223392168
 11
291.8191540590095
 21
-236.0025223392168
  0
LINE
  5
26C
100
AcDbEntity
  8
0
  6
ByLayer
 62
  256
370
   -1
100
AcDbLine
 10
291.8191540590095
 20
-236.0025223392168
 11
277.8070540590095
 21
-236.0025223392168
  0
LINE
  5
26D
100
AcDbEntity
  8
0
  6
ByLayer
 62
  256
370
   -1
100
AcDbLine
 10
277.8070540590095
 20
-236.0025223392168
 11
277.8070540590095
 21
-222.0115223392168
  0
LINE
  5
26E
100
AcDbEntity
  8
0
  6
ByLayer
 62
  256
370
   -1
100
AcDbLine
 10
296.8571540590095
 20
-174.3865223392168
 11
310.8691540590095
 21
-174.3865223392168
  0
LINE
  5
26F
100
AcDbEntity
  8
0
  6
ByLayer
 62
  256
370
   -1
100
AcDbLine
 10
310.8691540590095
 20
-188.3775223392168
 11
296.8571540590095
 21
-188.3775223392168
  0
LINE
  5
270
100
AcDbEntity
  8
0
  6
ByLayer
 62
  256
370
   -1
100
AcDbLine
 10
296.8571540590095
 20
-188.3775223392168
 11
296.8571540590095
 21
-174.3865223392168
  0
LINE
  5
271
100
AcDbEntity
  8
0
  6
ByLayer
 62
  256
370
   -1
100
AcDbLine
 10
296.8571540590095
 20
-193.4365223392168
 11
310.8691540590095
 21
-193.4365223392168
  0
LINE
  5
272
100
AcDbEntity
  8
0
  6
ByLayer
 62
  256
370
   -1
100
AcDbLine
 10
310.8691540590095
 20
-193.4365223392168
 11
310.8691540590095
 21
-207.4275223392168
  0
LINE
  5
273
100
AcDbEntity
  8
0
  6
ByLayer
 62
  256
370
   -1
100
AcDbLine
 10
310.8691540590095
 20
-207.4275223392168
 11
296.8571540590095
 21
-207.4275223392168
  0
LINE
  5
274
100
AcDbEntity
  8
0
  6
ByLayer
 62
  256
370
   -1
100
AcDbLine
 10
296.8571540590095
 20
-207.4275223392168
 11
296.8571540590095
 21
-193.4365223392168
  0
LINE
  5
275
100
AcDbEntity
  8
0
  6
ByLayer
 62
  256
370
   -1
100
AcDbLine
 10
296.8571540590095
 20
-212.4865223392168
 11
310.8691540590095
 21
-212.4865223392168
  0
LINE
  5
276
100
AcDbEntity
  8
0
  6
ByLayer
 62
  256
370
   -1
100
AcDbLine
 10
310.8691540590095
 20
-212.4865223392168
 11
310.8691540590095
 21
-226.4775223392168
  0
LINE
  5
277
100
AcDbEntity
  8
0
  6
ByLayer
 62
  256
370
   -1
100
AcDbLine
 10
310.8691540590095
 20
-226.4775223392168
 11
296.8571540590095
 21
-226.4775223392168
  0
LINE
  5
278
100
AcDbEntity
  8
0
  6
ByLayer
 62
  256
370
   -1
100
AcDbLine
 10
296.8571540590095
 20
-226.4775223392168
 11
296.8571540590095
 21
-212.4865223392168
  0
LINE
  5
279
100
AcDbEntity
  8
0
  6
ByLayer
 62
  256
370
   -1
100
AcDbLine
 10
182.5556340590095
 20
-243.4335223392168
 11
196.5688540590095
 21
-243.4335223392168
  0
LINE
  5
27A
100
AcDbEntity
  8
0
  6
ByLayer
 62
  256
370
   -1
100
AcDbLine
 10
196.5688540590095
 20
-243.4335223392168
 11
196.5688540590095
 21
-257.4455223392168
  0
LINE
  5
27B
100
AcDbEntity
  8
0
  6
ByLayer
 62
  256
370
   -1
100
AcDbLine
 10
196.5688540590095
 20
-257.4455223392168
 11
182.5556340590095
 21
-257.4455223392168
  0
LINE
  5
27C
100
AcDbEntity
  8
0
  6
ByLayer
 62
  256
370
   -1
100
AcDbLine
 10
182.5556340590095
 20
-257.4455223392168
 11
182.5556340590095
 21
-243.4335223392168
  0
LINE
  5
27D
100
AcDbEntity
  8
0
  6
ByLayer
 62
  256
370
   -1
100
AcDbLine
 10
201.6070540590095
 20
-243.4335223392168
 11
215.6190540590095
 21
-243.4335223392168
  0
LINE
  5
27E
100
AcDbEntity
  8
0
  6
ByLayer
 62
  256
370
   -1
100
AcDbLine
 10
215.6190540590095
 20
-243.4335223392168
 11
215.6190540590095
 21
-257.4455223392168
  0
LINE
  5
27F
100
AcDbEntity
  8
0
  6
ByLayer
 62
  256
370
   -1
100
AcDbLine
 10
215.6190540590095
 20
-257.4455223392168
 11
201.6070540590095
 21
-257.4455223392168
  0
LINE
  5
280
100
AcDbEntity
  8
0
  6
ByLayer
 62
  256
370
   -1
100
AcDbLine
 10
201.6070540590095
 20
-257.4455223392168
 11
201.6070540590095
 21
-243.4335223392168
  0
LINE
  5
281
100
AcDbEntity
  8
0
  6
ByLayer
 62
  256
370
   -1
100
AcDbLine
 10
220.6556540590095
 20
-238.6705223392167
 11
234.6690540590095
 21
-238.6705223392167
  0
LINE
  5
282
100
AcDbEntity
  8
0
  6
ByLayer
 62
  256
370
   -1
100
AcDbLine
 10
234.6690540590095
 20
-238.6705223392167
 11
234.6690540590095
 21
-252.6825223392168
  0
LINE
  5
283
100
AcDbEntity
  8
0
  6
ByLayer
 62
  256
370
   -1
100
AcDbLine
 10
234.6690540590095
 20
-252.6825223392168
 11
220.6556540590095
 21
-252.6825223392168
  0
LINE
  5
284
100
AcDbEntity
  8
0
  6
ByLayer
 62
  256
370
   -1
100
AcDbLine
 10
220.6556540590095
 20
-252.6825223392168
 11
220.6556540590095
 21
-238.6705223392167
  0
LINE
  5
285
100
AcDbEntity
  8
0
  6
ByLayer
 62
  256
370
   -1
100
AcDbLine
 10
267.3076540590095
 20
-252.9995223392168
 11
274.2930540590095
 21
-240.8715223392168
  0
LINE
  5
286
100
AcDbEntity
  8
0
  6
ByLayer
 62
  256
370
   -1
100
AcDbLine
 10
274.2930540590095
 20
-240.8715223392168
 11
286.4211540590095
 21
-247.8775223392168
  0
LINE
  5
287
100
AcDbEntity
  8
0
  6
ByLayer
 62
  256
370
   -1
100
AcDbLine
 10
286.4211540590095
 20
-247.8775223392168
 11
279.4150540590095
 21
-260.0055223392168
  0
LINE
  5
288
100
AcDbEntity
  8
0
  6
ByLayer
 62
  256
370
   -1
100
AcDbLine
 10
279.4150540590095
 20
-260.0055223392168
 11
267.3076540590095
 21
-252.9995223392168
  0
LINE
  5
289
100
AcDbEntity
  8
0
  6
ByLayer
 62
  256
370
   -1
100
AcDbLine
 10
253.7190540590095
 20
-236.2995223392168
 11
239.7056540590095
 21
-236.2995223392168
  0
LINE
  5
28A
100
AcDbEntity
  8
0
  6
ByLayer
 62
  256
370
   -1
100
AcDbLine
 10
239.7056540590095
 20
-236.2995223392168
 11
239.7056540590095
 21
-250.2905223392168
  0
LINE
  5
28B
100
AcDbEntity
  8
0
  6
ByLayer
 62
  256
370
   -1
100
AcDbLine
 10
239.7056540590095
 20
-250.2905223392168
 11
247.3263540590095
 21
-250.2905223392168
  0
LINE
  5
28C
100
AcDbEntity
  8
0
  6
ByLayer
 62
  256
370
   -1
100
AcDbLine
 10
247.3263540590095
 20
-250.2905223392168
 11
247.3263540590095
 21
-252.6825223392168
  0
LINE
  5
28D
100
AcDbEntity
  8
0
  6
ByLayer
 62
  256
370
   -1
100
AcDbLine
 10
247.3263540590095
 20
-252.6825223392168
 11
261.3393540590095
 21
-252.6825223392168
  0
LINE
  5
28E
100
AcDbEntity
  8
0
  6
ByLayer
 62
  256
370
   -1
100
AcDbLine
 10
261.3393540590095
 20
-252.6825223392168
 11
261.3393540590095
 21
-238.6705223392167
  0
LINE
  5
28F
100
AcDbEntity
  8
0
  6
ByLayer
 62
  256
370
   -1
100
AcDbLine
 10
261.3393540590095
 20
-238.6705223392167
 11
253.7190540590095
 21
-238.6705223392167
  0
LINE
  5
290
100
AcDbEntity
  8
0
  6
ByLayer
 62
  256
370
   -1
100
AcDbLine
 10
295.0491540590095
 20
-272.1135223392168
 11
295.2161540590095
 21
-272.2095223392168
  0
LINE
  5
291
100
AcDbEntity
  8
0
  6
ByLayer
 62
  256
370
   -1
100
AcDbLine
 10
181.7508540590095
 20
-163.7275223392168
 11
181.5524240590095
 21
-163.7715223392168
  0
LINE
  5
292
100
AcDbEntity
  8
0
  6
ByLayer
 62
  256
370
   -1
100
AcDbLine
 10
181.5524240590095
 20
-163.7715223392168
 11
180.9929340590095
 21
-164.0555223392168
  0
LINE
  5
293
100
AcDbEntity
  8
0
  6
ByLayer
 62
  256
370
   -1
100
AcDbLine
 10
180.9929340590095
 20
-164.0555223392168
 11
180.3714400590095
 21
-164.6245223392168
  0
LINE
  5
294
100
AcDbEntity
  8
0
  6
ByLayer
 62
  256
370
   -1
100
AcDbLine
 10
180.3714400590095
 20
-164.6245223392168
 11
179.9525180590095
 21
-165.3535223392168
  0
LINE
  5
295
100
AcDbEntity
  8
0
  6
ByLayer
 62
  256
370
   -1
100
AcDbLine
 10
179.9525180590095
 20
-165.3535223392168
 11
179.7995560590095
 21
-165.9625223392168
  0
LINE
  5
296
100
AcDbEntity
  8
0
  6
ByLayer
 62
  256
370
   -1
100
AcDbLine
 10
179.7995560590095
 20
-165.9625223392168
 11
179.7995560590095
 21
-166.1665223392168
  0
LINE
  5
297
100
AcDbEntity
  8
0
  6
ByLayer
 62
  256
370
   -1
100
AcDbLine
 10
179.7995560590095
 20
-258.2655223392167
 11
179.7995560590095
 21
-258.4585223392168
  0
LINE
  5
298
100
AcDbEntity
  8
0
  6
ByLayer
 62
  256
370
   -1
100
AcDbLine
 10
179.7995560590095
 20
-258.4585223392168
 11
179.9566520590095
 21
-259.0415223392168
  0
LINE
  5
299
100
AcDbEntity
  8
0
  6
ByLayer
 62
  256
370
   -1
100
AcDbLine
 10
179.9566520590095
 20
-259.0415223392168
 11
180.3865990590095
 21
-259.6765223392168
  0
LINE
  5
29A
100
AcDbEntity
  8
0
  6
ByLayer
 62
  256
370
   -1
100
AcDbLine
 10
180.3865990590095
 20
-259.6765223392168
 11
181.0218740590095
 21
-260.1065223392168
  0
LINE
  5
29B
100
AcDbEntity
  8
0
  6
ByLayer
 62
  256
370
   -1
100
AcDbLine
 10
181.0218740590095
 20
-260.1065223392168
 11
181.6047840590095
 21
-260.2645223392168
  0
LINE
  5
29C
100
AcDbEntity
  8
0
  6
ByLayer
 62
  256
370
   -1
100
AcDbLine
 10
181.6047840590095
 20
-260.2645223392168
 11
181.7990940590095
 21
-260.2645223392168
  0
LINE
  5
29D
100
AcDbEntity
  8
0
  6
ByLayer
 62
  256
370
   -1
100
AcDbLine
 10
181.7990940590095
 20
-260.2645223392168
 11
272.5111540590095
 21
-260.2645223392168
  0
LINE
  5
29E
100
AcDbEntity
  8
0
  6
ByLayer
 62
  256
370
   -1
100
AcDbLine
 10
272.5111540590095
 20
-260.2645223392168
 11
272.7386540590095
 21
-260.2645223392168
  0
LINE
  5
29F
100
AcDbEntity
  8
0
  6
ByLayer
 62
  256
370
   -1
100
AcDbLine
 10
272.7386540590095
 20
-260.2645223392168
 11
273.4234540590095
 21
-260.3435223392168
  0
LINE
  5
2A0
100
AcDbEntity
  8
0
  6
ByLayer
 62
  256
370
   -1
100
AcDbLine
 10
273.4234540590095
 20
-260.3435223392168
 11
274.4320540590095
 21
-260.5585223392168
  0
LINE
  5
2A1
100
AcDbEntity
  8
0
  6
ByLayer
 62
  256
370
   -1
100
AcDbLine
 10
274.4320540590095
 20
-260.5585223392168
 11
275.4120540590095
 21
-260.8755223392168
  0
LINE
  5
2A2
100
AcDbEntity
  8
0
  6
ByLayer
 62
  256
370
   -1
100
AcDbLine
 10
275.4120540590095
 20
-260.8755223392168
 11
276.0445540590096
 21
-261.1495223392168
  0
LINE
  5
2A3
100
AcDbEntity
  8
0
  6
ByLayer
 62
  256
370
   -1
100
AcDbLine
 10
276.0445540590096
 20
-261.1495223392168
 11
276.2428540590095
 21
-261.2635223392168
  0
LINE
  5
2A4
100
AcDbEntity
  8
0
  6
ByLayer
 62
  256
370
   -1
100
AcDbLine
 10
276.2428540590095
 20
-261.2635223392168
 11
312.4847207471925
 21
-282.1726992409343
  0
ARC
  5
2A5
100
AcDbEntity
  8
0
  6
ByLayer
 62
  256
370
   -1
100
AcDbCircle
 10
312.9844505106532
 20
-281.306517872218
 40
1
100
AcDbArc
 50
240.0178770956076
 51
329.9314171781378
  0
LINE
  5
2A6
100
AcDbEntity
  8
0
  6
ByLayer
 62
  256
370
   -1
100
AcDbLine
 10
310.8691540590095
 20
-174.3865223392168
 11
310.8691540590095
 21
-188.3775223392168
  0
LINE
  5
2A7
100
AcDbEntity
  8
0
  6
ByLayer
 62
  256
370
   -1
100
AcDbLine
 10
315.4923938394285
 20
-239.7177336057684
 11
332.2563938394285
 21
-239.7177336057684
  0
LINE
  5
2A8
100
AcDbEntity
  8
0
  6
ByLayer
 62
  256
370
   -1
100
AcDbLine
 10
315.4923938394285
 20
-221.4457336057684
 11
332.2563938394285
 21
-221.4457336057684
  0
LINE
  5
2A9
100
AcDbEntity
  8
0
  6
ByLayer
 62
  256
370
   -1
100
AcDbLine
 10
336.1392632590096
 20
-238.1353552392169
 11
331.7764996099514
 21
-250.8433874643484
  0
LINE
  5
2AA
100
AcDbEntity
  8
0
  6
ByLayer
 62
  256
370
   -1
100
AcDbLine
 10
181.7508540590095
 20
-163.7275223392168
 11
183.0632676590095
 21
-163.4285751588489
  0
LWPOLYLINE
  5
2AB
100
AcDbEntity
  8
0
  6
ByLayer
 62
  256
370
   -1
100
AcDbPolyline
 90
    2
 70
    0
 43
0
 10
334.1612636590094
 20
-166.7673242392168
 10
334.1612636590094
 20
-200.0413242392168
  0
LINE
  5
2AC
100
AcDbEntity
  8
0
  6
ByLayer
 62
  256
370
   -1
100
AcDbLine
 10
333.8535680590094
 20
-163.4305817588489
 11
332.8642634590095
 21
-163.4305817588489
  0
ARC
  5
2AD
100
AcDbEntity
  8
0
  6
ByLayer
 62
  256
370
   -1
100
AcDbCircle
 10
333.8535680590094
 20
-165.7165817588489
 40
2.286
100
AcDbArc
 50
0
 51
90
  0
LWPOLYLINE
  5
2AE
100
AcDbEntity
  8
0
  6
ByLayer
 62
  256
370
   -1
100
AcDbPolyline
 90
    4
 70
    1
 43
0
 10
330.0340176590094
 20
-165.4973242392168
 10
334.1612636590094
 20
-165.4973242392168
 10
334.1612636590094
 20
-201.3113242392168
 10
330.0340176590094
 20
-201.3113242392168
  0
LWPOLYLINE
  5
2AF
100
AcDbEntity
  8
0
  6
ByLayer
 62
  256
370
   -1
100
AcDbPolyline
 90
    4
 70
    1
 43
0
 10
315.1112636590095
 20
-201.3113242392168
 10
319.2489998590095
 20
-201.3113242392168
 10
319.2489998590095
 20
-165.4973249335947
 10
315.1112636590095
 20
-165.4973249335947
  0
ARC
  5
2B0
100
AcDbEntity
  8
0
  6
ByLayer
 62
  256
370
   -1
100
AcDbCircle
 10
333.853424678253
 20
-207.3310081439811
 40
2.286
100
AcDbArc
 50
269.785
 51
359.785
  0
SPLINE
  5
2B1
100
AcDbEntity
  8
0
  6
ByLayer
 62
  256
370
   -1
100
AcDbSpline
210
0
220
0
230
0
 70
    8
 71
    2
 72
    6
 73
    3
 74
    0
 42
1e-007
 43
1e-007
 40
0
 40
0
 40
0
 40
1
 40
1
 40
1
 10
320.7951089659182
 20
-211.4890973321858
 30
0
 10
321.0772713180262
 20
-209.7214624925136
 30
0
 10
323.0437198390001
 20
-209.6129035711425
 30
0
  0
SPLINE
  5
2B2
100
AcDbEntity
  8
0
  6
ByLayer
 62
  256
370
   -1
100
AcDbSpline
210
0
220
0
230
0
 70
    8
 71
    2
 72
    6
 73
    3
 74
    0
 42
1e-007
 43
1e-007
 40
0
 40
0
 40
0
 40
1
 40
1
 40
1
 10
323.0456870548096
 20
-218.7064538684395
 30
0
 10
321.2562306397242
 20
-218.7511109829859
 30
0
 10
320.7911661690334
 20
-216.8373659991516
 30
0
  0
LINE
  5
2B3
100
AcDbEntity
  8
0
  6
ByLayer
 62
  256
370
   -1
100
AcDbLine
 10
323.0456870548096
 20
-218.7064538684395
 11
333.8867746949444
 21
-218.7088097741882
  0
LINE
  5
2B4
100
AcDbEntity
  8
0
  6
ByLayer
 62
  256
370
   -1
100
AcDbLine
 10
320.7951089659182
 20
-211.4890973321858
 11
320.7911661690334
 21
-216.8373659991516
  0
LINE
  5
2B5
100
AcDbEntity
  8
0
  6
ByLayer
 62
  256
370
   -1
100
AcDbLine
 10
323.0437198390001
 20
-209.6129035711425
 11
333.8448465796437
 21
-209.6169920494853
  0
LWPOLYLINE
  5
2B6
100
AcDbEntity
  8
0
  6
ByLayer
 62
  256
370
   -1
100
AcDbPolyline
 90
    3
 70
    0
 43
0
 10
307.0152676590095
 20
-163.4305817588489
 10
303.4592676590095
 20
-162.9205751588489
 10
279.8804476590095
 20
-156.5705751588488
  0
LWPOLYLINE
  5
2B7
100
AcDbEntity
  8
0
  6
ByLayer
 62
  256
370
   -1
100
AcDbPolyline
 90
    2
 70
    0
 43
0
 10
307.0152676590095
 20
-163.4305817588489
 10
332.8642634590095
 20
-163.4305817588489
  0
LWPOLYLINE
  5
2B8
100
AcDbEntity
  8
0
  6
ByLayer
 62
  256
370
   -1
100
AcDbPolyline
 90
    2
 70
    0
 43
0
 10
279.8804476590095
 20
-156.5705751588488
 10
237.1652676590095
 20
-156.5705751588488
  0
LWPOLYLINE
  5
2B9
100
AcDbEntity
  8
0
  6
ByLayer
 62
  256
370
   -1
100
AcDbPolyline
 90
    3
 70
    0
 43
0
 10
183.0632676590095
 20
-163.4285751588489
 10
237.1652676590095
 20
-156.5705751588488
 10
237.1652676590095
 20
-156.5705751588488
  0
LWPOLYLINE
  5
2BA
100
AcDbEntity
  8
0
  6
ByLayer
 62
  256
370
   -1
100
AcDbPolyline
 90
    4
 70
    1
 43
0
 10
315.2702676590095
 20
-221.4457336057684
 10
332.4152676590095
 20
-221.4457336057684
 10
332.4152676590095
 20
-239.7177336057684
 10
315.2702676590095
 20
-239.7177336057684
  0
LINE
  5
2BB
100
AcDbEntity
  8
0
  6
ByLayer
 62
  256
370
   -1
100
AcDbLine
 10
319.2443523210311
 20
-207.3900520737114
 11
319.6832636590093
 21
-207.3900520737114
  0
LWPOLYLINE
  5
2BC
100
AcDbEntity
  8
0
  6
ByLayer
 62
  256
370
   -1
100
AcDbPolyline
 90
    4
 70
    1
 43
0
 10
319.2443523210311
 20
-207.3900520737114
 10
330.2821749969876
 20
-207.3900520737114
 10
330.2821749969876
 20
-204.6305964047222
 10
319.2443523210311
 20
-204.6305964047222
  0
CIRCLE
  5
2BD
100
AcDbEntity
  8
0
  6
ByLayer
 62
  256
370
   -1
100
AcDbCircle
 10
316.5082636590093
 20
-206.8993242392168
 40
1.1999976
  0
CIRCLE
  5
2BE
100
AcDbEntity
  8
0
  6
ByLayer
 62
  256
370
   -1
100
AcDbCircle
 10
332.7642382590093
 20
-206.8992480392168
 40
1.1999976
  0
CIRCLE
  5
2BF
100
AcDbEntity
  8
0
  6
ByLayer
 62
  256
370
   -1
100
AcDbCircle
 10
327.2082422590092
 20
-243.1692288392168
 40
1.1999976
  0
CIRCLE
  5
2C0
100
AcDbEntity
  8
0
  6
ByLayer
 62
  256
370
   -1
100
AcDbCircle
 10
288.3462422590094
 20
-241.0099748392169
 40
1.1999976
  0
CIRCLE
  5
2C1
100
AcDbEntity
  8
0
  6
ByLayer
 62
  256
370
   -1
100
AcDbCircle
 10
237.6732422590094
 20
-233.6439748392169
 40
1.1999976
  0
CIRCLE
  5
2C2
100
AcDbEntity
  8
0
  6
ByLayer
 62
  256
370
   -1
100
AcDbCircle
 10
199.0652422590094
 20
-241.2639748392169
 40
1.1999976
  0
CIRCLE
  5
2C3
100
AcDbEntity
  8
0
  6
ByLayer
 62
  256
370
   -1
100
AcDbCircle
 10
199.0652422590094
 20
-183.8599748392168
 40
1.1999976
  0
CIRCLE
  5
2C4
100
AcDbEntity
  8
0
  6
ByLayer
 62
  256
370
   -1
100
AcDbCircle
 10
237.1649882590094
 20
-198.0839748392168
 40
1.1999976
  0
CIRCLE
  5
2C5
100
AcDbEntity
  8
0
  6
ByLayer
 62
  256
370
   -1
100
AcDbCircle
 10
237.1649882590094
 20
-161.7622288392167
 40
1.1999976
  0
CIRCLE
  5
2C6
100
AcDbEntity
  8
0
  6
ByLayer
 62
  256
370
   -1
100
AcDbCircle
 10
294.3150136590093
 20
-181.3200510392168
 40
1.1999976
  0
ARC
  5
2C7
100
AcDbEntity
  8
0
  6
ByLayer
 62
  256
370
   -1
100
AcDbCircle
 10
333.8554676393216
 20
-220.9945954908672
 40
2.286
100
AcDbArc
 50
359.2153
 51
89.21530000000004
  0
LINE
  5
2C8
100
AcDbEntity
  8
0
  6
ByLayer
 62
  256
370
   -1
100
AcDbLine
 10
336.1412532508232
 20
-221.0259026506268
 11
336.1392632590096
 21
-238.1353552392169
  0
CIRCLE
  5
2C9
100
AcDbEntity
  8
0
  6
ByLayer
 62
  256
370
   -1
100
AcDbCircle
 10
316.5082636590093
 20
-206.8993242392168
 40
1.1999976
  0
CIRCLE
  5
2CA
100
AcDbEntity
  8
0
  6
ByLayer
 62
  256
370
   -1
100
AcDbCircle
 10
332.7642382590093
 20
-206.8992480392168
 40
1.1999976
  0
CIRCLE
  5
2CB
100
AcDbEntity
  8
0
  6
ByLayer
 62
  256
370
   -1
100
AcDbCircle
 10
174.8271710590095
 20
-174.2376118392168
 40
2.599962000000005
  0
LINE
  5
2CC
100
AcDbEntity
  8
0
  6
ByLayer
 62
  256
370
   -1
100
AcDbLine
 10
177.3269460590095
 20
-169.2380628392168
 11
174.8271710590095
 21
-169.2380628392168
  0
LINE
  5
2CD
100
AcDbEntity
  8
0
  6
ByLayer
 62
  256
370
   -1
100
AcDbLine
 10
177.3269460590095
 20
-179.2378658392168
 11
174.8271710590095
 21
-179.2378658392168
  0
ARC
  5
2CE
100
AcDbEntity
  8
0
  6
ByLayer
 62
  256
370
   -1
100
AcDbCircle
 10
174.8271710590095
 20
-174.2376118392168
 40
4.999549000000002
100
AcDbArc
 50
90
 51
270
  0
SPLINE
  5
2CF
100
AcDbEntity
  8
0
  6
ByLayer
 62
  256
370
   -1
100
AcDbSpline
210
0
220
0
230
0
 70
    8
 71
    2
 72
    6
 73
    3
 74
    0
 42
1e-007
 43
1e-007
 40
0
 40
0
 40
0
 40
1
 40
1
 40
1
 10
177.3269460590095
 20
-179.2378658392168
 30
0
 10
179.4055049582425
 20
-179.3893827210618
 30
0
 10
179.7995560590095
 20
-181.3894488392168
 30
0
  0
SPLINE
  5
2D0
100
AcDbEntity
  8
0
  6
ByLayer
 62
  256
370
   -1
100
AcDbSpline
210
0
220
0
230
0
 70
    8
 71
    2
 72
    6
 73
    3
 74
    0
 42
1e-007
 43
1e-007
 40
0
 40
0
 40
0
 40
1
 40
1
 40
1
 10
177.3269460590095
 20
-169.2373578392168
 30
0
 10
179.4055049582425
 20
-169.0858409573717
 30
0
 10
179.7995560590095
 20
-167.0857748392168
 30
0
  0
CIRCLE
  5
2D1
100
AcDbEntity
  8
0
  6
ByLayer
 62
  256
370
   -1
100
AcDbCircle
 10
174.8271710590095
 20
-250.4409328392168
 40
2.599962000000005
  0
LINE
  5
2D2
100
AcDbEntity
  8
0
  6
ByLayer
 62
  256
370
   -1
100
AcDbLine
 10
177.3269460590095
 20
-255.4404818392168
 11
174.8271710590095
 21
-255.4404818392168
  0
LINE
  5
2D3
100
AcDbEntity
  8
0
  6
ByLayer
 62
  256
370
   -1
100
AcDbLine
 10
177.3269460590095
 20
-245.4406788392168
 11
174.8271710590095
 21
-245.4406788392168
  0
ARC
  5
2D4
100
AcDbEntity
  8
0
  6
ByLayer
 62
  256
370
   -1
100
AcDbCircle
 10
174.8271710590095
 20
-250.4409328392168
 40
4.999549000000002
100
AcDbArc
 50
90
 51
270
  0
SPLINE
  5
2D5
100
AcDbEntity
  8
0
  6
ByLayer
 62
  256
370
   -1
100
AcDbSpline
210
0
220
0
230
0
 70
    8
 71
    2
 72
    6
 73
    3
 74
    0
 42
1e-007
 43
1e-007
 40
0
 40
0
 40
0
 40
1
 40
1
 40
1
 10
177.3269460590095
 20
-245.4406788392168
 30
0
 10
179.4055049582425
 20
-245.2891619573717
 30
0
 10
179.7995560590095
 20
-243.2890958392168
 30
0
  0
SPLINE
  5
2D6
100
AcDbEntity
  8
0
  6
ByLayer
 62
  256
370
   -1
100
AcDbSpline
210
0
220
0
230
0
 70
    8
 71
    2
 72
    6
 73
    3
 74
    0
 42
1e-007
 43
1e-007
 40
0
 40
0
 40
0
 40
1
 40
1
 40
1
 10
177.3269460590095
 20
-255.4411868392168
 30
0
 10
179.4055049582425
 20
-255.5927037210618
 30
0
 10
179.7995560590095
 20
-257.5927698392168
 30
0
  0
CIRCLE
  5
2D7
100
AcDbEntity
  8
0
  6
ByLayer
 62
  256
370
   -1
100
AcDbCircle
 10
341.1119198408172
 20
-174.3851118392168
 40
2.599962000000005
  0
LINE
  5
2D8
100
AcDbEntity
  8
0
  6
ByLayer
 62
  256
370
   -1
100
AcDbLine
 10
338.6121448408172
 20
-169.3855628392168
 11
341.1119198408172
 21
-169.3855628392168
  0
LINE
  5
2D9
100
AcDbEntity
  8
0
  6
ByLayer
 62
  256
370
   -1
100
AcDbLine
 10
338.6121448408172
 20
-179.3853658392168
 11
341.1119198408172
 21
-179.3853658392168
  0
ARC
  5
2DA
100
AcDbEntity
  8
0
  6
ByLayer
 62
  256
370
   -1
100
AcDbCircle
 10
341.1119198408172
 20
-174.3851118392168
 40
4.999549000000002
100
AcDbArc
 50
270
 51
90
  0
SPLINE
  5
2DB
100
AcDbEntity
  8
0
  6
ByLayer
 62
  256
370
   -1
100
AcDbSpline
210
0
220
0
230
0
 70
    8
 71
    2
 72
    6
 73
    3
 74
    0
 42
1e-007
 43
1e-007
 40
0
 40
0
 40
0
 40
1
 40
1
 40
1
 10
338.6121448408172
 20
-179.3853658392168
 30
0
 10
336.5335859415842
 20
-179.5368827210619
 30
0
 10
336.1395348408172
 20
-181.5369488392168
 30
0
  0
SPLINE
  5
2DC
100
AcDbEntity
  8
0
  6
ByLayer
 62
  256
370
   -1
100
AcDbSpline
210
0
220
0
230
0
 70
    8
 71
    2
 72
    6
 73
    3
 74
    0
 42
1e-007
 43
1e-007
 40
0
 40
0
 40
0
 40
1
 40
1
 40
1
 10
338.6121448408172
 20
-169.3848578392168
 30
0
 10
336.5335859415842
 20
-169.2333409573717
 30
0
 10
336.1395348408172
 20
-167.2332748392168
 30
0
  0
LINE
  5
2DD
100
AcDbEntity
  8
0
  6
ByLayer
 62
  256
370
   -1
100
AcDbLine
 10
323.8106648934277
 20
-269.5880018080776
 11
325.9739393208743
 21
-270.8406465311257
  0
LINE
  5
2DE
100
AcDbEntity
  8
0
  6
ByLayer
 62
  256
370
   -1
100
AcDbLine
 10
318.7997337258342
 20
-278.2417078853863
 11
320.9630081532809
 21
-279.4943526084344
  0
ARC
  5
2DF
100
AcDbEntity
  8
0
  6
ByLayer
 62
  256
370
   -1
100
AcDbCircle
 10
323.4686503758811
 20
-275.1671945206314
 40
4.999549000000002
100
AcDbArc
 50
239.927
 51
59.92700000000005
  0
SPLINE
  5
2E0
100
AcDbEntity
  8
0
  6
ByLayer
 62
  256
370
   -1
100
AcDbSpline
210
0
220
0
230
0
 70
    8
 71
    2
 72
    6
 73
    3
 74
    0
 42
1e-007
 43
1e-007
 40
0
 40
0
 40
0
 40
1
 40
1
 40
1
 10
318.7997337258342
 20
-278.2417078853863
 30
0
 10
316.925048950145
 20
-277.3312566484362
 30
0
 10
315.5818028827788
 20
-278.8646289937953
 30
0
  0
SPLINE
  5
2E1
100
AcDbEntity
  8
0
  6
ByLayer
 62
  256
370
   -1
100
AcDbSpline
210
0
220
0
230
0
 70
    8
 71
    2
 72
    6
 73
    3
 74
    0
 42
1e-007
 43
1e-007
 40
0
 40
0
 40
0
 40
1
 40
1
 40
1
 10
323.8110181710346
 20
-269.5873917097802
 30
0
 10
322.0881845199435
 20
-268.4146987944215
 30
0
 10
322.74941667054
 20
-266.4864060806396
 30
0
  0
CIRCLE
  5
2E2
100
AcDbEntity
  8
0
  6
ByLayer
 62
  256
370
   -1
100
AcDbCircle
 10
323.4686503758811
 20
-275.1671945206314
 40
2.599962000000005
  0
LINE
  5
2E3
100
AcDbEntity
  8
0
  6
ByLayer
 62
  256
370
   -1
100
AcDbLine
 10
322.74941667054
 20
-266.4864060806396
 11
331.7764996099514
 21
-250.8433874643485
  0
LINE
  5
2E4
100
AcDbEntity
  8
0
  6
ByLayer
 62
  256
370
   -1
100
AcDbLine
 10
315.5818028827788
 20
-278.8646289937953
 11
313.8498767961343
 21
-281.8075541427597
  0
LINE
  5
2E5
100
AcDbEntity
  8
0
  6
ByLayer
 62
  256
370
   -1
100
AcDbLine
 10
179.7995560590095
 20
-166.1665223392168
 11
179.7995560590095
 21
-167.0857748392168
  0
LINE
  5
2E6
100
AcDbEntity
  8
0
  6
ByLayer
 62
  256
370
   -1
100
AcDbLine
 10
179.7995560590095
 20
-181.3894488392168
 11
179.7995560590095
 21
-243.2890958392168
  0
LINE
  5
2E7
100
AcDbEntity
  8
0
  6
ByLayer
 62
  256
370
   -1
100
AcDbLine
 10
179.7995560590095
 20
-257.5927698392168
 11
179.7995560590095
 21
-258.2655223392167
  0
LINE
  5
2E8
100
AcDbEntity
  8
0
  6
ByLayer
 62
  256
370
   -1
100
AcDbLine
 10
336.1395348408172
 20
-167.2332748392168
 11
336.1395680590094
 21
-165.7165817588489
  0
LINE
  5
2E9
100
AcDbEntity
  8
0
  6
ByLayer
 62
  256
370
   -1
100
AcDbLine
 10
336.1395348408172
 20
-181.5369488392168
 11
336.1394085837572
 21
-207.3395862425904
  0
LINE
  5
2EA
100
AcDbEntity
  8
0
  6
ByLayer
 62
  256
370
   -1
100
AcDbLine
 10
272.9712190859518
 20
-269.5880018080776
 11
275.1344935133984
 21
-270.8406465311257
  0
LINE
  5
2EB
100
AcDbEntity
  8
0
  6
ByLayer
 62
  256
370
   -1
100
AcDbLine
 10
267.9602879183583
 20
-278.2417078853863
 11
270.123562345805
 21
-279.4943526084344
  0
ARC
  5
2EC
100
AcDbEntity
  8
0
  6
ByLayer
 62
  256
370
   -1
100
AcDbCircle
 10
272.6292045684052
 20
-275.1671945206314
 40
4.999549000000002
100
AcDbArc
 50
239.927
 51
59.92700000000005
  0
SPLINE
  5
2ED
100
AcDbEntity
  8
0
  6
ByLayer
 62
  256
370
   -1
100
AcDbSpline
210
0
220
0
230
0
 70
    8
 71
    2
 72
    6
 73
    3
 74
    0
 42
1e-007
 43
1e-007
 40
0
 40
0
 40
0
 40
1
 40
1
 40
1
 10
267.9602879183583
 20
-278.2417078853863
 30
0
 10
266.0856031426691
 20
-277.3312566484362
 30
0
 10
264.7423570753029
 20
-278.8646289937953
 30
0
  0
SPLINE
  5
2EE
100
AcDbEntity
  8
0
  6
ByLayer
 62
  256
370
   -1
100
AcDbSpline
210
0
220
0
230
0
 70
    8
 71
    2
 72
    6
 73
    3
 74
    0
 42
1e-007
 43
1e-007
 40
0
 40
0
 40
0
 40
1
 40
1
 40
1
 10
272.9715723635587
 20
-269.5873917097802
 30
0
 10
271.2487387124676
 20
-268.4146987944215
 30
0
 10
271.9099708630641
 20
-266.4864060806396
 30
0
  0
CIRCLE
  5
2EF
100
AcDbEntity
  8
0
  6
ByLayer
 62
  256
370
   -1
100
AcDbCircle
 10
272.6292045684052
 20
-275.1671945206314
 40
2.599962000000005
  0
LINE
  5
2F0
100
AcDbEntity
  8
0
  6
ByLayer
 62
  256
370
   -1
100
AcDbLine
 10
271.9099708630641
 20
-266.4864060806396
 11
264.7423570753029
 21
-278.8646289937953
  0
LINE
  5
2F1
100
AcDbEntity
  8
0
  6
ByLayer
 62
  256
370
   -1
100
AcDbLine
 10
258.5553669003751
 20
-269.5880018080776
 11
260.7186413278218
 21
-270.8406465311257
  0
LINE
  5
2F2
100
AcDbEntity
  8
0
  6
ByLayer
 62
  256
370
   -1
100
AcDbLine
 10
253.5444357327817
 20
-278.2417078853863
 11
255.7077101602284
 21
-279.4943526084344
  0
ARC
  5
2F3
100
AcDbEntity
  8
0
  6
ByLayer
 62
  256
370
   -1
100
AcDbCircle
 10
258.2133523828285
 20
-275.1671945206314
 40
4.999549000000002
100
AcDbArc
 50
239.927
 51
59.92700000000005
  0
SPLINE
  5
2F4
100
AcDbEntity
  8
0
  6
ByLayer
 62
  256
370
   -1
100
AcDbSpline
210
0
220
0
230
0
 70
    8
 71
    2
 72
    6
 73
    3
 74
    0
 42
1e-007
 43
1e-007
 40
0
 40
0
 40
0
 40
1
 40
1
 40
1
 10
253.5444357327817
 20
-278.2417078853863
 30
0
 10
251.6697509570926
 20
-277.3312566484362
 30
0
 10
250.3265048897263
 20
-278.8646289937953
 30
0
  0
SPLINE
  5
2F5
100
AcDbEntity
  8
0
  6
ByLayer
 62
  256
370
   -1
100
AcDbSpline
210
0
220
0
230
0
 70
    8
 71
    2
 72
    6
 73
    3
 74
    0
 42
1e-007
 43
1e-007
 40
0
 40
0
 40
0
 40
1
 40
1
 40
1
 10
258.555720177982
 20
-269.5873917097802
 30
0
 10
256.8328865268909
 20
-268.4146987944215
 30
0
 10
257.4941186774874
 20
-266.4864060806396
 30
0
  0
CIRCLE
  5
2F6
100
AcDbEntity
  8
0
  6
ByLayer
 62
  256
370
   -1
100
AcDbCircle
 10
258.2133523828285
 20
-275.1671945206314
 40
2.599962000000005
  0
LINE
  5
2F7
100
AcDbEntity
  8
0
  6
ByLayer
 62
  256
370
   -1
100
AcDbLine
 10
257.4941186774874
 20
-266.4864060806396
 11
250.3265048897263
 21
-278.8646289937953
  0
CIRCLE
  5
2F8
100
AcDbEntity
  8
0
  6
ByLayer
 62
  256
370
   -1
100
AcDbCircle
 10
237.255296319885
 20
-275.1671945206314
 40
2.599962000000005
  0
LINE
  5
2F9
100
AcDbEntity
  8
0
  6
ByLayer
 62
  256
370
   -1
100
AcDbLine
 10
239.755071319885
 20
-280.1667435206314
 11
237.255296319885
 21
-280.1667435206314
  0
LINE
  5
2FA
100
AcDbEntity
  8
0
  6
ByLayer
 62
  256
370
   -1
100
AcDbLine
 10
239.755071319885
 20
-270.1669405206314
 11
237.255296319885
 21
-270.1669405206314
  0
ARC
  5
2FB
100
AcDbEntity
  8
0
  6
ByLayer
 62
  256
370
   -1
100
AcDbCircle
 10
237.255296319885
 20
-275.1671945206314
 40
4.999549000000002
100
AcDbArc
 50
90
 51
270
  0
SPLINE
  5
2FC
100
AcDbEntity
  8
0
  6
ByLayer
 62
  256
370
   -1
100
AcDbSpline
210
0
220
0
230
0
 70
    8
 71
    2
 72
    6
 73
    3
 74
    0
 42
1e-007
 43
1e-007
 40
0
 40
0
 40
0
 40
1
 40
1
 40
1
 10
239.755071319885
 20
-270.1669405206314
 30
0
 10
241.833630219118
 20
-270.0154236387864
 30
0
 10
242.227681319885
 20
-268.0153575206314
 30
0
  0
SPLINE
  5
2FD
100
AcDbEntity
  8
0
  6
ByLayer
 62
  256
370
   -1
100
AcDbSpline
210
0
220
0
230
0
 70
    8
 71
    2
 72
    6
 73
    3
 74
    0
 42
1e-007
 43
1e-007
 40
0
 40
0
 40
0
 40
1
 40
1
 40
1
 10
239.755071319885
 20
-280.1674485206314
 30
0
 10
241.833630219118
 20
-280.3189654024765
 30
0
 10
242.227681319885
 20
-282.3190315206314
 30
0
  0
LINE
  5
2FE
100
AcDbEntity
  8
0
  6
ByLayer
 62
  256
370
   -1
100
AcDbLine
 10
242.227681319885
 20
-268.0153575206314
 11
242.227681319885
 21
-282.3190315206314
  0
CIRCLE
  5
2FF
100
AcDbEntity
  8
0
  6
ByLayer
 62
  256
370
   -1
100
AcDbCircle
 10
226.3368823643513
 20
-275.1671945206314
 40
2.599962000000005
  0
LINE
  5
300
100
AcDbEntity
  8
0
  6
ByLayer
 62
  256
370
   -1
100
AcDbLine
 10
228.8366573643513
 20
-280.1667435206314
 11
226.3368823643513
 21
-280.1667435206314
  0
LINE
  5
301
100
AcDbEntity
  8
0
  6
ByLayer
 62
  256
370
   -1
100
AcDbLine
 10
228.8366573643513
 20
-270.1669405206314
 11
226.3368823643513
 21
-270.1669405206314
  0
ARC
  5
302
100
AcDbEntity
  8
0
  6
ByLayer
 62
  256
370
   -1
100
AcDbCircle
 10
226.3368823643513
 20
-275.1671945206314
 40
4.999549000000002
100
AcDbArc
 50
90
 51
270
  0
SPLINE
  5
303
100
AcDbEntity
  8
0
  6
ByLayer
 62
  256
370
   -1
100
AcDbSpline
210
0
220
0
230
0
 70
    8
 71
    2
 72
    6
 73
    3
 74
    0
 42
1e-007
 43
1e-007
 40
0
 40
0
 40
0
 40
1
 40
1
 40
1
 10
228.8366573643513
 20
-270.1669405206314
 30
0
 10
230.9152162635844
 20
-270.0154236387864
 30
0
 10
231.3092673643513
 20
-268.0153575206314
 30
0
  0
SPLINE
  5
304
100
AcDbEntity
  8
0
  6
ByLayer
 62
  256
370
   -1
100
AcDbSpline
210
0
220
0
230
0
 70
    8
 71
    2
 72
    6
 73
    3
 74
    0
 42
1e-007
 43
1e-007
 40
0
 40
0
 40
0
 40
1
 40
1
 40
1
 10
228.8366573643513
 20
-280.1674485206314
 30
0
 10
230.9152162635843
 20
-280.3189654024765
 30
0
 10
231.3092673643513
 20
-282.3190315206314
 30
0
  0
LINE
  5
305
100
AcDbEntity
  8
0
  6
ByLayer
 62
  256
370
   -1
100
AcDbLine
 10
231.3092673643513
 20
-268.0153575206314
 11
231.3092673643513
 21
-282.3190315206314
  0
CIRCLE
  5
306
100
AcDbEntity
  8
0
  6
ByLayer
 62
  256
370
   -1
100
AcDbCircle
 10
215.3312324841264
 20
-275.1671945206314
 40
2.599962000000005
  0
LINE
  5
307
100
AcDbEntity
  8
0
  6
ByLayer
 62
  256
370
   -1
100
AcDbLine
 10
217.8310074841264
 20
-280.1667435206314
 11
215.3312324841264
 21
-280.1667435206314
  0
LINE
  5
308
100
AcDbEntity
  8
0
  6
ByLayer
 62
  256
370
   -1
100
AcDbLine
 10
217.8310074841264
 20
-270.1669405206314
 11
215.3312324841264
 21
-270.1669405206314
  0
ARC
  5
309
100
AcDbEntity
  8
0
  6
ByLayer
 62
  256
370
   -1
100
AcDbCircle
 10
215.3312324841264
 20
-275.1671945206314
 40
4.999549000000002
100
AcDbArc
 50
90
 51
270
  0
SPLINE
  5
30A
100
AcDbEntity
  8
0
  6
ByLayer
 62
  256
370
   -1
100
AcDbSpline
210
0
220
0
230
0
 70
    8
 71
    2
 72
    6
 73
    3
 74
    0
 42
1e-007
 43
1e-007
 40
0
 40
0
 40
0
 40
1
 40
1
 40
1
 10
217.8310074841264
 20
-270.1669405206314
 30
0
 10
219.9095663833594
 20
-270.0154236387864
 30
0
 10
220.3036174841264
 20
-268.0153575206314
 30
0
  0
SPLINE
  5
30B
100
AcDbEntity
  8
0
  6
ByLayer
 62
  256
370
   -1
100
AcDbSpline
210
0
220
0
230
0
 70
    8
 71
    2
 72
    6
 73
    3
 74
    0
 42
1e-007
 43
1e-007
 40
0
 40
0
 40
0
 40
1
 40
1
 40
1
 10
217.8310074841264
 20
-280.1674485206314
 30
0
 10
219.9095663833594
 20
-280.3189654024765
 30
0
 10
220.3036174841264
 20
-282.3190315206314
 30
0
  0
LINE
  5
30C
100
AcDbEntity
  8
0
  6
ByLayer
 62
  256
370
   -1
100
AcDbLine
 10
220.3036174841264
 20
-268.0153575206314
 11
220.3036174841264
 21
-282.3190315206314
  0
CIRCLE
  5
30D
100
AcDbEntity
  8
0
  6
ByLayer
 62
  256
370
   -1
100
AcDbCircle
 10
204.4773846712148
 20
-275.1671945206314
 40
2.599962000000005
  0
LINE
  5
30E
100
AcDbEntity
  8
0
  6
ByLayer
 62
  256
370
   -1
100
AcDbLine
 10
206.9771596712148
 20
-280.1667435206314
 11
204.4773846712148
 21
-280.1667435206314
  0
LINE
  5
30F
100
AcDbEntity
  8
0
  6
ByLayer
 62
  256
370
   -1
100
AcDbLine
 10
206.9771596712148
 20
-270.1669405206314
 11
204.4773846712148
 21
-270.1669405206314
  0
ARC
  5
310
100
AcDbEntity
  8
0
  6
ByLayer
 62
  256
370
   -1
100
AcDbCircle
 10
204.4773846712148
 20
-275.1671945206314
 40
4.999549000000002
100
AcDbArc
 50
90
 51
270
  0
SPLINE
  5
311
100
AcDbEntity
  8
0
  6
ByLayer
 62
  256
370
   -1
100
AcDbSpline
210
0
220
0
230
0
 70
    8
 71
    2
 72
    6
 73
    3
 74
    0
 42
1e-007
 43
1e-007
 40
0
 40
0
 40
0
 40
1
 40
1
 40
1
 10
206.9771596712148
 20
-270.1669405206314
 30
0
 10
209.0557185704478
 20
-270.0154236387864
 30
0
 10
209.4497696712148
 20
-268.0153575206314
 30
0
  0
SPLINE
  5
312
100
AcDbEntity
  8
0
  6
ByLayer
 62
  256
370
   -1
100
AcDbSpline
210
0
220
0
230
0
 70
    8
 71
    2
 72
    6
 73
    3
 74
    0
 42
1e-007
 43
1e-007
 40
0
 40
0
 40
0
 40
1
 40
1
 40
1
 10
206.9771596712148
 20
-280.1674485206314
 30
0
 10
209.0557185704478
 20
-280.3189654024765
 30
0
 10
209.4497696712148
 20
-282.3190315206314
 30
0
  0
LINE
  5
313
100
AcDbEntity
  8
0
  6
ByLayer
 62
  256
370
   -1
100
AcDbLine
 10
209.4497696712148
 20
-268.0153575206314
 11
209.4497696712148
 21
-282.3190315206314
  0
CIRCLE
  5
314
100
AcDbEntity
  8
0
  6
ByLayer
 62
  256
370
   -1
100
AcDbCircle
 10
192.9772562164185
 20
-275.1671945206314
 40
2.599962000000005
  0
LINE
  5
315
100
AcDbEntity
  8
0
  6
ByLayer
 62
  256
370
   -1
100
AcDbLine
 10
190.4774812164185
 20
-270.1676455206314
 11
192.9772562164185
 21
-270.1676455206314
  0
LINE
  5
316
100
AcDbEntity
  8
0
  6
ByLayer
 62
  256
370
   -1
100
AcDbLine
 10
190.4774812164185
 20
-280.1674485206314
 11
192.9772562164185
 21
-280.1674485206314
  0
ARC
  5
317
100
AcDbEntity
  8
0
  6
ByLayer
 62
  256
370
   -1
100
AcDbCircle
 10
192.9772562164185
 20
-275.1671945206314
 40
4.999549000000002
100
AcDbArc
 50
270
 51
90
  0
SPLINE
  5
318
100
AcDbEntity
  8
0
  6
ByLayer
 62
  256
370
   -1
100
AcDbSpline
210
0
220
0
230
0
 70
    8
 71
    2
 72
    6
 73
    3
 74
    0
 42
1e-007
 43
1e-007
 40
0
 40
0
 40
0
 40
1
 40
1
 40
1
 10
190.4774812164185
 20
-280.1674485206314
 30
0
 10
188.3989223171855
 20
-280.3189654024765
 30
0
 10
188.0048712164185
 20
-282.3190315206314
 30
0
  0
SPLINE
  5
319
100
AcDbEntity
  8
0
  6
ByLayer
 62
  256
370
   -1
100
AcDbSpline
210
0
220
0
230
0
 70
    8
 71
    2
 72
    6
 73
    3
 74
    0
 42
1e-007
 43
1e-007
 40
0
 40
0
 40
0
 40
1
 40
1
 40
1
 10
190.4774812164185
 20
-270.1669405206314
 30
0
 10
188.3989223171855
 20
-270.0154236387863
 30
0
 10
188.0048712164185
 20
-268.0153575206314
 30
0
  0
CIRCLE
  5
31A
100
AcDbEntity
  8
0
  6
ByLayer
 62
  256
370
   -1
100
AcDbCircle
 10
181.2947765799985
 20
-275.1671945206314
 40
2.599962000000005
  0
LINE
  5
31B
100
AcDbEntity
  8
0
  6
ByLayer
 62
  256
370
   -1
100
AcDbLine
 10
178.7950015799985
 20
-270.1676455206314
 11
181.2947765799985
 21
-270.1676455206314
  0
LINE
  5
31C
100
AcDbEntity
  8
0
  6
ByLayer
 62
  256
370
   -1
100
AcDbLine
 10
178.7950015799985
 20
-280.1674485206314
 11
181.2947765799985
 21
-280.1674485206314
  0
ARC
  5
31D
100
AcDbEntity
  8
0
  6
ByLayer
 62
  256
370
   -1
100
AcDbCircle
 10
181.2947765799985
 20
-275.1671945206314
 40
4.999549000000002
100
AcDbArc
 50
270
 51
90
  0
SPLINE
  5
31E
100
AcDbEntity
  8
0
  6
ByLayer
 62
  256
370
   -1
100
AcDbSpline
210
0
220
0
230
0
 70
    8
 71
    2
 72
    6
 73
    3
 74
    0
 42
1e-007
 43
1e-007
 40
0
 40
0
 40
0
 40
1
 40
1
 40
1
 10
178.7950015799985
 20
-280.1674485206314
 30
0
 10
176.7164426807656
 20
-280.3189654024765
 30
0
 10
176.3223915799986
 20
-282.3190315206314
 30
0
  0
SPLINE
  5
31F
100
AcDbEntity
  8
0
  6
ByLayer
 62
  256
370
   -1
100
AcDbSpline
210
0
220
0
230
0
 70
    8
 71
    2
 72
    6
 73
    3
 74
    0
 42
1e-007
 43
1e-007
 40
0
 40
0
 40
0
 40
1
 40
1
 40
1
 10
178.7950015799985
 20
-270.1669405206314
 30
0
 10
176.7164426807656
 20
-270.0154236387863
 30
0
 10
176.3223915799986
 20
-268.0153575206314
 30
0
  0
LINE
  5
320
100
AcDbEntity
  8
0
  6
ByLayer
 62
  256
370
   -1
100
AcDbLine
 10
176.3223915799986
 20
-268.0153575206314
 11
176.3223915799986
 21
-282.3190315206314
  0
LINE
  5
321
100
AcDbEntity
  8
0
  6
ByLayer
 62
  256
370
   -1
100
AcDbLine
 10
188.0048712164185
 20
-268.0153575206314
 11
188.0048712164185
 21
-282.3190315206314
  0
LINE
  5
322
100
AcDbEntity
  8
0
  6
ByLayer
 62
  256
370
   -1
100
AcDbLine
 10
288.5679620590096
 20
-254.2756183392169
 11
295.5533620590095
 21
-242.1476183392169
  0
LINE
  5
323
100
AcDbEntity
  8
0
  6
ByLayer
 62
  256
370
   -1
100
AcDbLine
 10
295.5533620590095
 20
-242.1476183392169
 11
307.6814620590096
 21
-249.1536183392169
  0
LINE
  5
324
100
AcDbEntity
  8
0
  6
ByLayer
 62
  256
370
   -1
100
AcDbLine
 10
307.6814620590096
 20
-249.1536183392169
 11
300.6753620590096
 21
-261.2816183392169
  0
LINE
  5
325
100
AcDbEntity
  8
0
  6
ByLayer
 62
  256
370
   -1
100
AcDbLine
 10
300.6753620590096
 20
-261.2816183392169
 11
288.5679620590096
 21
-254.2756183392169
  0
LINE
  5
326
100
AcDbEntity
  8
0
  6
ByLayer
 62
  256
370
   -1
100
AcDbLine
 10
309.8285240590095
 20
-255.5517143392168
 11
316.8139240590095
 21
-243.4237143392168
  0
LINE
  5
327
100
AcDbEntity
  8
0
  6
ByLayer
 62
  256
370
   -1
100
AcDbLine
 10
316.8139240590095
 20
-243.4237143392168
 11
328.9420240590095
 21
-250.4297143392168
  0
LINE
  5
328
100
AcDbEntity
  8
0
  6
ByLayer
 62
  256
370
   -1
100
AcDbLine
 10
328.9420240590095
 20
-250.4297143392168
 11
321.9359240590095
 21
-262.5577143392168
  0
LINE
  5
329
100
AcDbEntity
  8
0
  6
ByLayer
 62
  256
370
   -1
100
AcDbLine
 10
321.9359240590095
 20
-262.5577143392168
 11
309.8285240590095
 21
-255.5517143392168
  0
LINE
  5
32A
100
AcDbEntity
  8
0
  6
ByLayer
 62
  256
370
   -1
100
AcDbLine
 10
300.3035240590097
 20
-272.0495223392169
 11
307.2889240590097
 21
-259.9215223392169
  0
LINE
  5
32B
100
AcDbEntity
  8
0
  6
ByLayer
 62
  256
370
   -1
100
AcDbLine
 10
307.2889240590097
 20
-259.9215223392169
 11
319.4170240590097
 21
-266.9275223392169
  0
LINE
  5
32C
100
AcDbEntity
  8
0
  6
ByLayer
 62
  256
370
   -1
100
AcDbLine
 10
319.4170240590097
 20
-266.9275223392169
 11
312.4109240590097
 21
-279.0555223392169
  0
LINE
  5
32D
100
AcDbEntity
  8
0
  6
ByLayer
 62
  256
370
   -1
100
AcDbLine
 10
312.4109240590097
 20
-279.0555223392169
 11
300.3035240590097
 21
-272.0495223392169
  0
LINE
  5
32E
100
AcDbEntity
  8
Multi-Layer
  6
ByLayer
 62
  256
370
   -1
100
AcDbLine
 10
313.8498767961343
 20
-132.8233469966197
 11
331.7764996099514
 21
-101.8591803182086
  0
LWPOLYLINE
  5
32F
100
AcDbEntity
  8
Multi-Layer
  6
ByLayer
 62
  256
370
   -1
100
AcDbPolyline
 90
    3
 70
    0
 43
0
 10
307.0152676590095
 20
-14.44637461270894
 10
303.4592676590095
 20
-13.93636801270894
 10
279.8804476590095
 20
-7.586368012708945
  0
ARC
  5
330
100
AcDbEntity
  8
Multi-Layer
  6
ByLayer
 62
  256
370
   -1
100
AcDbCircle
 10
312.8254780475079
 20
-16.73216022421055
 40
2.286
100
AcDbArc
 50
359.2153
 51
89.21530000000004
  0
LINE
  5
331
100
AcDbEntity
  8
Multi-Layer
  6
ByLayer
 62
  256
370
   -1
100
AcDbLine
 10
307.0152676590095
 20
-14.44637461270894
 11
312.8567852072317
 21
-14.44637461270894
  0
LINE
  5
332
100
AcDbEntity
  8
Multi-Layer
  6
ByLayer
 62
  256
370
   -1
100
AcDbLine
 10
315.1112636590095
 20
-16.76346738397011
 11
315.1112636590095
 21
-52.32711709307696
  0
SPLINE
  5
333
100
AcDbEntity
  8
Multi-Layer
  6
ByLayer
 62
  256
370
   -1
100
AcDbSpline
210
0
220
0
230
0
 70
    8
 71
    2
 72
    6
 73
    3
 74
    0
 42
1e-007
 43
1e-007
 40
0
 40
0
 40
0
 40
1
 40
1
 40
1
 10
330.9582282353883
 20
-99.95229048631076
 30
0
 10
332.2234286395836
 20
-100.6278562093876
 30
0
 10
331.7764996099514
 20
-101.8591803182086
 30
0
  0
SPLINE
  5
334
100
AcDbEntity
  8
Multi-Layer
  6
ByLayer
 62
  256
370
   -1
100
AcDbSpline
210
0
220
0
230
0
 70
    8
 71
    2
 72
    6
 73
    3
 74
    0
 42
1e-007
 43
1e-007
 40
0
 40
0
 40
0
 40
1
 40
1
 40
1
 10
315.1112636590095
 20
-89.12425068667267
 30
0
 10
315.1613247872716
 20
-90.69299485480512
 30
0
 10
316.3644098205227
 20
-91.52192696568109
 30
0
  0
LINE
  5
335
100
AcDbEntity
  8
Multi-Layer
  6
ByLayer
 62
  256
370
   -1
100
AcDbLine
 10
315.1112636590095
 20
-52.32711709307696
 11
315.1112636590095
 21
-89.12425068667267
  0
LINE
  5
336
100
AcDbEntity
  8
Multi-Layer
  6
ByLayer
 62
  256
370
   -1
100
AcDbLine
 10
316.3644098205227
 20
-91.52192696568109
 11
330.9582282353883
 21
-99.95229048631076
  0
CIRCLE
  5
337
100
AcDbEntity
  8
0
  6
ByLayer
 62
  256
370
   -1
100
AcDbCircle
 10
390.1536312947514
 20
-94.18494549307688
 40
1.1999976
  0
CIRCLE
  5
338
100
AcDbEntity
  8
0
  6
ByLayer
 62
  256
370
   -1
100
AcDbCircle
 10
379.4536526947515
 20
-57.91504089307686
 40
1.1999976
  0
CIRCLE
  5
339
100
AcDbEntity
  8
0
  6
ByLayer
 62
  256
370
   -1
100
AcDbCircle
 10
395.7096272947515
 20
-57.9149646930769
 40
1.1999976
  0
CIRCLE
  5
33A
100
AcDbEntity
  8
0
  6
ByLayer
 62
  256
370
   -1
100
AcDbCircle
 10
386.8198812947514
 20
-80.61575749307694
 40
7.999984
  0
LINE
  5
33B
100
AcDbEntity
  8
0
  6
ByLayer
 62
  256
370
   -1
100
AcDbLine
 10
377.4121702174221
 20
-68.33929206313802
 11
377.4121702174221
 21
-87.49039551163089
  0
SPLINE
  5
33C
100
AcDbEntity
  8
0
  6
ByLayer
 62
  256
370
   -1
100
AcDbSpline
210
0
220
0
230
0
 70
    8
 71
    2
 72
    6
 73
    3
 74
    0
 42
1e-007
 43
1e-007
 40
0
 40
0
 40
0
 40
1
 40
1
 40
1
 10
377.4121702174221
 20
-87.49039551163089
 30
0
 10
377.384598853271
 20
-89.11034137867395
 30
0
 10
378.4350499442284
 20
-89.89682928635803
 30
0
  0
ARC
  5
33D
100
AcDbEntity
  8
0
  6
ByLayer
 62
  256
370
   -1
100
AcDbCircle
 10
379.6979558286154
 20
-16.73208402420167
 40
2.286
100
AcDbArc
 50
90.78470000000002
 51
180.7847
  0
LINE
  5
33E
100
AcDbEntity
  8
0
  6
ByLayer
 62
  256
370
   -1
100
AcDbLine
 10
377.4121702174221
 20
-68.33929206313802
 11
377.4121702171137
 21
-16.76339118396123
  0
LINE
  5
33F
100
AcDbEntity
  8
0
  6
ByLayer
 62
  256
370
   -1
100
AcDbLine
 10
399.0846522947517
 20
-89.15107189307713
 11
399.0846522947517
 21
-16.76339118414606
  0
ARC
  5
340
100
AcDbEntity
  8
0
  6
ByLayer
 62
  256
370
   -1
100
AcDbCircle
 10
396.79886668325
 20
-16.7320840243865
 40
2.286
100
AcDbArc
 50
359.2153
 51
89.21530000000004
  0
LINE
  5
341
100
AcDbEntity
  8
0
  6
ByLayer
 62
  256
370
   -1
100
AcDbLine
 10
399.0846522947517
 20
-89.151071893077
 11
395.8455105183077
 21
-98.58617344521045
  0
LINE
  5
342
100
AcDbEntity
  8
0
  6
ByLayer
 62
  256
370
   -1
100
AcDbLine
 10
378.4350499442284
 20
-89.89682928635803
 11
394.3123647841105
 21
-99.06862600375104
  0
SPLINE
  5
343
100
AcDbEntity
  8
0
  6
ByLayer
 62
  256
370
   -1
100
AcDbSpline
210
0
220
0
230
0
 70
    8
 71
    2
 72
    6
 73
    3
 74
    0
 42
1e-007
 43
1e-007
 40
0
 40
0
 40
0
 40
1
 40
1
 40
1
 10
394.3123647841105
 20
-99.06862600375104
 30
0
 10
395.3886597794552
 20
-99.70082154653591
 30
0
 10
395.8455105183077
 20
-98.58617344521045
 30
0
  0
LINE
  5
344
100
AcDbEntity
  8
0
  6
ByLayer
 62
  256
370
   -1
100
AcDbLine
 10
396.8301738430096
 20
-14.44629841288489
 11
379.6666486688558
 21
-14.44629841270006
  0
ENDSEC
  0
SECTION
  2
OBJECTS
  0
DICTIONARY
  5
C
330
0
100
AcDbDictionary
281
    1
  3
ACAD_GROUP
350
D
  0
DICTIONARY
  5
D
330
C
100
AcDbDictionary
281
    1
  0
PLOTSETTINGS
  5
345
100
AcDbPlotSettings
  6
1x1
 40
0
 41
0
 42
0
 43
0
  0
ENDSEC
  0
EOF
